<svg xmlns="http://www.w3.org/2000/svg" version="1.0" viewBox="0 0 8.23 10"><path d="M6.84 3.71C5.91 1.7 5.35.52 5.16.18 5.1.07 5.03.01 4.96.01c-.1 0-.25.01-.46.02-.21.01-.36.02-.47.02-.11 0-.27-.01-.5-.02S3.15 0 3.05 0c-.07 0-.12.06-.17.19-.08.21-.6 1.41-1.56 3.58C.44 5.77 0 6.82 0 6.9c0 .1.3.15.9.15.76 0 1.2-.01 1.34-.04.11-.02.2-.17.27-.44.08-.3.16-.47.22-.53.04-.03.39-.04 1.06-.04.98 0 1.51.01 1.57.03.07.03.18.28.31.76.04.12.12.2.25.22.16.02.52.04 1.08.04.61 0 .97-.01 1.09-.04.1-.02.15-.06.15-.12-.01-.09-.47-1.15-1.4-3.18zm-2.12.57c-.02.05-.17.08-.43.08-.28 0-.48 0-.6-.01-.23-.01-.35-.04-.35-.1 0-.09.11-.39.32-.9.2-.48.34-.79.42-.94.08.13.21.43.39.9.17.49.26.79.26.9 0 .03 0 .05-.01.07zM.12 8h8v2h-8z"/></svg>
