<svg xmlns="http://www.w3.org/2000/svg" viewBox="0 -190 882 1008"><path fill="currentColor" d="M662 221h126l1-19c0-2-1-6-3-8l-95-95c-2-2-6-4-10-4h-19v126zM358 725h418c6 0 12-5 12-11V316H614c-25 0-47-22-47-47V95H358c-6 0-11 6-11 12v607c0 6 5 11 11 11zM106 915h418c6 0 12-6 12-12v-83H347c-54 0-95-41-95-95V284H106c-6 0-11 6-11 12v607c0 6 5 12 11 12zM752 29l102 102c16 16 28 45 28 67v527c0 54-41 95-94 95H630v95c0 53-41 94-94 94H95c-54 0-95-41-95-94V284c0-53 41-94 95-94h157V95c0-53 41-94 95-94h338c22 0 51 12 67 28z"/></svg>
