<svg xmlns="http://www.w3.org/2000/svg" viewBox="0 -144 1008 1008"><path fill="currentColor" d="M502 451h353V249H502v202zm101 277c21 0 39-7 54-22s22-33 22-54-7-39-22-54-33-22-54-22-39 7-54 22-22 33-22 54 7 39 22 54 33 22 54 22zM423 101h432v-3c28 0 52 10 72 30s30 44 30 72v605c0 28-10 52-30 72s-44 30-72 30H423c4-26 4-50-1-73-24-119-36-229-36-330s12-211 36-330c5-23 5-47 1-73zM148 32h-1c30-20 63-26 99-19s64 25 84 55 27 63 20 98c-25 122-37 235-37 339s12 217 37 339c7 35 0 68-20 98-26 39-63 58-110 58-31 0-59-10-83-30s-39-45-45-76C64 756 50 626 50 504s14-252 42-389c7-35 26-63 56-83z"/></svg>
