<svg xmlns="http://www.w3.org/2000/svg" viewBox="0 -189 1008 1008"><path fill="currentColor" d="M323 694c0 39-32 71-71 71s-71-32-71-71 32-71 71-71 71 32 71 71zm0-189c0 39-32 71-71 71s-71-32-71-71 32-71 71-71 71 32 71 71zm0-189c0 39-32 71-71 71s-71-32-71-71 32-71 71-71 71 32 71 71zm496-24v48c0 13-10 23-24 23H402c-14 0-24-10-24-23v-48c0-13 10-23 24-23h393c14 0 24 10 24 23zm0 189v48c0 13-10 23-24 23H402c-14 0-24-10-24-23v-48c0-13 10-23 24-23h393c14 0 24 10 24 23zm0 189v48c0 13-10 23-24 23H402c-14 0-24-10-24-23v-48c0-13 10-23 24-23h393c14 0 24 10 24 23zM106 852h796c6 0 12-6 12-12V170c0-6-6-12-12-12H106c-6 0-11 6-11 12v670c0 6 5 12 11 12zM95 64h819c53 0 94 41 94 94v694c0 53-41 94-94 94H95c-54 0-95-41-95-94V158c0-53 41-94 95-94z"/></svg>
