<svg xmlns="http://www.w3.org/2000/svg" viewBox="0 0 259.88 308.07" overflow="visible"><style>.st0{fill:none}.st1{fill:#333}</style><path class="st0" d="M113.19 20.94c-1.56 0-2.83 1.27-2.83 2.83s1.27 2.83 2.83 2.83 2.83-1.27 2.83-2.83-1.27-2.83-2.83-2.83zM117.58 3.87h-8.77l4.38 10.06 4.39-10.06zm-1.77 1.26l-2.61 6-2.61-6h5.22zM130.98 28.33a2.834 2.834 0 0 0 .98-5.58 2.834 2.834 0 0 0-.98 5.58zM95.39 28.18a2.834 2.834 0 0 0-.98-5.58 2.834 2.834 0 0 0-2.3 3.28 2.84 2.84 0 0 0 3.28 2.3zM34.54 62.96c1-1.2.85-2.98-.35-3.99-1.2-1-2.98-.85-3.99.35-1 1.2-.85 2.98.35 3.99 1.2 1 2.99.84 3.99-.35zM148.21 33.03c1.47.53 3.09-.22 3.63-1.69.53-1.47-.22-3.09-1.69-3.63-1.47-.53-3.09.22-3.63 1.69s.22 3.1 1.69 3.63zM47.23 50.38c1.2-1 1.35-2.79.35-3.99-1-1.2-2.79-1.35-3.99-.35-1.2 1-1.35 2.79-.35 3.99 1 1.2 2.79 1.36 3.99.35zM20.37 78.58a2.835 2.835 0 0 0 2.83-4.91 2.835 2.835 0 0 0-2.83 4.91zM61.9 40.2a2.839 2.839 0 0 0 1.04-3.87 2.839 2.839 0 0 0-3.87-1.04 2.839 2.839 0 0 0-1.04 3.87 2.835 2.835 0 0 0 3.87 1.04zM78.12 32.72a2.825 2.825 0 0 0 1.69-3.63 2.825 2.825 0 0 0-3.63-1.69 2.825 2.825 0 0 0-1.69 3.63 2.828 2.828 0 0 0 3.63 1.69zM216.85 145.1a2.834 2.834 0 0 0-.98 5.58 2.834 2.834 0 0 0 .98-5.58zM215.21 129.61c0 1.56 1.27 2.83 2.83 2.83s2.83-1.27 2.83-2.83-1.27-2.83-2.83-2.83-2.83 1.26-2.83 2.83zM212.81 96.23a2.825 2.825 0 0 0 1.69-3.63 2.825 2.825 0 0 0-3.63-1.69 2.825 2.825 0 0 0-1.69 3.63 2.845 2.845 0 0 0 3.63 1.69zM182.94 50.61c1-1.2.85-2.98-.35-3.99-1.2-1-2.98-.85-3.99.35s-.85 2.98.35 3.99c1.2 1 2.98.84 3.99-.35zM205.57 79.35a2.839 2.839 0 0 0 1.04-3.87 2.839 2.839 0 0 0-3.87-1.04 2.839 2.839 0 0 0-1.04 3.87 2.835 2.835 0 0 0 3.87 1.04zM164.36 40.65c1.35.78 3.08.32 3.87-1.04s.32-3.08-1.04-3.87a2.835 2.835 0 0 0-3.87 1.04 2.848 2.848 0 0 0 1.04 3.87zM195.51 63.99c1.2-1 1.35-2.79.35-3.99-1-1.2-2.79-1.35-3.99-.35-1.2 1-1.35 2.79-.35 3.99a2.836 2.836 0 0 0 3.99.35zM213.73 111.81a2.834 2.834 0 0 0 5.58-.98 2.834 2.834 0 0 0-5.58.98zM77.28 225.29c-1.47-.53-3.09.22-3.63 1.69-.53 1.47.22 3.09 1.69 3.63 1.47.53 3.09-.22 3.63-1.69s-.22-3.09-1.69-3.63zM113.19 128c-1.09 0-1.98.89-1.98 1.98 0 1.09.89 1.98 1.98 1.98s1.98-.89 1.98-1.98c0-1.09-.88-1.98-1.98-1.98zM61.13 217.67a2.835 2.835 0 0 0-2.83 4.91c1.35.78 3.08.32 3.87-1.04.77-1.36.31-3.09-1.04-3.87zM12.99 95.39c1.47.53 3.09-.22 3.63-1.69.53-1.47-.22-3.09-1.69-3.63-1.47-.53-3.09.22-3.63 1.69s.22 3.09 1.69 3.63zM42.56 207.71c-1 1.2-.85 2.98.35 3.99 1.2 1 2.98.85 3.99-.35 1-1.2.85-2.98-.35-3.99-1.21-1-2.99-.84-3.99.35z"/><ellipse transform="rotate(-67.5 178.563 217.794)" class="st0" cx="178.57" cy="217.8" rx="40.66" ry="40.66"/><path class="st0" d="M94.51 229.99a2.834 2.834 0 0 0-.98 5.58 2.834 2.834 0 0 0 .98-5.58zM10.28 128.71c0-1.56-1.27-2.83-2.83-2.83s-2.83 1.27-2.83 2.83 1.27 2.83 2.83 2.83 2.83-1.26 2.83-2.83zM12.68 162.09a2.825 2.825 0 0 0-1.69 3.63 2.825 2.825 0 0 0 3.63 1.69 2.825 2.825 0 0 0 1.69-3.63 2.845 2.845 0 0 0-3.63-1.69zM29.98 194.33c-1.2 1-1.35 2.79-.35 3.99 1 1.2 2.79 1.35 3.99.35 1.2-1 1.35-2.79.35-3.99a2.836 2.836 0 0 0-3.99-.35zM8.64 113.22a2.834 2.834 0 0 0 .98-5.58 2.834 2.834 0 0 0-.98 5.58zM19.92 178.97a2.839 2.839 0 0 0-1.04 3.87 2.839 2.839 0 0 0 3.87 1.04c1.35-.78 1.82-2.51 1.04-3.87s-2.52-1.82-3.87-1.04zM11.76 146.51a2.834 2.834 0 0 0-5.58.98 2.834 2.834 0 0 0 5.58-.98z"/><path class="st1" d="M209.77 144.39a97.826 97.826 0 0 0-.17-29.77c-.04-.23-.08-.45-.12-.67l-88.05 14.03a8.43 8.43 0 0 0-1.08-2.54l79.44-40.57a97.053 97.053 0 0 0-18.02-24.36l-62.99 63.11c-.66-.58-1.4-1.06-2.22-1.41l40.4-79.48a97.193 97.193 0 0 0-28.76-9.22l-13.86 88.08c-.38-.05-.76-.09-1.16-.09-.48 0-.95.05-1.4.13L97.76 33.59a97.48 97.48 0 0 0-28.71 9.3l40.56 79.41c-.79.37-1.51.86-2.15 1.44l-63.1-62.98a98.104 98.104 0 0 0-17.88 24.39l79.49 40.41c-.47.76-.82 1.59-1.03 2.48l-88.1-13.87c-1.61 9.81-1.73 20.02-.17 30.37l88.07-14.04c.06.97.27 1.9.63 2.76l-79.42 40.56a97.052 97.052 0 0 0 17.81 24.78l62.99-63.12c.64.75 1.42 1.39 2.28 1.88l-40.4 79.47a97.13 97.13 0 0 0 29.09 9.55l13.86-88.08c.52.1 1.06.16 1.62.16.48 0 .95-.05 1.4-.13l5.36 33.6c2.89-3.69 6.13-7.1 9.66-10.18l-12.41-24.3c.89-.48 1.68-1.12 2.35-1.87l19.33 19.29c3.88-2.43 7.99-4.51 12.31-6.2l-30.19-15.35c.38-.87.6-1.83.67-2.82l88.09 13.89zm-96.58-12.42c-1.09 0-1.98-.89-1.98-1.98 0-1.09.89-1.98 1.98-1.98s1.98.89 1.98 1.98c0 1.09-.88 1.98-1.98 1.98zM178.58 290.85c-.23 0-.45.01-.68.01-30.55 0-56.8-18.71-67.93-45.27-16.6-.45-32.33-4.39-46.48-11.12-3.45-1.64-7.5.5-8.05 4.28l-9.22 62.83a5.66 5.66 0 0 0 5.6 6.48h122.73c3.45 0 6.1-3.06 5.6-6.48l-1.57-10.73z"/><path class="st1" d="M105.19 228.71c-50.96-4.08-91.04-46.71-91.04-98.72 0-53.8 42.9-97.58 96.35-99.01h5.38c53.46 1.42 96.35 45.21 96.35 99.01 0 7.22-.78 14.26-2.25 21.04 4.5 2.19 8.74 4.83 12.67 7.85 2.43-9.22 3.73-18.91 3.73-28.89 0-60.18-46.97-109.39-106.25-112.97l-.9-15.42a1.7 1.7 0 0 0-1.7-1.6h-8.68c-.9 0-1.64.7-1.69 1.6l-.91 15.41C46.97 20.6 0 69.8 0 129.99 0 191.1 48.42 240.88 108.99 243.1c-1.73-4.6-3.02-9.42-3.8-14.39zm113.96-80.33a2.834 2.834 0 0 1-5.58-.98 2.834 2.834 0 0 1 5.58.98zm1.72-18.77c0 1.56-1.27 2.83-2.83 2.83s-2.83-1.27-2.83-2.83 1.27-2.83 2.83-2.83 2.83 1.26 2.83 2.83zm-1.57-18.78a2.834 2.834 0 0 1-5.58.98 2.834 2.834 0 0 1 5.58-.98zm-8.43-19.92c1.47-.53 3.09.22 3.63 1.69.53 1.47-.22 3.09-1.69 3.63-1.47.53-3.09-.22-3.63-1.69-.53-1.47.22-3.1 1.69-3.63zm-8.13-16.46a2.835 2.835 0 0 1 2.83 4.91c-1.35.78-3.08.32-3.87-1.04a2.839 2.839 0 0 1 1.04-3.87zm-10.87-14.8c1.2-1 2.98-.85 3.99.35 1 1.2.85 2.98-.35 3.99-1.2 1-2.98.85-3.99-.35-1-1.2-.84-2.98.35-3.99zM178.6 46.97c1-1.2 2.79-1.35 3.99-.35 1.2 1 1.35 2.79.35 3.99-1 1.2-2.79 1.35-3.99.35a2.836 2.836 0 0 1-.35-3.99zm-15.27-10.19a2.839 2.839 0 0 1 3.87-1.04c1.35.78 1.82 2.51 1.04 3.87s-2.51 1.82-3.87 1.04a2.83 2.83 0 0 1-1.04-3.87zm-16.81-7.38a2.825 2.825 0 0 1 3.63-1.69c1.47.53 2.23 2.16 1.69 3.63a2.825 2.825 0 0 1-3.63 1.69 2.825 2.825 0 0 1-1.69-3.63zm-17.84-4.35a2.834 2.834 0 0 1 5.58.98 2.834 2.834 0 0 1-5.58-.98zm-15.49 1.55c-1.56 0-2.83-1.27-2.83-2.83s1.27-2.83 2.83-2.83 2.83 1.27 2.83 2.83c0 1.57-1.27 2.83-2.83 2.83zm4.39-22.73l-4.38 10.06-4.38-10.06h8.76zM94.41 22.6a2.834 2.834 0 0 1 .98 5.58 2.834 2.834 0 0 1-.98-5.58zm-18.22 4.81c1.47-.53 3.09.22 3.63 1.69.53 1.47-.22 3.09-1.69 3.63-1.47.53-3.09-.22-3.63-1.69a2.82 2.82 0 0 1 1.69-3.63zM59.07 35.3a2.835 2.835 0 0 1 2.83 4.91c-1.35.78-3.08.32-3.87-1.04a2.839 2.839 0 0 1 1.04-3.87zM43.59 46.05c1.2-1 2.98-.85 3.99.35 1 1.2.85 2.98-.35 3.99-1.2 1-2.98.85-3.99-.35-1.01-1.2-.85-2.99.35-3.99zM30.21 59.32c1-1.2 2.79-1.35 3.99-.35 1.2 1 1.35 2.79.35 3.99-1 1.2-2.79 1.35-3.99.35a2.827 2.827 0 0 1-.35-3.99zM19.33 74.71a2.839 2.839 0 0 1 3.87-1.04c1.35.78 1.82 2.51 1.04 3.87a2.839 2.839 0 0 1-3.87 1.04 2.83 2.83 0 0 1-1.04-3.87zM11.3 91.76a2.825 2.825 0 0 1 3.63-1.69c1.47.53 2.23 2.16 1.69 3.63a2.825 2.825 0 0 1-3.63 1.69 2.828 2.828 0 0 1-1.69-3.63zm-4.96 18.19a2.834 2.834 0 0 1 5.58.98 2.834 2.834 0 0 1-3.28 2.3c-1.54-.28-2.57-1.75-2.3-3.28zm-1.72 18.76c0-1.56 1.27-2.83 2.83-2.83s2.83 1.27 2.83 2.83-1.27 2.83-2.83 2.83-2.83-1.26-2.83-2.83zm1.57 18.79a2.834 2.834 0 0 1 5.58-.98c.27 1.54-.76 3.01-2.3 3.28-1.54.26-3.01-.76-3.28-2.3zm8.43 19.91c-1.47.53-3.09-.22-3.63-1.69-.53-1.47.22-3.09 1.69-3.63 1.47-.53 3.09.22 3.63 1.69.53 1.47-.22 3.1-1.69 3.63zm8.13 16.46a2.835 2.835 0 0 1-2.83-4.91c1.35-.78 3.08-.32 3.87 1.04s.31 3.09-1.04 3.87zm10.87 14.8c-1.2 1-2.98.85-3.99-.35-1-1.2-.85-2.98.35-3.99 1.2-1 2.98-.85 3.99.35 1 1.2.85 2.98-.35 3.99zm13.27 12.68c-1 1.2-2.79 1.35-3.99.35-1.2-1-1.35-2.79-.35-3.99 1-1.2 2.79-1.35 3.99-.35 1.2 1.01 1.36 2.79.35 3.99zm15.27 10.19a2.839 2.839 0 0 1-3.87 1.04 2.839 2.839 0 0 1-1.04-3.87 2.839 2.839 0 0 1 3.87-1.04 2.83 2.83 0 0 1 1.04 3.87zm16.81 7.38a2.825 2.825 0 0 1-3.63 1.69 2.825 2.825 0 0 1-1.69-3.63 2.825 2.825 0 0 1 3.63-1.69c1.47.54 2.23 2.16 1.69 3.63zm17.84 4.35a2.834 2.834 0 0 1-5.58-.98 2.834 2.834 0 0 1 5.58.98z"/><path class="st1" d="M115.81 5.13h-5.23l2.61 5.99z"/><path d="M228.26 253.08a60.783 60.783 0 0 0 11.3-35.3c0-33.74-27.25-60.99-60.99-60.99s-60.99 27.25-60.99 60.99 27.25 60.99 60.99 60.99c13.13 0 25.42-4.23 35.3-11.3l31.62 31.62 14.4-14.4-31.63-31.61zm-49.69 5.38c-22.44 0-40.66-18.21-40.66-40.66 0-22.44 18.21-40.66 40.66-40.66 22.44 0 40.66 18.21 40.66 40.66-.01 22.44-18.22 40.66-40.66 40.66z" fill="#323333"/></svg>
