<svg xmlns="http://www.w3.org/2000/svg" viewBox="0 0 44.41 44.41" overflow="visible"><style>.st0{fill:#505050}</style><path class="st0" d="M31 44.41L22.59 36 27 31.59l4 4 9-9L44.41 31 31 44.41zM25.41 36L31 41.59 41.59 31 40 29.41l-9 9-4-4L25.41 36z"/><path class="st0" d="M21 42C9.42 42 0 32.58 0 21S9.42 0 21 0s21 9.42 21 21c0 1.55-.17 3.1-.51 4.61l-1.95-.44c.31-1.36.46-2.76.46-4.17 0-10.48-8.52-19-19-19S2 10.52 2 21s8.52 19 19 19c1 0 2.02-.08 3-.24l.31 1.97c-1.09.18-2.2.27-3.31.27z"/><path class="st0" d="M22.33 29H19.7c-1.97 0-3.7-1.57-3.7-3.36v-1.18h2v1.18c0 .61.78 1.36 1.7 1.36h2.64c.92 0 1.67-.75 1.67-1.36V24.1c0-.46-.43-.88-1.06-1.05l-4.36-1.16C17.03 21.48 16 20.28 16 18.9v-1.54c0-1.79 1.71-3.36 3.67-3.36h2.67c1.95 0 3.67 1.57 3.67 3.36v1.18h-2v-1.18c0-.62-.74-1.36-1.67-1.36h-2.67c-.93 0-1.67.75-1.67 1.36v1.54c0 .45.45.88 1.09 1.05l4.36 1.16c1.53.41 2.55 1.6 2.55 2.98v1.54c0 1.8-1.71 3.37-3.67 3.37z"/><path class="st0" d="M20 28h2v4h-2zM20 11h2v4h-2z"/></svg>
