<svg xmlns="http://www.w3.org/2000/svg" viewBox="0 0 156.22 102.92" overflow="visible"><path d="M134.48 46.56V34.84H0v47.61c0 6.6 5.4 12 12 12h95.33c5.18 5.23 12.37 8.47 20.29 8.47 15.77 0 28.6-12.83 28.6-28.6 0-13.4-9.28-24.68-21.74-27.76zm-55.89 7.45h11.87v2.51H78.59v-2.51zm-9.23 11.5H11.95v-11.5h57.42v11.5zm9.23-4.61h21.94v3.74H78.59V60.9zm49.03 39.02c-14.11 0-25.6-11.48-25.6-25.6s11.48-25.6 25.6-25.6 25.6 11.48 25.6 25.6-11.48 25.6-25.6 25.6zM134.48 12c0-6.6-5.4-12-12-12H12C5.4 0 0 5.4 0 12v7.74h134.48V12z"/><path d="M129.21 72.2V60.98c2.38.08 4.25.67 5.6 1.78v-3.42c-1-.68-2.87-1.06-5.6-1.14v-3.67h-2.1v3.75c-2.11.27-3.84 1.17-5.19 2.69s-2.03 3.24-2.03 5.15c0 1.67.42 3.12 1.26 4.33.84 1.22 2.83 2.58 5.97 4.1v10.89c-1.15.03-2.43-.21-3.86-.7-1.43-.49-2.54-1.09-3.32-1.8v3.5c1.83 1.18 4.22 1.78 7.18 1.78v4.36h2.1v-4.54c2.29-.35 4.11-1.19 5.45-2.53s2.01-3 2.01-4.98c0-1.83-.6-3.35-1.79-4.57-1.2-1.2-3.09-2.46-5.68-3.76zm-2.1-1.16c-1.69-.99-2.75-1.85-3.2-2.59-.44-.73-.67-1.66-.67-2.78 0-1.12.33-2.09 1-2.92s1.62-1.38 2.86-1.65v9.94zm2.1 14.23v-9.64c2.73 1.51 4.09 3.24 4.09 5.21.01 2.35-1.36 3.83-4.09 4.43z"/></svg>
