<svg xmlns="http://www.w3.org/2000/svg" viewBox="0 0 220.75 216.72" overflow="visible"><style>.st0{fill:#fff}</style><path class="st0" d="M193.26 113.88c0 .29-.2.54-.47.61a.654.654 0 0 1-.72-.3l-.22-.5a63.78 63.78 0 0 1-17.1 4.7l.23.54h-7.59c-.37.01-.74.03-1.12.03-.37 0-.74-.02-1.12-.03H42.48L56.27 86.9c-.01-2.51 26.07-3.77 52.23-3.78a63.612 63.612 0 0 1-5.19-14.78c-30.09.3-58.72 3.12-61.64 8.45L25.4 114.18c-.15.25-.44.37-.72.3a.628.628 0 0 1-.48-.61v-4.72c0-1.51-.64-2.95-1.77-3.95a5.32 5.32 0 0 0-4.13-1.28l-13.16 1.59a5.26 5.26 0 0 0-4.61 4.65l-.5 4.54c-.12 1.03.2 2.04.86 2.83.66.79 1.62 1.26 2.65 1.33l16.91.96c.36.01.68.23.84.57.16.33.12.72-.1 1.01l-11.8 16.04a16.418 16.418 0 0 0-3.19 9.75l45.07.4c4.43.23 11.46 19.69 10.35 21.78-.46.87-1.39 1.4-2.38 1.34l-53.03-1.62v30.5l2.86 17.14h33.69l1.91-18.15h128.18l1.9 18.15h33.69l2.86-17.14v-30.5l-53.03 1.62c-.99.06-1.92-.47-2.38-1.34-1.1-2.06 5.89-21.54 10.35-21.78l45.07-.4c0-3.51-1.12-6.93-3.2-9.75l-11.8-16.04a.995.995 0 0 1 .74-1.58l16.91-.96a3.754 3.754 0 0 0 3.51-4.16l-.51-4.54a5.26 5.26 0 0 0-4.61-4.65l-5.77-.7a63.734 63.734 0 0 1-13.3 8.24v.83zM172.49 34.45h-12.83v16.29h12.83c9.77 0 9.77-16.29 0-16.29z"/><path class="st0" d="M220.75 54.47C220.75 24.39 196.36 0 166.28 0s-54.47 24.39-54.47 54.47c0 15.04 6.1 28.66 15.95 38.52 9.86 9.86 23.48 15.95 38.52 15.95 15.04 0 28.66-6.1 38.52-15.95 9.85-9.86 15.95-23.48 15.95-38.52zm-47.04 10.42h-14.05v27.79H145.1V19.99h28.61c28.3 0 28.2 44.9 0 44.9z"/></svg>
