<svg xmlns="http://www.w3.org/2000/svg" viewBox="0 -189 756 1008"><path fill="currentColor" d="M0 504c0-106 36-194 110-268s162-110 268-110 194 36 268 110 110 162 110 268-36 194-110 268-162 110-268 110-194-36-268-110S0 610 0 504zm656 0l-1-1c0-78-28-140-83-195s-117-83-195-83c-76 0-140 27-196 83-54 54-81 119-81 195 0 78 27 142 81 197 55 54 119 81 197 81 76 0 141-27 195-81 56-56 83-120 83-196zM503 324l2 1c9-9 18-9 27 0l39 39c9 9 9 18 0 27L392 570c-8 8-20 8-28 0L242 448c-4-4-6-9-6-14 0-7 2-12 6-16l40-39c9-9 17-9 26 0l69 71z"/></svg>
