<svg xmlns="http://www.w3.org/2000/svg" viewBox="0 0 470.28 470.28" overflow="visible"><style>.st0{fill:#444}</style><g id="_x33__1_"><path class="st0" d="M401.41 68.87C357 24.46 297.95 0 235.14 0S113.28 24.46 68.87 68.87 0 172.33 0 235.14 24.46 357 68.87 401.41s103.46 68.87 166.27 68.87S357 445.83 401.41 401.41s68.87-103.46 68.87-166.27-24.46-121.86-68.87-166.27zM250 419.69c.08-.64.14-1.28.14-1.94v-26.29c0-8.28-6.72-15-15-15s-15 6.72-15 15v26.29c0 .66.06 1.31.14 1.94-90.23-7.2-162.42-79.37-169.67-169.58.67.09 1.36.16 2.06.16h26.29c8.28 0 15-6.72 15-15 0-8.28-6.72-15-15-15h-26.3c-.71 0-1.4.07-2.08.16 7.14-90.34 79.41-162.64 169.73-169.83-.11.72-.18 1.44-.18 2.19v26.29c0 8.28 6.72 15 15 15s15-6.72 15-15v-26.3c0-.75-.07-1.47-.18-2.19 90.33 7.19 162.6 79.49 169.73 169.83-.68-.09-1.37-.16-2.08-.16h-26.29c-8.28 0-15 6.72-15 15 0 8.28 6.72 15 15 15h26.29c.7 0 1.38-.06 2.06-.16-7.23 90.22-79.43 162.39-169.66 169.59z"/><path class="st0" d="M279.34 172.53l-34.83 33.05c-2.96-.94-6.1-1.44-9.37-1.44-2.59 0-5.1.32-7.5.92l-71.4-76.78c-5.64-6.07-15.13-6.41-21.2-.77-6.07 5.64-6.41 15.13-.77 21.2l71.4 76.78c-1 3.04-1.54 6.29-1.54 9.66 0 17.12 13.88 31.01 31.01 31.01s31.01-13.88 31.01-31.01c0-2.69-.35-5.31-.99-7.8l34.83-33.05c6.01-5.7 6.26-15.2.56-21.21-5.71-6.01-15.2-6.26-21.21-.56z"/></g></svg>
