<svg xmlns="http://www.w3.org/2000/svg" viewBox="-1 -202 959 1008"><path fill="currentColor" d="M393 750h-1c-24 24-54 37-89 37s-64-13-89-37L-1 535l215-216c24-24 53-35 88-35 38 0 68 11 91 35 25 24 37 54 37 90 0 34-12 64-37 89l-36 37 36 36c25 24 37 54 37 90 0 34-12 64-37 89zm350 0h-1c-24 24-54 37-90 37-34 0-64-13-89-37-24-25-37-55-37-89 0-36 13-66 37-90l38-36-38-37c-24-25-37-55-37-89 0-36 13-66 37-90 25-24 54-35 89-35 38 0 68 11 91 35l215 216zM332 379c-16-16-44-16-60 0L117 535l155 155c16 16 44 16 60 0s16-43 0-59l-96-96 96-97c16-16 16-43 0-59zm350 0h1c-8-8-18-12-30-12-19 0-32 11-37 26-7 15-6 32 7 45l96 97-96 96c-16 16-16 43 0 59s43 16 59 0l156-155z"/></svg>
