<svg xmlns="http://www.w3.org/2000/svg" viewBox="0 0 102.83 133.66" overflow="visible"><path d="M4.64 30.95l.01 90.72c0 6.6 5.4 12 12 11.99l69.57-.01c6.6 0 12-5.4 11.99-12l-.01-90.72-93.56.02zm24.9 90.79h-8.4l-.01-82.17h8.4l.01 82.17zm26.09 0h-8.4l-.01-82.17h8.4l.01 82.17zm26.09 0h-8.4l-.01-82.17h8.39l.02 82.17zM102.83 18.8c0-3.01-2.2-5.48-4.9-5.48l-93.03.01c-2.7 0-4.9 2.47-4.9 5.49v7.98l102.83-.01V18.8zM39.54 6.07h23.75v4.33h8.79V5.6c0-3.08-2.52-5.6-5.6-5.6H36.35c-3.08 0-5.6 2.52-5.6 5.6v4.8h8.79V6.07z"/></svg>
