<svg xmlns="http://www.w3.org/2000/svg" viewBox="0 0 491.33 491.33" overflow="visible"><path d="M419.38 71.95C372.98 25.55 311.29 0 245.67 0S118.35 25.55 71.95 71.95C25.55 118.35 0 180.05 0 245.66c0 65.62 25.55 127.31 71.95 173.71 46.4 46.4 108.09 71.95 173.71 71.95s127.31-25.55 173.71-71.95c46.4-46.4 71.95-108.09 71.95-173.71.01-65.61-25.54-127.31-71.94-173.71zm7.43 290.63c-15.99-9.81-34.26-18.16-54.2-24.88 6.79-24.88 10.87-50.85 12.01-77.04h76.19c-2.59 37.38-14.73 72.16-34 101.92zM30.53 260.67h76.2c1.29 28.57 6.18 54.35 12.64 76.8-20.19 6.76-38.67 15.19-54.84 25.12-19.28-29.76-31.42-64.55-34-101.92zm34.74-133.05c16.01 9.75 34.26 18.03 54.18 24.69a343.862 343.862 0 0 0-12.71 78.35h-76.2c2.6-37.84 15.02-73.03 34.73-103.04zm195.4 43.78c28.52-.95 56.07-4.61 81.67-10.7 6.16 20.46 10.86 43.97 12.21 69.97h-93.88V171.4zm0-30.02V35.33c14.33 8.56 33.14 27.29 50.3 55.1 6.2 10.04 13.98 24.21 21.27 41.88-22.42 5.09-46.54 8.18-71.57 9.07zm-30-106.94v106.92c-25.23-.93-49.81-4.18-72.66-9.48 6.99-17.66 14.47-31.7 20.42-41.6 17.97-29.92 37.27-48.07 52.24-55.84zm0 136.96v59.27h-93.91c1.26-26.21 5.7-49.74 11.52-70.12 25.77 6.18 53.58 9.89 82.39 10.85zm-93.9 89.27h93.89v57.7c-28.84.96-56.67 4.68-82.47 10.87-5.76-20.08-10.15-43.09-11.42-68.57zm93.9 87.72v108.1c-14.83-8.25-33.95-26.99-51.32-55.52-6.22-10.22-14.07-24.8-21.36-43.1 22.85-5.29 47.44-8.55 72.68-9.48zm30 108.99v-109c25.89.92 50.8 4.19 73.86 9.6-19.69 51.68-49.93 87.86-73.86 99.4zm0-139.02v-57.7h93.92c-1.14 24.53-5.02 47.6-10.77 68.75-26.02-6.3-54.09-10.08-83.15-11.05zm123.92-87.7c-1.36-29.05-6.57-55.31-13.4-78.14 20.19-6.7 38.68-15.06 54.88-24.91 19.7 30.01 32.12 65.19 34.73 103.04h-76.21zm23.2-127.05c-13.77 8.1-29.42 15.01-46.47 20.65-8.42-21.07-17.6-37.87-24.82-49.58-7.99-12.94-16.48-24.51-25.17-34.45 37.71 12.08 70.93 34.28 96.46 63.38zM176.63 41.33c-8.3 9.69-16.35 20.91-23.92 33.5-9.23 15.36-17.18 31.77-23.75 48.9-16.7-5.57-32.01-12.32-45.4-20.14 24.76-28.22 56.75-49.96 93.07-62.26zm-94 345.37c13.61-8.05 29.25-14.99 46.33-20.68 8.36 21.6 17.55 38.71 24.76 50.55 7.76 12.75 16.06 24.15 24.63 33.99-37.47-12.34-70.44-34.68-95.72-63.86zm233.6 62.76c8.16-9.59 16.03-20.65 23.38-33.04 9.32-15.7 17.3-32.57 23.85-50.22 16.61 5.63 31.83 12.5 45.25 20.49-24.55 28.34-56.35 50.23-92.48 62.77z" fill="#444"/></svg>
