<svg xmlns="http://www.w3.org/2000/svg" viewBox="0 -189 882 1008"><path fill="currentColor" d="M693 190h126c35 0 63 28 63 63v126c0 35-28 63-63 63H693c-35 0-63-28-63-63V253c0-35 28-63 63-63zm-315 0h126c35 0 63 28 63 63v126c0 35-28 63-63 63H378c-35 0-63-28-63-63V253c0-35 28-63 63-63zm-315 0h126c35 0 63 28 63 63v126c0 35-28 63-63 63H63c-35 0-63-28-63-63V253c0-35 28-63 63-63zm630 378h126c35 0 63 28 63 63v126c0 35-28 63-63 63H693c-35 0-63-28-63-63V631c0-35 28-63 63-63zm-315 0h126c35 0 63 28 63 63v126c0 35-28 63-63 63H378c-35 0-63-28-63-63V631c0-35 28-63 63-63zm-315 0h126c35 0 63 28 63 63v126c0 35-28 63-63 63H63c-35 0-63-28-63-63V631c0-35 28-63 63-63z"/></svg>
