<svg xmlns="http://www.w3.org/2000/svg" viewBox="0 -189 630 1008"><path fill="currentColor" d="M441 694h126c35 0 63 28 63 63v126c0 35-28 63-63 63H441c-35 0-63-28-63-63V757c0-35 28-63 63-63zm0-315h126c35 0 63 28 63 63v126c0 35-28 63-63 63H441c-35 0-63-28-63-63V442c0-35 28-63 63-63zm0-315h126c35 0 63 28 63 63v126c0 35-28 63-63 63H441c-35 0-63-28-63-63V127c0-35 28-63 63-63zM63 694h126c35 0 63 28 63 63v126c0 35-28 63-63 63H63c-35 0-63-28-63-63V757c0-35 28-63 63-63zm0-315h126c35 0 63 28 63 63v126c0 35-28 63-63 63H63c-35 0-63-28-63-63V442c0-35 28-63 63-63zm0-315h126c35 0 63 28 63 63v126c0 35-28 63-63 63H63c-35 0-63-28-63-63V127c0-35 28-63 63-63z"/></svg>
