<svg xmlns="http://www.w3.org/2000/svg" viewBox="0 -144 1296 1008"><path fill="currentColor" d="M1296 324v360c0 20-16 36-36 36h-244c-20 49-65 82-117 89-24 35-61 62-102 71-31 40-81 63-132 60-92 52-197 7-266-61L237 720H36c-20 0-36-16-36-36V306c0-20 16-36 36-36h237c65-65 110-126 208-126h66c36 0 72 11 102 31 29-20 65-31 101-31h94c107 0 152 70 216 144h200c20 0 36 16 36 36zm-108 324c47 0 47-72 0-72s-47 72 0 72zm-162 0h54V360h-52l-89-101c-23-27-59-43-95-43h-94c-31 0-61 14-82 38L551 390c-21 25-21 60-1 85 32 38 91 39 124 1l109-122c26-29 73-2 61 35 22 24 45 48 66 73 28 35 55 72 82 107 18 23 31 50 34 79zm-89-33c-45-57-88-117-139-170l-70 79c-63 70-173 69-233-3-43-52-43-126 1-177l100-116c-35-18-77-12-115-12-33 0-65 14-89 37l-89 89h-87v306c25 0 47-3 67 16l167 164c34 33 79 62 128 62 25 0 52-8 70-26 42 15 91-9 104-52 27 2 52-7 71-25 13-12 30-36 29-54 5 5 17 6 24 6 67 0 101-71 61-124zm-829 33c47 0 47-72 0-72s-47 72 0 72z"/></svg>
