<svg xmlns="http://www.w3.org/2000/svg" viewBox="0 -189 1008 1008"><path fill="currentColor" d="M713 79c80 3 148 29 206 87 60 59 89 130 89 213 0 82-29 152-89 211L571 934c-39 38-95 38-134 0-3 0-118-114-348-344C30 530 0 461 0 379c0-83 30-154 89-213 58-58 124-84 204-87 82-3 151 23 211 78 60-55 130-81 209-78zM526 888l346-345c48-47 71-101 71-165 0-66-23-122-71-168-44-44-102-67-161-70-60-1-119 19-166 62l-43 39-43-39c-47-43-106-63-165-62-60 3-117 26-161 70-47 46-71 102-71 168 0 64 24 118 71 165l348 345c15 15 30 15 45 0zM289 236v-1c11 0 16 8 16 16s-5 16-16 16c-28 0-53 12-72 29-19 19-30 45-30 73 0 11-8 17-15 17-8 0-16-6-16-17 0-36 15-69 40-94 24-24 57-39 93-39z"/></svg>
