<svg xmlns="http://www.w3.org/2000/svg" viewBox="0 0 78.89 86.67" overflow="visible"><style>.st0{fill:#123242}</style><path class="st0" d="M39.53 61.82l1.52-1.53s-1.41-13 7.23-19.44l3.76-8.71S50.66 31.7 46.4 36c0 0 2.05-4.85 7.05-7.56 0 0 1.49-3.32 1.98-3.7 0 0-3.96-.16-7.12 2.25 0 0 3.76-3.92 8.32-4.62 0 0 3.77-3.68 6.85-8.63 0 0-5.2-.48-8.82 1.95 0 0 3.45-3.39 8.7-4.12 0 0 2.23-5.44-2.96-11.56 0 0-15.31 12.98-18.46 37.6 0 0-.19-21.87 14-35.19 0 0-12.5 5.58-15.7 31.17.01-.01-.89 12.46-.71 28.23z"/><path class="st0" d="M75.71 49.85L46.78 79.33s-2.63 3.32-7.34 3.32-7.34-3.32-7.34-3.32L3.18 49.85 0 52.9l30.17 30.45c2.77 3.18 9.27 3.32 9.27 3.32s6.51-.14 9.27-3.32L78.89 52.9l-3.18-3.05z"/><path class="st0" d="M71.28 50.93l-3.18-2.21-23.53 30.17zM65.65 47.52l-3.73-2.08-19.66 33.45zM54.83 41.85L40.3 78.89l18.27-35.11zM10.8 48.72l-3.19 2.21 26.72 27.96zM16.98 45.44l-3.74 2.08 23.39 31.37zM24.06 41.85l-3.73 1.93L38.6 78.89z"/></svg>
