<svg xmlns="http://www.w3.org/2000/svg" viewBox="0 -189 1008 1008"><path fill="currentColor" d="M977 891H284c-18 0-32-14-32-32v-78c0-18 14-32 32-32h693c17 0 31 14 31 32v78c0 18-14 32-31 32zm0-315H284c-18 0-32-14-32-32v-78c0-18 14-32 32-32h693c17 0 31 14 31 32v78c0 18-14 32-31 32zm0-315H284c-18 0-32-14-32-32v-78c0-18 14-32 32-32h693c17 0 31 14 31 32v78c0 18-14 32-31 32zM95 725c53 0 94 42 94 95s-41 95-94 95c-54 0-95-42-95-95s41-95 95-95zm0-315c53 0 94 42 94 95s-41 94-94 94c-54 0-95-41-95-94s41-95 95-95zm94-220c0 53-41 94-94 94-54 0-95-41-95-94s41-95 95-95c53 0 94 42 94 95z"/></svg>
