<svg xmlns="http://www.w3.org/2000/svg" viewBox="-1 -189 849 1008"><path fill="currentColor" d="M152 238c0-24 12-35 33-35h630c23 0 34 11 34 35v32c0 21-11 33-34 33H185c-21 0-33-12-33-33v-32zM51 303c-34 0-52-17-52-49 0-35 18-51 52-51s50 16 50 51c0 32-16 49-50 49zm0 240c-34 0-52-17-52-49 0-35 18-51 52-51s50 16 50 51c0 32-16 49-50 49zm101-55c0-23 12-33 33-33h630c23 0 34 10 34 33v32c0 21-11 33-34 33H185c-21 0-33-12-33-33v-32zm0 250c0-23 12-33 33-33h630c23 0 34 10 34 33v32c0 23-11 35-34 35H185c-21 0-33-12-33-35v-32zM51 805c-34 0-52-18-52-52s18-50 52-50 50 16 50 50-16 52-50 52z"/></svg>
