<svg xmlns="http://www.w3.org/2000/svg" viewBox="0 -189 1008 1008"><path fill="currentColor" d="M819 725v-63c0-13-10-23-24-23H402c-14 0-24 10-24 23v63c0 14 10 24 24 24h393c14 0 24-10 24-24zm0-189v-63c0-13-10-23-24-23H402c-14 0-24 10-24 23v63c0 14 10 24 24 24h393c14 0 24-10 24-24zm0-189v-63c0-13-10-23-24-23H402c-14 0-24 10-24 23v63c0 14 10 24 24 24h393c14 0 24-10 24-24zM252 615c-43 0-79 36-79 79s36 79 79 79 79-36 79-79-36-79-79-79zm0-189c-43 0-79 36-79 79s36 79 79 79 79-36 79-79-36-79-79-79zm0-189c-43 0-79 36-79 79s36 79 79 79 79-36 79-79-36-79-79-79zm662 709H95c-54 0-95-41-95-94V158c0-53 41-94 95-94h819c53 0 94 41 94 94v694c0 53-41 94-94 94z"/></svg>
