<svg xmlns="http://www.w3.org/2000/svg" viewBox="0 -189 1008 1008"><path fill="currentColor" d="M977 901H284c-18 0-32-14-32-32v-79c0-17 14-31 32-31h693c17 0 31 14 31 31v79c0 18-14 32-31 32zm0-315H284c-18 0-32-14-32-32v-79c0-17 14-31 32-31h693c17 0 31 14 31 31v79c0 18-14 32-31 32zm0-315H284c-18 0-32-14-32-32v-79c0-17 14-31 32-31h693c17 0 31 14 31 31v79c0 18-14 32-31 32zM10 899l12-12c8-14 17-14 29-6 10 4 20 6 30 6 19 0 27-8 27-18 0-14-12-17-31-17H67c-12 0-18-4-24-16l-2-4c-4-10-2-20 6-30l12-14c14-15 24-25 24-25s-8 2-24 2H33c-15 0-23-8-23-22v-18c0-15 8-23 23-23h115c15 0 23 8 23 22v5c0 12-2 20-10 28l-35 39c39 10 57 40 57 67 0 42-27 87-94 87-34 0-58-10-73-20-12-7-14-19-6-31zM2 601l2 2c0-92 100-110 100-135 0-14-11-18-17-18s-12 2-18 8c-10 10-19 13-32 4l-17-14c-12-10-15-20-6-32 13-18 37-37 79-37 37 0 86 22 86 79 0 75-92 90-96 112h76c16 0 24 8 24 22v17c0 14-8 22-24 22H26c-14 0-24-8-24-22v-8zm4-307v-17H4c0-14 8-22 24-22h29v-79c0-10 2-19 2-19s-4 5-6 7c-8 8-20 8-29-4l-12-11c-10-10-10-22 2-32l43-39c8-8 16-12 28-12h23c16 0 24 8 24 24v165h29c16 0 24 8 24 22v17c0 14-8 22-24 22H30c-16 0-24-8-24-22z"/></svg>
