<svg xmlns="http://www.w3.org/2000/svg" viewBox="0 0 56 55.34" overflow="visible"><style>.st0{fill:#505050}</style><path class="st0" d="M5.83 18.63l-1.92-.57C6.66 8.8 15.34 2.34 25 2.34c2.85 0 5.63.54 8.25 1.6L32.5 5.8c-2.38-.97-4.9-1.46-7.5-1.46-8.79 0-16.67 5.88-19.17 14.29zM25 46.34c-9.66 0-18.33-6.46-21.09-15.71l1.92-.57C8.33 38.47 16.22 44.34 25 44.34c9.17 0 17.14-6.2 19.39-15.07l1.94.49A21.987 21.987 0 0 1 25 46.34z"/><path class="st0" d="M24 3.34h2v42h-2z"/><path class="st0" d="M11 23.34h29v2H11z"/><path class="st0" d="M9.442 10.198l1.415-1.414 29.698 29.698-1.414 1.414zM43.84 43.67l-1.38-1.44c.56-.53.69-.68 1.2-1.27l1.51 1.31c-.55.64-.73.82-1.33 1.4zM47.27 39.61l-1.65-1.13c1.31-1.9 2.34-3.97 3.07-6.15l1.89.64c-.78 2.35-1.9 4.58-3.31 6.64zM12.66 2.6l-1-1.73c.68-.39.96-.54 1.67-.87l.85 1.81c-.66.31-.89.43-1.52.79zM4.17 10.51L2.51 9.4a27.31 27.31 0 0 1 5.67-6.18l1.25 1.56a25.136 25.136 0 0 0-5.26 5.73zM9.592 49.987l3.135-8.319 1.871.705-3.134 8.32zM35.404 42.379l1.866-.719 3.203 8.325-1.866.719zM0 53.34h52v2H0zM54 53.34h2v2h-2z"/><path class="st0" d="M47 54.34h-2v-2c0-.55-.45-1-1-1H32v-2h12c1.65 0 3 1.35 3 3v2zM24 49.34h2v2h-2zM5 54.34H3v-2c0-1.65 1.35-3 3-3h16v2H6c-.55 0-1 .45-1 1v2zM5.58 33.34H2c-1.1 0-2-.9-2-2v-14c0-1.1.9-2 2-2h3.58v2H2v14h3.58v2z"/><path class="st0" d="M1.58 30.16L.42 28.53l5.86-4.19-5.86-4.18 1.16-1.63 8.14 5.81zM9.444 38.481L29.886 18.04l1.414 1.414-20.442 20.442zM45.49 3.64c4.57 1.2 7.05 5.57 5.87 10.18-.5 2.04-1.68 3.66-3.29 4.72l.26.45 1 .26 4.53 7.74-2.34 1.37L47 20.61l.26-1-.26-.45c-1.71.88-3.7 1.11-5.72.55-4.59-1.24-7.18-5.54-5.98-10.11 1.2-4.6 5.59-7.17 10.19-5.96zm-.66 2.51c-3.21-.84-6.13.91-6.98 4.13-.84 3.18.85 6.12 4.07 6.96 3.18.84 6.13-.88 6.96-4.07.85-3.22-.86-6.19-4.05-7.02z"/></svg>
