<svg xmlns="http://www.w3.org/2000/svg" viewBox="0 0 444.06 402.7" overflow="visible"><path d="M442.24 356.37l-46.46-138.23a35.102 35.102 0 0 0-33.3-23.94H294.5c18.21-33.05 33.01-66.69 33.01-88.72C327.52 47.32 280.2 0 222.03 0c-58.16 0-105.49 47.32-105.49 105.49 0 22.03 14.8 55.67 33.01 88.72H81.59c-15.11 0-28.49 9.62-33.3 23.94L1.82 356.37c-3.59 10.69-1.81 22.54 4.77 31.7s17.25 14.63 28.53 14.63h373.81c11.28 0 21.94-5.47 28.53-14.63 6.59-9.15 8.37-21.01 4.78-31.7zM222.03 58.31c26.01 0 47.17 21.16 47.17 47.17s-21.16 47.17-47.17 47.17-47.17-21.16-47.17-47.17c0-26 21.16-47.17 47.17-47.17zM413.1 370.56c-.57.8-1.88 2.14-4.17 2.14H35.13c-2.29 0-3.6-1.34-4.17-2.14-.57-.8-1.43-2.46-.7-4.63L76.72 227.7c.7-2.09 2.66-3.5 4.87-3.5h83.17c.73 0 1.45-.07 2.15-.17 23.8 39.05 47.49 71.49 49.48 74.19 1.32 1.8 3.41 2.86 5.64 2.86s4.32-1.06 5.64-2.86c1.98-2.7 25.64-35.1 49.43-74.11.54.06 1.09.1 1.65.1h83.71c2.21 0 4.16 1.41 4.87 3.5l46.46 138.23c.74 2.16-.11 3.83-.69 4.62z" fill="#444"/></svg>
