<svg xmlns="http://www.w3.org/2000/svg" viewBox="0 -194 1008 1008"><path fill="currentColor" d="M702 758v3c24 39 54 61 86 61 43 0 79-36 110-110s47-164 47-269-16-195-47-269S831 64 788 64c-32 0-62 22-86 61-25 39-45 93-57 159h81c35 0 66 17 89 45 23 29 37 68 37 112s-14 84-37 112-54 45-89 45h-81c12 67 32 121 57 160zm23-409l-89-2c-8 63-8 126 0 189h89c27 3 45-17 54-46 8-29 8-65 0-94-9-28-27-50-54-47zM410 536l7 2c58 0 112 21 164 63-11-50-14-101-14-157 0-54 3-106 14-158-51 42-105 63-164 63h-7c-27-3-45 19-54 47-9 29-9 65 0 94s27 49 54 46zM72 491v2c9 29 27 49 54 46h221c-21-24-32-59-32-94s11-70 32-95H126c-27-3-45 19-54 47-9 29-9 65 0 94zm306 459v-28l-4-4c-17-20-27-41-27-62V636c0-11 1-22 5-33H234c12 20 18 40 18 63v284h126zm0 63H255c-34 0-64-30-64-64V665c0-34-30-64-64-64-36 0-67-17-90-45S1 488 1 444s13-83 36-112c23-28 54-45 90-45h291c86 0 164-62 218-171h2C677 41 727 4 790 4c70 0 122 44 161 132 40 88 59 191 59 309 0 119-20 219-59 309-39 88-91 132-161 132-63 0-113-37-152-112h-2c-54-106-120-159-202-170-3 1-6 2-9 2v2c-5 3-8 6-9 9-1 1-2 2-2 3-1 4-3 8-3 12v222c0 5 8 15 16 27 7 11 15 24 15 36v32c0 34-30 64-64 64z"/></svg>
