<svg xmlns="http://www.w3.org/2000/svg" viewBox="0 0 72.97 72.97" overflow="visible"><style>.st0{fill:#f4b4d0}</style><path class="st0" d="M41.81 50.84a1.451 1.451 0 0 0 0-2.9 1.451 1.451 0 0 0 0 2.9zM25.49 50.84a1.451 1.451 0 0 0 0-2.9 1.451 1.451 0 0 0 0 2.9zM31.16 50.84a1.451 1.451 0 0 0 0-2.9 1.451 1.451 0 0 0 0 2.9z"/><path class="st0" d="M36.49 0C16.34 0 0 16.34 0 36.49s16.34 36.49 36.49 36.49 36.49-16.34 36.49-36.49S56.64 0 36.49 0zm0 15.33c1.26 0 2.28 1.02 2.28 2.28a2.27 2.27 0 0 1-2.28 2.27c-1.26 0-2.28-1.02-2.28-2.27 0-1.26 1.02-2.28 2.28-2.28zM14.24 25.2a2.279 2.279 0 1 1 4.56 0c0 1.26-1.02 2.28-2.28 2.28-1.27 0-2.28-1.02-2.28-2.28zM51 52.77H21.97L20.57 46h31.84L51 52.77zm1.81-8.7H20.16l-3.02-14.51 9.24 3.87 10.1-10.64 11.23 10.64 8.12-3.87-3.02 14.51zm3.65-16.59c-1.26 0-2.27-1.02-2.27-2.28s1.02-2.28 2.27-2.28c1.26 0 2.27 1.02 2.27 2.28s-1.01 2.28-2.27 2.28z"/><path class="st0" d="M47.74 50.84a1.451 1.451 0 0 0 0-2.9 1.451 1.451 0 0 0 0 2.9zM36.61 50.84a1.451 1.451 0 0 0 0-2.9c-.8 0-1.45.65-1.45 1.45-.01.8.65 1.45 1.45 1.45z"/></svg>
