<svg xmlns="http://www.w3.org/2000/svg" viewBox="0 -144 864 1008"><path fill="currentColor" d="M864 234v540c0 89-73 162-162 162H162C73 936 0 863 0 774V234C0 145 73 72 162 72h540c89 0 162 73 162 162zM720 671c0-3 0-6-1-9-4-10-86-52-101-61-11-6-24-18-37-18-25 0-61 73-83 73-11 0-26-10-36-15-74-42-125-93-167-167-5-10-15-25-15-36 0-22 73-58 73-83 0-13-12-26-18-37-9-15-51-97-61-101-3-1-6-1-9-1-15 0-44 6-57 12-37 17-64 88-64 127 0 38 15 72 28 107 45 123 179 257 302 302 35 13 69 28 107 28 39 0 110-27 127-64 6-13 12-42 12-57z"/></svg>
