<svg xmlns="http://www.w3.org/2000/svg" viewBox="0 0 50 40.1" overflow="visible"><path d="M48.95 7.96l.2.15c.55.75.85 1.49.85 2.29s0 1.49-.05 2.09-.2 1.34-.4 2.19c-.2.85-.5 1.49-.95 1.94s-1.09.8-1.94 1.09c-.85.3-1.79.35-2.89.2-1.09-.15-1.99-.3-2.74-.5-.75-.2-1.34-.4-1.84-.6-.5-.2-.9-.5-1.24-.85-.35-.35-.6-.65-.75-.9s-.3-.65-.4-1.14c-.1-.65-.15-1.29-.15-1.99v-1.24c0-2.14-3.88-3.18-11.64-3.18s-11.64 1.04-11.64 3.18v1.79s-.05.6-.1 1.04c-.05.45-.15.8-.25 1.04-.1.25-.25.55-.45.9s-.5.6-.85.8c-.35.2-.75.4-1.24.65-.85.4-2.04.7-3.58.9-1.54.2-2.74.15-3.58-.15-.85-.3-1.49-.65-1.94-1.09s-.75-1.09-.95-1.94-.35-1.59-.4-2.19S0 11.04 0 10.05c0-.95.6-1.99 1.79-3.13s2.84-2.24 4.88-3.28 4.68-1.89 7.91-2.59S20.95.01 23.98.01s5.72.15 8.01.45c2.29.3 4.33.75 6.12 1.29 1.79.55 3.43 1.14 4.93 1.84s2.74 1.39 3.68 2.14 1.68 1.48 2.23 2.23zM24.82 33.83c1.74 0 3.23-.6 4.48-1.84 1.24-1.24 1.84-2.74 1.84-4.48 0-1.74-.6-3.23-1.84-4.48s-2.74-1.84-4.48-1.84c-1.74 0-3.23.6-4.48 1.84s-1.84 2.74-1.84 4.48c0 1.74.6 3.23 1.84 4.48 1.25 1.24 2.74 1.84 4.48 1.84zm18.06-8.11l1.39 8.61c.25 1.54-.2 2.89-1.19 4.03-.99 1.14-2.24 1.74-3.78 1.74H10.2c-1.54 0-2.79-.6-3.78-1.74-.99-1.14-1.39-2.49-1.19-4.03l1.24-8.61c.2-1.29.9-2.24 2.04-2.89.35-.2.9-.4 1.64-.55s1.54-.4 2.39-.75c.85-.35 1.54-.75 2.14-1.24s1.09-.99 1.49-1.54c.4-.55.75-1.14.99-1.79.45-1.19.75-2.49.85-3.93 1.59-.3 3.83-.45 6.67-.45s5.07.15 6.67.45c.25 3.68 1.69 6.32 4.38 7.86 1.09.65 2.24 1.09 3.43 1.39 2.23.5 3.42 1.65 3.72 3.44z" fill="#040000"/></svg>
