<svg xmlns="http://www.w3.org/2000/svg" viewBox="0 -168 1008 1008"><path fill="currentColor" d="M557 725c-45 1-83-17-112-49l-53 179h-2c-10 18-28 28-49 28-32 0-57-26-57-57v-8l100-301-6-22-6-57c2-89 47-118 87-118 41 0 75 16 77 71-6 69-47 108-48 155-1 42 30 72 71 71 120-1 167-88 166-177-3-118-97-209-221-209-126 0-219 91-220 209-1 35 9 69 29 100 4 10 6 18 6 28 0 30-22 51-53 53-18-2-34-9-45-27-29-47-43-99-42-154 1-89 34-163 95-220 61-59 137-93 230-93s169 34 230 93c61 57 93 131 95 220 2 73-20 138-65 195s-114 89-207 90z"/></svg>
