<svg xmlns="http://www.w3.org/2000/svg" viewBox="0 -168 1008 1008"><path fill="currentColor" d="M167 86h674c47 0 82 35 82 82v674c0 47-35 82-82 82H167c-47 0-82-35-82-82V168c0-47 35-82 82-82zm378 596c150-6 220-114 219-230-1-71-28-130-77-175-50-47-110-75-183-75s-135 28-185 75c-49 45-74 104-75 175-1 45 12 86 34 124 8 14 19 20 37 22 24 0 41-18 41-42 0-10-2-16-6-21-13-26-21-54-23-83 2-93 77-164 177-164s176 71 177 164c1 73-37 142-134 144-31 0-55-26-57-58 6-39 36-70 38-126 0-41-28-55-59-55-32 0-69 24-69 95 0 18 1 34 4 45l4 16-81 242v6c0 26 21 45 47 47 18-2 30-10 39-23v2l44-144c25 25 55 37 88 39z"/></svg>
