<svg xmlns="http://www.w3.org/2000/svg" viewBox="0 0 56.11 33.13" overflow="visible"><style>.st0{fill:#123242}</style><path class="st0" d="M31.29.4c-1.78-.54-4.69-.54-6.47 0L1.33 7.53c-1.78.54-1.78 1.42 0 1.96l23.49 7.13c1.78.54 4.69.54 6.47 0L54.78 9.5c1.78-.54 1.78-1.42 0-1.96L31.29.4z"/><path class="st0" d="M28.06 21.69l-17.14-5.34v12.79s3.46 3.98 17.14 3.98 17.14-3.98 17.14-3.98V16.35l-17.14 5.34zM3.82 22.77H1.91V12.58l1.91.68z"/><path class="st0" d="M2.86 21.02L.47 25.44h2.39z"/><path class="st0" d="M2.86 21.02l2.39 4.42H2.86zM.47 25.44h4.78v3.13H.47z"/></svg>
