<svg xmlns="http://www.w3.org/2000/svg" viewBox="0 -168 1008 1008"><path fill="currentColor" d="M167 337v252h674V337H626l89 118-69 49-142-193-142 193-69-49 89-118H167zm0 378v82h674v-82H167zm241-534c-39-42-97 22-60 59 38 38 95-20 60-59zm252 0c-39-42-97 22-60 59 38 38 95-20 60-59zm88 71h93c47 0 82 37 82 85v460c0 48-35 85-82 85H167c-47 0-82-37-82-85V337c0-48 35-85 82-85h93c-6-18-8-32-8-41 0-69 57-126 126-126 43 0 78 18 104 55l22 29 22-29c26-37 61-55 104-55 69 0 126 57 126 126 0 9-2 23-8 41z"/></svg>
