<svg xmlns="http://www.w3.org/2000/svg" viewBox="0 0 430.05 466.46" overflow="visible"><path d="M393.09 205.23v-27.16C393.09 79.88 313.21 0 215.03 0 116.84 0 36.96 79.88 36.96 178.07v27.16C15.26 214.47 0 236.01 0 261.04v46.4c0 33.43 27.2 60.63 60.63 60.63h7.91c19.51 0 35.39-15.87 35.39-35.39V235.8c0-19.51-15.87-35.38-35.39-35.38h-1.58v-22.35C66.96 96.42 133.38 30 215.03 30c81.64 0 148.07 66.42 148.07 148.07v22.35h-1.58c-19.51 0-35.39 15.87-35.39 35.38v96.88c0 17.37 12.58 31.84 29.1 34.82-6.59 27.31-30.48 47.94-59.38 49.57-1.08-1.56-2.3-3.03-3.66-4.4-5.95-5.95-13.86-9.23-22.28-9.24l-30.69-.01c-17.37 0-31.5 14.13-31.51 31.5-.01 17.37 14.13 31.51 31.5 31.52l30.67.01h.01c13.13 0 24.4-8.08 29.13-19.52 44.65-3.22 80.83-37.45 87.06-81.21 25.35-7.26 43.95-30.63 43.95-58.28v-46.4c.02-25.03-15.23-46.57-36.94-55.81zM269.91 454.96z" fill="#444"/></svg>
