<svg xmlns="http://www.w3.org/2000/svg" viewBox="0 0 72.28 55.62" overflow="visible"><style>.st0{fill:#394553}</style><path class="st0" d="M57.42 34.86l2.03-7.34-2.41-.67-1.78 6.42h-6.65l1.35-9.47-1.24-1.43h-9.98v-7.36l6.06.41.17-2.49-29.63-2.02-1.62-7.79c-.12-.58-.63-1-1.22-1H1.25C.56 2.13 0 2.69 0 3.38s.56 1.25 1.25 1.25h10.24l6.23 30.08s.15.59.17.74c.8 4.4 2.45 7.42 4.97 9.13a5.92 5.92 0 0 0-2.93 5.1c0 3.27 2.66 5.93 5.93 5.93s5.93-2.66 5.93-5.93c0-1.28-.41-2.46-1.1-3.43h16.79c-.69.97-1.1 2.15-1.1 3.43 0 3.27 2.66 5.93 5.93 5.93s5.93-2.66 5.93-5.93-2.66-5.93-5.93-5.93c-.16 0-.31.01-.46.02-.04 0-.07-.02-.11-.02h-22.8c-3.14 0-6.89-.95-8.42-7.99l35.69.01c.57.01 1.06-.37 1.21-.91zM25.87 53.12c-1.89 0-3.43-1.54-3.43-3.43s1.54-3.43 3.43-3.43 3.43 1.54 3.43 3.43-1.54 3.43-3.43 3.43zm29.87-3.43c0 1.89-1.54 3.43-3.43 3.43s-3.43-1.54-3.43-3.43 1.54-3.43 3.43-3.43 3.43 1.54 3.43 3.43zm-8.45-24.81l-1.2 8.39h-7.34v-8.39h8.54zm-27.31 8.39l-1.74-8.39h7.08l1.19 8.39h-6.53zm7.87-8.39h8.4v8.39h-7.21l-1.19-8.39zm8.4-2.5h-8.76l-1.16-8.21 9.92.68v7.53zM23.78 14l1.19 8.38h-7.24l-1.85-8.92 7.9.54z"/><path class="st0" d="M59.82 0c-6.87 0-12.46 5.59-12.46 12.46 0 6.87 5.59 12.46 12.46 12.46 6.87 0 12.46-5.59 12.46-12.46C72.28 5.59 66.69 0 59.82 0zm0 22.42c-5.49 0-9.96-4.47-9.96-9.96 0-5.49 4.47-9.96 9.96-9.96 5.49 0 9.96 4.47 9.96 9.96 0 5.49-4.47 9.96-9.96 9.96z"/><path class="st0" d="M61.07 6.98h-2.5v4.23h-4.22v2.5h4.22v4.22h2.5v-4.22h4.23v-2.5h-4.23z"/></svg>
