<svg xmlns="http://www.w3.org/2000/svg" viewBox="0 0 63.69 53.48" overflow="visible"><path d="M57.41 32.78l6.22-19.19c.12-.37.06-.77-.15-1.09-.22-.32-.57-.52-.95-.55L15.35 8.79 13.74 1c-.12-.58-.63-1-1.22-1H1.25a1.25 1.25 0 0 0 0 2.5h10.24l6.23 30.08s.14.58.17.74c.8 4.4 2.45 7.42 4.97 9.13a5.92 5.92 0 0 0-2.93 5.1c0 3.27 2.66 5.93 5.93 5.93 3.27 0 5.93-2.66 5.93-5.93 0-1.28-.41-2.46-1.1-3.43h16.79c-.69.97-1.1 2.15-1.1 3.43 0 3.27 2.66 5.93 5.93 5.93 3.27 0 5.93-2.66 5.93-5.93s-2.66-5.93-5.93-5.93c-.16 0-.31.01-.46.02-.04 0-.07-.02-.11-.02h-22.8c-3.14 0-6.89-.95-8.42-7.99l35.69.01c.55.01 1.03-.34 1.2-.86zm-31.54 18.2c-1.89 0-3.43-1.54-3.43-3.43s1.54-3.43 3.43-3.43 3.43 1.54 3.43 3.43-1.54 3.43-3.43 3.43zm29.87-3.42c0 1.89-1.54 3.43-3.43 3.43-1.89 0-3.43-1.54-3.43-3.43s1.54-3.43 3.43-3.43c1.89 0 3.43 1.54 3.43 3.43zm3.1-27.31h-8.66l.94-6.56 9.63.65-1.91 5.91zM19.98 31.14l-1.74-8.39h7.08l1.19 8.39h-6.53zm7.87-8.39h8.4v8.39h-7.21l-1.19-8.39zm-.36-2.5l-1.17-8.22 9.92.67v7.55h-8.75zm11.26 2.5h8.55l-1.21 8.39h-7.34v-8.39zm0-2.5v-7.39l9.87.66-.97 6.72h-8.9zm-14.97-8.39l1.19 8.39h-7.24l-1.85-8.92 7.9.53zm24.84 19.28l1.21-8.39h8.21l-2.72 8.4-6.7-.01z"/></svg>
