<svg xmlns="http://www.w3.org/2000/svg" viewBox="0 0 286.77 286.77" overflow="visible"><style>.st0{fill:#03b4ea}</style><path class="st0" d="M260.95 0H25.81C11.56 0 0 11.56 0 25.81v235.14c0 14.26 11.56 25.81 25.81 25.81h235.14c14.26 0 25.81-11.56 25.81-25.81V25.81C286.77 11.56 275.21 0 260.95 0zm-27.42 225.89c-9.77 11.02-22.1 17.37-36.73 19.22-1.22.15-2.43.34-3.66.42-1.18.07-2.37.02-3.56.02-10.3.02-19.94-2.48-28.89-7.56-1.49-.84-2.9-1.05-4.55-.85-18.57 2.25-36.44-.21-53.5-8.08-11.36-5.24-21.39-12.36-29.97-21.45-10.13-10.73-17.55-23.12-22.05-37.23-2.36-7.42-3.92-14.97-4.38-22.76-.4-6.74-.36-13.46.57-20.15.2-1.47-.01-2.71-.77-4.02-4.18-7.3-6.72-15.14-7.4-23.55-1.59-19.56 4.86-36.1 19.2-49.37 9.08-8.41 19.99-13.25 32.33-14.73 12.92-1.55 25.03.93 36.34 7.31 1.51.85 2.91.74 4.46.66 5.55-.3 11.11-.88 16.64-.7 14.34.45 27.91 4.14 40.65 10.73 10.06 5.19 19 11.94 26.67 20.27 9.86 10.71 17.13 22.98 21.5 36.93a97.227 97.227 0 0 1 4.36 24.28c.32 6.36-.02 12.65-.72 18.95-.1.88.12 1.94.55 2.71 4.53 8.08 7.22 16.67 7.77 25.96.97 16.41-4.02 30.76-14.86 42.99z"/><path class="st0" d="M193.08 150.73c-3.46-7.43-9.46-12.13-16.61-15.58-7.4-3.57-15.3-5.63-23.22-7.6-6.59-1.64-13.21-3.16-19.78-4.89-3.81-1.01-7.37-2.67-10.52-5.11-4.55-3.52-5.48-9.45-2.09-14.1 2.68-3.68 6.59-5.52 10.81-6.78 4.63-1.38 9.41-1.24 14.12-.92 2.94.2 5.97.95 8.71 2.06 4.79 1.93 7.62 6.07 10.24 10.3 1.35 2.17 2.61 4.39 4.08 6.48 3.42 4.83 8.88 5.38 13.3 3.82 6.1-2.15 9.05-8.27 7.49-15.14-1.5-6.56-5.48-11.45-10.62-15.49-8.81-6.92-19.14-9.61-30.08-10.22-4.67-.26-9.38-.12-14.05.2-8.44.59-16.62 2.43-24.1 6.57-11.41 6.32-17.61 15.78-17.1 29.14.38 9.8 4.94 17.24 12.84 22.82 5.71 4.04 12.15 6.48 18.8 8.3 7.34 2.01 14.78 3.62 22.17 5.47 4.47 1.12 8.92 2.29 13.04 4.44 7.87 4.1 10.66 12.07 6.7 19.55-1.96 3.71-5.24 6.06-8.95 7.75-8.04 3.65-16.46 3.85-24.91 2.04-5.22-1.12-9.73-3.82-12.7-8.4-2.05-3.16-3.82-6.53-5.37-9.97-3.27-7.29-8.7-10.43-15.79-8.56-5.17 1.36-8.43 5.49-8.46 10.95-.02 3.42.89 6.78 2.37 9.91 4.63 9.8 12.08 16.69 21.99 20.91 8.96 3.82 18.44 4.91 28.1 5.05 2.82-.17 5.64-.29 8.45-.54 8.49-.73 16.63-2.73 24.19-6.8 5.26-2.83 9.77-6.52 13.27-11.4 4.81-6.72 6.75-14.29 6.36-22.46-.16-4.07-.93-8.05-2.68-11.8z"/></svg>
