<svg xmlns="http://www.w3.org/2000/svg" viewBox="0 -144 864 1008"><path fill="currentColor" d="M864 720c0 119-97 216-216 216-49 0-95-17-132-45-27 6-55 9-84 9-219 0-396-177-396-396 0-29 3-57 9-84-28-37-45-83-45-132C0 169 97 72 216 72c49 0 95 17 132 45 27-6 55-9 84-9 219 0 396 177 396 396 0 29-3 57-9 84 28 37 45 83 45 132zM660 598c0-98-95-131-175-150l-59-13c-42-10-74-18-74-50 0-30 31-44 81-44 88 0 90 65 144 65 37 0 59-29 59-61 0-65-108-107-214-107-97 0-211 42-211 156 0 95 64 128 146 148l82 20c50 13 81 19 81 54 0 29-32 51-82 51-104 0-109-87-170-87-39 0-57 29-57 60 0 69 106 125 233 125 106 0 216-53 216-167z"/></svg>
