<svg xmlns="http://www.w3.org/2000/svg" viewBox="0 -189 776 1008"><path fill="currentColor" d="M685 287l2-4c31-4 60-11 91-23-27 35-51 63-79 82v20c0 115-41 218-124 313-82 94-191 140-329 140-90 0-171-24-245-71 8 3 20 2 37 2 74 0 139-23 199-69-70-3-128-46-149-110 13 3 22 4 29 4 16 0 30-2 43-6-36-7-67-27-90-55-24-27-37-62-37-101v-4c27 15 50 22 70 22-46-32-69-76-69-134 0-29 5-56 20-77 86 105 194 159 329 166-3-16-4-28-4-36 0-44 18-83 47-112 28-28 68-46 112-46 48 0 87 16 116 50 38-8 71-18 100-37-12 39-35 67-69 86z"/></svg>
