<svg xmlns="http://www.w3.org/2000/svg" viewBox="0 -202 840 1008"><path fill="currentColor" d="M25 96c15-15 36-24 59-24h210c23 0 44 9 60 24 15 16 24 37 24 61v210c0 24-9 44-24 59-16 15-37 24-60 24H84c-48 0-84-36-84-83V157c0-24 9-45 25-61zm463 0c15-15 35-24 58-24h210c23 0 43 9 59 24 15 16 25 37 25 61v210c0 24-10 44-25 59-16 15-36 24-59 24H546c-24 0-44-9-59-25-16-15-25-35-25-58V157c0-24 10-45 26-61zM84 157v210h210V157H84zm462 0v210h210V157H546zM0 619c0-48 36-84 84-84h210c47 0 84 36 84 84v209c0 48-37 85-84 85H84c-47 0-84-37-84-85V619zm487-60c15-15 35-24 59-24h210c46 0 84 36 84 84v209c0 48-38 85-84 85H546c-46 0-84-37-84-85V619c0-23 9-44 25-60zM84 619v209h210V619H84zm462 0v209h210V619H546z"/></svg>
