<svg xmlns="http://www.w3.org/2000/svg" viewBox="0 -189 1008 1008"><path fill="currentColor" d="M961 631H404c-26 0-48-22-48-47V426c0-25 22-47 48-47h557c25 0 47 22 47 47v158c0 25-22 47-47 47zM356 269V111c0-25 22-47 48-47h557c25 0 47 22 47 47v158c0 25-22 47-47 47H404c-26 0-48-22-48-47zm605 677H404c-26 0-48-22-48-47V741c0-25 22-47 48-47h557c25 0 47 22 47 47v158c0 25-22 47-47 47zM47 64h199c26 0 47 22 47 47v158c0 25-21 47-47 47H47c-25 0-47-22-47-47V111c0-25 22-47 47-47zM0 899V741c0-25 22-47 47-47h199c26 0 47 22 47 47v158c0 25-21 47-47 47H47c-25 0-47-22-47-47zm293-473v158c0 25-21 47-47 47H47c-25 0-47-22-47-47V426c0-25 22-47 47-47h199c26 0 47 22 47 47z"/></svg>
