<svg xmlns="http://www.w3.org/2000/svg" viewBox="0 -202 756 1008"><path fill="currentColor" d="M36 414v1c-24-25-36-55-36-90v-83c0-36 12-65 36-89 25-25 55-37 90-37h84c35 0 64 12 88 37 25 25 38 52 38 88v83c0 35-13 65-38 90-24 24-53 36-88 36h-84c-36 0-66-12-90-36zm421 1v1c-24-25-37-55-37-90v-83c0-36 13-65 37-89 25-25 54-37 89-37h84c35 0 65 12 89 37s37 52 37 88v83c0 35-12 65-37 90-24 24-53 36-89 36h-84c-36 0-65-12-89-36zM36 835c-24-24-36-53-36-88v-84c0-36 12-65 36-89 25-25 55-37 90-37h84c35 0 64 12 88 37 25 25 38 54 38 89v84c0 35-13 64-38 88-24 25-53 38-88 38h-84c-35 0-65-13-90-38zm421 0c-24-24-37-53-37-88v-84c0-36 13-65 37-89 25-25 54-37 89-37h84c34 0 64 12 89 37s37 55 37 89v84c0 34-12 64-37 88-25 25-54 38-89 38h-84c-35 0-64-13-89-38z"/></svg>
