<svg xmlns="http://www.w3.org/2000/svg" viewBox="0 -202 840 1008"><path fill="currentColor" d="M331 110c25-25 54-38 89-38h294c35 0 64 13 88 38 25 24 38 53 38 88s-13 65-38 90c-24 24-53 36-88 36H420c-36 0-65-12-89-36-24-25-37-55-37-90s13-64 37-88zM25 96c15-15 36-24 59-24h84c23 0 44 9 60 24 15 16 24 37 24 61v84c0 46-36 83-84 83H84c-48 0-84-37-84-83v-84c0-24 9-45 25-61zm731 102c0-23-19-41-42-41H420c-23 0-42 18-42 41s19 43 42 43h294c23 0 42-20 42-43zM84 157v84h84v-84H84zm247 247v1c25-25 54-37 89-37h294c35 0 64 12 88 37 25 25 38 52 38 88 0 35-13 64-38 89-24 24-53 37-88 37H420c-35 0-65-13-89-37s-37-54-37-89c0-36 13-65 37-89zM0 451c0-46 36-83 84-83h84c48 0 84 37 84 83v85c0 46-36 84-84 84H84c-48 0-84-38-84-84v-85zm756 43c0-24-19-43-42-43H420c-23 0-42 19-42 43 0 23 19 42 42 42h294c23 0 42-19 42-42zM84 451v85h84v-85H84zm247 248c25-25 54-37 89-37h294c35 0 64 12 88 37 25 25 38 54 38 89s-13 64-38 89c-24 25-53 37-88 37H420c-35 0-64-12-89-37-24-24-37-54-37-89 0-36 13-65 37-89zM0 746c0-47 36-84 84-84h84c48 0 84 37 84 84v83c0 48-37 85-84 85H84c-47 0-84-37-84-85v-83zm756 42c0-23-19-42-42-42H420c-23 0-42 19-42 42s19 41 42 41h294c23 0 42-18 42-41zM84 746v83h84v-83H84z"/></svg>
