<svg xmlns="http://www.w3.org/2000/svg" viewBox="0 -202 777 1008"><path fill="currentColor" d="M210 198c0 70-34 105-105 105C35 303 0 268 0 198 0 127 35 93 105 93c71 0 105 34 105 105zm129-59c15-15 36-24 60-24h295c46 0 83 37 83 83 0 48-37 85-83 85H399c-23 0-44-10-59-26-16-15-26-36-26-59s9-43 25-59zM210 493c0 70-34 104-105 104C35 597 0 563 0 493c0-71 35-105 105-105 71 0 105 34 105 105zm129-60c15-15 36-24 60-24h295c46 0 83 37 83 84 0 46-37 83-83 83H399c-24 0-45-9-60-25-16-15-25-35-25-58s9-44 25-60zM210 787c0 71-34 105-105 105C35 892 0 858 0 787s35-105 105-105c71 0 105 34 105 105zm130-60c15-15 36-25 59-25h295c23 0 43 9 59 24 15 16 24 37 24 61 0 46-37 84-83 84H399c-24 0-45-10-60-25-16-16-25-36-25-59s10-44 26-60z"/></svg>
