<svg xmlns="http://www.w3.org/2000/svg" viewBox="0 -202 840 1008"><path fill="currentColor" d="M36 110c25-25 55-38 90-38h588c35 0 64 13 88 38 25 24 38 53 38 88s-13 65-38 90c-24 24-53 36-88 36H126c-36 0-66-12-90-36-24-25-36-55-36-90s12-64 36-88zm720 88c0-23-19-41-42-41H126c-23 0-42 18-42 41s19 43 42 43h588c23 0 42-20 42-43zM36 404v1c25-25 55-37 90-37h588c35 0 64 12 88 37 25 25 38 52 38 88 0 35-13 64-38 89-24 24-53 37-88 37H126c-35 0-65-13-90-37-24-24-36-54-36-89 0-36 12-65 36-89zm720 90c0-24-19-43-42-43H126c-23 0-42 19-42 43 0 23 19 42 42 42h588c23 0 42-19 42-42zM36 699c25-25 55-37 90-37h588c35 0 64 12 88 37 25 25 38 54 38 89s-13 64-38 89c-24 25-53 37-88 37H126c-35 0-65-12-90-37-24-24-36-54-36-89 0-36 12-65 36-89zm720 89c0-23-19-42-42-42H126c-23 0-42 19-42 42s19 41 42 41h588c23 0 42-18 42-41z"/></svg>
