<svg xmlns="http://www.w3.org/2000/svg" viewBox="0 -202 840 1008"><path fill="currentColor" d="M25 96c15-15 36-24 59-24h84c23 0 44 9 60 24 15 16 24 37 24 61v84c0 46-36 83-84 83H84c-48 0-84-37-84-83v-84c0-24 9-45 25-61zm295 0c15-15 35-24 58-24h84c23 0 43 9 59 24 15 16 25 37 25 61v84c0 23-9 43-24 58-16 16-36 25-60 25h-84c-24 0-44-9-59-25-16-15-25-35-25-58v-84c0-24 10-45 26-61zm268 61c0-47 37-85 84-85h84c23 0 43 9 59 24 15 16 25 37 25 61v84c0 46-38 83-84 83h-84c-24 0-44-9-59-25-16-15-25-35-25-58v-84zm-504 0v84h84v-84H84zm294 0v84h84v-84h-84zm294 0v84h84v-84h-84zM0 450c0-46 36-83 84-83h84c48 0 84 37 84 83v85c0 46-36 84-84 84H84c-48 0-84-38-84-84v-85zm319-59c15-15 35-24 59-24h84c24 0 44 9 60 24 15 16 24 36 24 59v85c0 23-9 43-24 58-16 16-36 26-60 26h-84c-24 0-44-10-59-26-16-15-25-35-25-58v-85c0-23 9-43 25-59zm294 0c15-15 35-24 59-24h84c46 0 84 37 84 83v85c0 46-38 84-84 84h-84c-24 0-44-10-59-26-16-15-25-35-25-58v-85c0-23 9-43 25-59zM84 450v85h84v-85H84zm294 0v85h84v-85h-84zm294 0v85h84v-85h-84zM0 745c0-47 36-84 84-84h84c48 0 84 37 84 84v83c0 48-37 85-84 85H84c-47 0-84-37-84-85v-83zm319-60c15-15 35-24 59-24h84c24 0 44 9 60 24 15 16 24 37 24 60v83c0 48-38 85-84 85h-84c-46 0-84-37-84-85v-83c0-23 9-44 25-60zm294 0c15-15 35-24 59-24h84c46 0 84 37 84 84v83c0 48-38 85-84 85h-84c-47 0-84-37-84-85v-83c0-23 9-44 25-60zM84 745v83h84v-83H84zm294 0v83h84v-83h-84zm294 0v83h84v-83h-84z"/></svg>
