<svg xmlns="http://www.w3.org/2000/svg" viewBox="0 -202 798 1008"><path fill="currentColor" d="M210 198c0 70-34 105-105 105C35 303 0 268 0 198 0 127 35 93 105 93c71 0 105 34 105 105zm294 0c0 70-34 105-105 105-70 0-105-35-105-105 0-71 35-105 105-105 71 0 105 34 105 105zm84 0c0-71 35-105 106-105 70 0 104 34 104 105 0 70-34 105-104 105-71 0-106-35-106-105zM210 493c0 70-34 104-105 104C35 597 0 563 0 493c0-71 35-105 105-105 71 0 105 34 105 105zm294 0c0 70-34 104-105 104-70 0-105-34-105-104 0-71 35-105 105-105 71 0 105 34 105 105zm84 0c0-71 35-105 106-105 70 0 104 34 104 105 0 70-34 104-104 104-71 0-106-34-106-104zM210 787c0 71-34 105-105 105C35 892 0 858 0 787s35-105 105-105c71 0 105 34 105 105zm294 0c0 71-34 105-105 105-70 0-105-34-105-105s35-105 105-105c71 0 105 34 105 105zm84 0c0-71 35-105 106-105 70 0 104 34 104 105s-34 105-104 105c-71 0-106-34-106-105z"/></svg>
