<svg xmlns="http://www.w3.org/2000/svg" viewBox="0 -202 714 1008"><path fill="currentColor" d="M583 721v-1c7-3 18-16 19-25l28-251c1-7-1-12-5-13-8-3-36-7-87-12-50-7-81-10-96-11l-56 8 13-59c15-64 20-121 20-180 0-13-10-20-21-20s-21 7-21 20c0 59-11 106-35 142-12 19-21 31-29 42-9 11-19 22-32 35-19 19-29 38-29 55v210c0 16 6 28 15 35 13 9 38 20 80 31 40 12 79 18 115 18 42 0 77-6 106-18zm-92-393l1-1c92 9 145 17 162 24 40 16 64 61 59 104l-29 251c-4 43-37 79-72 92l-13 5c-39 15-85 23-137 23-44 0-90-6-140-21-51-13-84-28-105-44l-8-8c-27 21-54 32-83 32-35 0-65-12-90-36-24-25-36-55-36-90V407c0-36 12-65 36-89 25-25 55-37 90-37 42 0 75 17 100 51 24-24 40-44 52-68 11-24 16-51 16-87 0-28 12-55 31-75 19-19 46-31 74-31 29 0 55 12 74 31 19 20 31 47 31 75 0 51-4 100-13 151zM127 700c23 0 42-18 42-41V407c0-23-19-42-42-42s-42 19-42 42v252c0 23 19 41 42 41z"/></svg>
