<svg xmlns="http://www.w3.org/2000/svg" viewBox="0 -144 864 1008"><path fill="currentColor" d="M864 431c0 33-10 65-28 92 4 13 6 26 6 39 0 28-8 56-22 81 1 8 2 16 2 24 0 36-12 72-34 100 1 107-71 169-175 169h-73c-80 0-154-24-228-50-17-5-62-22-78-22H72c-40 0-72-32-72-72V432c0-40 32-72 72-72h154c22-15 60-65 77-87 19-25 39-49 60-72 34-36 16-125 72-180 14-13 32-21 51-21 59 0 115 21 142 75 18 35 20 67 20 105 0 39-10 73-27 108h99c78 0 144 66 144 143zm-72 1c0-38-34-72-72-72H522c0-66 54-114 54-180S563 72 486 72c-36 37-17 123-72 180-16 16-29 34-43 51-26 33-93 129-137 129h-18v360h18c32 0 83 20 114 31 61 21 126 41 192 41h68c64 0 108-25 108-94 0-11-1-21-3-31 24-13 37-45 37-71 0-14-4-27-10-39 19-18 30-41 30-67 0-18-8-45-20-58 26-1 42-51 42-72zM144 756c0-20-16-36-36-36s-36 16-36 36 16 36 36 36 36-16 36-36z"/></svg>
