<svg xmlns="http://www.w3.org/2000/svg" viewBox="0 -192 1260 1008"><path fill="currentColor" d="M587 568h33l-4 4c146 0 264 118 264 264v82c0 52-41 93-92 93H95c-52 0-93-43-93-96v-83c0-146 118-264 264-264h33c44 20 93 31 144 31s100-11 144-31zm-144-63c-140 0-252-112-252-252S303 1 443 1s252 112 252 252-112 252-252 252zm809-122l-90 90 90 91c12 12 12 32 0 43l-45 46c-12 11-32 11-43 0l-91-91-91 91c-11 11-31 11-43 0l-45-46c-12-11-12-31 0-43l90-91-90-90c-12-12-12-32 0-43l45-46c12-11 32-11 43 0l91 91 91-91c11-11 31-11 43 0l45 46c12 11 12 31 0 43z"/></svg>
