<svg xmlns="http://www.w3.org/2000/svg" viewBox="0 -192 1260 1008"><path fill="currentColor" d="M585 568h33l-4 4c146 0 264 118 264 264v82c0 52-41 93-92 93H93c-52 0-93-43-93-96v-83c0-146 118-264 264-264h33c44 20 93 31 144 31s100-11 144-31zm-144-63c-140 0-252-112-252-252S301 1 441 1s252 112 252 252-112 252-252 252zm662-95h126c17 0 31 14 31 32v63c0 18-14 31-31 31h-126v126c0 18-14 32-32 32h-63c-18 0-31-14-31-32V536H851c-18 0-32-13-32-31v-63c0-18 14-32 32-32h126V284c0-17 13-31 31-31h63c18 0 32 14 32 31v126z"/></svg>
