<svg xmlns="http://www.w3.org/2000/svg" viewBox="-2 -189 1260 1008"><path fill="currentColor" d="M1024 572h8l-8 2c122 0 220 98 220 220 0 52-41 93-92 93H803c0-4 2-8 2-12v-75c0-76-29-145-77-197 34-19 71-31 111-31h8c27 10 57 16 88 16 32 0 61-6 89-16zm-87-63c-104 0-189-85-189-189s85-189 189-189 189 85 189 189-85 189-189 189zm-423 59h16l-8 4c126 0 228 102 228 228v57c0 52-41 93-92 93H91c-52 0-93-43-93-97v-57c0-126 102-228 228-228h16c42 20 87 31 136 31s95-11 136-31zm-136-63c-122 0-220-98-220-221 0-122 98-220 220-220s221 98 221 220c0 123-99 221-221 221z"/></svg>
