<svg xmlns="http://www.w3.org/2000/svg" viewBox="0 -144 792 1008"><path fill="currentColor" d="M640 640c-9 0-18-3-25-11-14-14-14-36 0-50 67-68 105-159 105-255S682 137 615 69c-14-14-14-36 0-50 14-15 36-15 50 0 82 81 127 190 127 305s-45 224-127 305c-7 7-16 11-25 11zM538 538c-9 0-18-3-25-10-14-15-14-37 0-51 41-41 63-95 63-153s-22-112-63-153c-14-14-14-37 0-51s37-14 51 0c54 55 84 127 84 204s-30 149-84 204c-7 7-17 10-26 10zM437 436c-10 0-19-3-26-10-14-14-14-37 0-51s21-32 21-51-7-37-21-51c-14-15-14-37 0-51s37-14 51 0c27 27 42 64 42 102s-15 75-42 102c-7 7-17 10-25 10zm-90 514c0-13-30-109-36-132-4-14-4-37-15-47-7-7-19-8-29-8-26 0-53 6-79 6-8 0-20 0-27-6-9-7-13-32-16-44-14-46-21-94-21-143s7-97 21-143c3-12 7-37 16-44 7-6 19-7 27-7 26 0 53 7 79 7 10 0 22-1 29-8 11-10 11-33 15-47 6-23 36-119 36-132 0-19-51-47-67-54-8-3-17-4-25-4-19 0-37 5-55 10-93 27-114 84-151 163C10 402 0 483 0 576s10 174 49 259c37 79 58 136 151 163 18 5 36 10 55 10 8 0 17-1 25-5 16-6 67-34 67-53z"/></svg>
