<svg xmlns="http://www.w3.org/2000/svg" viewBox="0 0 464.66 400.48" overflow="visible"><path d="M458.58 24.82L439.84 6.08C435.92 2.16 430.6 0 424.86 0c-6.33 0-12.63 2.68-17.3 7.34l-98.44 98.44c-1.9-.87-4-1.36-6.22-1.36H36.86C16.54 104.42 0 120.96 0 141.29v222.33c0 20.33 16.54 36.86 36.86 36.86h305.97c20.33 0 36.86-16.54 36.86-36.86V143.87c0-2.64-.69-5.11-1.88-7.27l79.5-79.5c4.38-4.38 6.97-10.06 7.31-16.01.36-6.25-1.79-12.02-6.04-16.27zM349.7 363.62c0 3.79-3.08 6.86-6.86 6.86H36.86c-3.79 0-6.86-3.08-6.86-6.86V141.29c0-3.78 3.08-6.86 6.86-6.86h243.62L200.4 214.5c-.85.85-1.47 1.9-1.79 3.06l-15.5 55.36c-.68 2.44 0 5.05 1.79 6.84a7.004 7.004 0 0 0 6.84 1.79l55.36-15.5c1.16-.32 2.21-.94 3.06-1.79l99.54-99.54v198.9z" fill="#444"/></svg>
