<svg xmlns="http://www.w3.org/2000/svg" viewBox="-5 -202 706 1008"><path fill="currentColor" d="M202 450c0 59 21 108 61 150 42 42 91 62 150 62s108-20 148-62c42-42 62-91 62-150s-20-108-62-148c-40-42-89-61-148-61s-108 19-150 61c-40 40-61 89-61 148zm42 0h-2c0-47 17-86 49-118 34-34 74-50 120-50 47 0 85 17 119 49 34 34 51 73 51 119s-17 86-51 120c-32 34-71 51-118 51-44 0-84-17-119-51-32-34-49-73-49-120zm40 0h-1c0 35 13 65 37 90 24 24 53 36 89 36s65-12 89-36c25-25 37-55 37-90s-12-64-37-88c-25-25-52-38-88-38-35 0-64 13-89 38-24 24-37 53-37 88zm333 209l-3-3c-59 58-125 86-208 86-29 0-58-5-90-16l-98 98c-27 27-57 36-92 36s-66-13-93-40C8 795-5 764-5 728s13-67 37-91l64-65 32-32c-9-32-15-62-15-91 0-82 28-151 86-207 58-58 127-86 209-86s151 28 209 86 86 126 86 208c0 80-28 150-86 209z"/></svg>
