<svg xmlns="http://www.w3.org/2000/svg" viewBox="0 0 427.92 427.92" overflow="visible"><style>.st0{fill:#fff}</style><path class="st0" d="M213.96 56c87.24 0 157.96 70.73 157.96 157.96S301.2 371.91 213.96 371.92C126.72 371.92 56 301.2 56 213.96S126.72 56 213.96 56m0-56c-28.86 0-56.88 5.66-83.3 16.84-25.48 10.78-48.36 26.2-67.99 45.83s-35.05 42.51-45.83 67.99C5.66 157.08 0 185.1 0 213.96s5.67 56.89 16.84 83.3c10.78 25.48 26.2 48.36 45.83 67.99s42.51 35.05 67.99 45.83c26.41 11.18 54.44 16.84 83.3 16.84s56.89-5.67 83.3-16.84c25.48-10.78 48.36-26.2 67.99-45.83s35.05-42.51 45.83-67.99c11.18-26.41 16.84-54.44 16.84-83.3s-5.66-56.89-16.84-83.3c-10.78-25.48-26.2-48.36-45.83-67.99-19.63-19.63-42.51-35.05-67.99-45.83C270.85 5.66 242.82 0 213.96 0z"/><path class="st0" d="M182.74 278.37V143.31l95.48 67.63z"/></svg>
