<svg xmlns="http://www.w3.org/2000/svg" viewBox="0 0 382.87 382.87" overflow="visible"><style>.st0{fill:#4695d6}</style><path class="st0" d="M203.3 182.97c-.06-39.97-.06-79.94 0-119.91.33-4.49-1.85-8.79-5.68-11.17a10.89 10.89 0 0 0-11.82-.23 11.74 11.74 0 0 0-6.09 10.95v117.2l-4.68-.06H88.95c-1.96-.02-3.91.16-5.84.52-2.55.51-4.86 1.86-6.55 3.84-4.16 4.87-3.59 12.19 1.27 16.35 2.67 2.21 6.12 3.25 9.56 2.89h37.89c21.71 0 43.4.07 65.1 0 .87.09 1.76.09 2.63-.01 6.43-.76 11.03-6.59 10.28-13.02v-7.35z"/><path class="st0" d="M191.44 382.87C85.88 382.87 0 296.99 0 191.43S85.88 0 191.44 0s191.43 85.88 191.43 191.43-85.88 191.44-191.43 191.44zm0-356.87C100.21 26 26 100.21 26 191.43c0 91.22 74.21 165.44 165.44 165.44 91.22 0 165.43-74.21 165.43-165.44C356.87 100.21 282.66 26 191.44 26z"/></svg>
