<svg xmlns="http://www.w3.org/2000/svg" viewBox="0 0 75.97 75.97" overflow="visible"><style>.st0{fill:#74c6be}</style><path class="st0" d="M9.66 75.97c-2.8 0-5.08-.91-6.91-2.75C.29 70.76-.51 67.52.31 63.3c.25-1.28.24-1.89.23-3.73-.01-1.25-.02-3.14.06-6.16.55-23.06 14.13-37.48 40.35-42.88 7.23-1.49 12.26-3.71 16.82-7.44C62.2-.53 67.05-.08 71.44 4.36l.18.18c4.45 4.39 4.9 9.24 1.27 13.67-3.73 4.56-5.96 9.58-7.44 16.82-4.52 21.95-15.46 35.1-32.51 39.08a1 1 0 0 1-1.2-.75.992.992 0 0 1 .75-1.2c16.23-3.79 26.66-16.42 31.01-37.54 1.56-7.57 3.91-12.86 7.86-17.68 2.96-3.62 2.58-7.31-1.13-10.98l-.2-.2c-3.67-3.71-7.36-4.09-10.98-1.13-4.82 3.95-10.11 6.3-17.68 7.86C16.17 17.67 3.13 31.45 2.6 53.45c-.07 2.99-.06 4.79-.06 6.11.01 1.88.01 2.66-.27 4.12-.69 3.56-.09 6.15 1.89 8.13 1.98 1.98 4.56 2.58 8.13 1.89 1.47-.28 2.24-.29 4.12-.27 1.31.01 3.11.02 6.11-.06.53-.04 1.01.42 1.02.98a.997.997 0 0 1-.98 1.02c-3.02.07-4.91.06-6.17.06-1.83-.01-2.46-.01-3.73.23-1.05.21-2.06.31-3 .31z"/><path class="st0" d="M70.82 6.15c-.26 0-.51-.1-.71-.29a.996.996 0 0 1 0-1.41L74.26.3a.996.996 0 1 1 1.41 1.41l-4.15 4.15c-.19.19-.44.29-.7.29zM39.35 57.37a.996.996 0 0 1-.59-1.8c9.15-6.82 12.14-21.71 12.17-21.86a.999.999 0 0 1 1.96.38c-.12.64-3.17 15.81-12.94 23.08-.18.13-.39.2-.6.2zM13.97 53.88c-.49 0-.92-.37-.99-.87-1.41-10.73 7.3-20.15 10.45-22.18a.993.993 0 0 1 1.38.3c.3.46.17 1.08-.3 1.38-3.31 2.14-10.77 10.99-9.56 20.24a.995.995 0 0 1-.86 1.12c-.03 0-.07.01-.12.01z"/></svg>
