<svg xmlns="http://www.w3.org/2000/svg" viewBox="0 0 74.64 74.64" overflow="visible"><style>.st0{fill:#f29b8f}</style><path class="st0" d="M9.54 74.64c-2.76 0-5.01-.9-6.83-2.71C.29 69.5-.5 66.29.3 62.13c.24-1.26.24-1.87.23-3.68-.01-1.23-.02-3.1.06-6.08.55-22.74 13.94-36.97 39.8-42.29 7.13-1.47 12.08-3.66 16.57-7.34C61.33-.84 66.12-.39 70.46 4l.18.18c4.39 4.33 4.84 9.13 1.26 13.5-3.68 4.49-5.87 9.45-7.34 16.57C60.1 55.9 49.31 68.87 32.49 72.8l-.45-1.95c16-3.73 26.28-16.18 30.56-37 1.54-7.47 3.85-12.68 7.75-17.44 2.92-3.56 2.54-7.2-1.12-10.81l-.19-.19c-3.61-3.66-7.25-4.03-10.81-1.12-4.76 3.9-9.97 6.21-17.44 7.75-24.83 5.11-37.68 18.7-38.2 40.38-.07 2.95-.06 4.73-.06 6.02.01 1.85.01 2.62-.27 4.07-.68 3.51-.09 6.05 1.86 8 1.95 1.95 4.49 2.54 8 1.86 1.45-.28 2.22-.28 4.06-.27 1.3.01 3.07.02 6.02-.06l.05 2c-2.98.07-4.85.06-6.08.06-1.81-.01-2.42-.01-3.67.23-1.04.21-2.03.31-2.96.31z"/><path class="st0" d="M19.22 62.54c-2.48 0-4.09-.04-5.31-.07l-1.71-.04-.04-1.71c-.03-1.41-.08-3.34-.07-6.55.06-12.38 3.78-27.27 32.29-32.61 3.06-.57 8.33-.93 8.55-.94l1.14-.08-.08 1.14c-.01.22-.37 5.5-.94 8.55-5.34 28.51-20.23 32.23-32.6 32.29-.43.02-.84.02-1.23.02zM13.2 60.7h-.03.03zm0 0h-.03.03zm.96-.22c1.38.03 3.26.07 6.29.06 11.61-.05 25.58-3.59 30.65-30.66.39-2.1.69-5.43.83-7.17-1.74.14-5.06.43-7.17.83-27.07 5.07-30.61 19.04-30.66 30.65-.01 3.03.03 4.91.06 6.29z"/><path class="st0" d="M42.48 35.68c-.9 0-1.8-.34-2.48-1.03a3.519 3.519 0 0 1 0-4.97 3.519 3.519 0 0 1 4.97 0 3.519 3.519 0 0 1 0 4.97c-.69.69-1.59 1.03-2.49 1.03zm0-5.02c-.4 0-.78.16-1.07.44s-.44.67-.44 1.07.16.78.44 1.07c.57.57 1.57.57 2.14 0 .59-.59.59-1.55 0-2.14-.29-.29-.67-.44-1.07-.44zM22.1 56.06c-.9 0-1.8-.34-2.48-1.03a3.519 3.519 0 0 1 0-4.97 3.519 3.519 0 0 1 4.97 0 3.519 3.519 0 0 1 0 4.97c-.69.69-1.59 1.03-2.49 1.03zm0-5.02c-.39 0-.78.15-1.07.44-.59.59-.59 1.55 0 2.14.57.57 1.57.57 2.14 0 .59-.59.59-1.55 0-2.14-.3-.29-.68-.44-1.07-.44zM34.31 37.7c-.9 0-1.8-.34-2.48-1.03a3.519 3.519 0 0 1 0-4.97 3.519 3.519 0 0 1 4.97 0 3.519 3.519 0 0 1 0 4.97c-.69.69-1.59 1.03-2.49 1.03zm0-5.02c-.39 0-.77.15-1.07.44-.29.29-.44.67-.44 1.07s.16.78.44 1.07c.57.57 1.57.57 2.14 0 .29-.29.44-.67.44-1.07s-.16-.78-.44-1.07c-.3-.3-.68-.44-1.07-.44zM40.61 44c-.9 0-1.8-.34-2.48-1.03a3.519 3.519 0 0 1 0-4.97 3.519 3.519 0 0 1 4.97 0 3.519 3.519 0 0 1 0 4.97c-.69.69-1.59 1.03-2.49 1.03zm0-5.02c-.4 0-.78.16-1.07.44s-.44.67-.44 1.07.16.78.44 1.07c.57.57 1.57.57 2.14 0 .59-.59.59-1.55 0-2.14-.29-.29-.67-.44-1.07-.44zM24.12 47.89c-.94 0-1.82-.37-2.48-1.03a3.519 3.519 0 0 1 0-4.97c1.33-1.33 3.64-1.33 4.97 0a3.519 3.519 0 0 1 0 4.97c-.67.67-1.55 1.03-2.49 1.03zm0-5.02c-.4 0-.78.16-1.07.44-.59.59-.59 1.55 0 2.14.57.57 1.57.57 2.14 0 .59-.59.59-1.55 0-2.14-.29-.29-.67-.44-1.07-.44zM30.42 54.19c-.9 0-1.8-.34-2.48-1.03a3.519 3.519 0 0 1 0-4.97 3.519 3.519 0 0 1 4.97 0 3.519 3.519 0 0 1 0 4.97c-.69.69-1.59 1.03-2.49 1.03zm0-5.02c-.39 0-.78.15-1.07.44-.59.59-.59 1.55 0 2.14.59.59 1.55.59 2.14 0 .29-.29.44-.67.44-1.07s-.16-.78-.44-1.07c-.3-.29-.68-.44-1.07-.44zM32.29 45.87c-.94 0-1.82-.37-2.48-1.03a3.519 3.519 0 0 1 0-4.97c1.33-1.33 3.64-1.33 4.97 0a3.519 3.519 0 0 1 0 4.97c-.67.67-1.55 1.03-2.49 1.03zm0-5.02c-.4 0-.78.16-1.07.44-.29.29-.44.67-.44 1.07s.16.78.44 1.07c.57.57 1.57.57 2.14 0 .29-.29.44-.67.44-1.07s-.16-.78-.44-1.07-.67-.44-1.07-.44zM69.128 4.091l4.094-4.094 1.415 1.415-4.094 4.094z"/></svg>
