<svg xmlns="http://www.w3.org/2000/svg" viewBox="0 0 91.03 47.49" overflow="visible"><style>.st0{fill:#cce198}</style><path class="st0" d="M45.52 47.49C20.42 47.49 0 27.07 0 1.97v-1h26.2v1c0 10.65 8.66 19.31 19.31 19.31 10.65 0 19.31-8.66 19.31-19.31v-1h26.2v1c.01 25.1-20.41 45.52-45.5 45.52zM2.01 2.97c.53 23.54 19.84 42.52 43.51 42.52 23.66 0 42.97-18.98 43.51-42.52H66.81c-.52 11.29-9.87 20.31-21.29 20.31S24.75 14.26 24.23 2.97H2.01z"/><path class="st0" d="M45.58 16.42c-2.51 0-4.55-2.04-4.55-4.55s2.04-4.55 4.55-4.55 4.55 2.04 4.55 4.55-2.04 4.55-4.55 4.55zm0-7.1c-1.41 0-2.55 1.14-2.55 2.55s1.14 2.55 2.55 2.55 2.55-1.14 2.55-2.55-1.14-2.55-2.55-2.55zM37.14 9.13c-2.51 0-4.55-2.04-4.55-4.55S34.63.03 37.14.03s4.55 2.04 4.55 4.55-2.05 4.55-4.55 4.55zm0-7.1c-1.41 0-2.55 1.14-2.55 2.55s1.14 2.55 2.55 2.55 2.55-1.14 2.55-2.55-1.15-2.55-2.55-2.55zM53.73 9.1c-2.51 0-4.55-2.04-4.55-4.55S51.22 0 53.73 0s4.55 2.04 4.55 4.55-2.04 4.55-4.55 4.55zm0-7.1c-1.41 0-2.55 1.14-2.55 2.55s1.14 2.55 2.55 2.55 2.55-1.14 2.55-2.55S55.14 2 53.73 2z"/></svg>
