<svg xmlns="http://www.w3.org/2000/svg" viewBox="0 0 78 68" overflow="visible"><path d="M68.96 8H30.91l-6.96-6.96A3.567 3.567 0 0 0 21.44 0H3.56C1.59 0 0 1.59 0 3.56v12.27c0 .13.03.25.04.38-.02.27-.04.55-.04.83v41.91C0 63.93 4.07 68 9.04 68h59.91c4.97 0 9.04-4.07 9.04-9.04V17.04C78 12.07 73.93 8 68.96 8zM31.97 39.11c0 .6-.09 1.17-.25 1.72l12.54 6.56a6.141 6.141 0 0 1 11.04 3.7c0 3.39-2.75 6.14-6.14 6.14s-6.14-2.75-6.14-6.14c0-.53.07-1.05.2-1.54l-12.6-6.59a6.137 6.137 0 0 1-4.79 2.3c-3.39 0-6.14-2.75-6.14-6.14a6.141 6.141 0 0 1 10.92-3.86l12.59-6.64a6.141 6.141 0 0 1 5.96-7.61c3.39 0 6.14 2.75 6.14 6.14s-2.75 6.14-6.14 6.14c-2.03 0-3.83-.99-4.95-2.5l-12.5 6.59c.18.54.26 1.13.26 1.73z" fill="#9d4124"/></svg>
