<svg xmlns="http://www.w3.org/2000/svg" viewBox="0 0 82.76 47.01" overflow="visible"><style>.st0{fill:#9d4024}</style><path class="st0" d="M22.74 11.38c5.9 0 10.75 4.52 11.29 10.29l15.26 1.24c.22-5.9 5.08-10.64 11.03-10.64 6.09 0 11.05 4.96 11.05 11.05 0 .47-.04.93-.1 1.38l11.36.93c.08-.76.12-1.53.12-2.3C82.75 10.96 72.68.89 60.31.89c-7.63 0-14.37 3.83-18.43 9.67C37.86 4.22 30.79 0 22.74 0 11.5 0 2.16 8.2.34 18.93l11.42.93c1.29-4.87 5.71-8.48 10.98-8.48zM71.28 25.95c-.68 5.45-5.33 9.68-10.96 9.68-6.1 0-11.05-4.96-11.05-11.05 0-.14.02-.27.02-.41l-15.26-1.24c.03.35.05.71.05 1.07 0 6.26-5.09 11.35-11.35 11.35S11.38 30.26 11.38 24c0-1 .14-1.96.38-2.88L.34 20.18C.13 21.42 0 22.69 0 23.99c0 12.54 10.2 22.74 22.74 22.74 7.8 0 14.68-3.95 18.78-9.95 4 6.15 10.93 10.24 18.8 10.24 11.59 0 21.16-8.84 22.32-20.13l-11.36-.94z"/></svg>
