<svg xmlns="http://www.w3.org/2000/svg" viewBox="0 0 65 66.28" overflow="visible"><style>.st0{fill:#9d4124}</style><path class="st0" d="M.32 60.32h13.14c.07 0 .14.01.22.04l13.73 4.6c.03.01.06.02.09.04.53.26 5.95 2.79 10.41-.02 4.69-2.96 25.2-18.59 25.2-18.59s2.84-2.11 1.58-5.92c-1.26-3.8-4.42-1.69-5.05-1.27-.61.41-20.32 11.84-21.69 12.63-.05.03-.09.06-.13.09-.25.22-1.32 1.04-2.42.01-.04-.03-.08-.07-.12-.09l-6.23-4.04c-.85-.55-.56-2.26.39-2.26h3.65c.04 0 .08 0 .12-.01.44-.08 3.09-.66 3.09-3.37 0-2.96-1.26-4.01-3-4.01H19.47s-1.79-.21-3.36 1.9-2.37 3.17-2.37 3.17-.47.63-2.37.63S0 43.84 0 43.84M16.25 12.48v-.61c.03-.19.08-.37.09-.56.07-1.37.36-2.7.95-3.94C19.48 2.74 23.13.19 28.28.04c4.25-.13 7.63 1.67 10.15 5.08.09.12.19.24.3.38.11-.14.19-.23.26-.33C42.55.22 48.9-1.4 54.35 1.29c5.7 2.81 8.45 9.65 5.73 15.75-1.45 3.26-3.65 5.98-6.17 8.45-4.43 4.36-9.47 7.9-14.81 11.02-.28.16-.48.15-.75-.01-3.28-1.94-6.44-4.04-9.43-6.39-3.29-2.59-6.39-5.36-8.92-8.72-1.76-2.34-3.16-4.84-3.59-7.79-.07-.37-.11-.75-.16-1.12z"/></svg>
