<svg xmlns="http://www.w3.org/2000/svg" viewBox="0 0 64.96 51.04" overflow="visible"><path d="M64.96 5.8c0 4.06-3.03 7.73-6.19 9.93-5.67 3.93-11.34 7.86-16.95 11.79-2.38 1.61-6.38 4.96-9.28 4.96h-.12c-2.9 0-6.9-3.35-9.28-4.96-5.61-3.93-11.28-7.93-16.89-11.79C3.67 13.99 0 9.93 0 6.58 0 3.04 1.93.01 5.8.01h53.36c3.16-.01 5.8 2.57 5.8 5.79zm0 10.63v28.81c0 3.22-2.58 5.8-5.8 5.8H5.8c-3.22 0-5.8-2.58-5.8-5.8V16.43a19.35 19.35 0 0 0 3.67 3.16c5.99 4.12 12.12 8.18 17.98 12.5 3.09 2.26 6.83 5.03 10.76 5.03h.12c3.93 0 7.67-2.77 10.76-5.03 5.86-4.25 11.99-8.38 18.05-12.5 1.3-.9 2.53-1.93 3.62-3.16z" fill="#9d4124"/></svg>
