<svg xmlns="http://www.w3.org/2000/svg" viewBox="0 0 92.18 60.74" overflow="visible"><path d="M87.13 0H5.04C2.26 0 0 2.26 0 5.04v40.71c0 2.78 2.26 5.04 5.04 5.04h9.47l-1.72 9.95 17.59-9.95h56.76c2.78 0 5.04-2.26 5.04-5.04V5.04c0-2.78-2.26-5.04-5.05-5.04zM32.27 35.64h-2.55l-9.87-14.77v14.77h-2.38v-18.8h2.55l9.87 14.75V16.84h2.38v18.8zm18.25 0H36.5v-18.8h13.59v2.22h-11.1v5.76h10.4v2.21h-10.4v6.4h11.54v2.21zm20.75 0h-2.4l-3.96-14.32c-.33-1.2-.53-1.93-.59-2.2-.2.86-.38 1.6-.55 2.2l-3.99 14.32h-2.54l-4.99-18.79h2.55l2.86 12.32c.31 1.29.57 2.57.8 3.85.48-2.01.76-3.17.85-3.47l3.58-12.69h3l2.69 9.51c.67 2.36 1.16 4.58 1.46 6.65.24-1.19.55-2.55.94-4.09l2.95-12.08h2.5l-5.16 18.79z" fill="#9d4024"/></svg>
