<svg xmlns="http://www.w3.org/2000/svg" viewBox="0 0 44.62 51" overflow="visible"><style>.st0{fill:#9d4124}</style><path class="st0" d="M31.88 12.75h12.44c-.17-.36-.4-.72-.65-.96l-5.38-5.38C35.86 3.98 33.43 1.55 32.87 1c-.24-.24-.61-.45-1-.63v12.38z"/><path class="st0" d="M28.69 15.94V0H6.38C2.87 0 0 2.87 0 6.38v38.25C0 48.13 2.87 51 6.38 51h31.88c3.5 0 6.38-2.87 6.38-6.38V21.38v-5.44H28.69zM9.56 11.16c0-.88.72-1.59 1.59-1.59H23.9c.88 0 1.59.72 1.59 1.59v3.19c0 .88-.72 1.59-1.59 1.59H11.16c-.88 0-1.59-.72-1.59-1.59v-3.19zm25.5 28.68c0 .88-.72 1.59-1.59 1.59H11.16c-.88 0-1.59-.72-1.59-1.59v-3.19c0-.88.72-1.59 1.59-1.59h22.31c.88 0 1.59.72 1.59 1.59v3.19zm0-12.75c0 .88-.72 1.59-1.59 1.59H11.16c-.88 0-1.59-.72-1.59-1.59V23.9c0-.88.72-1.59 1.59-1.59h22.31c.88 0 1.59.72 1.59 1.59v3.19z"/></svg>
