<svg xmlns="http://www.w3.org/2000/svg" viewBox="0 0 52.75 62.31" overflow="visible"><path d="M50.9 51.21h-8.05l.03-34.66v-.04c0-9.11-7.39-16.5-16.5-16.5S9.87 7.39 9.87 16.5v.04l-.03 34.67H1.85c-1.02 0-1.85.83-1.85 1.85v7.4c0 1.02.83 1.85 1.85 1.85H50.9c1.02 0 1.85-.83 1.85-1.85v-7.4c0-1.02-.83-1.85-1.85-1.85zM32.95 15.23s.35 1.44.24 3.27c-.7.14-1.42.34-2.14.64-.16-.96-.44-1.85-.79-2.65 1.44-.89 2.69-1.26 2.69-1.26zm-13.15 0s1.32.4 2.82 1.34c-.34.79-.63 1.68-.8 2.62-.76-.32-1.52-.54-2.26-.68-.11-1.85.24-3.28.24-3.28zm-6.39 11.11s.61-.6 1.62-1.28c.74 1.04 1.71 2.06 2.97 2.82.77.47 1.54.85 2.29 1.15-3.75.17-6.88-2.69-6.88-2.69zm5.54-.04c-3.2-1.94-4.2-6.07-4.2-6.07s3.74-.7 6.9.91c0 3.53 1.23 5.63 2.33 6.8-1.21 0-2.9-.36-5.03-1.64zm7.46 1.23s-3.08-1.34-2.92-6.78c.11-3.74 2.92-6.78 2.92-6.78s2.97 3.04 2.92 6.78c-.08 5.51-2.92 6.78-2.92 6.78zm4.76-6.43c3.14-1.57 6.83-.87 6.83-.87s-1 4.13-4.21 6.07c-2.09 1.27-3.76 1.63-4.98 1.64 1.06-1.16 2.24-3.24 2.36-6.84zm1.3 7.93c.75-.3 1.51-.68 2.28-1.15 1.26-.76 2.23-1.78 2.97-2.82 1.01.68 1.62 1.28 1.62 1.28s-3.13 2.86-6.87 2.69z" fill="#a5411b"/></svg>
