<svg xmlns="http://www.w3.org/2000/svg" viewBox="0 0 43.21 50.39" overflow="visible"><style>.st0{fill:#a5411b}</style><circle class="st0" cx="21.61" cy="14.81" r="14.81"/><path class="st0" d="M32.32 29.08c-2.01 3.75-5.71 5.27-10.27 5.27-4.65 0-8.91-1.64-10.88-5.51C-.41 29.62 0 50.39 0 50.39h43.19s1.03-20.57-10.87-21.31zm-6.43 10.18s.23.94.15 2.13c-.45.09-.93.22-1.4.41-.1-.62-.29-1.21-.52-1.73.96-.56 1.77-.81 1.77-.81zm-8.57 0s.86.26 1.84.87c-.22.52-.41 1.09-.52 1.71a7.72 7.72 0 0 0-1.47-.45c-.08-1.19.15-2.13.15-2.13zm-4.17 7.25s.4-.39 1.06-.83c.48.68 1.11 1.34 1.93 1.84.5.3 1 .55 1.49.75-2.44.11-4.48-1.76-4.48-1.76zm3.62-.03c-2.09-1.26-2.74-3.96-2.74-3.96s2.44-.46 4.5.59c0 2.3.8 3.67 1.52 4.43-.8.01-1.9-.22-3.28-1.06zm4.86.8s-2.01-.87-1.9-4.42c.07-2.44 1.9-4.42 1.9-4.42s1.94 1.98 1.9 4.42c-.05 3.6-1.9 4.42-1.9 4.42zm3.1-4.18c2.05-1.02 4.46-.57 4.46-.57s-.65 2.69-2.74 3.96c-1.37.83-2.45 1.06-3.25 1.07.69-.76 1.45-2.12 1.53-4.46zm.85 5.16c.49-.19.98-.44 1.49-.75.82-.5 1.45-1.16 1.93-1.84.66.44 1.06.83 1.06.83s-2.04 1.88-4.48 1.76z"/></svg>
