<svg xmlns="http://www.w3.org/2000/svg" viewBox="0 0 54.83 65.29" overflow="visible"><style>.st0{fill:#a5411b}</style><path class="st0" d="M43.39 56.66v8.41l9.56-9.95h-8.02c-.85-.01-1.54.69-1.54 1.54z"/><path class="st0" d="M52.98 9.46H11.03c-1.02 0-1.85.83-1.85 1.85v52.13c0 1.02.83 1.85 1.85 1.85h29.61v-8.64a4.64 4.64 0 0 1 4.63-4.63h9.56V11.31c0-1.02-.83-1.85-1.85-1.85zM38.57 24.07s.35 1.44.24 3.27c-.7.14-1.42.34-2.14.64-.16-.96-.44-1.85-.79-2.65 1.44-.89 2.69-1.26 2.69-1.26zm-13.14 0s1.32.4 2.82 1.34c-.34.79-.63 1.68-.8 2.62-.76-.32-1.52-.54-2.26-.68-.11-1.84.24-3.28.24-3.28zm-6.39 11.11s.61-.6 1.62-1.28c.74 1.04 1.71 2.06 2.97 2.82.77.47 1.54.85 2.28 1.15-3.74.18-6.87-2.69-6.87-2.69zm5.54-.04c-3.2-1.94-4.21-6.07-4.21-6.07s3.74-.7 6.9.91c0 3.53 1.23 5.63 2.33 6.8-1.21 0-2.89-.35-5.02-1.64zm7.46 1.23s-3.08-1.34-2.92-6.78c.11-3.74 2.92-6.78 2.92-6.78s2.97 3.04 2.92 6.78c-.08 5.52-2.92 6.78-2.92 6.78zm4.76-6.42c3.14-1.57 6.83-.87 6.83-.87s-1 4.13-4.21 6.07c-2.09 1.27-3.76 1.63-4.98 1.64 1.06-1.16 2.24-3.25 2.36-6.84zm1.3 7.92c.75-.3 1.51-.68 2.28-1.15 1.26-.76 2.23-1.78 2.97-2.82 1.01.68 1.62 1.28 1.62 1.28s-3.13 2.86-6.87 2.69z"/><path class="st0" d="M45.65 1.89C45.65.85 44.82 0 43.8 0H1.85C.83 0 0 .85 0 1.89v53.28c0 1.04.83 1.89 1.85 1.89h4.32V7.81c0-1.07.87-1.95 1.93-1.95h37.55V1.89z"/></svg>
