<svg xmlns="http://www.w3.org/2000/svg" viewBox="0 0 47.86 69.51" overflow="visible"><style>.st0{fill:#a5411b}</style><path class="st0" d="M14.14 58.2h19.54v-.03l.05.03s8.84-11.31 12.54-19.13c3.7-7.81.41-15.22-4.32-15.42-4.73-.21-8.23-.21-8.23-.21l-.05.48v-.48H14.14s-3.5 0-8.23.21-8.02 7.61-4.32 15.42S14.14 58.2 14.14 58.2zm15.89-15.09c.75-.3 1.51-.68 2.28-1.15 1.26-.76 2.23-1.78 2.97-2.82 1.01.68 1.62 1.28 1.62 1.28s-3.13 2.87-6.87 2.69zm5.53-8.8s-1 4.13-4.21 6.07c-2.09 1.27-3.76 1.63-4.98 1.64 1.06-1.16 2.23-3.24 2.35-6.84 3.15-1.56 6.84-.87 6.84-.87zm-5.06-5s.35 1.44.23 3.27c-.7.14-1.42.34-2.14.64-.16-.96-.44-1.85-.79-2.65 1.45-.88 2.7-1.26 2.7-1.26zm-6.53-1.26s2.97 3.04 2.92 6.78c-.08 5.52-2.92 6.78-2.92 6.78s-3.08-1.34-2.92-6.78c.11-3.74 2.92-6.78 2.92-6.78zm-6.61 1.26s1.32.4 2.82 1.34c-.34.79-.63 1.68-.8 2.62-.76-.32-1.52-.54-2.26-.68-.11-1.84.24-3.28.24-3.28zm1.85 5.92c0 3.53 1.23 5.63 2.33 6.8-1.22 0-2.9-.36-5.03-1.64-3.2-1.94-4.2-6.07-4.2-6.07s3.74-.71 6.9.91zm-6.62 3.92c.74 1.04 1.71 2.06 2.97 2.82.77.47 1.54.85 2.28 1.15-3.74.18-6.87-2.69-6.87-2.69s.6-.61 1.62-1.28zM.15 61.49h47.09v8.02H.15zM22.16 19.95h16.45s.82-3.29-2.67-4.11c0 0-.62-2.88-8.02-2.88h-8.54c-7.4 0-8.02 2.88-8.02 2.88-3.5.82-2.67 4.11-2.67 4.11h13.47zM23.6 9.46c2.61 0 4.73-2.12 4.73-4.73S26.21 0 23.6 0c-2.61 0-4.73 2.12-4.73 4.73s2.12 4.73 4.73 4.73z"/></svg>
