<svg xmlns="http://www.w3.org/2000/svg" viewBox="0 0 60.42 56.3" overflow="visible"><style>.st0{fill:#a5411b}</style><path class="st0" d="M47.65 44.38l-5.61-9.36c-2.2-4.22-6.59-7.1-11.65-7.1-4.52 0-8.5 2.29-10.87 5.78h-.02l-.49.84c-.07.13-.15.25-.22.38l-5.75 9.84a7.38 7.38 0 0 0-1.08 3.82c0 4.26 3.66 7.71 8.17 7.71 1.72 0 3.32-.51 4.64-1.37h.01s5.76-3.95 11.01-.25c.03.02.06.03.09.05 1.37.98 3.07 1.57 4.92 1.57 4.51 0 8.17-3.45 8.17-7.71.01-1.55-.48-2.99-1.32-4.2zM35.9 37.91s.29 1.19.19 2.7c-.57.11-1.17.28-1.77.53-.13-.79-.36-1.53-.65-2.19 1.19-.73 2.23-1.04 2.23-1.04zm-10.86 0s1.09.33 2.33 1.1a9.84 9.84 0 0 0-.66 2.17c-.63-.27-1.26-.45-1.86-.57-.1-1.51.19-2.7.19-2.7zm-5.28 9.18s.5-.5 1.34-1.06c.61.85 1.41 1.7 2.45 2.33.64.39 1.27.7 1.89.95-3.09.14-5.68-2.22-5.68-2.22zm4.58-.04c-2.65-1.6-3.47-5.01-3.47-5.01s3.09-.58 5.7.75c0 2.91 1.01 4.65 1.92 5.61-1 .01-2.39-.29-4.15-1.35zm6.16 1.02s-2.54-1.11-2.41-5.6c.09-3.09 2.41-5.6 2.41-5.6s2.45 2.51 2.41 5.6c-.06 4.56-2.41 5.6-2.41 5.6zm3.93-5.31c2.6-1.3 5.64-.72 5.64-.72s-.83 3.41-3.47 5.01c-1.73 1.05-3.11 1.35-4.11 1.36.87-.95 1.84-2.68 1.94-5.65zm1.07 6.55c.62-.24 1.25-.56 1.88-.95 1.04-.63 1.84-1.47 2.45-2.33.84.56 1.34 1.06 1.34 1.06s-2.58 2.36-5.67 2.22z"/><ellipse class="st0" cx="22.37" cy="9.56" rx="8.1" ry="9.56"/><path class="st0" d="M49.37 11.97c-.72 4.93-4.68 8.44-8.86 7.83s-6.98-5.09-6.27-10.03c.72-4.93 4.68-8.44 8.86-7.83 4.18.61 6.99 5.1 6.27 10.03zM58.63 32.44c-2.62 3.52-7.16 4.57-10.14 2.35-2.98-2.22-3.27-6.87-.65-10.39 2.62-3.52 7.16-4.57 10.14-2.35 2.98 2.22 3.27 6.87.65 10.39zM13.28 22.55c2.52 3.82 1.94 8.65-1.29 10.78-3.23 2.13-7.9.77-10.42-3.05s-1.94-8.65 1.3-10.78c3.23-2.13 7.89-.77 10.41 3.05z"/></svg>
