<svg xmlns="http://www.w3.org/2000/svg" viewBox="0 0 360.39 314.74" overflow="visible"><style>.st0{fill:#0ff}</style><path class="st0" d="M348.81 222.77H154.63c-7.1.01-13.41-4.55-15.62-11.3l-1.44-4.37 198.25-19.57c13.96-1.33 24.6-13.08 24.56-27.1v-50.4c-.01-15.03-12.2-27.22-27.23-27.23H96.59L85.37 48.75a48.683 48.683 0 0 0-26.84-29.4L16.23.97C10.36-1.59 3.53 1.09.97 6.96c-2.56 5.87.12 12.7 5.99 15.26L49.3 40.59a25.53 25.53 0 0 1 14.08 15.42l13.69 41.52c.08.29.18.56.28.84l39.67 120.31c5.33 16.25 20.51 27.24 37.62 27.22h194.18v.02c6.39 0 11.58-5.18 11.58-11.58-.01-6.39-5.2-11.57-11.59-11.57zm-11.58-62.36c.01 2.1-1.59 3.86-3.68 4.06l-51.37 5.08-2.77-27.35 57.83-4.68v22.89zm-4.06-54.47c2.24 0 4.06 1.82 4.06 4.06v18.79l-58.71 4.75-2.8-27.6h57.45zm-59.64 64.46l-72.23 7.14-5.73-28.56 75.17-6.08 2.79 27.5zm-6.54-64.46l2.87 28.3-76.01 6.16-6.91-34.46h80.05zm-162.77 0h73.86l7.05 35.16-67.51 5.47-13.4-40.63zm16.19 49.11l66.43-5.38 5.76 28.72-62.46 6.17-9.73-29.51zM173.5 262.59h-.02c-14.4 0-26.07 11.67-26.07 26.07s11.67 26.07 26.07 26.07 26.07-11.67 26.07-26.07h.02c0-14.39-11.67-26.06-26.07-26.07zM300.61 262.59c-14.4 0-26.07 11.67-26.07 26.07s11.67 26.07 26.07 26.07 26.07-11.67 26.07-26.07c0-14.39-11.67-26.06-26.07-26.07z"/></svg>
