<svg xmlns="http://www.w3.org/2000/svg" viewBox="0 0 363.1 325.97" overflow="visible"><path d="M360.43 158.92c3.17 2.68 3.59 8.02.88 11.19-.05.06-.1.13-.15.19l-13.39 18.67c-.09.13-.19.25-.3.37-1.11 1.15-2.79 1.96-4.24 2.42-.27.08-.54.12-.82.12h-.38c-1.57 0-3.14-.43-4.7-1.72-.06-.05-.13-.11-.19-.17L183.59 45.27c-1.18-1.11-2.9-1.11-4.08 0L25.97 189.99c-.06.06-.12.11-.18.16-1.58 1.31-3.55 2.17-5.51 1.73-1.53-.43-3.43-1.28-4.64-2.54-.11-.11-.21-.24-.3-.37L1.95 170.31c-.05-.07-.1-.13-.15-.19-2.71-3.17-2.29-8.51.88-11.19L164.35 6.78c9.6-9.03 24.81-9.03 34.41 0l49.59 46.96m62.86 134.08v118.3c0 10.96-7.88 19.85-17.59 19.85h-80.07c-1.76 0-3.19-1.61-3.19-3.59v-90.33c0-1.98-1.43-3.59-3.19-3.59h-51.25c-1.76 0-3.19 1.61-3.19 3.59v90.33c0 1.98-1.43 3.59-3.19 3.59H69.49c-9.72 0-17.59-8.89-17.59-19.85V187.81c0-.05 0-.1.01-.15.13-.72.54-1.34 1.04-1.81L179.52 67.81c1.18-1.1 2.88-1.1 4.06 0l127.23 118.65c.4.45.4.9.4 1.36z" fill="#040000"/></svg>
