<svg xmlns="http://www.w3.org/2000/svg" id="Layer_1" data-name="Layer 1" viewBox="0 0 249.77 275.41"><defs><style>.cls-1{fill:#424242;fill-rule:evenodd}</style></defs><g id="bell"><path class="cls-1" d="M134.34 285.84c22 0 39.76-17.44 39.76-39H94.58c0 21.56 17.8 39 39.76 39zM256.53 213.44l-29-32a26 26 0 0 1-6.7-17.44v-45.46c0-42-30.34-78.62-71.45-85.84v-7.23a15 15 0 1 0-30.08 0v7.19c-40.6 7-71.45 41.7-71.45 83.49V164a26 26 0 0 1-6.74 17.42l-29 32c-6.07 6.71-1.21 17.29 7.93 17.29H248.6c9.14.02 14-10.56 7.93-17.27z" transform="translate(-9.46 -10.43)"/></g></svg>
