<svg xmlns="http://www.w3.org/2000/svg" viewBox="0 0 96.39 58.29" overflow="visible"><path d="M93.16 53.81c2.71-3.57 3.13-8.37 1.09-12.36l-.12-.24c1.3-1.8 2.08-3.93 2.23-6.15.21-3.17-.67-6.31-2.5-8.91a13.274 13.274 0 0 0-7.18-5.23c-.51-3.09-2.07-5.91-4.41-7.98-2.31-2.11-5.3-3.32-8.43-3.42h-.07a5.19 5.19 0 0 0-.2-.41c-2.33-4.41-6.9-7.18-11.88-7.2h-.28c-1.67.03-3.31.4-4.83 1.08A13.067 13.067 0 0 0 48.25 0h-.06a13.07 13.07 0 0 0-8.38 2.99c-1.52-.68-3.16-1.05-4.83-1.08h-.28c-4.99.02-9.55 2.79-11.88 7.2-.07.14-.14.27-.21.41h-.06c-3.13.09-6.12 1.3-8.43 3.42-2.34 2.08-3.89 4.9-4.41 7.99-2.92.87-5.46 2.72-7.18 5.23a13.857 13.857 0 0 0-2.5 8.91c.15 2.22.93 4.35 2.23 6.15-.04.08-.09.16-.12.24a11.636 11.636 0 0 0 1.09 12.36c3.13 4.48 8.63 4.48 10.43 4.48 3.68-.14 7.35-.51 10.98-1.13 7.79-1.25 15.66-1.93 23.54-2.02 7.89.09 15.76.76 23.55 2.02 3.63.62 7.3.99 10.98 1.13 1.82-.01 7.31-.01 10.45-4.49zm-6.95-13.59c.17.26 6.63 4.56 2.49 10.47-1.12 1.59-3.12 2.15-5.98 2.15-6.78 0-18.39-3.15-34.53-3.15s-27.76 3.15-34.53 3.15c-2.86 0-4.86-.56-5.97-2.15-4.14-5.92 2.32-10.22 2.49-10.47l-.01-.01c.01-.04.02-.07.02-.11-.9-.12-1.74-.47-2.46-1.01-2.74-2.08-3.07-6.48-.74-9.82a7.42 7.42 0 0 1 5.94-3.36h.04c1.15 0 2.26.37 3.18 1.06.06-.08.12-.15.18-.23l-.01-.01c-2.21-2.68-1.57-7.04 1.44-9.73a7.652 7.652 0 0 1 4.9-2.03h.13c1.61-.03 3.16.63 4.25 1.83l.24-.15-.01-.03c-1.23-3.3.78-7.18 4.47-8.68.94-.38 1.94-.58 2.96-.58h.16a6.138 6.138 0 0 1 5.79 3.85c.03.09.05.18.08.27.1-.02.2-.03.3-.05.25-3.33 3.35-5.97 7.15-5.97 3.8 0 6.9 2.64 7.16 5.97.1.02.2.03.3.05.03-.09.05-.18.08-.27a6.138 6.138 0 0 1 5.79-3.85h.16c1.02 0 2.02.2 2.96.58 3.7 1.5 5.7 5.38 4.47 8.68l-.01.03.24.15a5.672 5.672 0 0 1 4.26-1.83h.13c1.82.07 3.56.79 4.9 2.03 3.01 2.7 3.65 7.05 1.44 9.73l-.01.01c.06.08.12.15.17.23a5.42 5.42 0 0 1 3.18-1.06h.05c2.4.09 4.62 1.35 5.93 3.36 2.33 3.34 2 7.74-.74 9.82-.72.54-1.57.89-2.47 1.02.03.03.04.07.04.11z" fill="#191210"/></svg>
