<svg xmlns="http://www.w3.org/2000/svg" viewBox="0 0 48.09 40" overflow="visible"><path d="M1.5 3h2.94l10.97 27.85c.23.58.78.95 1.4.95h2.14c-1.33.75-2.25 2.17-2.25 3.81a4.39 4.39 0 1 0 8.78 0c0-1.64-.91-3.05-2.24-3.81h12.89c-1.33.75-2.25 2.17-2.25 3.81a4.39 4.39 0 1 0 8.78 0c0-1.64-.91-3.05-2.24-3.81h2.08c.83 0 1.5-.67 1.5-1.5s-.67-1.5-1.5-1.5H17.84l-.71-1.81h23.39a4.209 4.209 0 0 0 4.03-3.06l3.39-12.18c.1-.37.15-.74.15-1.12 0-2.31-1.87-4.19-4.18-4.19H9.03L6.87.95C6.64.38 6.08 0 5.47 0H1.5C.67 0 0 .67 0 1.5S.67 3 1.5 3zm34.88 32.61c0-1.04.84-1.88 1.88-1.88s1.88.84 1.88 1.88-.84 1.88-1.88 1.88-1.88-.84-1.88-1.88zm-17.17 0c0-1.04.84-1.88 1.88-1.88s1.88.84 1.88 1.88-.84 1.88-1.88 1.88-1.88-.84-1.88-1.88zm-3.07-11.62l-2.49-6.15h5.67l2.1 6.15h-5.28zm12.5 0h-5.3l-2.1-6.15h7.4v6.15zm13.02-.87c-.14.51-.61.87-1.14.87h-3.23l1.44-6.15h4.4l-1.47 5.28zM40.7 9.44h3.21c.11 0 .22.01.32.04.63.18.99.83.82 1.46l-1.29 4.65h-4.5l1.44-6.15zm-10.24 0h8.38l-1.44 6.15h-6.94V9.44zm0 8.4h6.41l-1.44 6.15h-4.96v-6.15zm-1.82-8.4v6.15h-8.17l-2.1-6.15h10.27zm-12.18 0l2.1 6.15h-5.81l-2.48-6.15h6.19z" fill="#191210"/></svg>
