<svg xmlns="http://www.w3.org/2000/svg" viewBox="0 0 86.56 103.33" overflow="visible"><path d="M20.7 30.46l3.54 59.93h7.96l-3.54-59.93H20.7zm.82-13.45C20.35 8.88 25.99 1.33 34.12.15c.7-.1 1.4-.15 2.11-.15H53.5c8.19.01 14.84 6.65 14.85 14.85 0 .72-.05 1.44-.16 2.16h18.37v13.46h-8.84l-5.71 72.87H16.37l-5.71-72.87H0V17.01h21.52zm38.77 13.45l-3.55 59.92h7.96l3.53-59.93-7.94.01zM29.98 17.01h29.76a6.628 6.628 0 0 0-4.12-8.41c-.68-.23-1.4-.35-2.12-.36H36.22c-3.64.02-6.59 2.96-6.6 6.6 0 .74.12 1.47.36 2.17m19.36 13.45H41.4v59.93h7.96l-.02-59.93z" fill-rule="evenodd" clip-rule="evenodd" fill="#040000"/></svg>
