<svg xmlns="http://www.w3.org/2000/svg" viewBox="0 0 62.42 52.8" overflow="visible"><style>.st0{fill:#191210}</style><path class="st0" d="M12.11 7.7c.65.51.9.75.92 1.28.03.58-.27.9-.84 1.47-.92.73-1.44 1.84-1.41 3.01l1.47-.09c-.03-.67.28-1.01.89-1.61a3.53 3.53 0 0 0 1.36-2.87 3.265 3.265 0 0 0-1.57-2.61c-.67-.53-1.05-.86-1.09-1.68-.03-.69.29-1.34.84-1.74C13.53 2.15 14 1.1 13.95 0l-1.47.09c.03.64-.23.92-.77 1.47a3.79 3.79 0 0 0-1.35 3.13c.06 1.23.71 2.35 1.75 3.01zM19.42 7.7c.65.51.89.75.92 1.28.03.58-.27.9-.84 1.47-.92.73-1.44 1.85-1.41 3.02l1.47-.09c-.03-.67.28-1.01.89-1.61a3.53 3.53 0 0 0 1.36-2.87 3.28 3.28 0 0 0-1.57-2.61c-.67-.53-1.05-.86-1.09-1.68-.02-.69.3-1.35.85-1.75.85-.7 1.32-1.76 1.27-2.86L19.8.09c.03.64-.23.92-.76 1.47a3.79 3.79 0 0 0-1.35 3.13c.05 1.23.7 2.35 1.73 3.01zM23.97 23.77c.14-.37.33-.72.56-1.03.51-.78 1.33-1.29 2.25-1.4.13-.01.27.03.38.1.32.24.44 1.24-.14 2.34h3.16c.59-1.68.1-3.55-1.25-4.71-.62-.45-1.37-.69-2.14-.68v-.01c-1.86.1-3.57 1.06-4.63 2.6-.62.83-1.05 1.78-1.24 2.8h3.05z"/><path class="st0" d="M32.55 21.92c-.93.28-1.69.97-2.07 1.86h6.07a3.292 3.292 0 0 0-2.61-1.98l2.36-3.83-.7-.43-2 3.24-.02-3.97h-.82l.01 2.81-.97-2.14-.75.34 1.13 2.48-2.05-2.21-.6.56 3.02 3.27zM26.57 7.7c.65.51.89.75.92 1.28.03.58-.27.9-.84 1.47-.92.73-1.44 1.84-1.41 3.01l1.47-.09c-.03-.67.28-1.01.89-1.61a3.53 3.53 0 0 0 1.36-2.87 3.265 3.265 0 0 0-1.57-2.61c-.67-.53-1.05-.86-1.09-1.68-.03-.69.28-1.34.84-1.74C28 2.15 28.47 1.1 28.42 0l-1.47.09c.03.64-.23.92-.76 1.47a3.79 3.79 0 0 0-1.35 3.13c.05 1.23.7 2.35 1.73 3.01zM0 30.65c.04 0 .08-.01.13-.01h39.04v-3.26H0v3.27zM42.84 35.96h-3.09v9.98h3.17v-4.09l11.21-13.81h8.29v-4.09h-10.3zM7.85 23.78c-.2-.19-.39-.4-.55-.63-1.03-1.42-1.05-3.09-.38-3.57.18-.12.4-.18.61-.17 1.09.12 2.07.73 2.66 1.66.53.7.82 1.56.84 2.44 0 .09-.01.19-.02.28h7.65a3.466 3.466 0 0 0-3.33-2.93c-.7 0-1.38.23-1.94.65-.23-.72-.58-1.4-1.02-2.01a6.216 6.216 0 0 0-4.82-2.76c-.78-.01-1.54.23-2.18.68-1.76 1.28-2.04 3.97-.79 6.37h3.27zM2.52 48.68s4.12 4.12 16.72 4.12 17.41-4.12 17.41-4.12V34.57H2.52v14.11z"/></svg>
