<svg xmlns="http://www.w3.org/2000/svg" viewBox="0 0 108.8 157.93" overflow="visible"><path d="M108.8 74.97c.01-6.81-3.28-12.83-8.34-16.62v-12.3C100.46 20.62 79.84 0 54.41 0S8.36 20.62 8.36 46.05v12.29C3.3 62.11.01 68.12 0 74.91V137.95a85.662 85.662 0 0 0 54.38 19.97 85.739 85.739 0 0 0 54.38-19.97V75.83c.01-.29.04-.57.04-.86zM30.6 56.71V46.05c-.04-.79-.04-1.59 0-2.38.66-13.15 11.85-23.27 25-22.62s23.27 11.85 22.62 25V56.7c-4.88 2.64-8.56 7.2-10.09 12.65-4.58-.23-9.16-.33-13.75-.29-4.57-.03-9.14.06-13.7.29A20.813 20.813 0 0 0 30.6 56.71zM65.45 108c-.88 1.25-1.98 2.34-3.22 3.22v25.24H46.59v-25.24c-6.1-4.32-7.54-12.77-3.22-18.87 4.32-6.1 12.77-7.54 18.87-3.22 6.09 4.33 7.53 12.77 3.21 18.87z" fill="#646464"/></svg>
