<svg xmlns="http://www.w3.org/2000/svg" viewBox="0 0 53.42 56.39" overflow="visible"><style>.st0{fill:#191210}</style><path class="st0" d="M26.18 32.37h10.56c-.02-.13-.03-.26-.03-.39.01-1.22.42-2.4 1.15-3.37a5.047 5.047 0 0 1 3.67-2.29c.3-.01.6.07.85.24.92.67.89 2.97-.53 4.93-.23.31-.48.6-.76.87h4.55c1.72-3.31 1.33-7.03-1.09-8.79a5.06 5.06 0 0 0-3.01-.93c-2.7.16-5.16 1.57-6.66 3.81-.61.84-1.09 1.78-1.41 2.77-.77-.58-1.71-.9-2.68-.9-2.32.07-4.26 1.77-4.61 4.05zM36.81 10.41c.89.6 1.23.89 1.26 1.51.04.69-.37 1.07-1.16 1.73a4.184 4.184 0 0 0-1.93 3.55l2.02-.11c-.04-.79.39-1.2 1.22-1.9a4.003 4.003 0 0 0 1.87-3.38 3.88 3.88 0 0 0-2.15-3.08c-.92-.62-1.44-1.02-1.49-1.98s.36-1.36 1.16-2.05a3.949 3.949 0 0 0 1.75-3.37l-2.02.11c.04.75-.31 1.09-1.05 1.73a4.234 4.234 0 0 0-1.86 3.69 4.36 4.36 0 0 0 2.38 3.55zM49.99 30.15l-1.95 2.22h4.48zM26.25 9.73c.89.6 1.23.88 1.26 1.51.04.69-.37 1.06-1.16 1.73a4.171 4.171 0 0 0-1.93 3.55l2.02-.11c-.04-.79.39-1.19 1.22-1.9a4.003 4.003 0 0 0 1.87-3.38c-.14-1.33-.95-2.5-2.15-3.08-.92-.62-1.44-1.02-1.49-1.98-.05-.96.36-1.36 1.16-2.05A3.944 3.944 0 0 0 28.8.66l-2.02.11c.04.75-.31 1.09-1.05 1.73a4.234 4.234 0 0 0-1.86 3.69 4.359 4.359 0 0 0 2.38 3.54zM3.86 32.37h7.57a4.1 4.1 0 0 0-2.58-2.32l3.78-4.06-.75-.7-2.56 2.76 1.41-3.1-.93-.42-1.22 2.67.02-3.5H7.56l-.02 4.95-2.49-4.05-.88.54 2.95 4.78a4.06 4.06 0 0 0-3.26 2.45zM53.42 36.89H0a31.287 31.287 0 0 0 19.18 14.77 16.427 16.427 0 0 0-2.99 4.72h21.03c-.72-1.73-1.71-3.33-2.95-4.73 8.11-2.16 15-7.47 19.15-14.76zM7.07 39.94c1.76.25 3.55.31 5.33.19 1.16 5.48 7.32 8.69 7.32 8.69-10.65-3.4-12.65-8.88-12.65-8.88zM16.04 25.64z"/><path class="st0" d="M11.81 32.37h3.94c-.73-1.37-.58-2.62-.18-2.92a.79.79 0 0 1 .47-.12c1.15.14 2.18.78 2.81 1.75.29.39.53.83.7 1.29h3.81a8.656 8.656 0 0 0-1.55-3.49 7.532 7.532 0 0 0-5.77-3.24c-.96-.01-1.9.28-2.67.85-1.67 1.24-2.19 3.55-1.56 5.88zM16.19 9.08c.89.6 1.23.89 1.26 1.51.04.69-.37 1.06-1.16 1.73a4.184 4.184 0 0 0-1.93 3.55l2.02-.11c-.04-.79.39-1.19 1.22-1.9a4.003 4.003 0 0 0 1.87-3.38 3.88 3.88 0 0 0-2.15-3.08c-.92-.62-1.44-1.02-1.49-1.98-.05-.97.36-1.36 1.16-2.05A3.964 3.964 0 0 0 18.73 0l-2.02.11c.04.75-.31 1.09-1.05 1.73a4.234 4.234 0 0 0-1.86 3.69 4.407 4.407 0 0 0 2.39 3.55z"/></svg>
