<svg xmlns="http://www.w3.org/2000/svg" id="a" viewBox="0 0 83.82 110.3"><defs><style>.s{fill:#8d1d22}</style><clipPath id="c"><path fill="none" d="M0 0h83.82v110.3H0z"/></clipPath></defs><g clip-path="url(#c)" id="b"><g id="d"><path id="e" class="s" d="M77.88 86.3a3.81 3.81 0 0 0-3.72 1.98h-.5c-.15 1.6-.53 3.18-1.13 4.67.13.05.26.07.4.07h2.19c.71 0 1.35-.63 1.59-1.57.12-.49.88-.42.89-.42.07.01.14.02.21.02 3.32 0 6.01-3.79 6.01-8.46s-2.7-8.46-6.01-8.46c-1.67.07-3.21.93-4.14 2.33l-1.82 2.13s-.08.1-.12.16c.67 1.26 1.18 2.6 1.53 3.99.3-.09.56-.27.76-.51l1.86-2.19.09-.12c.41-.63 1.09-1.02 1.84-1.05 1.46 0 2.64 1.67 2.64 3.71s-1.14 3.66-2.57 3.71"/><path id="f" class="s" d="M6.01 78.87c.75.03 1.43.42 1.84 1.05l.09.12 1.86 2.19c.1.12.22.22.35.31.38-1.44.93-2.83 1.66-4.14l-1.66-1.95a5.255 5.255 0 0 0-4.14-2.33C2.7 74.12 0 77.91 0 82.57s2.7 8.46 6.01 8.46c.07 0 .14 0 .21-.02 0 0 .76-.06.89.42.24.94.88 1.57 1.59 1.57h2.16c-.61-1.51-1-3.11-1.16-4.74h-.04a3.81 3.81 0 0 0-3.72-1.98c-1.42-.06-2.57-1.7-2.57-3.71s1.18-3.71 2.64-3.71"/><path id="g" class="s" d="M16.85 64.19h50.12c2.3 0 4.17 1.87 4.17 4.17s-1.87 4.17-4.17 4.17H16.85c-2.3 0-4.17-1.87-4.17-4.17s1.87-4.17 4.17-4.17z"/><path id="h" class="s" d="M33.16 25.8c-.7 0-1.26.58-1.26 1.28v34.46h2.51V27.08c0-.7-.56-1.27-1.26-1.28"/><path id="i" class="s" d="M40.71 25.8c-.7 0-1.26.58-1.26 1.28v34.46h2.51V27.08c0-.7-.56-1.27-1.26-1.28"/><path id="j" class="s" d="M48.25 25.8c-.7 0-1.26.58-1.26 1.28v34.46h2.51V27.08c0-.7-.56-1.27-1.26-1.28"/><path id="k" class="s" d="M55.79 25.8c-.7 0-1.26.58-1.26 1.28v34.46h2.51V27.08c0-.7-.56-1.27-1.26-1.28"/><path id="l" class="s" d="M25.62 25.8c-.7 0-1.26.58-1.26 1.28v34.46h2.51V27.08c0-.7-.56-1.27-1.26-1.28"/><path id="m" class="s" d="M34.9 4.44c.4-.54.45-1.28.12-1.87a.768.768 0 0 0-1.01-.41.93.93 0 0 0-.32.24c-.27.31-2.6 3.14-2.6 6.32-.02 1.37.51 2.69 1.47 3.67.59.69.79.99.79 1.63 0 1.64-1.43 3.7-1.92 4.28-.41.54-.45 1.28-.12 1.87.14.28.42.46.73.48.24 0 .45-.12.6-.31.27-.31 2.6-3.14 2.6-6.32.02-1.37-.51-2.69-1.47-3.67-.59-.69-.79-.99-.79-1.63 0-1.64 1.42-3.69 1.92-4.28"/><path id="n" class="s" d="M42.44 4.44c.4-.54.45-1.28.12-1.87a.768.768 0 0 0-1.01-.41.93.93 0 0 0-.32.24c-.27.31-2.6 3.14-2.6 6.32-.02 1.37.51 2.69 1.47 3.67.59.69.79.99.79 1.63 0 1.64-1.43 3.7-1.92 4.28-.41.54-.45 1.28-.12 1.87.14.28.42.46.73.48.24 0 .45-.12.6-.31.27-.31 2.6-3.14 2.6-6.32.02-1.37-.51-2.69-1.47-3.67-.59-.69-.79-.99-.79-1.63 0-1.64 1.42-3.69 1.92-4.28"/><path id="o" class="s" d="M49.98 4.44c.4-.54.45-1.28.12-1.87a.768.768 0 0 0-1.01-.41.93.93 0 0 0-.32.24c-.27.31-2.6 3.14-2.6 6.32-.02 1.37.51 2.69 1.47 3.67.59.69.79.99.79 1.63 0 1.64-1.43 3.7-1.92 4.28-.41.54-.45 1.28-.12 1.87.14.28.42.46.73.48.24 0 .45-.12.6-.31.27-.31 2.6-3.14 2.6-6.32.02-1.37-.51-2.69-1.47-3.67-.59-.69-.79-.99-.79-1.63 0-1.64 1.42-3.69 1.92-4.28"/><path id="p" class="s" d="M41.68 106.61c8.17 0 15.84-2.16 21.59-6.08 5.53-3.77 8.58-8.68 8.58-13.81s-3.06-9.11-5.72-11.55h-48.9c-2.66 2.44-5.72 6.36-5.72 11.55s3.05 10.03 8.58 13.81c5.75 3.92 13.42 6.08 21.59 6.08"/><path id="q" class="s" d="M69.2 98.39a26.217 26.217 0 0 1-5.97 5.09l1.26 4.79c.16 1.01.94 1.81 1.94 2.01 1.17.03 2.34-.09 3.49-.34 1.2-.2 1.5-2.43.45-3.26-1.2-.95-2.19-2.1-2.04-3.22l.88-5.07z"/><path id="r" class="s" d="M13.45 106.68c-1.05.83-.74 3.06.45 3.26 1.14.25 2.31.37 3.49.34 1.01-.19 1.78-1 1.94-2.01l1.19-4.54c-.43-.26-.85-.53-1.26-.81a26.308 26.308 0 0 1-4.54-3.88l.76 4.42c.16 1.12-.84 2.27-2.04 3.22"/></g></g></svg>
