<svg xmlns="http://www.w3.org/2000/svg" viewBox="0 0 68.4 68.4" overflow="visible"><style>.st0{fill:#1c847a}</style><path class="st0" d="M22.6 16.09l2.58 2.58c-3.81 2.76-6.21 6.96-6.56 11.77H14.9c.44-5.86 3.2-11.02 7.7-14.35zm30.9 14.36h-3.68c-.35-4.81-2.76-9.01-6.56-11.77l2.67-2.58c4.42 3.32 7.22 8.48 7.57 14.35zm-7.31.96v10.06l3.72 3.72v1.79H18.62v-1.79l3.72-3.72V31.41c0-5.78 3.68-10.24 9.1-11.64v-1.18c0-3.63 5.51-3.63 5.51 0v1.18c5.43 1.4 9.24 5.86 9.24 11.64zM34.2 52.5c-2.06 0-3.59-1.53-3.59-3.59h7.31c0 .39-.09.92-.26 1.36-.48 1.14-1.36 1.88-2.67 2.14-.26.09-.53.18-.79.09z"/><path class="st0" d="M34.2 68.4C15.34 68.4 0 53.06 0 34.2 0 15.34 15.34 0 34.2 0s34.2 15.34 34.2 34.2c0 18.86-15.34 34.2-34.2 34.2zm0-66.01C16.66 2.39 2.39 16.66 2.39 34.2S16.66 66.01 34.2 66.01 66.01 51.74 66.01 34.2 51.74 2.39 34.2 2.39z"/></svg>
