<svg xmlns="http://www.w3.org/2000/svg" viewBox="0 0 155.23 155.95" overflow="visible"><style>.st0{fill:#1c847a}</style><path class="st0" d="M8.72 46.18h28.73c4.81 0 8.72-3.91 8.72-8.72V8.73c0-4.82-3.91-8.72-8.72-8.73H8.72C3.91.01.01 3.91 0 8.73v28.73a8.74 8.74 0 0 0 8.72 8.72zM7.11 8.73c0-.89.72-1.62 1.62-1.62h28.73c.89 0 1.62.73 1.62 1.62v28.73c0 .89-.73 1.62-1.62 1.62H8.72c-.89 0-1.62-.72-1.62-1.62V8.73z"/><path class="st0" d="M16.82 33.4h12.53a4.03 4.03 0 0 0 4.03-4.03V16.82a4.03 4.03 0 0 0-4.03-4.03H16.82a4.03 4.03 0 0 0-4.03 4.03v12.54c0 2.23 1.81 4.03 4.03 4.04zm-.48-16.58c0-.26.22-.48.48-.48h12.53c.26 0 .48.21.48.48v12.54c0 .27-.22.48-.48.48H16.82c-.27 0-.48-.21-.48-.48V16.82zM146.51 0h-28.73c-4.82.01-8.72 3.91-8.72 8.73v28.73c.01 4.81 3.91 8.72 8.72 8.72h28.73c4.81 0 8.72-3.91 8.72-8.72V8.73c0-4.82-3.9-8.72-8.72-8.73zm1.62 8.73v28.73c0 .89-.73 1.62-1.62 1.62h-28.73c-.89 0-1.62-.72-1.62-1.62V8.73c0-.89.72-1.62 1.62-1.62h28.73c.89 0 1.62.72 1.62 1.62z"/><path class="st0" d="M138.41 12.79h-12.54a4.03 4.03 0 0 0-4.03 4.03v12.54a4.03 4.03 0 0 0 4.03 4.03h12.54a4.03 4.03 0 0 0 4.03-4.03V16.82c.01-2.23-1.8-4.03-4.03-4.03zm.48 16.57c0 .26-.21.48-.48.48h-12.54c-.26 0-.48-.22-.48-.48V16.82c0-.26.22-.48.48-.48h12.54c.26 0 .48.21.48.48v12.54zM37.46 109.77H8.72c-4.82 0-8.72 3.91-8.72 8.72v28.73c.01 4.82 3.91 8.72 8.72 8.72h28.73c4.82-.01 8.72-3.91 8.72-8.72v-28.73c.01-4.81-3.9-8.72-8.71-8.72zm1.62 37.45c0 .89-.73 1.62-1.62 1.62H8.72c-.89 0-1.62-.72-1.62-1.62v-28.73c0-.89.72-1.62 1.62-1.62h28.73c.89 0 1.62.72 1.62 1.62v28.73z"/><path class="st0" d="M29.36 122.55H16.82a4.03 4.03 0 0 0-4.03 4.03v12.54c0 2.23 1.81 4.03 4.03 4.04h12.53a4.03 4.03 0 0 0 4.03-4.03v-12.54a4.025 4.025 0 0 0-4.02-4.04zm.48 4.04v12.54c0 .27-.22.48-.48.48H16.82a.48.48 0 0 1-.48-.48v-12.54c0-.26.21-.48.48-.48h12.53c.27 0 .49.21.49.48zM38.19 54.53c0 1.28 1.03 2.31 2.31 2.31h7.46c1.28 0 2.31-1.03 2.31-2.31s-1.03-2.31-2.31-2.31H40.5c-1.28 0-2.31 1.03-2.31 2.31zM16.46 52.22a7.13 7.13 0 0 0-7.22 7.02v3.28a2.312 2.312 0 0 0 4.62 0v-3.28a2.545 2.545 0 0 1 2.61-2.4h14.09c1.28 0 2.31-1.03 2.31-2.31s-1.03-2.31-2.31-2.31h-14.1zM9.24 70.34v3.91a2.305 2.305 0 0 0 2.36 2.26 2.31 2.31 0 0 0 2.26-2.26v-3.91c.03-1.27-.99-2.33-2.26-2.36s-2.33.99-2.36 2.26v.1zM49.78 85.97v-.15c0-1.28-1.03-2.31-2.31-2.31s-2.31 1.03-2.31 2.31c.05 1.2-.88 2.22-2.09 2.28H16.46a2.601 2.601 0 0 1-2.61-2.45v-3.23a2.305 2.305 0 0 0-2.36-2.26 2.31 2.31 0 0 0-2.26 2.26v3.23c.09 3.92 3.3 7.06 7.22 7.07h26.41c3.78.04 6.87-2.98 6.92-6.75zM59.68 88.46h15.63a2.305 2.305 0 0 0 2.26-2.36 2.304 2.304 0 0 0-2.26-2.26H59.68c-1.27 0-2.31 1.03-2.31 2.31 0 1.27 1.03 2.3 2.31 2.31zM96.09 74.42c-1.28 0-2.31 1.03-2.31 2.31v4.67c.07 1.27-.9 2.36-2.16 2.43h-4.58c-1.28 0-2.31 1.03-2.31 2.31s1.03 2.31 2.31 2.31h4.48c3.81-.01 6.89-3.1 6.89-6.91v-4.81a2.326 2.326 0 0 0-2.32-2.31zM127.17 63.58h-4.28c-3.78-.13-6.96 2.83-7.09 6.61v4.75c0 1.28 1.03 2.31 2.31 2.31s2.31-1.03 2.31-2.31v-4.61c.05-1.24 1.09-2.2 2.32-2.15.05 0 .1.01.15.01h4.28c1.28 0 2.31-1.04 2.31-2.31 0-1.26-1.03-2.29-2.31-2.3zM80.99 122.55a2.305 2.305 0 1 0 4.61 0V100.7a6.726 6.726 0 0 0-6.53-6.92h-4.84c-1.28 0-2.31 1.03-2.31 2.31s1.03 2.31 2.31 2.31h4.54a2.15 2.15 0 0 1 2.22 2.06v22.09zM129.3 104.79H99.55c-4.02 0-7.34 3.15-7.55 7.17v4.55a2.311 2.311 0 0 0 4.62 0v-4.56a3.004 3.004 0 0 1 2.93-2.56h29.75c1.28 0 2.31-1.03 2.31-2.31s-1.03-2.29-2.31-2.29zM91.66 52.22H71.05a2.311 2.311 0 0 0 0 4.62h20.47c1.25-.01 2.26 1 2.27 2.25v3.08c-.03 1.27.99 2.33 2.26 2.36s2.33-.99 2.36-2.26V59.24c.06-3.8-2.95-6.94-6.75-7.02zM87.64 11.72h3.22c1.09-.12 2.08.67 2.2 1.76.01.12.02.25.01.37v26.41a2.52 2.52 0 0 1-2.38 2.57c-1.28 0-2.31 1.04-2.3 2.32a2.3 2.3 0 0 0 2.3 2.3c3.92-.05 7.05-3.27 7-7.19v-26.4c.06-3.67-2.86-6.69-6.52-6.75h-3.42c-1.27-.03-2.33.99-2.36 2.26s.98 2.33 2.25 2.35zM77.8 11.72h.71a2.312 2.312 0 0 0 0-4.62h-.71a2.312 2.312 0 0 0-2.26 2.36 2.297 2.297 0 0 0 2.26 2.26zM59.5 23.63c1.28 0 2.31-1.03 2.31-2.31v-7.46a2.429 2.429 0 0 1 2.64-2.14h4.81c1.27.03 2.33-.99 2.36-2.26s-.99-2.33-2.26-2.36H64.45c-3.83-.18-7.08 2.79-7.26 6.62v7.59a2.32 2.32 0 0 0 2.31 2.32zM59.5 56.31c1.28 0 2.31-1.03 2.31-2.31V31.62c0-1.28-1.03-2.31-2.31-2.31s-2.31 1.03-2.31 2.31V54c0 1.27 1.04 2.31 2.31 2.31z"/><path class="st0" d="M133.89 53.28H111.54c-1.28 0-2.31 1.03-2.32 2.3s1.03 2.31 2.3 2.32h22.23c.82-.05 1.53.58 1.58 1.4V81.7a2.311 2.311 0 0 0 4.62 0V59.44a6.11 6.11 0 0 0-6.06-6.16zM113.98 85.53c0-1.28-1.03-2.31-2.31-2.31-.93-.01-1.67-.77-1.66-1.69 0-1.28-1.03-2.31-2.31-2.31s-2.31 1.03-2.31 2.31c-.01 3.48 2.81 6.3 6.28 6.31 1.27 0 2.31-1.03 2.31-2.31zM57.9 112.97c0 1.28 1.03 2.31 2.31 2.31s2.31-1.03 2.31-2.31v-11.94a2.367 2.367 0 0 1 2.32-2.41h.05c1.28 0 2.31-1.03 2.31-2.31S66.17 94 64.89 94a6.935 6.935 0 0 0-6.99 6.88v12.09zM65.11 134.63h28.32a2.311 2.311 0 0 0 0-4.62H65.11a2.691 2.691 0 0 1-2.59-2.58v-3.82c0-1.28-1.03-2.31-2.31-2.31s-2.31 1.03-2.31 2.31v3.82a7.302 7.302 0 0 0 7.21 7.2zM142.8 127.44v-4.17a2.311 2.311 0 0 0-4.62 0v4.18c.09 1.33-.92 2.49-2.26 2.58H109.5c-1.3.01-2.38-1.02-2.42-2.32 0-.17-.09-5.57-.09-5.72 0-1.28-1.03-2.31-2.31-2.31s-2.31 1.03-2.31 2.31c0 .08.09 5.76.09 5.84a6.992 6.992 0 0 0 7.04 6.82h26.41c3.89-.11 6.97-3.33 6.89-7.21zM138.19 111.18v3.21a2.311 2.311 0 0 0 4.62 0v-3.2c0-1.27-1.03-2.31-2.31-2.31a2.296 2.296 0 0 0-2.31 2.3zM142.8 101.03a6.73 6.73 0 0 0-6.58-6.89H93.07c-1.28 0-2.31 1.03-2.31 2.31s1.03 2.31 2.31 2.31h42.85c1.19-.07 2.2.84 2.27 2.03v1.53c0 1.27 1.04 2.31 2.31 2.31s2.3-1.03 2.31-2.31v-1.29zM140.67 140.67H115.8a2.311 2.311 0 0 0 0 4.62h24.87a2.311 2.311 0 0 0 0-4.62zM102.66 140.67H58.97a2.311 2.311 0 0 0 0 4.62h43.69a2.311 2.311 0 0 0 0-4.62zM19.18 64.83v14.74c0 1.28 1.03 2.31 2.31 2.31s2.31-1.03 2.31-2.31V67.14h18.83a2.312 2.312 0 0 0 0-4.62H21.49c-1.27 0-2.31 1.03-2.31 2.31z"/><path class="st0" d="M59.5 75.49c0-1.28-1.03-2.31-2.31-2.31H33.57c-1.27 0-2.31 1.03-2.31 2.31v4.44c-.03 1.27.99 2.33 2.26 2.36s2.33-.99 2.36-2.26V77.8h21.31c1.28 0 2.31-1.04 2.31-2.31zM86.14 75.49c0-1.28-1.03-2.31-2.31-2.31H69.98c-1.27-.03-2.33.99-2.36 2.26s.99 2.33 2.26 2.36h13.95c1.28 0 2.31-1.04 2.31-2.31zM55.42 67.14h25.22c1.27.03 2.33-.99 2.36-2.26s-.99-2.33-2.26-2.36H55.42c-1.27 0-2.31 1.03-2.31 2.3 0 1.29 1.03 2.32 2.31 2.32zM69.27 104.44v17.41c0 1.28 1.03 2.31 2.31 2.31s2.31-1.03 2.31-2.31v-17.41c0-1.28-1.03-2.31-2.31-2.31s-2.31 1.03-2.31 2.31zM68.56 20.43v22.55a2.311 2.311 0 0 0 4.62 0V22.74h9.95c1.28 0 2.31-1.03 2.31-2.31s-1.03-2.31-2.31-2.31H70.87c-1.28 0-2.31 1.03-2.31 2.31z"/><path class="st0" d="M84.54 38.46V30.9c.03-1.27-.99-2.33-2.26-2.36s-2.33.99-2.36 2.26v7.56c-.03 1.27.99 2.33 2.26 2.36s2.34-.98 2.36-2.26zM107.46 72.65c1.28 0 2.31-1.03 2.31-2.31v-5.33a2.311 2.311 0 0 0-4.62 0v5.33c0 1.27 1.03 2.31 2.31 2.31zM121.84 83.48c-1.28 0-2.31 1.03-2.31 2.31s1.03 2.31 2.31 2.31h5.68c1.28 0 2.31-1.03 2.31-2.31s-1.03-2.31-2.31-2.31h-5.68zM129.3 116.88h-13.14a2.311 2.311 0 0 0 0 4.62h13.14a2.311 2.311 0 0 0 0-4.62zM49.83 98.4H40.5c-1.27-.03-2.33.99-2.36 2.26s.99 2.33 2.26 2.36h9.34c1.27.03 2.33-.99 2.36-2.26.01-1.28-1-2.33-2.27-2.36zM29.84 98.4H12.79c-1.27-.03-2.33.99-2.36 2.26s.99 2.33 2.26 2.36H29.84c1.27.03 2.33-.99 2.36-2.26.03-1.27-.99-2.33-2.26-2.36h-.1z"/></svg>
