<svg xmlns="http://www.w3.org/2000/svg" viewBox="0 0 143.75 143.75" overflow="visible"><style>.st0{fill:#333}</style><path class="st0" d="M134.02 69.63H9.73c-4.12 0-7.7-2.79-8.71-6.77l-.96-3.77c-.17-.67-.02-1.38.4-1.93.43-.55 1.08-.87 1.77-.87h139.26c.69 0 1.35.32 1.77.87.43.55.57 1.26.4 1.93l-.96 3.77a8.935 8.935 0 0 1-8.68 6.77zM5.13 60.78l.25.97a4.5 4.5 0 0 0 4.35 3.39h124.28c2.06 0 3.85-1.39 4.35-3.39l.25-.97H5.13zM71.88 13.48c-3.72 0-6.74-3.02-6.74-6.74S68.16 0 71.88 0s6.74 3.02 6.74 6.74-3.03 6.74-6.74 6.74zm0-8.99c-1.24 0-2.25 1.01-2.25 2.25s1.01 2.25 2.25 2.25 2.25-1.01 2.25-2.25-1.02-2.25-2.25-2.25z"/><path class="st0" d="M12.71 60.78c-.16 0-.33-.02-.49-.06a2.244 2.244 0 0 1-1.7-2.68c3.08-13.71 10.82-26.16 21.8-35.06 11.14-9.03 25.19-14 39.56-14 25.93 0 48.88 15.57 58.46 39.67.46 1.15-.1 2.46-1.26 2.92-1.15.46-2.46-.1-2.92-1.26-8.9-22.38-30.21-36.83-54.29-36.83-27.09 0-51.05 19.15-56.98 45.55a2.24 2.24 0 0 1-2.18 1.75z"/><path class="st0" d="M69.67 22.51a2.247 2.247 0 0 1-.09-4.49c.76-.03 1.53-.05 2.3-.05 1.24 0 2.25 1.01 2.25 2.25s-1.01 2.25-2.25 2.25c-.71 0-1.41.02-2.11.04h-.1zM25.37 51.59c-.33 0-.66-.07-.98-.23a2.244 2.244 0 0 1-1.04-3c7.13-14.68 20.86-25.56 36.73-29.1 1.22-.27 2.41.49 2.68 1.7s-.49 2.41-1.7 2.68C46.52 26.89 33.93 36.87 27.4 50.32c-.39.8-1.19 1.27-2.03 1.27zM51.66 143.75c-.98 0-1.89-.65-2.16-1.65-.33-1.2.37-2.43 1.56-2.77 32.6-9.06 58.33-53.9 65.44-67.43.37-.7.09-1.3-.05-1.52-.14-.23-.55-.76-1.35-.76-2.32 0-4.42 1.14-5.69 3.05-7.48 11.27-28.04 37.38-57.75 37.39h-.47c-8.41-.08-15.25-7.13-15.25-15.71V80.56c0-6.44-3.69-10.93-8.98-10.93-1.24 0-2.25 1.01-2.25 2.25v22.46c0 10.12-3.41 17.58-6.42 24.16-2.58 5.64-4.81 10.51-4.81 16.27v6.74c0 1.24-1.01 2.25-2.25 2.25s-2.25-1.01-2.25-2.25v-6.74c0-6.74 2.53-12.28 5.22-18.14 2.96-6.46 6.02-13.15 6.02-22.29V71.88c0-3.72 3.02-6.74 6.74-6.74 7.81 0 13.48 6.49 13.48 15.42v13.78c0 6.13 4.85 11.17 10.8 11.22h.43c27.54 0 46.92-24.71 54.01-35.38 2.1-3.16 5.6-5.05 9.36-5.05 2.21 0 4.16 1.1 5.27 2.93 1.1 1.83 1.17 4.05.18 5.94-9.38 17.86-34.81 60.39-68.21 69.66-.22.07-.42.09-.62.09z"/><path class="st0" d="M51.66 101.08h-2.25c-1.24 0-2.25-1.01-2.25-2.25s1.01-2.25 2.25-2.25h2.25c20.24 0 36.7-18.88 42.84-27 2.11-2.79 5.45-4.45 8.95-4.45h2.11c1.24 0 2.25 1.01 2.25 2.25s-1.01 2.25-2.25 2.25h-2.11c-2.13 0-4.08.97-5.37 2.67-6.54 8.65-24.16 28.78-46.42 28.78z"/></svg>
