<svg xmlns="http://www.w3.org/2000/svg" viewBox="0 0 68.4 68.4" overflow="visible"><style>.st0{fill:#1c847a}</style><path class="st0" d="M34.2 68.4C15.34 68.4 0 53.06 0 34.2 0 15.34 15.34 0 34.2 0c18.86 0 34.2 15.34 34.2 34.2 0 18.86-15.34 34.2-34.2 34.2zm0-66.01C16.66 2.39 2.39 16.66 2.39 34.2S16.66 66.01 34.2 66.01 66.01 51.74 66.01 34.2 51.74 2.39 34.2 2.39z"/><path class="st0" d="M52.03 48.95c0 1.49-1.26 2.74-2.74 2.74-.72 0-1.41-.3-1.94-.8L40 43.54c-2.48 1.75-5.49 2.67-8.54 2.67-8.35 0-15.09-6.75-15.09-15.09s6.75-15.09 15.09-15.09 15.09 6.75 15.09 15.09c0 3.05-.91 6.06-2.67 8.54l7.35 7.35c.5.5.8 1.22.8 1.94zM41.06 31.12c0-5.3-4.31-9.6-9.6-9.6s-9.6 4.31-9.6 9.6 4.31 9.6 9.6 9.6 9.6-4.3 9.6-9.6z"/></svg>
