<svg xmlns="http://www.w3.org/2000/svg" viewBox="0 0 68.4 68.4" overflow="visible"><style>.st0{fill:#1c847a}</style><path class="st0" d="M23.64 35.61l-.07.07c-2.86 1.59-4.92 4.41-5.35 7.78h-4.7c-1.27 0-2.28-1.01-2.28-2.28V38.9c0-2.5 2.06-4.56 4.56-4.56h4.56c1.29 0 2.41.51 3.28 1.27zm15.66.8h.58l-.29.14c4.56 0 8.25 3.69 8.25 8.25v2.06c0 1.88-1.48 3.36-3.33 3.36H24c-1.88 0-3.36-1.56-3.36-3.51v-2.06c0-4.56 3.69-8.25 8.25-8.25h.58c1.52.72 3.15 1.12 4.92 1.12 1.76.01 3.43-.39 4.91-1.11zm-4.92-2.28c-4.41 0-7.96-3.54-7.96-7.99 0-4.41 3.54-7.96 7.96-7.96s7.99 3.54 7.99 7.96c0 4.44-3.58 7.99-7.99 7.99zm13.75 0h4.56-.07c2.5 0 4.56 2.06 4.56 4.56v2.28c0 1.27-1.01 2.28-2.28 2.28h-4.7c-.43-3.36-2.5-6.18-5.35-7.78.85-.84 2.01-1.34 3.28-1.34zm2.27-2.28c-2.5 0-4.56-2.06-4.56-4.56 0-2.5 2.06-4.56 4.56-4.56s4.56 2.06 4.56 4.56c0 2.5-2.06 4.56-4.56 4.56zm-31.9 0c-2.5 0-4.56-2.06-4.56-4.56 0-2.5 2.06-4.56 4.56-4.56s4.56 2.06 4.56 4.56c0 2.5-2.06 4.56-4.56 4.56z"/><path class="st0" d="M34.2 68.4C15.34 68.4 0 53.06 0 34.2 0 15.34 15.34 0 34.2 0s34.2 15.34 34.2 34.2c0 18.86-15.34 34.2-34.2 34.2zm0-66.01C16.66 2.39 2.39 16.66 2.39 34.2S16.66 66.01 34.2 66.01 66.01 51.74 66.01 34.2 51.74 2.39 34.2 2.39z"/></svg>
