<svg xmlns="http://www.w3.org/2000/svg" viewBox="0 0 88.62 100.44" overflow="visible"><style>.st0{fill:#eb6100}</style><path class="st0" d="M26.59 20.91c-.98.66-2.29.52-3.93-.44-.37 1.11-.84 2.23-1.43 3.36-.79-.38-1.67-.64-2.65-.78.81-1.31 1.46-2.7 1.93-4.18-1.08-.93-2.19-2.04-3.33-3.35l-2.81 1.91.91 1.33 1.92-1.81 1.49 1.87c-.22.22-.55.55-.99 1-.45.45-.78.79-1.01 1.01l1.44 2.12c.39.57.62 1.05.69 1.43.09.41.02.81-.19 1.2-.36.65-1.21 1.43-2.54 2.34-.24-.27-.59-.57-1.05-.9-.43-.32-.84-.58-1.21-.78.83-.49 1.48-.92 1.93-1.27.14-.09.22-.18.24-.26.02-.08-.01-.18-.09-.3l-1.14-1.67-2.13 2.11-2-1.85c1.1-.98 1.98-1.79 2.66-2.42l-1.13-1.66-2.63 1.79-1.39-2.05 2.63-1.79-.9-1.33c-.75.68-1.42 1.26-2.01 1.74a7.597 7.597 0 0 0-1.85-1.41c2.16-1.88 3.88-3.64 5.16-5.28l2.73.86c-.51.61-1.19 1.35-2.07 2.24l1.15 1.69 2.62-1.78a58.207 58.207 0 0 1-2.91-3.93l2.27-1.55a48.01 48.01 0 0 0 2.86 3.96l3.93-2.67 1.39 2.05L19.42 14c.74.81 1.32 1.41 1.73 1.8.08-.86.09-1.66 0-2.41l2.47-.48c.13 1.56.04 3.18-.26 4.86.99.73 1.64.99 1.95.77.26-.18-.12-1.08-1.13-2.73.89.21 1.76.23 2.62.06.74 1.43 1.09 2.52 1.03 3.26-.05.66-.46 1.25-1.24 1.78zm-6.7-10.49c-.39-.23-.95-.45-1.69-.65-.67-.19-1.33-.33-2-.43l.88-2.21c1.65.19 2.89.49 3.74.89l-.93 2.4zM42.88 16.74c-1.56-.3-3.29-.55-5.19-.76-.85.63-1.93 1.22-3.25 1.75-1.14.47-2.61.96-4.43 1.47-.37-.81-.83-1.48-1.39-2.01 2.23-.51 3.96-1.03 5.17-1.56l-.89-.05-.06.14-2.65-.26c.27-.54.58-1.19.91-1.95l-3.44.67-.4-2.06 4.79-.93c.09-.23.22-.55.38-.98l-4.28.83-1.02-5.24 3.8-.74-.14-.71-4.58.89-.43-2.22L41.46 0l.43 2.22-4.7.91.14.71 4.24-.82 1.02 5.24-7.24 1.41-.36.97 8.66-1.68.4 2.06-3.37.65c-.25.82-.57 1.55-.97 2.2 1.7.15 3.14.31 4.33.49l-1.16 2.38zM30.18 8.6l1.38-.27-.24-1.24-1.38.27.24 1.24zm3.18-3.99l1.53-.3-.14-.71-1.53.3.14.71zm.63 3.25l1.53-.3-.24-1.24-1.53.3.24 1.24zm2.84 5.78c.38-.43.7-.9.94-1.42l-3.71.72-.23.54c.83.03 1.83.09 3 .16zm1.12-6.55l1.67-.32-.24-1.24-1.67.32.24 1.24zM46.49 16.54c-.13-.36-.34-.77-.62-1.23s-.56-.83-.84-1.09c1.09-.84 2-2.03 2.72-3.58.59-1.26 1.15-2.99 1.68-5.19l-1.84-.39.54-2.51 1.88.4.6-2.81 2.53.54c-.27 1.27-.48 2.21-.62 2.81l3.79.8c-.08.38-.17.75-.26 1.13-.92 3.93-1.58 6.57-1.96 7.92-.47 1.63-.88 2.61-1.24 2.95-.29.27-.57.46-.84.58-.23.1-.52.15-.86.15-.42.02-1.15-.09-2.18-.33.05-.37.07-.8.05-1.28-.03-.51-.1-.96-.21-1.36-.7.98-1.46 1.81-2.32 2.49zm3.78-2.21c.25.05.47-.02.68-.22.21-.2.48-.88.82-2.05.32-1.09.8-3.03 1.46-5.81l-1.31-.28c-.91 3.57-1.94 6.22-3.1 7.97.54.17 1.02.3 1.45.39zm3.93 3.43l3.08-14.47 6.67 1.42-3.05 14.32-2.58-.55.23-1.06-1.63-.35-.26 1.2-2.46-.51zm3.24-3.16l1.63.35 1.77-8.31-1.63-.35-1.77 8.31zM61.46 19.19l1.29-1.83 1.74 1.23 2.24-3.18 5.21 3.68c-.02-.29-.08-.69-.2-1.19-.12-.5-.23-.9-.34-1.18.18-.01.36-.02.55-.06l-3.06-2.16-.49.69-1.93-1.37 4.98-7.04 5.23 3.69-4.31 6.1c.69-.19 1.35-.56 1.96-1.12.42-.38.87-.92 1.36-1.61l2.08-2.94 6.05 4.28-4.3 6.08c-.31.44-.61.74-.88.9-.29.18-.62.24-1.01.17-.58-.08-1.39-.49-2.43-1.23.25-.61.41-1.36.48-2.25.24.2.62.48 1.14.83.08.06.13.09.15.1.18.12.32.11.43-.05l.26-.37-2.33-1.65c-1.05.85-2.16 1.32-3.33 1.39l5.33 3.77-2.24 3.17 1.62 1.15-1.29 1.83-13.96-9.83zm5.03.81l.86.61 1.08-1.54-.86-.61L66.49 20zm2.81 1.98l.87.62 1.09-1.54-.87-.62-1.09 1.54zm.76-9.09l1.36.96.54-.77-1.36-.96-.54.77zm1.64-2.32l1.36.96.54-.77-1.36-.96-.54.77zm.42 13.41l.87.62 1.08-1.54-.87-.62-1.08 1.54zm4.53-7.48l2.05 1.45.43-.61-2.01-1.42c-.1.13-.26.32-.47.58zm1.5-1.99l1.99 1.41.41-.58-1.99-1.41-.41.58z"/><g><path class="st0" d="M71.36 65.87c-.92.84-1.76 1.61-2.61 2.39 3.44 2.97 4.07 4.95 2.39 7.3-1.51 2.11-3.84 2.36-6.61.86-.98 1.23-1.7 2.77-2.92 3.49-1.17.69-2.85.54-4.47.79-1.31 4.03-3.77 4.86-8.37 2.51-1.38 3.81-2.98 4.63-6.81 3.62-.39-.1-.98.17-1.34.44-2.32 1.73-4.83 1.3-6.5-1.07-.29-.42-1-.77-1.52-.78-2.67-.01-3.92-.9-4.74-3.39-.16-.5-.7-1.05-1.19-1.23-1.69-.63-2.77-1.67-3.14-3.49-.09-.42-.5-.96-.89-1.11-3.22-1.26-3.99-3.23-2.37-6.62-1.18-1.24-2.37-2.55-3.65-3.76-.3-.28-.91-.29-1.38-.32-.89-.06-1.94.25-2.66-.1-2.52-1.24-4.95-2.65-7.35-4.11-.35-.21-.35-1-.51-1.52.54-.09 1.21-.42 1.61-.22 2.06 1.05 4.08 2.2 6.07 3.39 1.34.81 2.26.71 3.21-.68a666.7 666.7 0 0 1 9.69-13.77c.96-1.33.84-2.23-.42-3.24-3.01-2.4-5.99-4.84-8.9-7.36-.46-.4-.93-1.49-.72-1.86.67-1.11 1.44-.28 2.09.25 3.07 2.52 6.21 4.96 9.17 7.61.96.86 1.46 2.25 2.16 3.39-.09.25-.18.49-.28.74 3.22-.35 6.44-.7 9.66-1.04.66-.07 1.33-.15 2-.15 6.41-.01 12.83-.01 18.65-.01 1.31-1.5 2.18-2.79 3.33-3.74 2.49-2.06 5.1-3.99 7.73-5.88.45-.33 1.25-.17 1.89-.24-.21.64-.22 1.54-.66 1.89-2.66 2.15-5.38 4.23-8.15 6.24-1.26.92-1.38 1.85-.54 3.1 3.62 5.37 7.22 10.75 10.8 16.14.81 1.22 1.72 1.16 2.8.48 2.02-1.27 3.99-2.6 6.07-3.76.66-.37 2.08-.59 2.32-.26.79 1.08-.38 1.54-1.12 2.01-1.9 1.22-3.82 2.41-5.74 3.6-2.57 1.61-3.79 1.51-6.08-.53zm-54.13-2.01c1.37 1.21 2.62 2.39 3.95 3.46.38.31 1.05.51 1.51.41 2.42-.49 3.59 0 5.05 2.19.22.33.73.73 1.07.7 2.17-.18 3.56.94 4.58 2.65 2.63-1.44 4.4-1.42 5.92.21.55.59 1.15 1.47 1.13 2.2-.03 1.37-.49 2.73-.79 4.19 1.5.66 2.54 1.93 2.75 3.91.05.47.86 1.27 1.18 1.21.92-.18 2.18-.52 2.51-1.2.32-.66-.18-1.88-.61-2.7-.27-.52-1.2-.65-1.6-1.15-.46-.56-.66-1.34-.98-2.02.72.04 1.57-.17 2.12.15 2.05 1.2 3.98 2.6 6.01 3.85 1.41.87 2.75.57 3.52-.64.75-1.18.42-2.52-.93-3.46-1.95-1.36-3.98-2.61-5.87-4.06-.6-.46-1.37-1.66-1.16-2.02.66-1.2 1.55-.26 2.27.21 2.85 1.88 5.67 3.81 8.52 5.7 1.69 1.12 3.15.99 4.03-.29.9-1.31.47-2.63-1.25-3.79-.46-.31-.92-.6-1.38-.9-2.45-1.6-4.93-3.16-7.32-4.85-.46-.32-.57-1.14-.84-1.74.69-.02 1.43-.2 2.07-.03.62.16 1.14.68 1.7 1.05 3.83 2.51 7.63 5.04 11.48 7.52 1.83 1.18 3.95.43 3.85-1.43-.05-.89-.88-2.01-1.68-2.53-6.09-3.95-12.26-7.8-18.43-11.62-.91-.56-2.01-1.07-3.04-1.12-3.1-.15-6.21-.05-9.56-.05 0 .83.03 1.55-.01 2.26-.15 2.65-1.8 4.31-4.25 4.29-2.41-.02-4.12-1.74-4.22-4.35-.06-1.65.05-3.3-.03-4.95-.1-2.11.09-4.03 2.65-4.95-3.05-.59-3.91-.49-4.75.68-2.97 4.19-5.92 8.39-9.17 13.01zm32.18-14.88c-3.06 0-6.11-.02-9.16.01-.65.01-1.36.05-1.95.31-2.18.95-4.33 1.97-6.46 3.02-.45.22-1.08.69-1.09 1.07-.07 2.44-.13 4.89.14 7.31.07.59 1.38 1.5 2.06 1.45.65-.05 1.45-1.05 1.77-1.82.31-.73.14-1.69.09-2.54-.1-1.6.6-2.17 2.18-2.12 2.81.09 5.64-.16 8.43.09 1.82.16 3.77.62 5.33 1.52 4.49 2.58 8.82 5.46 13.21 8.22 2.81 1.77 2.78 1.74 5.13-.62.77-.77.95-1.32.27-2.31-2.84-4.12-5.55-8.33-8.4-12.45-.4-.57-1.32-1.07-2.01-1.09-3.18-.12-6.36-.05-9.54-.05zM38.35 75.86c-.25-.26-.69-1.05-1.3-1.23-.62-.19-1.66-.01-2.09.42a52.384 52.384 0 0 0-4.55 5.21c-.34.44-.35 1.49-.05 1.99.29.5 1.14.9 1.77.95 1.25.1 6.29-5.55 6.22-7.34zm-12.66 1.49c.5.33 1.25 1.14 2.13 1.33 1.12.24 3.63-2.68 3.53-3.89-.11-1.27-.84-1.97-2.15-1.97-1.28-.01-3.56 2.53-3.51 4.53zm11.58 9.07c1.59-.25 2.88-1.41 2.88-2.56 0-1.24-.76-1.91-1.91-2.06-1.01-.13-2.63 1.29-2.4 2.29.18.84.93 1.56 1.43 2.33zM26.65 71.45c-1.22-.85-2.23-1.86-2.51-1.69-.98.61-2.06 1.49-2.44 2.52-.35.94.69 2.04 1.76 1.67 1.02-.35 1.82-1.38 3.19-2.5z"/><path class="st0" d="M77.83 60.43c-.22.27-.44.78-.74.84-.39.08-1.06-.08-1.24-.36-1.77-2.7-3.5-5.44-5.14-8.23-.2-.34.21-1.03.34-1.56.47.14 1.17.13 1.38.45 1.75 2.65 3.41 5.35 5.09 8.04.13.21.17.46.31.82zM9.42 59.1c.18-.32.34-.65.54-.95 1.58-2.32 3.13-4.67 4.81-6.92.36-.48 1.22-.58 1.85-.85-.05.7.15 1.55-.18 2.06-1.53 2.42-3.19 4.77-4.87 7.1-.26.36-.87.62-1.33.65-.45.03-.92-.31-1.39-.49l.57-.6z"/></g><g><path class="st0" d="M44.31 100.44C19.88 100.44 0 80.56 0 56.13c0-9.62 3.03-18.77 8.76-26.46.33-.44.96-.53 1.4-.2s.53.96.2 1.4C4.89 38.21 2 46.94 2 56.13c0 23.33 18.98 42.31 42.31 42.31 23.33 0 42.31-18.98 42.31-42.31 0-8.95-2.76-17.5-7.98-24.73-.32-.45-.22-1.07.23-1.4.45-.32 1.07-.22 1.4.23 5.47 7.57 8.35 16.53 8.35 25.9 0 24.43-19.88 44.31-44.31 44.31z"/></g></svg>
