<svg xmlns="http://www.w3.org/2000/svg" viewBox="0 0 58.63 58.63" overflow="visible"><path d="M55.82 0H2.81C1.26 0 0 1.26 0 2.81v53.01c0 1.55 1.26 2.8 2.81 2.81h53.01c1.55 0 2.8-1.26 2.81-2.81V2.81c0-1.55-1.26-2.81-2.81-2.81zm-4.83 42.48a3.854 3.854 0 0 1-3.84 3.87H11.51a3.854 3.854 0 0 1-3.87-3.84V23.24c.73.8 1.55 1.51 2.45 2.11 4 2.75 8.09 5.46 12 8.35 2.06 1.51 4.56 3.36 7.18 3.36h.08c2.62 0 5.12-1.85 7.18-3.36 3.91-2.84 8-5.59 12.05-8.35.89-.6 1.7-1.31 2.42-2.11l-.01 19.24zm-4.13-19.7c-3.78 2.62-7.57 5.25-11.31 7.87-1.59 1.07-4.26 3.31-6.19 3.31h-.08c-1.94 0-4.61-2.24-6.19-3.31-3.75-2.62-7.53-5.29-11.27-7.87-1.72-1.16-4.17-3.87-4.17-6.11a3.92 3.92 0 0 1 3.87-4.39h35.62a3.87 3.87 0 0 1 3.87 3.86 8.847 8.847 0 0 1-4.15 6.64z" fill="#fff"/></svg>
