<svg xmlns="http://www.w3.org/2000/svg" id="a" viewBox="0 0 26 26"><defs><style>.b{fill:#0068b7}</style></defs><path class="b" d="M13 26c7.17 0 13-5.83 13-13S20.56.42 13.74.04C13.49.03 13.25 0 13 0c-.26 0-.52.02-.77.04C5.56.43.23 5.87.02 12.58c0 .14-.02.28-.02.42 0 .11.01.23.02.34C.2 20.35 5.95 26 13 26zm0-25c6.62 0 12 5.38 12 12s-5.38 12-12 12S1 19.62 1 13 6.38 1 13 1z"/><path class="b" d="M4.85 17.4s.04-.02.06-.04l4.45-4.11s.04-.08.04-.12h.02l-.08-.08-4.41-2.55c-.02-.06-.06-.06-.12 0s-.08.1-.08.12v6.65s.02.06.08.12h.04zM4.79 8.8s.05.07.08.1l7.73 4.39c0 .06.04.08.06.06.02 0 .02-.02.04-.04l7.49-4.39c.08-.01.14-.05.2-.1.06-.06.08-.1.08-.12v-.97c0-.34-.18-.51-.53-.51H5.3c-.34 0-.53.16-.53.51l.02-.02V8.8zM14.8 13.76c-.08-.08-.14-.1-.2-.04l-.02-.02-1.66.99c-.19.14-.44.16-.65.06l-1.52-.87c-.02-.06-.08-.04-.16.04l-5.64 5.2s-.04.08-.04.12c0 .02.02.06.08.12.08.04.17.07.26.08h14.48c.06 0 .26-.1.12-.24l-5.06-5.44zM20.39 10.4a.113.113 0 0 0-.16.02l.04-.02-4.23 2.47s-.04.02-.04.08v.12l4.27 4.59s.04.04.06.04l.04-.04c.06 0 .08-.04.08-.12v-7.06s-.02-.04-.04-.06c0 0-.01-.02-.02-.02z"/></svg>
