<svg xmlns="http://www.w3.org/2000/svg" id="a" viewBox="0 0 26 26"><defs><style>.b{fill:#0068b7}</style></defs><path class="b" d="M13 0C5.83 0 0 5.83 0 13v.04c.02 6.9 5.44 12.53 12.24 12.92.25.01.5.04.76.04s.5-.02.76-.04c6.8-.39 12.22-6.03 12.24-12.92V13c0-7.17-5.83-13-13-13zm0 25C6.38 25 1 19.62 1 13S6.38 1 13 1s12 5.38 12 12-5.38 12-12 12z"/><path class="b" d="M16.97 6.42a5.8 5.8 0 0 0-4.39-1.86c-1.67-.04-3.28.64-4.41 1.86a6.08 6.08 0 0 0-1.82 4.41c0 1.34.43 2.64 1.25 3.71l3.97 6.95c.07.07.04.13.11.13.21.31.55.49.92.48.34.01.65-.16.83-.44v.04l.04-.09.17-.26 3.88-6.78a6.127 6.127 0 0 0 1.29-3.75c.03-1.67-.64-3.27-1.86-4.41zm-2.28 6.65c-.57.58-1.34.9-2.15.9-.82 0-1.6-.32-2.17-.9-.58-.57-.91-1.36-.9-2.17 0-.81.32-1.58.9-2.15.57-.58 1.36-.91 2.17-.9.81 0 1.58.32 2.15.9.58.57.9 1.34.9 2.15 0 .82-.32 1.6-.9 2.17z"/></svg>
