<svg xmlns="http://www.w3.org/2000/svg" viewBox="0 0 27 27" overflow="visible"><style>.st0{fill:#0068b7}</style><path class="st0" d="M13.48 15.1c2.94.01 5.34-2.37 5.34-5.31s-2.37-5.34-5.31-5.34-5.33 2.36-5.34 5.3 2.37 5.34 5.31 5.35z"/><path class="st0" d="M13.5 0C6.06 0 0 6.06 0 13.5c0 4.54 2.28 8.76 6.08 11.27 2.11 1.43 4.56 2.2 7.09 2.23h.33C20.94 27 27 20.94 27 13.5S20.94 0 13.5 0zm9.36 21.75c-1.08-2.92-3.44-4.42-4.55-5.09-1.13-.68-2.04 0-2.04 0-2.78 1.3-4.99.33-5.89-.12-.84-.44-1.54 0-1.54 0-3.86 1.97-4.77 5.06-4.77 5.06s.03.07.1.19A12.417 12.417 0 0 1 1 13.5C1 6.61 6.61 1 13.5 1S26 6.61 26 13.5c0 3.16-1.19 6.05-3.14 8.25z"/></svg>
