<svg xmlns="http://www.w3.org/2000/svg" id="a" viewBox="0 0 26 26"><defs><style>.b{fill:#0068b7}</style></defs><path class="b" d="M25.96 12.3C25.6 5.46 19.93 0 13 0S0 5.83 0 13c0 6.8 5.25 12.39 11.91 12.94.36.03.72.06 1.09.06.4 0 .78-.02 1.17-.06 6.35-.57 11.39-5.73 11.79-12.13.02-.27.04-.54.04-.81 0-.24-.02-.47-.04-.7zM13 25C6.38 25 1 19.62 1 13S6.38 1 13 1s12 5.38 12 12-5.38 12-12 12z"/><path class="b" d="M17.78 14.98c-.1-.54-.54-.95-1.09-1-.35-.08-.68-.22-.99-.4-.8-.48-1.28-1.35-1.27-2.28-.64-.1-1.28-.14-1.93-.13-.65-.01-1.29.03-1.93.13-.03.39-.11.77-.24 1.14-.07.18-.17.36-.29.52-.12.17-.27.32-.43.45-.19.15-.4.27-.62.36-.22.09-.45.17-.69.22-.17.03-.33.08-.48.16-.32.17-.54.48-.59.84l-.36 2.49c-.07.42.06.85.35 1.17.27.33.68.51 1.1.5h8.42c.42.01.83-.17 1.1-.5.29-.31.42-.75.35-1.17l-.4-2.49zm-3.93 1.82c-.34.35-.81.54-1.3.53-.49 0-.96-.18-1.3-.53-.35-.34-.54-.81-.53-1.3-.01-.49.18-.96.53-1.3.34-.35.81-.54 1.3-.53.49-.01.96.18 1.3.53.35.34.54.81.53 1.3.01.49-.18.96-.53 1.3z"/><path class="b" d="M19.54 9.83c-.19-.24-.4-.46-.65-.65-.33-.25-.69-.45-1.07-.62-.46-.21-.94-.39-1.43-.53-.58-.17-1.17-.3-1.77-.38-.77-.09-1.55-.14-2.32-.13-.92 0-1.83.1-2.72.3-.79.15-1.56.4-2.29.75-.51.25-.99.57-1.41.95-.29.22-.47.55-.52.91 0 .29 0 .52.01.69.02.21.06.43.11.63.04.21.13.4.27.56.16.15.35.25.56.32.34.09.69.11 1.04.04.36-.04.71-.13 1.04-.27.14-.07.26-.13.36-.19.1-.05.19-.13.24-.23.05-.08.09-.17.13-.26.04-.1.06-.2.07-.3.02-.13.03-.3.03-.3v-.52c0-.62 1.12-.92 3.37-.92s3.37.3 3.37.92v.36c0 .19.01.39.04.58.02.12.06.23.11.33.06.09.13.18.22.26.1.11.22.19.36.24.17.07.35.13.53.17.26.06.53.11.79.14.28.05.57.03.84-.06.21-.06.4-.17.56-.32.14-.16.24-.35.27-.56.05-.21.09-.42.11-.63.01-.17.01-.37.01-.6 0-.24-.09-.47-.24-.66l-.06-.04z"/></svg>
