<svg xmlns="http://www.w3.org/2000/svg" id="a" viewBox="0 0 26 26"><defs><style>.b{fill:#0068b7}</style></defs><path class="b" d="M13 0C5.83 0 0 5.83 0 13v.04c.02 6.9 5.44 12.53 12.24 12.92.25.01.5.04.76.04s.5-.02.76-.04c6.8-.39 12.22-6.03 12.24-12.92V13c0-7.17-5.83-13-13-13zm0 25C6.38 25 1 19.62 1 13S6.38 1 13 1s12 5.38 12 12-5.38 12-12 12z"/><path class="b" d="M10.67 9.45a1.931 1.931 0 0 1 3.86 0v1.09h2.86V9.46c0-2.65-2.15-4.79-4.79-4.79S7.81 6.82 7.81 9.46v1.09h2.86V9.46zM16.96 11.26H8.24c-.68 0-1.23.55-1.23 1.23v7.62c0 .68.55 1.23 1.23 1.23h8.72c.68 0 1.23-.55 1.23-1.23v-7.62c0-.68-.55-1.23-1.23-1.23zm-5.7 7.76l.76-3.21c-.53-.34-.69-1.05-.34-1.59.21-.33.57-.53.96-.53a1.15 1.15 0 0 1 .7 2.06l.9 3.26h-2.97z"/></svg>
