<svg xmlns="http://www.w3.org/2000/svg" viewBox="0 0 617 753.63" overflow="visible"><style>.st0{fill:#617764}</style><path class="st0" d="M308.52 348.08c96.12.01 174.05-77.91 174.05-174.03C482.58 77.93 404.66.01 308.54 0 212.42-.01 134.5 77.91 134.49 174.03v.03c.11 96.06 77.96 173.91 174.03 174.02zm0-311.28c75.79 0 137.24 61.44 137.24 137.24 0 75.79-61.44 137.24-137.24 137.24-75.79 0-137.23-61.44-137.24-137.23.08-75.76 61.47-137.16 137.24-137.25zM401.23 374.63l.04-.01a118.055 118.055 0 0 0-33.31-3.93c-32.34.81-82.83.81-114.97 0-11.02-.28-22.03.99-32.7 3.78C137.83 395.91-.49 442.9 0 516.34v178.92L.21 698c5.31 35.52 22.29 52.15 56.8 55.55l502.1.08.92-.08c34.5-3.42 51.5-20.05 56.8-55.55v-35.39l.17-146.14c.48-73.35-134.93-120.36-215.77-141.84zm156.06 342.2H59.77c-15.42-1.61-20.05-4.38-22.98-22.94V516.21c-.24-33.41 77.25-76.08 192.75-106.17a82.083 82.083 0 0 1 22.5-2.57c32.67.81 83.96.85 116.82 0 7.74-.19 15.46.73 22.94 2.74 112.93 30.04 188.64 72.67 188.41 106.17l.03 177.51c-2.94 18.55-7.53 21.33-22.95 22.94z"/></svg>
