<svg xmlns="http://www.w3.org/2000/svg" viewBox="0 0 1142.37 915.66" overflow="visible"><style>.st0{fill:#617764}</style><path class="st0" d="M556.71 517.67l3.62-3.62H530.4l-.02.02c-83.01 37.47-178.12 37.47-261.12 0h-30.3C106.89 514.18-.09 621.32.02 753.39v75.26c0 .22-.01.43-.01.65-.56 47.14 37.2 85.8 84.33 86.36h628.28c.32 0 .63 0 .95-.01 46.06-.51 82.98-38.26 82.46-84.32v-74.35-.38c-.1-132.06-107.25-239.04-239.32-238.93zM399.82 456.95l.02-.02h1.89c125.66-.52 227.11-102.81 226.58-228.47C628.31 102.29 526.03.01 399.86 0 273.68-.01 171.38 102.27 171.37 228.46c-.01 126.18 102.27 228.48 228.45 228.49zM1114.26 370.79h-114.23V256.56v-.22c-.31-15.71-13.3-28.2-29.01-27.89h-58c-15.28.24-27.47 12.83-27.23 28.11v114.23H770.82c-15.82.2-28.48 13.19-28.28 29.02v57.12c0 .41 0 .83.02 1.24.59 15.43 13.57 27.45 29 26.86h114.23v114.23c-.02.41-.02.83-.02 1.24.1 15.44 12.69 27.87 28.13 27.77h57.86c15.82-.2 28.48-13.19 28.28-29.02V485.04h115.11c15.28-.24 27.47-12.83 27.23-28.11v-57.12-.22c.18-15.71-12.4-28.61-28.12-28.8z"/></svg>
