<svg xmlns="http://www.w3.org/2000/svg" viewBox="0 0 1395.83 1388.11" overflow="visible"><style>.st0{fill:#617764}</style><path class="st0" d="M672.78 964.3c-9.66-9.66-18-9.66-28.99 0l.1-.07a765.694 765.694 0 0 0-75.61 67.37 811.708 811.708 0 0 0-67.37 72.86l-28.99 41.23c-.77.86-1.45 1.8-2.03 2.79-4.74 8.14-1.98 18.58 6.16 23.32 1.28 1.83 2.87 3.41 4.7 4.7 8.73 6.14 20.79 4.03 26.92-4.7.74-1.48 1.67-2.86 2.75-4.11l27.63-38.43a461.724 461.724 0 0 1 59.11-67.35 920.847 920.847 0 0 1 72.86-64.62h2.75c1.56-1.17 2.94-2.56 4.11-4.11 6.86-9.11 5.01-22.04-4.1-28.88z"/><path class="st0" d="M1368.31 458.33L931.08 25.3C910.47 2.09 877.72-6.09 848.61 4.7a120.88 120.88 0 0 0-41.26 21.98 94.778 94.778 0 0 0-23.36 37.1 391.788 391.788 0 0 1-103.1 169.09C634.16 281 554.42 333.29 434.82 403.35c-134.72 79.74-228.2 145.71-281.78 200.74A582.87 582.87 0 0 0 4.57 844.66c-10.8 30.23-2.08 64 22.01 85.22L459.7 1362.9c21.27 23.09 54.29 31.21 83.85 20.63a120.724 120.724 0 0 0 41.23-22.01 94.886 94.886 0 0 0 23.36-37.13 387.77 387.77 0 0 1 104.48-167.72 1321.082 1321.082 0 0 1 246.05-171.85c101.35-56.5 196.3-123.8 283.18-200.71a557.932 557.932 0 0 0 148.46-240.57c12.39-30.13 3.43-64.83-22-85.21zm-174.7 254.31a750.173 750.173 0 0 1-181.46 142.96 2458.73 2458.73 0 0 0-284.51 176c-90.73 71.48-166.34 155.35-200.71 269.44l-137.47-136.1-295.61-298.2a514.8 514.8 0 0 1 115.47-192.45 730.999 730.999 0 0 1 178.76-141.6c93.48-55.03 197.96-108.7 288.69-178.76 90.73-68.8 164.96-152.67 197.96-268.13l214.41 215.81 218.57 217.21a516.583 516.583 0 0 1-114.1 193.82z"/><path class="st0" d="M854.1 646.67a105.48 105.48 0 0 0-86.6-26.11l2.75-2.75.05-.02c-15 4.13-28.87 5.51-43.99 11.02a178.166 178.166 0 0 0-43.99 19.32 786.921 786.921 0 0 0-70.05-79.72c15.59-15.76 39.8-19.14 59.11-8.26 8.07 2.29 16.36 3.68 24.74 4.13 7.14 2.02 14.82.48 20.63-4.13 1.89-1.48 3.59-3.18 5.06-5.06 10.11-12.91 7.84-31.57-5.06-41.68-19.36-19.51-47.82-26.92-74.23-19.32a157.996 157.996 0 0 0-68.72 38.48l-9.66-8.26a12.843 12.843 0 0 0-4.32-4.32c-6.08-3.69-14-1.76-17.69 4.32-6.86 9.61-8.29 20.63 1.38 24.74 5.51 1.39 8.26 4.14 8.26 8.26a228.082 228.082 0 0 0-28.99 42.61 263.222 263.222 0 0 0-13.75 46.74 89.086 89.086 0 0 0 5.51 39.86c6.55 13.71 15.91 25.9 27.47 35.78a100.699 100.699 0 0 0 70.05 20.61 245.33 245.33 0 0 0 89.38-26.11c33 37.1 57.73 65.97 78.36 86.6-15.43 16.72-40.06 21.2-60.39 10.99-16.38-6.96-30.24-19.32-45.37-19.32-23.38 0-31.67 20.61-22.01 41.23 11.76 28.82 40.41 47.09 71.5 45.61 15.52.31 30.95-2.49 45.37-8.24a129.925 129.925 0 0 0 49.5-33c5.67 8.77 12.61 16.64 20.61 23.36a15.66 15.66 0 0 0 3.29 2.95c7.12 4.73 16.73 2.8 21.47-4.32 1.05-.98 1.93-2.12 2.62-3.37 3.65-6.62 1.25-14.95-5.38-18.61L839 822.77a182.975 182.975 0 0 0 31.62-52.25 103.065 103.065 0 0 0 13.75-45.37 75.389 75.389 0 0 0-2.78-42.73 78.75 78.75 0 0 0-27.49-35.75zm-270.82 17.88c-23.36-15.12-9.61-48.09 8.26-74.23v1.38l68.72 70.13c-37.12 20.59-56.35 23.35-76.98 2.72zM806 780.04l-72.85-78.36c6.17-2.25 12.15-5.01 17.88-8.24.32-.21.65-.42.98-.62 23.06-14.36 53.39-7.31 67.75 15.75 11.77 24.23 6.18 53.33-13.76 71.47zM926.95 223.29c-6.88-10.99-15.12-10.99-27.49 0-4.11 0-2.73 1.35-6.86 5.48l-27.49 38.5A461.203 461.203 0 0 1 806 334.62h-2.75l-.1.05a924.499 924.499 0 0 1-72.85 64.62c-1.38 0-2.75 1.35-4.13 2.73-6.88 8.91-6.88 21.34 0 30.24 10.99 11.02 21.96 12.42 31.62 2.75a645.398 645.398 0 0 0 75.61-67.37 811.154 811.154 0 0 0 67.32-72.86l28.99-41.26c1.5-1.31 2.78-2.85 3.8-4.56 5.28-8.89 2.34-20.39-6.56-25.67z"/></svg>
