<svg xmlns="http://www.w3.org/2000/svg" viewBox="0 0 865.1 865.35" overflow="visible"><style>.st0{fill:#617764}</style><path class="st0" d="M862.57 258.28a78.021 78.021 0 0 0-21.3-38.33C776.14 154.77 710.99 89.59 645.81 24.41A79.829 79.829 0 0 0 597.2.81c-1-.18-1.98-.45-2.93-.82h-12.48c-.95.37-1.93.65-2.93.85a79.756 79.756 0 0 0-48.64 23.63l-58.91 58.91c-1.15 1.12-2.12 2.27-2.82 3.02L778.7 396.61c.3-.27.9-.72 1.42-1.23 20.48-20.48 40.99-40.88 61.39-61.42a74.251 74.251 0 0 0 18.91-30.81c2.08-6.73 3.17-13.78 4.68-20.69v-10.72c-.86-4.51-1.5-8.99-2.53-13.46zM865.1 282.45v.01zM209.96 570.39c-1.48 1.45-3.12 2.75-4.5 4.32a72.098 72.098 0 0 0-8.43 10.11 54.735 54.735 0 0 0-7.28 34.99c1.88 23.68 17.78 43.92 40.34 51.36 21.6 8.94 46.49 3.51 62.39-13.63C406.1 544.02 519.71 430.47 633.3 316.89c1.12-1.12 2.12-2.3 2.9-3.12l-85.27-85.31c-1.23 1.56-2.31 3.19-3.64 4.61-112.41 112.41-224.85 224.85-337.33 337.32z"/><path class="st0" d="M550.91 228.46l.01.01.01-.01zM666.91 344.27c-.93.9-1.88 1.78-2.78 2.72-30.29 30.15-60.57 60.35-90.82 90.6-83.46 83.46-166.92 166.92-250.38 250.39a56.677 56.677 0 0 0-17.2 38.49c-.2 3.38-.11 6.76.25 10.12 3.64 33.65 33.87 57.99 67.52 54.35 8.01-.48 15.56-3.93 21.18-9.66 116.85-117.06 233.77-234.03 350.75-350.93a24.21 24.21 0 0 1 4.62-2.93l-83.12-83.12-.02-.03zM148.11 558.09a60.137 60.137 0 0 0 30.63-19.06C291.33 426.2 404 313.41 516.74 200.66c1.12-1.12 2.2-2.3 3.05-3.2l-81.15-81.15h-.02c-.6.52-1.45 1.27-2.27 2.08-118.71 118.68-237.41 237.4-356.1 356.17a11.66 11.66 0 0 0-3.12 4.72 61.252 61.252 0 0 0-1.64 31.36c6.95 33.15 39.46 54.4 72.62 47.45zM299.01 808.98c-4.67-2.98-7-8.54-5.87-13.96a89.274 89.274 0 0 0-10.93-52.77c-18.64-37.48-58.78-59.25-100.36-54.44-5.23.37-5.83-.07-5.23-5.2 1.1-10.65.39-21.4-2.12-31.81-11.47-49.68-57.97-83.18-108.73-78.32-2.12.11-4.18-.71-5.65-2.23-6.28-8.25-12.21-16.73-18.13-25.19a58.844 58.844 0 0 1-3.45-7.1c-.52 2.63-.85 4.05-1.03 5.5-3.1 23.67-6.17 47.35-9.21 71.02-4.49 34.26-8.89 68.52-13.2 102.78-.11 1.67.46 3.31 1.57 4.57 42.24 42.38 84.53 84.68 126.89 126.89a6.864 6.864 0 0 0 5 1.78c16.5-1.97 32.96-4.2 49.42-6.32l100.55-13.05c9.21-1.18 18.43-2.42 27.43-3.6h-.03c-9.19-6.32-18.04-12.45-26.92-18.55zM8.48 767.35c-.37 2.67-.78 5.87-1.27 9.06-2.17 15.25-3.88 30.54-6.67 45.67-.73 4.15-.74 8.4-.03 12.56 3.42 20.09 22.48 33.59 42.57 30.17 11.18-2.05 22.51-3.5 33.78-5.17 7.25-1.05 14.45-1.97 21.11-2.87L8.5 767.34l-.02.01z"/></svg>
