<svg xmlns="http://www.w3.org/2000/svg" viewBox="0 0 1315.7 822.71" overflow="visible"><style>.st0{fill:#617764}</style><path class="st0" d="M1061.68 380.9c80.4 0 145.58-65.18 145.58-145.58s-65.18-145.58-145.58-145.58S916.1 154.92 916.1 235.32c.09 80.36 65.22 145.48 145.58 145.58zm0-250.99c58.19 0 105.35 47.17 105.35 105.35 0 58.19-47.17 105.35-105.35 105.35-58.19 0-105.35-47.17-105.35-105.35.1-58.14 47.2-105.25 105.35-105.35zM254 380.9c80.4 0 145.58-65.18 145.58-145.58S334.4 89.74 254 89.74s-145.58 65.18-145.58 145.58c.1 80.36 65.22 145.48 145.58 145.58zm0-250.99c58.19 0 105.35 47.17 105.35 105.35 0 58.19-47.17 105.35-105.35 105.35s-105.35-47.17-105.35-105.35c.1-58.14 47.21-105.25 105.35-105.35zM657.85 380.03c104.94 0 190.02-85.07 190.02-190.02C847.86 85.07 762.79 0 657.85 0 552.91 0 467.83 85.07 467.83 190.02c.11 104.89 85.12 189.91 190.02 190.01zM508.02 190.02c.09-82.71 67.12-149.74 149.83-149.83 82.75 0 149.83 67.08 149.83 149.83 0 82.75-67.08 149.83-149.83 149.83-82.75-.01-149.83-67.09-149.83-149.83zM1293.68 479.99l-2.2-2.2c-33.11-31.57-94.56-54.14-148.85-69.06-12-3.28-24.4-4.81-36.84-4.55-23.78.49-58.96.49-83.42 0-13.02-.26-26 1.44-38.51 5.04-25.4 7.39-59.69 17.91-79.96 26.34-1.32.56-2.58 1.25-3.76 2.07a381.168 381.168 0 0 1 45.53 25.44c17.36-5.81 36.67-11.46 49.35-15.22a94.081 94.081 0 0 1 26.49-3.46c25.04.53 60.84.53 85.13 0 8.56-.19 17.09.87 25.34 3.16 98.81 27.07 143.62 60 143.49 79.3v142.81c-1.94 12.13-3.78 12.72-13.51 13.68h-247.4v40.13h249.45l.96-.13c27.36-.1 49.71-21.9 50.48-49.25l.23-147.1.02-.06a66.023 66.023 0 0 0-22.02-46.94zM183.68 447.53a88.88 88.88 0 0 1 25.34-3.16c25 .53 61.44.53 86.71 0 8.4-.21 16.79.77 24.91 2.93 11.19 3.03 29.95 8.41 50.44 15.65a387.22 387.22 0 0 1 45.31-24.93c-1.18-.82-2.44-1.52-3.75-2.1a649.392 649.392 0 0 0-81.61-27.37 127.863 127.863 0 0 0-36.1-4.35c-24.8.53-60.54.53-85 0-12.43-.26-24.84 1.27-36.84 4.55C93.9 430.47-.39 468.49 0 526.81v144.3l.21 2.95a61.41 61.41 0 0 0 14.15 33.73l1.54 1.54a55.755 55.755 0 0 0 34.86 14.07h250.26v-40.17H53.68c-9.75-.96-11.63-1.52-13.51-13.68V526.68c-.13-19.15 44.68-52.04 143.51-79.15zM416.42 438.01c-.01 0-.02.01-.03.01 0 0 .01 0 .01.01l.02-.02z"/><path class="st0" d="M759.23 409l-.13-.02a129.19 129.19 0 0 0-36.35-4.29c-35.31.88-90.44.88-125.52 0-12.05-.32-24.08 1.07-35.75 4.12-89.95 23.42-240.98 74.73-240.45 154.89v195.36l.23 2.99c5.79 38.77 24.34 56.93 62.08 60.65H932.53c37.63-3.76 56.21-21.88 62.08-60.65v-38.64l.17-159.56c.52-80.08-147.37-131.39-235.55-154.85zm195.25 348.56c-3.2 20.26-8.2 23.29-25.04 25.04H386.28c-16.93-1.75-21.88-4.78-25.08-25.04V563.59c-.26-36.48 84.34-83.06 210.47-115.91a89.505 89.505 0 0 1 24.55-2.86c35.75.88 91.66.92 127.54 0 8.45-.22 16.88.78 25.04 2.97 123.28 32.81 205.95 79.34 205.69 115.91v193.86z"/></svg>
