<svg xmlns="http://www.w3.org/2000/svg" viewBox="0 0 693.29 872.06" overflow="visible"><path d="M203.77 0h380.89c59.93.16 108.47 48.7 108.63 108.63v654.8c-.15 59.93-48.7 108.48-108.63 108.63H108.43a108.314 108.314 0 0 1-76.46-31.89v-.28A107.193 107.193 0 0 1 0 763.69V178.21l12.92-12.1L175.73 11.55 187.84 0h15.93zm-40.96 643.79h102.82v-41.52H162.81v41.52zm157.03 60.23h216.44v-200.2H319.84v200.2zM162.81 543.68h102.82v-41.52H162.81v41.52zm0-114.95h375.12v-41.52H162.81v41.52zm0-109.17h375.12v-41.52H162.81v41.52zm168.24-108.43h206.87v-41.44H331.11l-.06 41.44zm-223.52-22.75l18.69 2.21 36.02 4.39h.54l1.65.28c4.59.84 9.31.55 13.76-.82a48.925 48.925 0 0 0 21.44-11.22 35.247 35.247 0 0 0 12.1-18.43c1.14-4.89 1.05-10-.28-14.84l-.21-1.72v-1.87l-2.75-36.3-1.38-16.23-99.58 94.55zm139.7-106.71l1.65 25.57 2.47 34.92a67.067 67.067 0 0 1-.28 32.17 75.844 75.844 0 0 1-24.47 39.87 94.087 94.087 0 0 1-38.77 20.36 68.53 68.53 0 0 1-30.81 1.1l-35.74-4.39-39.59-4.95v537.1a26.142 26.142 0 0 0 7.7 18.69 26.65 26.65 0 0 0 18.69 7.7H584.4c7.01.04 13.75-2.73 18.69-7.7a26.65 26.65 0 0 0 7.7-18.69v-654.8c.04-7.01-2.73-13.75-7.7-18.69-4.95-5-11.66-7.86-18.69-7.98l-337.17-.28z" fill-rule="evenodd" clip-rule="evenodd" fill="#617764"/></svg>
