<svg xmlns="http://www.w3.org/2000/svg" viewBox="0 0 717.53 780.61" overflow="visible"><style>.st0{fill:#617764}</style><path class="st0" d="M365.3 494.79c67.74 0 122.66-54.92 122.66-122.66S433.05 249.47 365.3 249.47s-122.66 54.92-122.66 122.66c.08 67.71 54.95 122.58 122.66 122.66zm0-219.4c53.42 0 96.73 43.31 96.73 96.73s-43.31 96.73-96.73 96.73-96.72-43.3-96.73-96.72c.06-53.4 43.33-96.68 96.73-96.74zM365.3 494.79zM430.64 513.48h.03a82.98 82.98 0 0 0-23.47-2.77c-22.79.57-58.38.57-81.03 0-7.76-.2-15.52.69-23.03 2.66-58.13 15.12-155.61 48.24-155.27 100v126.1l.15 1.93c3.74 25.03 15.7 36.75 40.04 39.16l353.87.05.65-.05c24.32-2.41 36.3-14.12 40.04-39.16v-24.95l.12-103c.31-51.7-95.16-84.8-152.1-99.97zm110.01 241.19H189.99c-10.9-1.13-14.12-3.09-16.2-16.16V613.28c-.17-23.56 54.44-53.62 135.87-74.84a58.015 58.015 0 0 1 15.85-1.84c23.03.57 59.17.6 82.33 0 5.45-.14 10.9.51 16.17 1.93 79.57 21.18 132.96 51.22 132.78 74.84l.01 125.14c-2.08 13.08-5.29 15.03-16.15 16.16zM136.95 163.6l-42.84-6.21-19.08-38.74c-.86-1.66-2.22-3.49-4.19-3.49-1.97 0-3.33 1.82-4.23 3.49l-19.09 38.76-42.68 6.17c-2.27.3-4.85 1.36-4.85 3.94.15 1.59.9 3.06 2.09 4.12l31.06 30.16-7.42 42.54c0 .61-.15 1.21-.15 1.82-.01.06-.01.12-.01.18a3.834 3.834 0 0 0 3.65 4.01c1.18-.05 2.33-.41 3.33-1.05l38.3-20.13 38.31 20.06c.99.66 2.14 1.02 3.33 1.05 2.44 0 3.49-2.09 3.49-4.19v-1.82l-7.42-42.54 30.88-30.13c1.28-.99 2.1-2.47 2.27-4.08l-.06.02c0-2.58-2.72-3.64-4.69-3.94zM327.61 86.64l-7.42 42.54c0 .61-.15 1.21-.15 1.82-.01.06-.01.12-.01.18a3.834 3.834 0 0 0 3.65 4.01c1.18-.05 2.33-.41 3.33-1.05L365.3 114l38.31 20.06c.99.66 2.14 1.02 3.33 1.05 2.44 0 3.49-2.09 3.49-4.19v-1.82L403 86.56l30.89-30.13c1.28-.99 2.1-2.47 2.27-4.08l-.06.02c0-2.58-2.72-3.63-4.69-3.94l-42.84-6.21-19.08-38.73C368.63 1.82 367.27 0 365.3 0s-3.33 1.82-4.23 3.49l-19.09 38.76-42.68 6.17c-2.27.3-4.85 1.36-4.85 3.94.15 1.59.9 3.06 2.09 4.12l31.07 30.16zM717.46 187.56c0-2.58-2.72-3.63-4.69-3.94l-42.84-6.21-19.08-38.74c-.86-1.66-2.22-3.49-4.19-3.49s-3.33 1.82-4.23 3.49l-19.09 38.76-42.68 6.17c-2.27.3-4.85 1.36-4.85 3.94.15 1.59.9 3.06 2.09 4.12l31.06 30.16-7.42 42.54c0 .61-.15 1.21-.15 1.82-.01.06-.01.12-.01.18a3.834 3.834 0 0 0 3.65 4.01c1.18-.05 2.33-.41 3.33-1.05l38.3-20.13 38.31 20.06c.99.66 2.14 1.02 3.33 1.05 2.44 0 3.49-2.09 3.49-4.19v-1.82l-7.42-42.54 30.88-30.13c1.28-.99 2.1-2.47 2.27-4.08l-.06.02z"/></svg>
