<svg xmlns="http://www.w3.org/2000/svg" viewBox="0 0 1025.22 1025.22" overflow="visible"><style>.st0{fill:#fff}</style><path class="st0" d="M647.21 743.24h-19.73v61.62h18.24c24.53 0 36.8-10.53 36.8-31.61.01-20-11.77-30.01-35.31-30.01z"/><path class="st0" d="M1025.22 0v1025.22H0V0v1025.22h1025.22V0z"/><path class="st0" d="M493.53 741.75c-15.98 0-28.74 5.87-38.29 17.61-9.54 11.74-14.32 26.73-14.32 44.97 0 18.1 4.63 33 13.89 44.7 9.26 11.7 21.78 17.55 37.54 17.55 16.54 0 29.41-5.57 38.6-16.7 9.19-11.14 13.79-26.18 13.79-45.13 0-19.37-4.44-34.72-13.31-46.03-8.86-11.31-21.5-16.97-37.9-16.97z"/><path class="st0" d="M1016.53 1016.53V8.69H8.69v1007.84h1007.84zM410.81 743.77h-47.2v142.44h-25.56V743.77h-47.09v-21.85h119.85v21.85zm139.25 121.22c-14.28 15.98-33.59 23.97-57.91 23.97-23.19 0-41.98-7.71-56.37-23.12s-21.58-35.32-21.58-59.71c0-25.95 7.26-46.93 21.79-62.95 14.53-16.01 34.13-24.02 58.81-24.02 23.12 0 41.68 7.78 55.68 23.33 14 15.56 21 35.5 21 59.82.01 25.81-7.14 46.71-21.42 62.68zm141.48-53.08c-11.81 10.01-26.41 14.73-43.8 14.16h-20.26v60.13h-25.45V721.92h49.64c18.59 0 32.84 4.3 42.74 12.89 9.9 8.59 14.85 21.05 14.85 37.39-.01 16.47-5.91 29.71-17.72 39.71zM506.3 121.64l237.04 237.02H624.82v236.96l-236.99-.01V358.66H269.34L506.3 121.64z"/></svg>
