<svg xmlns="http://www.w3.org/2000/svg" viewBox="0 0 943.83 943.83" overflow="visible"><style>.st0{fill:#fff}</style><path class="st0" d="M752.99 608.32L583.06 456.83l161.8-93.71c8.8-5.86 12.06-17.23 7.69-26.85a17.233 17.233 0 0 0-15.58-10.9c-2.78.04-5.5.81-7.89 2.25L477.8 473.21l-251.21-145.6a15.96 15.96 0 0 0-7.93-2.25c-6.9.19-13 4.49-15.5 10.92-4.39 9.6-1.15 20.97 7.64 26.81l161.69 93.66L202.54 608.3c-7.03 6.45-7.65 17.32-1.39 24.52 6.38 7.33 17.49 8.11 24.83 1.73l178.56-159.17 57.93 33.57a16.66 16.66 0 0 0 13.94 7.24l3.22.22c5.44-.15 10.47-2.93 13.49-7.46l57.91-33.57 178.54 159.17c.01 0 .01.01.01.01 7.25 6.47 18.37 5.83 24.84-1.42l-.01-.07c6.39-7.25 5.76-18.29-1.42-24.75z"/><path class="st0" d="M471.91 0C211.28 0 0 211.28 0 471.91s211.28 471.91 471.91 471.91 471.91-211.28 471.91-471.91S732.54 0 471.91 0zm309.47 624.07c-.12 22.29-18.16 40.33-40.45 40.45H214.41c-22.33-.05-40.45-18.11-40.56-40.45V326.09c.11-22.34 18.23-40.4 40.56-40.45h526.52c22.37.12 40.44 18.28 40.45 40.65v297.78z"/></svg>
