<svg xmlns="http://www.w3.org/2000/svg" viewBox="0 0 1067.86 1089.41" overflow="visible"><style>.st0{fill:none}.st1{fill:#0a86ac}</style><path class="st0" d="M734.41 944.13H131.59c-15.04 0-27.24 12.19-27.24 27.24 0 15.04 12.19 27.24 27.24 27.24h602.82c15.04 0 27.24-12.19 27.24-27.24 0-15.05-12.19-27.24-27.24-27.24zM936.23 944.13h-68.08c-15.04 0-27.24 12.19-27.24 27.24 0 15.04 12.19 27.24 27.24 27.24h68.08c15.04 0 27.24-12.19 27.24-27.24 0-15.05-12.2-27.24-27.24-27.24z"/><path class="st1" d="M241.05 265.53c19.72 1.51 37.01-13.09 38.83-32.78-1.81-19.7-19.1-34.31-38.83-32.81-19.7-1.45-36.93 13.14-38.74 32.81 1.83 19.65 19.06 34.23 38.74 32.78z"/><path class="st1" d="M958.37 166.63c.02-5.5-.59-10.98-1.81-16.35-8.47-35.75-44.65-54.34-87.71-54.34h-93.39c.64 4.41 1.06 8.84 1.25 13.29v51.51h113.07l72.99 671.11H105.12l73.02-671.11h113v-51.58c.16-4.45.58-8.89 1.25-13.29H198.9c-32.8-2.99-64.54 12.48-82.41 40.14a65.832 65.832 0 0 0-7.06 30.61L0 956.49a147.993 147.993 0 0 0 34.32 95.52 74.29 74.29 0 0 0 55.13 37.4h888.93a74.273 74.273 0 0 0 55.08-37.4 148.205 148.205 0 0 0 34.39-95.52L958.37 166.63zM734.41 998.6H131.59c-15.04 0-27.24-12.19-27.24-27.24 0-15.04 12.19-27.24 27.24-27.24h602.82c15.04 0 27.24 12.19 27.24 27.24 0 15.05-12.19 27.24-27.24 27.24zm201.82 0h-68.08c-15.04 0-27.24-12.19-27.24-27.24 0-15.04 12.19-27.24 27.24-27.24h68.08c15.04 0 27.24 12.19 27.24 27.24 0 15.05-12.2 27.24-27.24 27.24z"/><path class="st1" d="M495.47 731.76c16.86 21.26 47.77 24.82 69.02 7.95 2.95-2.34 5.62-5.01 7.95-7.95l255.02-298.4c19.36-22.64 13.13-41.55-13.11-44.51v.57H722V258.87h1.31V151.94h-378.8V389.41h-90.56l-.11-.63c-26.42 2.9-32.87 21.8-13.4 44.58l255.03 298.4zM723.32 59.18C723.17 26.54 696.73.12 664.09 0H403.73c-32.68.06-59.17 26.5-59.3 59.18v26.1h378.89v-26.1z"/></svg>
