<svg xmlns="http://www.w3.org/2000/svg" viewBox="0 0 1041.53 997.21" overflow="visible"><style>.st0{fill:#fff}</style><path class="st0" d="M626.96 700.35h-16.1v50.29h14.89c20.02 0 30.04-8.6 30.04-25.8 0-16.32-9.61-24.49-28.83-24.49zM501.53 699.14c-13.04 0-23.46 4.79-31.25 14.37-7.79 9.58-11.69 21.81-11.69 36.7 0 14.77 3.78 26.94 11.34 36.49 7.56 9.55 17.77 14.33 30.64 14.33 13.5 0 24.01-4.54 31.51-13.63s11.25-21.37 11.25-36.83c0-15.81-3.62-28.33-10.86-37.57-7.23-9.24-17.55-13.86-30.94-13.86z"/><path class="st0" d="M520.77 0C233.15 0 0 223.23 0 498.6s233.15 498.6 520.77 498.6 520.77-223.23 520.77-498.6S808.38 0 520.77 0zm-86.76 700.78h-38.52v116.25h-20.86V700.78H336.2v-17.83h97.82v17.83zm113.66 98.95c-11.66 13.04-27.41 19.56-47.26 19.56-18.93 0-34.27-6.29-46.01-18.87-11.74-12.58-17.62-28.83-17.62-48.74 0-21.18 5.93-38.3 17.79-51.38s27.86-19.61 48-19.61c18.87 0 34.02 6.35 45.45 19.04 11.43 12.7 17.14 28.97 17.14 48.82 0 21.08-5.83 38.14-17.49 51.18zm115.48-43.33c-9.64 8.17-21.55 12.02-35.75 11.56h-16.53v49.08h-20.78V682.95h40.51c15.18 0 26.8 3.51 34.89 10.52 8.08 7.01 12.12 17.18 12.12 30.51-.01 13.45-4.83 24.26-14.46 32.42zm-12.44-427.96v241.55H409.16V328.44H288.35l241.54-241.7 241.68 241.7H650.71z"/></svg>
