<svg xmlns="http://www.w3.org/2000/svg" viewBox="0 0 824.54 824.54" overflow="visible"><path d="M412.27 0C184.58 0 0 184.58 0 412.27s184.58 412.27 412.27 412.27 412.27-184.58 412.27-412.27S639.96 0 412.27 0zM262.76 172.52c7.79-6.52 19.39-5.51 25.93 2.26l70.92 84.51c.01.01.02.02.02.03 6.52 7.78 5.49 19.37-2.29 25.88l-23.03 19.33-94.58-112.69 23.03-19.32zm317.65 465.46c-50.67 42.53-154.18 2.55-231.24-89.24l-81.48-97.06c-77.02-91.8-98.42-200.68-47.72-243.16.58-.52 1.19-.96 1.78-1.42l94.2 112.3-2.4 1.96c-22.02 21.29-22.77 56.35-1.66 78.55l95.98 114.29c18.19 24.63 52.84 29.98 77.61 11.98l2.36-1.98 94.26 112.32-1.69 1.46zm43.27-35.45l-23.03 19.33-94.58-112.69 23.03-19.35c7.79-6.53 19.39-5.52 25.93 2.26l70.92 84.51c6.52 7.8 5.5 19.4-2.27 25.94z" fill="#fff"/></svg>
