<svg xmlns="http://www.w3.org/2000/svg" viewBox="0 0 50 50" overflow="visible"><style>.st0{fill:#57622c}</style><path class="st0" d="M25 42c-.55 0-1 .45-1 1v6c0 .55.45 1 1 1s1-.45 1-1v-6c0-.55-.45-1-1-1zM25 8c.55 0 1-.45 1-1V1c0-.55-.45-1-1-1s-1 .45-1 1v6c0 .55.45 1 1 1zM11.62 36.96l-4.35 4.35a.996.996 0 0 0 .71 1.7c.26 0 .51-.1.71-.29l4.35-4.35c.39-.39.39-1.02 0-1.41s-1.03-.39-1.42 0zM37.34 13.66c.26 0 .51-.1.71-.29l4.35-4.35a.996.996 0 1 0-1.41-1.41l-4.35 4.35a.996.996 0 0 0 0 1.41c.19.2.44.29.7.29zM38.04 36.96a.996.996 0 1 0-1.41 1.41l4.35 4.35c.2.2.45.29.71.29s.51-.1.71-.29a.996.996 0 0 0 0-1.41l-4.36-4.35zM11.62 13.37c.2.2.45.29.71.29s.51-.1.71-.29a.996.996 0 0 0 0-1.41L8.69 7.61a.996.996 0 1 0-1.41 1.41l4.34 4.35zM49 24h-6c-.55 0-1 .45-1 1s.45 1 1 1h6c.55 0 1-.45 1-1s-.45-1-1-1zM8 25c0-.55-.45-1-1-1H1c-.55 0-1 .45-1 1s.45 1 1 1h6c.55 0 1-.45 1-1zM25 12c-7.17 0-13 5.83-13 13s5.83 13 13 13 13-5.83 13-13-5.83-13-13-13zm0 24.02c-6.11 0-11.05-4.95-11.05-11.05 0-6.11 4.95-11.05 11.05-11.05 6.11 0 11.05 4.95 11.05 11.05 0 6.1-4.94 11.05-11.05 11.05z"/></svg>
