<svg xmlns="http://www.w3.org/2000/svg" viewBox="0 0 615.84 615.84" overflow="visible"><style>.st0{fill:#040000}</style><path class="st0" d="M307.92 610.84c-80.91 0-156.98-31.51-214.2-88.72C36.5 464.91 5 388.83 5 307.92s31.51-156.98 88.72-214.2S227.01 5 307.92 5s156.98 31.51 214.2 88.72 88.72 133.28 88.72 214.2c0 80.91-31.51 156.98-88.72 214.2-57.21 57.22-133.29 88.72-214.2 88.72zm0-586.84C151.37 24 24 151.37 24 307.92s127.37 283.92 283.92 283.92 283.92-127.37 283.92-283.92S464.47 24 307.92 24z"/><path class="st0" d="M307.92 615.84c-82.24 0-159.57-32.03-217.74-90.18C32.03 467.51 0 390.18 0 307.92c0-82.24 32.03-159.57 90.18-217.74C148.33 32.03 225.66 0 307.92 0c82.24 0 159.57 32.03 217.74 90.18 58.16 58.15 90.18 135.47 90.18 217.74 0 82.24-32.03 159.57-90.18 217.74-58.15 58.15-135.48 90.18-217.74 90.18zm0-605.84c-79.59 0-154.41 30.99-210.66 87.25C40.99 153.53 10 228.35 10 307.92c0 79.59 30.99 154.41 87.25 210.66 56.28 56.27 131.09 87.26 210.67 87.26 79.59 0 154.41-30.99 210.66-87.25 56.27-56.28 87.26-131.09 87.26-210.67 0-79.59-30.99-154.41-87.25-210.66C462.31 40.99 387.49 10 307.92 10zm0 586.84C148.61 596.84 19 467.23 19 307.92S148.61 19 307.92 19s288.92 129.61 288.92 288.92-129.61 288.92-288.92 288.92zm0-567.84C154.12 29 29 154.12 29 307.92s125.12 278.92 278.92 278.92 278.92-125.12 278.92-278.92S461.72 29 307.92 29z"/><path d="M486.33 285.37L322.04 152.94a22.403 22.403 0 0 0-28.24 0L129.51 285.37a4.185 4.185 0 0 0-.66 5.89c.01.01.02.03.04.04l8.87 10.94a4.258 4.258 0 0 0 5.99.63l24.17-19.49v174.54c0 5.52 4.48 10 10 10H437.9c5.52 0 10-4.48 10-10V283.44l24.25 19.55a4.278 4.278 0 0 0 6-.62l8.87-10.94c1.4-1.89 1.1-4.54-.69-6.06zM277.92 447.91v-99.99h60v99.99h-60zm149.99 0h-69.99V337.92c0-5.52-4.48-10-10-10h-79.99c-5.52 0-10 4.48-10 10v109.99h-69.99V267.25l117.31-94.62a4.144 4.144 0 0 1 5.25 0l117.42 94.67v180.61h-.01z" fill="#060001"/></svg>
