<svg xmlns="http://www.w3.org/2000/svg" viewBox="0 0 614.51 614.51" overflow="visible"><style>.st0{fill:#040000}</style><path class="st0" d="M307.26 609.51C140.6 609.51 5 473.91 5 307.26S140.6 5 307.26 5s302.26 135.6 302.26 302.26-135.61 302.25-302.26 302.25zm0-596.86c-162.45 0-294.61 132.16-294.61 294.61s132.16 294.61 294.61 294.61S601.87 469.7 601.87 307.26 469.7 12.65 307.26 12.65z"/><path class="st0" d="M307.26 614.51C137.83 614.51 0 476.68 0 307.26S137.83 0 307.26 0s307.26 137.83 307.26 307.26-137.84 307.25-307.26 307.25zm0-596.86c-159.69 0-289.61 129.92-289.61 289.61s129.92 289.61 289.61 289.61c159.69 0 289.61-129.92 289.61-289.61S466.95 17.65 307.26 17.65z"/><g><path class="st0" d="M106.64 238.12H99c-2.14 0-3.82 1.68-3.82 3.82 0 2.14 1.68 3.82 3.82 3.82h7.65c2.14 0 3.82-1.68 3.82-3.82 0-2.14-1.68-3.82-3.83-3.82zM138.16 241.94c0-2.14-1.68-3.82-3.82-3.82H120.5c-2.14 0-3.82 1.68-3.82 3.82 0 2.14 1.68 3.82 3.82 3.82h13.84c2.13 0 3.82-1.68 3.82-3.82zM221.14 241.94c0-2.14-1.68-3.82-3.82-3.82h-13.84c-2.14 0-3.82 1.68-3.82 3.82 0 2.14 1.68 3.82 3.82 3.82h13.84c2.14 0 3.82-1.68 3.82-3.82zM276.51 241.94c0-2.14-1.68-3.82-3.82-3.82h-13.84c-2.14 0-3.82 1.68-3.82 3.82 0 2.14 1.68 3.82 3.82 3.82h13.84c2.14 0 3.82-1.68 3.82-3.82zM189.7 238.12h-13.84c-2.14 0-3.82 1.68-3.82 3.82 0 2.14 1.68 3.82 3.82 3.82h13.84c2.14 0 3.82-1.68 3.82-3.82.01-2.14-1.75-3.82-3.82-3.82zM494.03 238.12h-12.16V130.97c0-16.21-13.23-29.45-29.45-29.45h-5.74V90.35c0-2.14-1.68-3.82-3.82-3.82s-3.82 1.68-3.82 3.82v11.17h-5.66c-16.21 0-29.45 13.23-29.45 29.45v107.15h-.61c-2.6-12.47-13.69-21.87-26.92-21.87h-7.11V203.4c0-2.14-1.68-3.82-3.82-3.82-2.14 0-3.82 1.68-3.82 3.82v12.85h-7.11c-13.23 0-24.32 9.41-26.92 21.87h-13.61c-2.14 0-3.82 1.68-3.82 3.82 0 2.14 1.68 3.82 3.82 3.82h13v140.19c0 15.14 12.31 27.46 27.46 27.46h7.11v8.64c0 2.14 1.68 3.82 3.82 3.82s3.82-1.68 3.82-3.82v-8.64h7.11c15.14 0 27.46-12.31 27.46-27.46v-88.72c0 16.21 13.23 29.45 29.45 29.45h5.66v6.04c0 2.14 1.68 3.82 3.82 3.82 2.14 0 3.82-1.68 3.82-3.82v-6.04h5.74c16.21 0 29.45-13.23 29.45-29.45v-51.47h12.16c2.14 0 3.82-1.68 3.82-3.82-.01-2.14-1.54-3.82-3.68-3.82zM388.71 385.96c0 6.73-5.43 12.16-12.16 12.16h-21.86c-6.73 0-12.16-5.43-12.16-12.16V243.7c0-6.73 5.51-12.16 12.16-12.16h21.86c6.73 0 12.16 5.43 12.16 12.16v142.26zm76.79-88.72c0 7.19-5.89 13.08-13.08 13.08h-19.04c-7.19 0-13.08-5.89-13.08-13.08V130.97c0-7.19 5.89-13.08 13.08-13.08h19.04c7.19 0 13.08 5.89 13.08 13.08v166.27zM286.53 245.76h13.84c2.14 0 3.82-1.68 3.82-3.82 0-2.14-1.68-3.82-3.82-3.82h-13.84c-2.14 0-3.82 1.68-3.82 3.82 0 2.14 1.68 3.82 3.82 3.82zM231.16 245.76H245c2.14 0 3.82-1.68 3.82-3.82 0-2.14-1.68-3.82-3.82-3.82h-13.84c-2.14 0-3.82 1.68-3.82 3.82-.01 2.14 1.75 3.82 3.82 3.82zM515.52 238.12h-7.65c-2.14 0-3.82 1.68-3.82 3.82 0 2.14 1.68 3.82 3.82 3.82h7.65c2.14 0 3.82-1.68 3.82-3.82 0-2.14-1.68-3.82-3.82-3.82zM177.08 283.47h-13.54v-38.01c1.38-.61 2.29-1.91 2.29-3.52 0-2.14-1.68-3.82-3.82-3.82h-13.84c-2.14 0-3.82 1.68-3.82 3.82 0 2.14 1.68 3.82 3.82 3.82h7.72v37.71h-13.61c-3.44 0-6.27 2.83-6.27 6.27v126.04c0 3.44 2.83 6.27 6.27 6.27h13.61v34.88c0 2.14 1.68 3.82 3.82 3.82 2.14 0 3.82-1.68 3.82-3.82v-34.88h13.54c3.44 0 6.27-2.83 6.27-6.27V289.74c.02-3.44-2.81-6.27-6.26-6.27zM252.19 349.78h-13.84v-64.24c0-2.14-1.68-3.82-3.82-3.82-2.14 0-3.82 1.68-3.82 3.82v64.24h-13.84c-3.29 0-6.04 2.68-6.04 6.04v115.87c0 3.29 2.68 6.04 6.04 6.04h13.84v1.68c0 2.14 1.68 3.82 3.82 3.82 2.14 0 3.82-1.68 3.82-3.82v-1.76h13.84c3.29 0 6.04-2.68 6.04-6.04V355.82a6.01 6.01 0 0 0-6.04-6.04zM277.89 520.26h-7.65c-2.14 0-3.82 1.68-3.82 3.82 0 2.14 1.68 3.82 3.82 3.82h7.65c2.14 0 3.82-1.68 3.82-3.82 0-2.14-1.76-3.82-3.82-3.82zM328.37 520.26h-12.62c-2.14 0-3.82 1.68-3.82 3.82 0 2.14 1.68 3.82 3.82 3.82h12.62c2.14 0 3.82-1.68 3.82-3.82 0-2.14-1.76-3.82-3.82-3.82zM348.63 520.26h-7.65c-2.14 0-3.82 1.68-3.82 3.82 0 2.14 1.68 3.82 3.82 3.82h7.65c2.14 0 3.82-1.68 3.82-3.82.01-2.14-1.75-3.82-3.82-3.82zM329.44 463.05v-38.62c0-5.89-4.82-10.71-10.71-10.71h-9.18V397.2c0-2.14-1.68-3.82-3.82-3.82s-3.82 1.68-3.82 3.82v16.52h-9.18c-5.89 0-10.71 4.82-10.71 10.71v38.62c0 5.89 4.82 10.71 10.71 10.71h9.18v46.5h-11.47c-2.14 0-3.82 1.68-3.82 3.82 0 2.14 1.68 3.82 3.82 3.82h12.62c.46 0 .84-.08 1.22-.23.46.15.92.31 1.45.31 2.14 0 3.82-1.68 3.82-3.82v-50.4h9.18c5.96 0 10.71-4.82 10.71-10.71z"/></g></svg>
