<svg xmlns="http://www.w3.org/2000/svg" viewBox="0 0 375.09 375.08" overflow="visible"><style>.st0{fill:#040000}</style><path class="st0" d="M187.54 370.08C86.89 370.08 5 288.19 5 187.54S86.89 5 187.54 5s182.54 81.89 182.54 182.54-81.89 182.54-182.54 182.54zm0-360.46C89.44 9.62 9.62 89.43 9.62 187.54s79.82 177.92 177.92 177.92 177.92-79.82 177.92-177.92S285.65 9.62 187.54 9.62z"/><path class="st0" d="M187.54 375.08C84.13 375.08 0 290.95 0 187.54S84.13 0 187.54 0s187.54 84.13 187.54 187.54-84.13 187.54-187.54 187.54zm0-360.46c-95.35 0-172.92 77.57-172.92 172.92s77.57 172.92 172.92 172.92 172.92-77.57 172.92-172.92c.01-95.35-77.57-172.92-172.92-172.92z"/><g><path class="st0" d="M276.78 126.29a7.48 7.48 0 0 0-4.34-1.39H102.65c-1.8 0-3.42.65-4.76 1.66l90.35 67.71 88.54-67.98zM212.95 189.76l66.33 48.64.83.64V137.93l-.42.42zM162 189.76l-66.74-51.41-.24-.14v100.33l.65-.14zM206.99 199.69l-18.61 14.27-18.11-13.58-67.34 49.42-.42.32H272.44c.97 0 1.85-.18 2.68-.51l-.23-.14-67.9-49.78z"/></g></svg>
