<svg xmlns="http://www.w3.org/2000/svg" viewBox="0 0 615.84 615.84" overflow="visible"><style>.st0{fill:#040000}</style><path class="st0" d="M307.92 610.84c-80.91 0-156.98-31.51-214.2-88.72S5 388.83 5 307.92s31.51-156.98 88.72-214.2C150.94 36.51 227.01 5 307.92 5s156.98 31.51 214.2 88.72c57.21 57.21 88.72 133.28 88.72 214.2s-31.51 156.98-88.72 214.2-133.29 88.72-214.2 88.72zm0-586.84C151.37 24 24 151.37 24 307.92s127.37 283.92 283.92 283.92 283.92-127.37 283.92-283.92S464.47 24 307.92 24z"/><path class="st0" d="M307.92 615.84c-82.24 0-159.57-32.03-217.74-90.18C32.03 467.51 0 390.18 0 307.92c0-82.24 32.03-159.57 90.18-217.73C148.35 32.03 225.68 0 307.92 0s159.57 32.03 217.73 90.18c58.16 58.16 90.19 135.48 90.19 217.74 0 82.24-32.03 159.57-90.18 217.74-58.15 58.15-135.48 90.18-217.74 90.18zm0-605.84c-79.57 0-154.39 30.99-210.67 87.26C40.99 153.53 10 228.35 10 307.92c0 79.59 30.99 154.41 87.26 210.66 56.28 56.27 131.09 87.26 210.67 87.26 79.59 0 154.41-30.99 210.66-87.25 56.27-56.28 87.26-131.09 87.26-210.67 0-79.58-30.99-154.4-87.26-210.66C462.31 40.99 387.49 10 307.92 10zm0 586.84C148.61 596.84 19 467.23 19 307.92S148.61 19 307.92 19s288.92 129.61 288.92 288.92-129.61 288.92-288.92 288.92zm0-567.84C154.12 29 29 154.12 29 307.92s125.12 278.92 278.92 278.92 278.92-125.12 278.92-278.92S461.72 29 307.92 29z"/><path d="M392.91 337.92h10c2.76 0 5-2.24 5-5v-10c0-2.76-2.24-5-5-5h-10c-2.76 0-5 2.24-5 5v10c0 2.76 2.24 5 5 5zm0 79.99h10c2.76 0 5-2.24 5-5v-10c0-2.76-2.24-5-5-5h-10c-2.76 0-5 2.24-5 5v10c0 2.76 2.24 5 5 5zM197.93 227.92h-20c-16.57 0-30 13.43-30 30v179.99c0 16.57 13.43 30 30 30h20c16.57 0 30-13.43 30-30V257.92c-.01-16.56-13.44-30-30-30zm10 209.99c0 5.52-4.48 10-10 10h-20c-5.52 0-10-4.48-10-10V257.92c0-5.52 4.48-10 10-10h20c5.52 0 10 4.48 10 10v179.99zm184.98-60h10c2.76 0 5-2.24 5-5v-10c0-2.76-2.24-5-5-5h-10c-2.76 0-5 2.24-5 5v10c0 2.77 2.24 5 5 5zm-79.99 40h10c2.76 0 5-2.24 5-5v-10c0-2.76-2.24-5-5-5h-10c-2.76 0-5 2.24-5 5v10c0 2.76 2.24 5 5 5zm0-40h10c2.76 0 5-2.24 5-5v-10c0-2.76-2.24-5-5-5h-10c-2.76 0-5 2.24-5 5v10c0 2.77 2.24 5 5 5zm134.99-128.15v-33.55c0-5.31-2.11-10.39-5.86-14.14l-48.27-48.27a20.006 20.006 0 0 0-14.14-5.86H277.92c-16.57 0-30 13.43-30 30v259.98c0 16.57 13.43 30 30 30h159.99c16.57 0 30-13.43 30-30v-160c-.03-12.67-8.04-23.96-20-28.16zm-60-73.55l31.72 31.72h-31.72v-31.72zm-119.99 1.72c0-5.52 4.48-10 10-10h89.99v40c0 11.04 8.95 20 20 20h40v40H267.92v-90zm179.99 259.98c0 5.52-4.48 10-10 10H277.92c-5.52 0-10-4.48-10-10V287.92h179.99v149.99zm-94.99-20h10c2.76 0 5-2.24 5-5v-10c0-2.76-2.24-5-5-5h-10c-2.76 0-5 2.24-5 5v10c0 2.76 2.23 5 5 5zm0-40h10c2.76 0 5-2.24 5-5v-10c0-2.76-2.24-5-5-5h-10c-2.76 0-5 2.24-5 5v10c0 2.77 2.23 5 5 5zm0-39.99h10c2.76 0 5-2.24 5-5v-10c0-2.76-2.24-5-5-5h-10c-2.76 0-5 2.24-5 5v10c0 2.76 2.23 5 5 5zm-40 0h10c2.76 0 5-2.24 5-5v-10c0-2.76-2.24-5-5-5h-10c-2.76 0-5 2.24-5 5v10c0 2.76 2.24 5 5 5z" fill="#060001"/></svg>
