<svg xmlns="http://www.w3.org/2000/svg" viewBox="0 0 434.56 434.56" overflow="visible"><style>.st0{fill:#040000}</style><path class="st0" d="M217.28 429.56C100.24 429.56 5 334.33 5 217.28S100.24 5 217.28 5s212.28 95.24 212.28 212.28-95.23 212.28-212.28 212.28zm0-419.19c-114.09 0-206.91 92.82-206.91 206.91s92.82 206.91 206.91 206.91 206.91-92.82 206.91-206.91S331.37 10.37 217.28 10.37z"/><path class="st0" d="M217.28 434.56C97.47 434.56 0 337.09 0 217.28S97.47 0 217.28 0s217.28 97.47 217.28 217.28-97.47 217.28-217.28 217.28zm0-419.19c-111.33 0-201.91 90.58-201.91 201.91s90.58 201.91 201.91 201.91 201.91-90.58 201.91-201.91S328.62 15.37 217.28 15.37z"/><path class="st0" d="M355.11 209.44L224.64 78.97c-1.34-1.34-3.06-2.2-4.94-2.58-3.33-.91-7.09-.05-9.78 2.58L79.45 209.44a9.987 9.987 0 0 0-2.95 7.09c0 2.63 1.07 5.21 2.95 7.09l21.06 21.06a10.019 10.019 0 0 0 14.18 0l1.56-1.56v105.66c0 5.37 4.51 9.78 10.04 9.78h61.77c5.53 0 10.04-4.35 10.04-9.78v-70.15h38.46v70.15c0 5.37 4.51 9.78 10.04 9.78h61.77c5.53 0 10.04-4.35 10.04-9.78V243.12l1.56 1.56c1.93 1.93 4.51 2.95 7.09 2.95s5.1-.97 7.09-2.95l21.06-21.06a9.987 9.987 0 0 0 2.95-7.09c-.09-2.63-1.17-5.21-3.05-7.09zM298.28 339h-41.74v-70.15c0-5.37-4.51-9.78-10.04-9.78h-58.44c-5.53 0-10.04 4.35-10.04 9.78V339h-41.74V223.08l81-80.95 81 80.95V339zm28.69-115.54l-102.6-102.6a10.019 10.019 0 0 0-14.18 0l-102.6 102.6-6.93-6.93L217.23 99.97l116.56 116.56-6.82 6.93z"/></svg>
