<svg xmlns="http://www.w3.org/2000/svg" viewBox="0 0 615.84 615.84" overflow="visible"><style>.st0{fill:#040000}</style><path class="st0" d="M307.92 610.84c-80.91 0-156.98-31.51-214.2-88.72C36.5 464.91 5 388.83 5 307.92s31.51-156.98 88.72-214.2C150.94 36.51 227.01 5 307.92 5s156.98 31.51 214.2 88.72c57.21 57.21 88.72 133.28 88.72 214.2s-31.51 156.98-88.72 214.2c-57.21 57.22-133.29 88.72-214.2 88.72zm0-586.84C151.37 24 24 151.37 24 307.92s127.37 283.92 283.92 283.92 283.92-127.37 283.92-283.92S464.47 24 307.92 24z"/><path class="st0" d="M307.92 615.84c-82.24 0-159.57-32.03-217.73-90.18C32.03 467.51 0 390.18 0 307.92c0-82.24 32.03-159.57 90.18-217.74C148.35 32.03 225.68 0 307.92 0s159.57 32.03 217.74 90.18c58.16 58.16 90.18 135.48 90.18 217.74 0 82.24-32.03 159.57-90.18 217.74-58.15 58.15-135.48 90.18-217.74 90.18zm0-605.84c-79.57 0-154.39 30.99-210.66 87.26C40.99 153.53 10 228.35 10 307.92c0 79.59 30.99 154.41 87.26 210.66 56.28 56.27 131.09 87.26 210.66 87.26 79.59 0 154.41-30.99 210.66-87.25 56.27-56.28 87.26-131.09 87.26-210.67 0-79.58-30.99-154.4-87.26-210.67C462.31 40.99 387.49 10 307.92 10zm0 586.84C148.61 596.84 19 467.23 19 307.92S148.61 19 307.92 19s288.92 129.61 288.92 288.92-129.61 288.92-288.92 288.92zm0-567.84C154.12 29 29 154.12 29 307.92s125.12 278.92 278.92 278.92 278.92-125.12 278.92-278.92S461.72 29 307.92 29z"/><path d="M452.79 162.99l-63-14.56c-9.19-2.12-18.62 2.62-22.37 11.31l-29.06 67.81c-3.44 7.94-1.12 17.31 5.56 22.81l33.68 27.56c-21.25 43.25-56.43 78.49-99.74 99.74l-27.56-33.68c-5.5-6.69-14.87-9-22.81-5.56l-67.74 29.06c-8.69 3.75-13.44 13.12-11.31 22.31l14.5 62.93A19.518 19.518 0 0 0 182 467.91c157.61 0 285.92-127.62 285.92-285.92-.01-9.12-6.26-17-15.13-19zM182.37 447.91L168 385.66l67.12-28.75 37.18 45.5c64.75-30.37 99.8-65.56 130.05-130.05l-45.5-37.18 28.75-67.12 62.25 14.37c-.13 146.55-118.93 265.29-265.48 265.48z" fill="#060001"/></svg>
