<svg xmlns="http://www.w3.org/2000/svg" viewBox="0 0 282.19 282.19" overflow="visible"><style>.st0{fill:#040000}</style><path class="st0" d="M141.1 277.19C66.06 277.19 5 216.14 5 141.1S66.06 5 141.1 5s136.1 61.06 136.1 136.1-61.06 136.09-136.1 136.09zm0-268.75C67.95 8.44 8.44 67.95 8.44 141.1S67.95 273.75 141.1 273.75s132.65-59.51 132.65-132.65S214.24 8.44 141.1 8.44z"/><path class="st0" d="M141.1 282.19C63.3 282.19 0 218.9 0 141.1 0 63.3 63.3 0 141.1 0s141.1 63.3 141.1 141.1c-.01 77.8-63.3 141.09-141.1 141.09zm0-268.75c-70.39 0-127.65 57.26-127.65 127.65 0 70.39 57.26 127.65 127.65 127.65s127.65-57.26 127.65-127.65c0-70.38-57.27-127.65-127.65-127.65z"/><g><path class="st0" d="M74.77 102.77H90.4v48.32s1.62 18.98-9.95 25.28-19.15 4.1-19.15 4.1-10.57-.72-14.29-6.37c-3.72-5.65-6.3-8.71-6.23-18.56l14.77-1.65s-.1 10.16 5.51 12.54c5.61 2.34 10.23.1 11.61-2.07 1.38-2.17 2.75-8.51 2.17-12.19l-.07-49.4M171.71 123.81s-1.93-8.02-7.92-14.05c-6.03-6.03-14.84-7.58-19.08-8.2-4.2-.62-14.77-.1-23.25 4.82-8.51 4.92-12.64 12.6-14.84 19.08-2.24 6.47-3.24 20.42-.38 30.34 2.86 9.92 10.71 18.6 19.04 21.76s14.29 3.75 23.11 1.52c8.82-2.24 20.39-10.71 23.56-23.31l-15.19-4.75s-1.96 9.64-7.51 13.16c-5.54 3.48-9.44 3.06-10.26 3.06s-4.51-.24-6.72-1.38-6.06-3.34-8.3-7.54c-2.24-4.2-3.48-11.09-3.48-18.73s1.83-16.36 8.44-21.59c6.61-5.23 19.84-4.44 24.59 3.24 0 0 2.51 3.44 2.76 6.2l15.43-3.63M179.77 102.77h61.64v12.91h-22.93v63.4h-15.67v-63.4h-23.04v-12.91"/></g></svg>
