<svg xmlns="http://www.w3.org/2000/svg" viewBox="0 0 361.91 361.91" overflow="visible"><path d="M180.98 356.91C83.79 356.91 5 278.12 5 180.98 5 83.79 83.74 5 180.93 5s175.93 78.74 175.98 175.93c-.14 97.14-78.84 175.84-175.93 175.98zm0-345.13c-93.42 0-169.19 75.72-169.19 169.19 0 93.42 75.72 169.19 169.19 169.19 93.42 0 169.19-75.72 169.19-169.19-.14-93.42-75.82-169.09-169.19-169.19z" fill="#2f2d2c"/><path d="M180.98 361.91C81.19 361.91 0 280.74 0 180.98 0 81.19 81.17 0 180.93 0c48.34 0 93.78 18.82 127.95 52.98 34.17 34.17 53 79.6 53.03 127.94-.07 48.32-18.92 93.74-53.07 127.9-34.16 34.17-79.56 53.02-127.86 53.09zm0-345.13c-90.54 0-164.19 73.66-164.19 164.19 0 90.54 73.66 164.19 164.19 164.19s164.19-73.66 164.19-164.19c-.13-90.44-73.79-164.1-164.19-164.19z" fill="#040000"/><path d="M111.48 152.5l23.55-9.43 94.54-37.95v151.82l-94.54-37.95-22.53-9.06 14.63 57.79H82.35L67.62 209.6h-19.7v-57.1h63.56zm140.85 57.7l35.35 12.13-5.11 14.91-35.31-12.13 5.07-14.91zm-3.9-72.61l35.26-12.36 5.2 14.87-35.26 12.36-5.2-14.87zm8.08 36.28h37.35v15.75h-37.35v-15.75z" fill-rule="evenodd" clip-rule="evenodd" fill="#172244"/></svg>
