<svg xmlns="http://www.w3.org/2000/svg" viewBox="0 0 359.74 359.74" overflow="visible"><path d="M179.87 0C80.53 0 0 80.53 0 179.87s80.53 179.87 179.87 179.87 179.87-80.53 179.87-179.87S279.21 0 179.87 0zm99.35 229.73v38.76c.07 5.86-4.63 10.67-10.5 10.74h-.24c-49.84.88-97.82-18.94-132.51-54.73A180.083 180.083 0 0 1 81.23 91.97c-.06-5.87 4.64-10.67 10.5-10.74h39c5.77-.16 10.57 4.38 10.74 10.14.01.2.01.4 0 .6-.08 13.35 2.04 26.62 6.29 39.28 1.62 3.93.56 8.46-2.64 11.26l-24.09 24.37a164.65 164.65 0 0 0 72.54 72.54l24.37-24.09a9.802 9.802 0 0 1 11.26-2.62c12.66 4.25 25.93 6.37 39.28 6.29 5.77-.16 10.57 4.38 10.74 10.14.01.19.01.39 0 .59z" fill="#2c3742"/></svg>
