<svg xmlns="http://www.w3.org/2000/svg" viewBox="0 0 498.32 566.26" overflow="visible"><style>.st0{fill:#c68b8e}</style><path class="st0" d="M498.32 407.86s-.32-108.86 0-159.64c.32-50.78-47.14-51.11-47.14-51.11h-17.96v-86.7h-42.24v55.83h-13.31V0H122.99v166.23H109.7V110.4H68.68v86.7s-5.26-.48-27.1.27C3.16 201.74.25 238.81.25 238.81S0 365.57 0 411.43c6 45.43 46.44 42.85 46.44 42.85h11.21l-28.47 75.47h52.87l-13.77 36.51h371.13l-14.63-36.49h53.75s-23.82-60.07-30.25-75.47c51.28.29 50.04-46.44 50.04-46.44zM138.58 15.59h223.58v150.65H138.58V15.59zM298 258c0 8.28-20.37 15-45.5 15s-45.5-6.72-45.5-15c0-8.28 20.37-15 45.5-15s45.5 6.72 45.5 15zM90.8 550.67l7.87-20.9h309.37l8.35 20.9H90.8zm364.8-36.53H51.61l45.96-121.89h309.09l48.94 121.89zm-7.3-89.76h-11.99l-19.16-47.74H86.82l-17.88 47.74h-9.99v-83.93H448.3v83.93z"/><path class="st0" d="M387.78 408.32H245.92v6.21h144.09zM392.41 421.17H245.92v6.57h148.87zM397.13 434.3H245.92v7.01h153.73zM402.6 449.44H245.92v7.54h159.4zM245.92 474.76h165.86l-2.96-8.17h-162.9zM245.92 494.98h173.11l-3.22-8.87H245.92z"/></svg>
