<svg xmlns="http://www.w3.org/2000/svg" viewBox="0 0 400.5 400.5" overflow="visible"><style>.st0{fill:#2c3742}</style><path class="st0" d="M266.14 261.35h-11v32.55h9.79c6.43 0 11.33-1.46 14.71-4.37 3.38-2.91 5.07-7.06 5.07-12.44 0-10.5-6.19-15.74-18.57-15.74zM194.48 259.98c-8.55 0-15.38 3.09-20.49 9.26-5.11 6.17-7.67 13.97-7.67 23.39 0 9.39 2.49 17.15 7.47 23.29 4.98 6.14 11.64 9.21 19.99 9.21 8.92 0 15.85-2.9 20.82-8.71s7.44-13.68 7.44-23.64c0-10.29-2.4-18.34-7.19-24.12s-11.59-8.68-20.37-8.68z"/><path class="st0" d="M200.25 0C89.65 0 0 89.65 0 200.25S89.65 400.5 200.25 400.5c110.59 0 200.25-89.65 200.25-200.25S310.84 0 200.25 0zm-78.36 151.25l68.09-79.67c4.51-5.67 12.76-6.61 18.43-2.1.78.62 1.48 1.32 2.1 2.1l68.09 79.67c5.17 6.07 3.5 11.09-3.51 11.89V163h-24.63v34.84h.34v24.08H149.69v-42.83c0-.38 0-.74-.04-1.12V163h-24.17v.16c-7.07-.78-8.79-5.83-3.59-11.91zm33.12 110.05h-22.56v70.3h-8.63v-70.3h-22.51v-7.87h53.7v7.87zm66.04 60.25c-6.64 7.57-15.72 11.36-27.23 11.36-11 0-19.84-3.68-26.52-11.05-6.68-7.37-10.02-16.84-10.02-28.41 0-12.55 3.41-22.58 10.22-30.08 6.81-7.5 16.02-11.25 27.63-11.25 10.77 0 19.44 3.67 26.02 11 6.58 7.33 9.87 16.79 9.87 28.36 0 12.48-3.33 22.5-9.97 30.07zm64.57-26.29c-5.42 4.71-12.09 6.93-20.04 6.66h-10.45v29.67h-8.58v-78.17h21.09c8.18 0 14.57 2.04 19.18 6.11 4.61 4.07 6.91 9.79 6.91 17.16.02 7.67-2.69 13.86-8.11 18.57z"/></svg>
