<svg xmlns="http://www.w3.org/2000/svg" viewBox="0 0 235.94 244.82" overflow="visible"><style>.st0{fill:#2c3742}</style><path class="st0" d="M213.99.01H130.2V0c-12.1.04-21.9 9.84-21.94 21.94v40.57c.03 12.1 9.84 21.91 21.94 21.95h3v17.95l17.94-17.95h62.85c12.11-.03 21.92-9.84 21.95-21.95V21.94C235.9 9.84 226.1.04 213.99.01zm-3.11 62.3h-56.55v-5.44h56.55v5.44zm0-17.23h-74.7v-5.45h74.7v5.45zm0-16.51h-74.7v-5.44h74.7v5.44zM200.25 114.41H46.53l-10.54-26.2a5.828 5.828 0 0 0-5.4-3.65H5.83a5.83 5.83 0 1 0 0 11.66h20.82l10.5 26.08c.01.04.02.07.04.11l1.55 3.84 35.06 87.12a19.282 19.282 0 0 0-4.25 12.09c0 10.69 8.67 19.36 19.36 19.36s19.36-8.67 19.36-19.36c0-2.78-.6-5.42-1.65-7.81h36.03a19.208 19.208 0 0 0-1.65 7.81c0 10.69 8.67 19.36 19.36 19.36s19.36-8.67 19.36-19.36-8.67-19.36-19.36-19.36c-.09 0-.19.01-.28.01-.39-.08-.8-.13-1.22-.13H83.38L78.6 194.1h97.84a5.829 5.829 0 0 0 5.49-3.92l23.82-68.05c.62-1.78.34-3.75-.75-5.29a5.875 5.875 0 0 0-4.75-2.43zm-39.9 103.78c4.03 0 7.29 3.26 7.29 7.29s-3.26 7.29-7.29 7.29-7.29-3.26-7.29-7.29 3.26-7.29 7.29-7.29zm-71.44 0c4.03 0 7.29 3.26 7.29 7.29s-3.26 7.29-7.29 7.29-7.29-3.26-7.29-7.29 3.26-7.29 7.29-7.29zm83.4-35.75H74.02l-22.57-55.81-.23-.58h140.82l-19.73 56.39z"/></svg>
