<svg xmlns="http://www.w3.org/2000/svg" viewBox="0 0 209.67 228.82" overflow="visible"><style>.st0{fill:#2c3742}</style><path class="st0" d="M200.79 177.21h-.02a9.008 9.008 0 0 0-8.9 9.1v16.21c.03 4.41-3.5 8.03-7.92 8.09H25.71a8.011 8.011 0 0 1-7.91-8.09v-16.2c.11-4.92-3.78-8.99-8.7-9.1S.11 181 0 185.91v16.61c-.16 14.36 11.35 26.14 25.71 26.3h158.24c14.36-.17 25.87-11.94 25.71-26.3v-16.2c.07-4.97-3.9-9.05-8.87-9.11z"/><path class="st0" d="M94.27 189.94c4.89 5.83 13.59 6.6 19.42 1.7.62-.52 1.19-1.09 1.7-1.7l70.06-79.26c5.32-6.03 3.6-11.03-3.62-11.82V99H156.5V64.33h.36V40.38H52.82v42.61c0 .38 0 .74-.04 1.12V99H27.91v-.16c-7.27.76-9.03 5.79-3.68 11.82l70.04 79.28zM145.26 15.72c0-8.64-5.69-15.72-12.64-15.72H77.05C70.1 0 64.41 7.08 64.41 15.72v6.95h80.85v-6.95z"/></svg>
