<svg xmlns="http://www.w3.org/2000/svg" viewBox="0 0 960.36 867.89" overflow="visible"><path d="M480.22 0C215 0 0 179.29 0 400.25a357.18 357.18 0 0 0 94.37 238.38c27.66 70.27 54.19 168.11 21.48 228.74a284.247 284.247 0 0 0 220.36-85.27 569.912 569.912 0 0 0 144.02 18.34c265.22 0 480.13-179.09 480.13-400.2S745.35 0 480.22 0zm0 718.06c-41.57.04-82.96-5.22-123.2-15.66l-47-12.29-33.45 35.19a188.957 188.957 0 0 1-64.36 44.18 580.271 580.271 0 0 0-41.04-160.96l-5.39-13.72-9.84-10.92a275.298 275.298 0 0 1-73.58-183.66c0-175.27 178.52-317.86 397.86-317.86s397.74 142.59 397.74 317.86-178.49 317.84-397.74 317.84z" fill="#060001"/></svg>
