<svg xmlns="http://www.w3.org/2000/svg" viewBox="0 0 684.32 684.32" overflow="visible"><path d="M341.98 0C153.35.07-.06 153.6 0 342.22c0 188.64 153.47 342.1 342.21 342.1 188.65 0 342.11-153.46 342.11-342.1v-.02C684.32 153.51 530.81 0 341.98 0zM53 342.21c-.03-75.19 28.81-143.76 76.01-195.26l46.89 24.63 33.66 43.75 25.62 77.54-56.29 9.71c-3.66.63-6.75 3.1-8.14 6.54l-27.79 68.18c-1.56 3.82-.79 8.18 1.95 11.25l25.05 27.86v33.44l-41.38 29.51a10.698 10.698 0 0 0-4.51 8.77c0 3.49 1.69 6.76 4.53 8.77l45.89 32.54c3.72 2.64 8.7 2.65 12.38.04l33.26-23.29 45.31 22.45 27.7 53.71 6.74 45.9C160.42 607.74 53 487.3 53 342.21zm289.11 289.12c-6.77 0-13.48-.25-20.13-.71l-7.81-53.18a10.87 10.87 0 0 0-1.07-3.37l-30.13-58.45a10.8 10.8 0 0 0-4.79-4.71l-54.2-26.85c-3.48-1.74-7.69-1.43-10.94.83l-32.29 22.61-27.36-19.41 33.56-23.93c2.84-2.02 4.51-5.28 4.51-8.76v-43.11c0-2.66-.98-5.22-2.74-7.19l-23.3-25.92 23-56.42 62.71-10.82c3.08-.53 5.79-2.38 7.4-5.06 1.62-2.69 1.97-5.94 1-8.91l-30.11-91.13c-.4-1.15-.96-2.23-1.69-3.19l-36.21-47.07c-.96-1.23-2.16-2.25-3.53-2.97l-43.13-22.65C196.54 82.66 265.91 53.02 342.11 53c54.05 0 104.68 14.92 148.01 40.84l-32.56 62.71-43.77 40.84-44.67.03-27.8 2.1c-5.62.43-9.94 5.1-9.94 10.73v47.05c0 5.94 4.81 10.76 10.75 10.76h31.38l41.03 19.49v44.47c0 5.94 4.81 10.76 10.75 10.76h47.04c1.73 0 3.44-.42 4.96-1.22L509.11 325l36.72 14.36v35.78L497 402.96c-2.48 1.43-4.3 3.79-5.06 6.56-.73 2.76-.36 5.72 1.09 8.2l17.01 29.22 5.75 42.68c.71 5.34 5.26 9.32 10.66 9.32h19.38v21.78c0 5.94 4.81 10.76 10.75 10.76h3.99c-53.06 61.13-131.31 99.85-218.46 99.85zm235.43-121.36h-10.21v-21.78c0-5.94-4.81-10.76-10.75-10.76h-20.71l-4.79-35.48c-.19-1.4-.64-2.75-1.35-3.97l-12.63-21.69 44.82-25.55c3.35-1.92 5.41-5.49 5.41-9.35v-49.37c0-4.43-2.71-8.4-6.82-10.02l-48.11-18.82c-2.93-1.15-6.16-.97-8.89.48l-33.81 17.6h-33.66v-40.52c0-4.15-2.39-7.93-6.13-9.72l-49.35-23.44c-1.45-.69-3.03-1.04-4.62-1.04h-23.06v-26.33l17.05-1.31h48.11c2.73 0 5.36-1.03 7.33-2.89l48.22-44.99c.9-.84 1.65-1.82 2.22-2.9l32.45-62.49c74.37 52.39 123.07 138.91 123.07 236.6-.01 62.49-19.95 120.41-53.79 167.74z" fill="#060001"/></svg>
