<svg xmlns="http://www.w3.org/2000/svg" viewBox="0 0 1108.65 1108.65" overflow="visible"><style>.st0{fill:#2f2d2c}</style><path class="st0" d="M698.3 729.35c-33.63 30.19-85.31 27.66-115.82-5.69l-158.63-153.3c-34.44-29.39-38.75-81.05-9.65-115.74l3.12-3.29-155.9-150.64c-.79.76-1.61 1.51-2.39 2.38-67.95 70.24-19.73 227.13 107.65 350.19l134.71 130.17c127.32 123.18 285.76 166 353.74 95.71.73-.75 1.52-1.63 2.24-2.44L701.5 726.03l-3.2 3.32zM912.63 781.79L795.36 668.53c-10.76-10.47-27.96-10.24-38.43.52-.04.05-.09.09-.13.14l-30.79 31.95 156.34 151.17 30.94-31.95c10.47-10.8 10.2-28.04-.6-38.51-.02-.03-.04-.04-.06-.06zM472.87 394.69c10.47-10.76 10.24-27.96-.52-38.43-.05-.04-.09-.09-.14-.13L354.98 242.9c-10.8-10.47-28.04-10.2-38.51.6-.02.02-.03.04-.05.05l-30.79 31.98L442 426.64l30.87-31.95z"/><path class="st0" d="M554.27 0C248.12.03-.03 248.24 0 554.38c.03 306.15 248.24 554.3 554.38 554.27 305.98-.41 553.91-248.38 554.27-554.36v-.03C1108.62 248.12 860.41-.03 554.27 0zm533.11 554.35c-.02 294.38-238.67 533.01-533.06 533-294.38-.02-533.01-238.67-533-533.05.03-294.39 238.68-533.02 533.06-533 294.22.36 532.64 238.78 533 533v.05z"/></svg>
