<svg xmlns="http://www.w3.org/2000/svg" viewBox="0 0 771.98 571.45" overflow="visible"><path d="M715.65 143.9c-32.93-1.87-61.13 23.31-63 56.23-.63 21.85 10.58 41.35 27.89 52.26-27.25 29.5-79.39 86.61-129.92 145.72a9418.038 9418.038 0 0 0-36.72 42.57c-20.13-57.61-39.36-112.99-39.36-112.99s-21.71-60.33-43.47-120.54c-12.22-33.14-24.47-66.2-33.04-89.32 27.02-5.27 47.87-28.55 48.94-57.25 0-33.47-27.13-60.6-60.6-60.6s-60.6 27.13-60.6 60.6c1.06 28.54 21.77 51.99 49.02 57.26-8.54 23.11-20.77 56.17-33.03 89.3-21.58 60.23-43.36 120.56-43.36 120.56s-19.34 55.21-39.22 113.05a8747.787 8747.787 0 0 0-36.9-42.8C171.83 339.01 119.81 281.91 92.6 252.38c16.8-11.18 27.52-30.61 26.59-52.24-1.41-32.9-29.23-58.43-62.13-57.01-32.9 1.41-58.43 29.23-57.02 62.13 1.41 32.9 29.23 58.43 62.13 57.01 5.13-.22 10.07-1.08 14.77-2.5L117 571.43s19.51-.84 38.76-1.79l38.85-.51 20.94-.3c-.01.03-.02.05-.02.05l170.84-2.46 20.92.3-.01.01 27.36.39 122.61 1.77s-.01-.02-.01-.03l20.76.29 39.03.51c19.27.95 38.87 1.79 38.87 1.79l40.3-312.09c4.08 1.14 8.34 1.88 12.74 2.13 32.93 1.87 61.13-23.31 63-56.23.95-32.33-24.01-59.52-56.29-61.36z" fill="#060001"/></svg>
