<svg xmlns="http://www.w3.org/2000/svg" viewBox="0 0 851.79 851.79" overflow="visible"><style>.st0{fill:#2f2d2c}</style><path class="st0" d="M602.9 250.55c.01-23.67-19.16-42.86-42.82-42.87H300.4c-23.67 0-42.85 19.19-42.85 42.85V293.86H602.9v-43.31zM531.79 533.72H328.64c-9.61 0-17.4 7.79-17.4 17.4s7.79 17.4 17.4 17.4h203.15c9.61 0 17.4-7.79 17.4-17.4s-7.79-17.4-17.4-17.4zM531.79 594.24H328.64c-9.61 0-17.4 7.79-17.4 17.4s7.79 17.4 17.4 17.4h203.15c9.61 0 17.4-7.79 17.4-17.4s-7.79-17.4-17.4-17.4z"/><path class="st0" d="M644.5 323.65H215.98c-23.67-.01-42.86 19.16-42.87 42.82v146.2c0 23.68 19.2 42.87 42.87 42.87h34.67v75.69c0 30.61 24.82 55.43 55.43 55.43h248.28c30.63.01 55.47-24.8 55.48-55.43v-75.69h34.67c23.68.01 42.89-19.17 42.9-42.85V366.5c-.02-23.68-19.23-42.87-42.91-42.85zm-90.15 334.2H306.1c-14.64-.01-26.5-11.87-26.53-26.51V493.72H580.9l.01 137.62c-.05 14.64-11.92 26.48-26.56 26.51zm73.3-189.97H232.78c-6.61 0-11.97-5.36-11.97-11.97s5.36-11.97 11.97-11.97h394.87c6.61 0 11.96 5.36 11.96 11.97.01 6.61-5.35 11.97-11.96 11.97zm10.53-71h-26.8c-9.25 0-16.74-7.5-16.74-16.74 0-9.25 7.5-16.74 16.74-16.74h26.8c9.25 0 16.74 7.5 16.74 16.74 0 9.24-7.49 16.74-16.74 16.74z"/><path class="st0" d="M425.85 0C190.63.02-.02 190.72 0 425.94c.03 235.21 190.72 425.87 425.94 425.85 235.09-.31 425.57-190.83 425.85-425.92v-.02C851.76 190.63 661.06-.02 425.85 0zm409.6 425.92c-.01 226.18-183.38 409.52-409.55 409.51S16.38 652.05 16.39 425.87C16.4 199.69 199.76 16.35 425.94 16.36c226.05.28 409.23 183.46 409.51 409.51v.05z"/></svg>
