<svg xmlns="http://www.w3.org/2000/svg" viewBox="0 0 124.57 70.76" overflow="visible"><style>.st0{fill:#a5411b}</style><path class="st0" d="M106.92 40.98c-1.79 7.25-8.33 12.65-16.13 12.65-8.72 0-15.88-6.75-16.57-15.3l-22.94-1.86c-.2 9.25-7.77 16.72-17.06 16.72-9.42 0-17.09-7.67-17.09-17.09 0-.81.07-1.6.18-2.38L.24 32.34C.09 33.58 0 34.83 0 36.11c0 18.87 15.35 34.22 34.22 34.22 11.73 0 22.1-5.94 28.27-14.98 6.03 9.26 16.45 15.41 28.3 15.41 16.79 0 30.76-12.32 33.34-28.4l-17.21-1.38zM18.29 28.13c2.46-6.42 8.66-11 15.93-11 8.23 0 15.11 5.87 16.72 13.64l23.42 1.89c1.18-8.02 8.09-14.2 16.43-14.2 9.18 0 16.64 7.46 16.64 16.64 0 .08-.01.16-.01.24l17.1 1.38c.03-.54.04-1.08.04-1.62 0-18.62-15.15-33.77-33.77-33.77-11.48 0-21.63 5.77-27.73 14.55C56.98 6.35 46.34 0 34.22 0 17.93 0 4.3 11.45.87 26.72l17.42 1.41z"/></svg>
