<svg xmlns="http://www.w3.org/2000/svg" viewBox="0 0 17.38 17.38" overflow="visible"><style>.st0{fill:#a53434}</style><path class="st0" d="M12.35 3.34H5.03c-.9 0-1.64.71-1.64 1.58v7.54c0 .87.74 1.58 1.64 1.58h7.33c.9 0 1.64-.71 1.64-1.58V4.92c0-.87-.74-1.58-1.65-1.58zm-3.66 8.7a3.35 3.35 0 1 1 0-6.7 3.35 3.35 0 0 1 0 6.7zm3.6-6.09a.781.781 0 0 1 0-1.56.781.781 0 0 1 0 1.56z"/><path class="st0" d="M8.69 6.45c-1.24 0-2.24 1.01-2.24 2.24 0 1.24 1.01 2.24 2.24 2.24 1.24 0 2.24-1.01 2.24-2.24 0-1.24-1-2.24-2.24-2.24z"/><path class="st0" d="M14.38 0H3C1.34 0 0 1.34 0 3v11.38c0 1.66 1.34 3 3 3h11.38c1.66 0 3-1.34 3-3V3c0-1.66-1.34-3-3-3zm.72 12.46c0 1.49-1.24 2.69-2.75 2.69H5.03c-1.51 0-2.75-1.21-2.75-2.69V4.92c0-1.48 1.24-2.69 2.75-2.69h7.33c1.51 0 2.75 1.21 2.75 2.69v7.54z"/></svg>
