<svg xmlns="http://www.w3.org/2000/svg" viewBox="0 0 983 983" overflow="visible"><style>.st0{fill:#606060}</style><path class="st0" d="M395.18 459.84c-18.67 33.99-54.36 57.27-95.7 57.27-3.26 0-6.48-.17-9.67-.45V668.3H517V514.08c-8.2 1.97-16.74 3.03-25.51 3.03-41.31 0-77.1-23.28-96.31-57.27zM491.49 466.04c24.41 0 44.82-14.22 54.4-34.59H437.08c9.69 20.37 30.64 34.59 54.41 34.59zM353.87 431.45H245.05c9.08 20.37 30.05 34.59 54.43 34.59 24.3 0 44.72-14.22 54.39-34.59zM449.16 264.28L434.83 381h113.32l-14.22-116.72zM377.12 264.28h-83.09L250.72 381h111.6zM689.08 264.28h-83.2L620.72 381h112.19zM592.39 555.02h-24.88c-7.44 0-12.51 5.56-12.51 12.39s5.07 12.56 12.51 12.56h24.88c7.34 0 13-5.74 13-12.56s-5.65-12.39-13-12.39z"/><path class="st0" d="M491.5 0C220.05 0 0 220.05 0 491.5S220.05 983 491.5 983 983 762.95 983 491.5 762.95 0 491.5 0zm303.11 405.95c0 38.79-20.07 73.09-50.36 92.99V756.7c0 21.03-17.06 37.96-37.99 37.96H276.77c-20.37 0-37.35-16.93-37.35-37.96V499.34c-30.66-19.84-51.03-54.33-51.03-93.39v-4.61l51.52-137.06h-.49v-50.42c0-14.24 11.3-25.52 24.96-25.52h454.36c13.58 0 25.51 11.29 25.51 25.52v50.42h-1.12l51.48 137.06v4.61z"/><path class="st0" d="M683.59 466.04c24.44 0 45.31-14.22 54.39-34.59H629.21c9.59 20.37 30.6 34.59 54.38 34.59z"/></svg>
