<svg xmlns="http://www.w3.org/2000/svg" viewBox="0 0 117.52 117.52" overflow="visible"><path d="M58.76 0C26.31 0 0 26.31 0 58.76s26.31 58.76 58.76 58.76 58.76-26.31 58.76-58.76S91.21 0 58.76 0zm38.83 54.82L83.16 68.98c-.47.46-.91 1.85-.82 2.52l3.42 19.97c.31 1.86-.08 3.55-1.12 4.8-.92 1.1-2.31 1.73-3.79 1.73-.97 0-1.97-.26-2.95-.78l-17.85-9.45c-.15-.08-.62-.23-1.3-.23-.69 0-1.15.15-1.29.23l-17.85 9.44c-1 .53-1.99.79-2.96.79-1.48 0-2.87-.63-3.79-1.73-1.04-1.24-1.43-2.94-1.12-4.8l3.42-19.98c.1-.66-.33-2.03-.81-2.49L19.92 54.82c-1.67-1.64-2.3-3.76-1.68-5.68.62-1.93 2.36-3.27 4.68-3.61l19.94-2.92c.66-.09 1.82-.94 2.1-1.54l8.93-18.18c1.02-2.1 2.84-3.37 4.86-3.37 2.01 0 3.82 1.27 4.86 3.37l8.92 18.18c.3.6 1.45 1.45 2.12 1.54l19.94 2.92c2.31.33 4.06 1.68 4.68 3.61.62 1.92-.01 4.04-1.68 5.68z" fill="#53575a"/></svg>
