<svg xmlns="http://www.w3.org/2000/svg" id="a" viewBox="0 0 48.7 46.06"><defs><style>.u{fill:#fff}</style><clipPath id="b"><path fill="none" d="M0 0h48.7v46.05H0z"/></clipPath></defs><g clip-path="url(#b)"><g id="c"><path id="d" class="u" d="M16.6 10.61c.03 1.54-1.2 2.81-2.74 2.83-1.54.03-2.81-1.2-2.83-2.74V2.79a2.791 2.791 0 0 1 5.58 0v7.82z"/><path id="e" class="u" d="M37.69 10.63c0 1.54-1.25 2.78-2.79 2.78a2.78 2.78 0 0 1-2.78-2.78V2.81c0-1.54 1.25-2.78 2.79-2.78a2.78 2.78 0 0 1 2.78 2.78v7.82z"/><path id="f" class="u" d="M48.7 21.03v-7.87c0-3.59-2.9-6.5-6.49-6.51h-2.03v3.98c0 2.91-2.37 5.27-5.28 5.27s-5.27-2.37-5.27-5.28V6.64H19.1v3.97c0 2.91-2.37 5.28-5.28 5.28s-5.28-2.37-5.28-5.28V6.63H6.52c-3.58-.01-6.5 2.9-6.5 6.49V21l48.68.03z"/><path id="g" class="u" d="M46.21 23.22v16.34a4.033 4.033 0 0 1-4.03 4.01L6.5 43.54c-2.22 0-4.01-1.8-4.01-4.02V23.18H.01v16.34c-.02 3.59 2.89 6.5 6.48 6.51l35.67.03c3.59 0 6.5-2.9 6.51-6.49V23.22h-2.48z"/><path id="h" class="u" d="M44.18 37.95V23.21h-1.45v15.11c0 .47-.12.92-.37 1.31-.5.61-1.29.92-2.07.81H22c-4.65 0-11.4-.02-13.6-.02-.78.1-1.57-.2-2.07-.81-.25-.39-.38-.85-.37-1.32v-.2c.02-.1.03-14.92.03-14.92H4.52v14.74c-.02.12-.03.25-.03.37-.01.77.21 1.52.64 2.16.78 1 2 1.54 3.27 1.44 2.2 0 8.95 0 13.61.01H40.3a3.47 3.47 0 0 0 3.89-3c.02-.19.03-.39.03-.58 0-.12 0-.25-.02-.37"/><path id="i" class="u" d="M9.76 25.74v-1.63c0-.51.42-.92.92-.92h3.74c.51 0 .92.42.92.93v1.63c0 .51-.42.92-.93.92h-3.74c-.51 0-.92-.42-.92-.93z"/><path id="j" class="u" d="M23.21 25.75c0 .51-.41.92-.92.92h-3.74c-.51 0-.92-.41-.92-.92v-1.63c0-.51.41-.92.92-.92h3.75c.51 0 .92.41.92.92v1.64z"/><path id="k" class="u" d="M26.41 23.2h3.75c.51 0 .92.41.92.92v1.63c0 .51-.41.92-.92.92h-3.75c-.51 0-.92-.41-.92-.92v-1.63c0-.51.41-.92.92-.92z"/><path id="l" class="u" d="M34.28 23.21h3.75c.51 0 .92.41.92.92v1.63c0 .51-.41.92-.92.92h-3.75c-.51 0-.92-.41-.92-.92v-1.63c0-.51.41-.92.92-.92z"/><path id="m" class="u" d="M15.35 31.05c0 .51-.41.92-.92.92h-3.74c-.51 0-.92-.41-.92-.92v-1.63c0-.51.41-.92.92-.92h3.74c.51 0 .92.42.92.92v1.63z"/><path id="n" class="u" d="M18.55 28.5h3.74c.51 0 .92.41.92.92v1.63c0 .51-.41.92-.92.92h-3.74c-.51 0-.92-.41-.92-.92v-1.63c0-.51.41-.92.92-.92z"/><path id="o" class="u" d="M31.08 31.06c0 .51-.41.92-.91.92h-3.75c-.51 0-.92-.41-.92-.92v-1.64c0-.51.41-.92.92-.92h3.74c.51 0 .92.41.92.92v1.63z"/><path id="p" class="u" d="M34.27 28.51h3.74c.51 0 .92.41.92.92v1.63c0 .51-.41.92-.92.92h-3.75c-.51 0-.92-.41-.92-.92v-1.63c0-.51.41-.92.92-.92z"/><path id="q" class="u" d="M15.34 36.36c0 .51-.41.92-.92.92h-3.75c-.51 0-.92-.41-.92-.92v-1.63c0-.51.41-.92.92-.92h3.74c.51 0 .92.42.92.92v1.63z"/><path id="r" class="u" d="M23.21 36.36c0 .51-.41.92-.92.92h-3.75c-.51 0-.92-.41-.92-.92v-1.63c0-.51.42-.92.92-.92h3.74c.51 0 .92.41.92.92v1.63z"/><path id="s" class="u" d="M26.41 33.81h3.74c.51 0 .92.41.92.92v1.63c0 .51-.41.92-.92.92H26.4c-.51 0-.92-.41-.92-.92v-1.63c0-.51.41-.92.92-.92z"/><path id="t" class="u" d="M38.94 36.37c0 .51-.41.92-.92.92h-3.75c-.51 0-.92-.42-.92-.92v-1.63c0-.51.41-.92.92-.92h3.75c.51 0 .92.41.92.92v1.63z"/></g></g></svg>
