<svg xmlns="http://www.w3.org/2000/svg" viewBox="0 0 534.13 534.13" overflow="visible"><style>.st0{fill:#262727}</style><path class="st0" d="M438.94 329.42c-.15-.87-.52-1.69-1.07-2.38l-42.28-73.57a22.974 22.974 0 0 0-23.59-11.8c-3.21.48-6.3 1.61-9.07 3.3-2.7 1.47-5.1 3.44-7.07 5.8a23.651 23.651 0 0 0-17.12-4.31 30.24 30.24 0 0 0-9.23 3.3 22.85 22.85 0 0 0-6.29 5.2v-144.9c0-4.67-3.79-8.46-8.46-8.46H181.23c-4.65.02-8.41 3.81-8.39 8.46v56.04c-2.92-.89-5.96-1.36-9.02-1.37-3.48-.01-6.92.66-10.14 1.98l-.58.18a23.963 23.963 0 0 0-14.77 23.21v46.51c-.6 8.19-3.23 16.1-7.65 23.01a59.616 59.616 0 0 0-8.86 40.81v.17c1.88 12.5 2.15 25.2.79 37.77a85.039 85.039 0 0 1-13.46 35.98c-2.49 3.7-1.51 8.72 2.18 11.22.02.01.04.03.06.04a8.26 8.26 0 0 0 11.51-2.01 98.068 98.068 0 0 0 16.04-43.07c1.66-13.93 1.45-28.01-.63-41.88v-.58a45.164 45.164 0 0 1 7.1-30.68 61.106 61.106 0 0 0 9.42-30.98v-46.26a8.252 8.252 0 0 1 4.96-7.96l.18-.12c1.22-.51 2.53-.77 3.85-.78 1.38-.02 2.74.25 4.01.78a8.14 8.14 0 0 1 4.96 7.88v144.76c.07 4.56 3.83 8.2 8.39 8.13h75.1a22.833 22.833 0 0 0 2.36 19.28l.21.59 20.54 35.59a42.952 42.952 0 0 0 29.9 26.63l3.63 1.49 27.44 11.4a8.572 8.572 0 0 0 10.9-4.53c1.75-4.26-.27-9.14-4.53-10.9L319.11 411l-3.44-1.3c-12.89-5.57-13.78-5.87-21.84-19.82l-20.65-35.78-.18-.4a6.302 6.302 0 0 1 .18-7.57 5.51 5.51 0 0 1 2.56-2.16c.8-.5 1.66-.9 2.56-1.19H278.98a6.904 6.904 0 0 1 6.61 3.72l18.17 31.39a8.49 8.49 0 0 0 11.38 2.94 8.259 8.259 0 0 0 2.96-11.18l-18.09-31.39-.4-.69-47.78-82.6-.21-.4a7.13 7.13 0 0 1 .21-7.78c.67-.91 1.55-1.64 2.56-2.15.98-.53 2.04-.9 3.14-1.09 2.82-.45 5.6 1.03 6.79 3.63l27.23 47.2.58.78.18.41 12.21 21.33a8.508 8.508 0 0 0 11.4 3.06l.06-.03c3.86-2.32 5.11-7.34 2.79-11.2l-12.08-21.48-.21-.38a6.603 6.603 0 0 1 0-7.78c.79-.82 1.65-1.58 2.56-2.26a16 16 0 0 1 3.14-1.09c2.8-.33 5.51 1.12 6.79 3.63l1.29 2.07 11.4 19.82c2.32 3.85 7.26 5.19 11.22 3.06a8.577 8.577 0 0 0 3.14-11.42l-11-18.88v-.15a6.998 6.998 0 0 1 0-7.47l.18-.18c.82-.8 1.71-1.52 2.66-2.15 1.06-.53 2.17-.97 3.3-1.3 2.66-.19 5.2 1.18 6.49 3.52l.1.31 6.29 10.9h.1l4.61 7.95c.05.09.1.17.15.26 2.33 3.82 7.32 5.03 11.15 2.7 3.86-2.26 5.22-7.2 3.06-11.12l-4.73-8.16a6.933 6.933 0 0 1 .21-7.65c.72-.9 1.59-1.67 2.56-2.28l3.3-1.19a6.826 6.826 0 0 1 6.61 3.75l42.18 73.05 11.56 40.31c1.33 4.38 5.93 6.87 10.33 5.6a8.263 8.263 0 0 0 5.6-10.11l-11.79-41.19zM306.49 260.1c-1.98.7-3.92 1.52-5.8 2.46a28.469 28.469 0 0 0-5.68 4.51l-16.32-28.32a22.743 22.743 0 0 0-23.41-11.8c-3.26.51-6.4 1.63-9.25 3.3-2.74 1.66-5.2 3.74-7.29 6.18a22.576 22.576 0 0 0-1.47 26.27l.41.58 36.35 63.13-84.55-.03V118.22H306.5V260.1z"/><path class="st0" d="M234.21 144.78h27.75c4.56-.07 8.2-3.83 8.13-8.39v-.08c0-4.56-3.7-8.26-8.26-8.26h-27.62a8.252 8.252 0 0 0-8.16 8.34v.03c-.05 4.57 3.6 8.31 8.16 8.36z"/><path class="st0" d="M373.12 0H161.01C72.13.1.1 72.13 0 161.01V373.1c.09 88.89 72.12 160.93 161.01 161.03h212.11c88.89-.1 160.92-72.14 161.01-161.03V161.01C534.03 72.13 462 .1 373.12 0zm145.02 373.12c-.08 80.06-64.96 144.94-145.02 145.02H161.01c-80.05-.09-144.93-64.96-145.02-145.02V161.03c.09-80.05 64.97-144.92 145.02-145l212.11-.02c80.05.08 144.93 64.95 145.02 145v212.11z"/></svg>
