<svg xmlns="http://www.w3.org/2000/svg" viewBox="0 0 444.25 444.25" overflow="visible"><style>.st0{fill:#262727}</style><path class="st0" d="M310.35 0H133.92C59.99.08.08 59.99 0 133.92v176.4c.08 73.93 59.99 133.84 133.92 133.93h176.43c73.93-.09 133.83-60.01 133.9-133.93v-176.4C444.18 59.99 384.27.08 310.35 0zm120.62 310.32c-.08 66.58-54.03 120.54-120.62 120.62H133.92C67.33 430.86 13.38 376.9 13.3 310.32v-176.4C13.38 67.34 67.34 13.4 133.92 13.33h176.43c66.58.07 120.53 54.01 120.62 120.59v176.4z"/><path class="st0" d="M224.59 82.88h.01c-49.77-.13-94.66 29.91-113.51 75.98-25.58 62.51 4.36 133.92 66.87 159.5l38.9 39.59v.08l.15.14c.13.14.27.28.41.41 4.21 3.91 10.79 3.67 14.7-.54l38.98-39.67c46.03-18.83 76.06-63.66 75.98-113.39-.1-67.55-54.95-122.21-122.49-122.1zm36.73 216.41a9.095 9.095 0 0 0-3.66 2.65v-.3l-32.98 33.65-32.98-33.65a11.69 11.69 0 0 0-4.03-2.49 100.868 100.868 0 0 1-34.54-22.66c-39.36-39.46-39.27-103.35.19-142.71 39.46-39.3 103.27-39.3 142.73 0h.05c9.84 9.86 17.54 21.65 22.6 34.63 20.31 51.99-5.39 110.59-57.38 130.88z"/><path class="st0" d="M224.61 143.51v-.01h-.79c-33.66.2-60.79 27.65-60.59 61.31a61.364 61.364 0 0 0 18 43.52c23.97 23.94 62.81 23.91 86.75-.07 24.01-24.02 24.01-62.96 0-86.98a60.942 60.942 0 0 0-43.37-17.77zm48.54 61.26c-.01 26.83-21.76 48.57-48.59 48.56-26.83-.01-48.57-21.76-48.56-48.59a48.641 48.641 0 0 1 14.2-34.28c18.96-19.01 49.75-19.04 68.75-.08a49.019 49.019 0 0 1 14.19 34.35c.01.02.01.03.01.04z"/></svg>
