<svg xmlns="http://www.w3.org/2000/svg" viewBox="0 0 58.76 60.42" overflow="visible"><style>.st0{fill:#a16b35}</style><path class="st0" d="M58.36 55.54l-7.81-8.85a1.27 1.27 0 0 0-1.95 0l-1.95 2.21a1.71 1.71 0 0 0 0 2.21l7.81 8.85a1.27 1.27 0 0 0 1.95 0l1.95-2.21c.54-.64.54-1.57 0-2.21zM46.42 46.42c10.62-10.62 10.62-27.84 0-38.46C35.8-2.65 18.59-2.66 7.97 7.96c-10.62 10.62-10.62 27.84 0 38.46 10.62 10.62 27.83 10.63 38.45 0zm-5.6-5.6c-7.52 7.52-19.72 7.52-27.24 0s-7.52-19.72 0-27.24 19.72-7.52 27.24 0 7.52 19.71 0 27.24z"/></svg>
