<svg xmlns="http://www.w3.org/2000/svg" viewBox="0 0 306.61 452.09" overflow="visible"><path d="M298.96 249.65c-21.91-55.5-122.46-69.52-122.46-69.52V81.26c31.28 8.59 37.42 40.82 37.42 40.82s43.57-4.96 79.83-8.61c-18.26-84.78-117.39-88.7-117.39-88.7V0h-45.39v25.57S23.49 30.79 12.8 119.22C3.91 219.39 130.7 240 130.7 240s-.26 79.3-.26 105.13c-39.13-13.3-49.04-55.3-49.04-55.3S12 296.09 0 297.39c16.17 104.87 130.7 108.78 130.7 108.78v45.91h45.65s.52-34.17.52-46.7C303.65 388.7 319.9 302.7 298.96 249.65zM93.65 136.96c-8.09-20.87 7.3-38.09 7.3-38.09 10.17-10.81 20.78-15.98 29.72-18.32l.03 87.45s-29.94-8.8-37.05-31.04zm82.83 213.78v-99.78s50.67 5.48 53.8 47.15c-.58 44.61-53.8 52.63-53.8 52.63z" fill="#7a6d2b"/></svg>
