<svg xmlns="http://www.w3.org/2000/svg" id="a" viewBox="0 0 42.82 20.9"><defs><style>.at{fill:#573e22}</style></defs><path id="b" class="at" d="M42.07 16.56l-2.31.38c-4.06.59-6.52.57-7.39-.06l-.02-.02c-.45-.43-.68-1.05-.63-1.67v-.05c-.01-.09-.02-.18-.01-.27.08-.68.42-1.31.96-1.74.09-.09.2-.18.3-.27 1.15-.98 3.07-2 5.77-3.07l-4.41.62a16.25 16.25 0 0 1 2.8-2.76c-1.02.45-2.23 1.06-3.65 1.81a482.7 482.7 0 0 1-3.41 1.8h-.05c-.6.34-1.29.48-1.97.41-.44-.04-.81-.33-.96-.75 0-.02-.01-.03-.01-.05-.28-.71-.28-1.88.02-3.52.23-1.49.72-2.94 1.45-4.26-.74.81-1.43 1.67-2.07 2.56-.52.71-1 1.46-1.44 2.23-.7 1.25-1.32 2.32-1.86 3.21-.33.51-.62 1.04-.87 1.59-.11.34-.05.71.15 1 .22.29.56.47.93.48-.35.18-.65.45-.86.77-.18.3-.31.63-.39.98-.09.35-.11.72-.04 1.08.02.15.07.29.17.41.21-.01.41.08.53.24l.08.08s.05.06.07.09c.02.03.03.06.04.08.1.16.2.32.32.47.06.03.13.05.19.07.12.03.26.06.42.09.16-.14.34-.25.54-.32.09-.04.17-.08.25-.14h-.02c-.05.02-.1.03-.15.03a.553.553 0 0 1-.48-.15.533.533 0 0 1-.11-.5v-.03c.06-.19.16-.36.32-.49.15-.15.34-.24.55-.25.18-.02.36.04.48.17.12.14.16.32.11.49v.04c.3-.26.73-.34 1.12-.22.28.1.48.34.54.63l.03.15c.02.09.04.17.04.26 0 .14.03.44.07.9.01.16.03.33.07.49.05.21.14.41.27.58.22.37.59.64 1.02.72.6.06 1.2.05 1.8-.03.82-.08 1.54-.17 2.15-.3s1.53-.35 2.77-.69a27.6 27.6 0 0 0 4.7-1.96l2.86-1.45-.75.13zm-16.02.36s-.06.06-.1.07c-.04.02-.08.02-.12.01-.04 0-.07-.03-.09-.07-.01-.04 0-.08.02-.11.03-.03.07-.05.12-.07.04-.01.08-.01.12 0 .03 0 .06.03.08.06 0 .04 0 .07-.03.1zm5.24-3.62c-.37-.15-.72-.35-1.04-.6-.37-.27-.53-.51-.45-.72s.41-.41 1-.64c.4-.19.84-.28 1.28-.26.13.03.25.08.36.16.04.03.07.06.1.1.1.16.16.34.16.53-.05.36-.21.7-.46.98-.32.42-.63.57-.96.45z"/><path id="c" class="at" d="M25.34 17.47s-.03.07-.05.1c.13-.14.28-.26.45-.35-.15.06-.28.14-.41.24z"/><path id="d" class="at" d="M26.34 17.16c-.13-.02-.26-.02-.39.01.18-.03.37-.02.55.03h.02c-.06-.01-.11-.03-.17-.04z"/><path id="e" class="at" d="M27.06 17.93l.02-.02-.03-.15c0 .06.01.11.01.17z"/><path id="f" class="at" d="M26.51 17.21h-.02c-.18-.05-.36-.06-.55-.03-.07.01-.13.03-.19.06-.17.08-.33.2-.45.35-.03.02-.05.05-.07.08-.06.07-.13.14-.2.21-.12.13-.26.25-.41.33-.22.08-.42.19-.6.32.17.03.36.05.58.07.18.02.36.03.54.03.68.03 1.34-.19 1.86-.62a.767.767 0 0 0-.47-.8z"/><path id="g" class="at" d="M24.93 17.64a.479.479 0 0 0-.11-.38.506.506 0 0 0-.37-.16c-.15 0-.29.07-.41.17-.04.04-.07.09-.1.13v.03c-.06.17-.01.36.1.5.12.13.3.19.48.15.05 0 .1 0 .15-.02.01-.01.03-.03.05-.04.12-.09.19-.23.2-.38zm-.62-.4c.06-.02.13 0 .17.05.05.05.07.12.05.18a.36.36 0 0 1-.11.21c-.06.06-.13.09-.21.11-.06.02-.13 0-.17-.04-.05-.05-.07-.12-.05-.18a.53.53 0 0 1 .11-.21c.06-.06.13-.1.21-.12z"/><path id="h" class="at" d="M22.98 17.88s-.03-.05-.04-.08a.55.55 0 0 0-.07-.09c.04.06.08.12.12.17z"/><path id="i" class="at" d="M23.1 18.22l-.03-.04c-.03-.05-.06-.11-.09-.16-.05-.08-.1-.16-.15-.23-.04.07-.09.14-.14.2h.07v.03s0 .03-.02.05-.03.01-.04.02h-.04v-.06c-.1.12-.23.23-.37.3-.1.09-.18.13-.24.11-.03 0-.05-.02-.08-.03-.03 0-.07-.02-.1-.03 0 .07.01.13.03.19.02.15.08.25.16.27.11.03.36-.07.76-.29.06-.04.18-.11.36-.22-.03-.03-.05-.07-.08-.11z"/><path id="j" class="at" d="M21.87 18.28l.02.03s.05.02.08.02c.12 0 .23-.04.33-.11.2-.12.36-.29.47-.5a.654.654 0 0 0-.54-.27.95.95 0 0 0-.1.17c-.11.18-.19.37-.26.57 0 .02 0 .05-.01.07v.02z"/><path id="k" class="at" d="M22.17 18.37c-.07.03-.14.04-.2.03.02.02.05.03.08.03.06.02.14-.02.24-.11-.04.02-.07.03-.11.05z"/><g id="l"><path id="m" class="at" d="M32.55 11.35s-.08-.07-.1-.1c-.11-.07-.23-.13-.36-.16a2.7 2.7 0 0 0-1.28.26c-.6.23-.93.44-1.01.64s.08.44.45.72c.32.24.67.44 1.05.59.02 0 .04.02.06.02.14.04.29.02.42-.04.19-.11.35-.25.47-.43.25-.27.41-.61.45-.98 0-.19-.05-.38-.15-.54zm-.31 1.51c-.3.39-.6.55-.89.47l-.06-.02c-.37-.15-.72-.35-1.04-.59-.38-.28-.52-.51-.45-.71s.4-.41 1-.64c.4-.19.84-.27 1.28-.26.13.03.25.08.36.15s.07.06.1.1c.1.16.16.34.15.53-.04.36-.2.7-.45.97z"/><path id="n" class="at" d="M21.87 18.28v.02-.02s0-.06.01-.08c.06-.2.15-.39.26-.57.03-.06.07-.12.1-.17-.03.05-.07.11-.09.16-.11.18-.19.37-.26.57 0 .02-.01.05-.01.07v.02z"/><path id="o" class="at" d="M23.17 18.32l-.15.09c-.1.06-.17.1-.21.12-.41.23-.66.32-.76.29-.08-.02-.13-.11-.15-.26-.02-.06-.02-.13-.02-.19 0 .07 0 .13.02.19.02.15.08.25.16.27.1.03.35-.06.76-.29.05-.03.12-.07.21-.13l.15-.09z"/><path id="p" class="at" d="M38.73 9.77l-4.39.63c.82-1.02 1.76-1.95 2.79-2.76a50.57 50.57 0 0 0-3.65 1.81c-2.07 1.1-3.11 1.64-3.41 1.79h-.05c-.6.34-1.28.48-1.97.42a.75.75 0 0 1-.16-.04c-.37-.08-.67-.36-.79-.72v-.02l-.02-.02c-.28-.71-.27-1.9.02-3.52.24-1.49.73-2.93 1.45-4.26-.74.81-1.43 1.67-2.07 2.56-.52.72-1 1.46-1.45 2.23-.68 1.21-1.31 2.29-1.86 3.21-.33.51-.61 1.04-.86 1.59-.11.34-.05.71.15 1 .22.29.55.47.92.48-.34.18-.64.44-.85.76-.18.31-.31.64-.39.98-.09.35-.1.72-.04 1.08.01.15.07.29.17.41a.772.772 0 0 1-.16-.41c-.07-.36-.06-.72.03-1.08.08-.34.21-.67.39-.98.22-.32.51-.59.86-.77-.36-.02-.7-.19-.92-.49-.2-.29-.26-.66-.15-1 .25-.55.53-1.08.86-1.59.55-.92 1.18-2 1.86-3.21.44-.77.92-1.51 1.44-2.23.64-.88 1.32-1.73 2.05-2.54-.34.61-.63 1.25-.85 1.91-.25.76-.45 1.53-.59 2.32-.13.7-.21 1.4-.22 2.11-.02.48.05.96.2 1.41v.03l.02.03c.07.2.19.37.35.5.18.13.39.22.61.25.68.07 1.37-.07 1.97-.4h.05c.3-.17 1.34-.71 3.41-1.81 1.38-.74 2.6-1.35 3.63-1.81-1.03.81-1.96 1.73-2.78 2.75l4.41-.63z"/><path id="q" class="at" d="M23.3 18.35c.06.04.12.06.19.08.14.04.28.06.41.09l-.42-.09c-.07-.02-.13-.04-.2-.07z"/><path id="r" class="at" d="M22.87 17.71s-.06-.07-.1-.1l.04.05.06.06c.02.02.05.06.07.09.01.02.02.05.03.07l.02.03s-.03-.07-.05-.1a.55.55 0 0 0-.07-.09z"/><path id="s" class="at" d="M25.22 17.66s.04-.06.07-.08c.13-.15.29-.27.47-.35.23-.08.49-.09.72-.02h.05s-.05 0-.07-.01c-.14-.03-.29-.05-.44-.04-.12.02-.23.05-.34.1-.14.08-.27.18-.38.3.01-.03.03-.06.04-.09h-.01s-.03.07-.05.1c-.03.03-.05.06-.06.09-.06.07-.12.13-.19.19l-.04.04c.08-.07.16-.14.23-.23z"/><path id="t" class="at" d="M26.98 18c-.52.43-1.19.65-1.86.62-.16 0-.34 0-.54-.03-.18-.02-.37-.04-.58-.07.2.04.4.06.58.08.18.02.36.03.54.03.68.03 1.34-.19 1.86-.62z"/><path id="u" class="at" d="M24.53 18.09c.05 0 .11 0 .16-.02h.01v-.02l.03-.02c.12-.09.2-.23.21-.39a.468.468 0 0 0-.11-.38c-.1-.1-.23-.16-.37-.16-.15 0-.29.07-.41.17-.03.04-.07.08-.1.12.05-.19.15-.35.3-.47.15-.15.34-.24.55-.25.18-.02.35.04.48.17.12.13.16.32.11.49v.04-.04a.54.54 0 0 0-.11-.49.566.566 0 0 0-.48-.17c-.21.02-.4.11-.55.25-.15.13-.26.3-.31.49v.03a.513.513 0 0 0 .59.66zm-.59-.66v-.03s.08-.09.12-.13c.11-.1.25-.16.4-.17.14 0 .27.06.37.16.09.1.13.24.11.37-.02.15-.09.29-.21.38l-.02.02-.02.02c-.05.02-.1.02-.15.03a.522.522 0 0 1-.47-.16c-.12-.13-.16-.32-.12-.49z"/><path id="v" class="at" d="M39.96 17.88c-1.5.8-3.08 1.46-4.7 1.96-1.31.35-2.19.57-2.78.69s-1.32.22-2.14.3c-.6.07-1.2.08-1.8.03-.43-.09-.8-.35-1.02-.72-.12-.18-.21-.37-.26-.58-.03-.16-.05-.32-.07-.48-.04-.41-.06-.74-.07-.9 0-.09-.02-.17-.04-.26l.24-.08-.23.08c-.01-.07-.03-.13-.05-.19v-.02s.01.06.02.09l.03.12-.02.02h.02c.02.07.03.16.04.25 0 .16.03.49.07.9.01.16.04.33.07.49.05.21.14.41.27.58.2.33.52.58.89.7l.13.03c.6.06 1.2.05 1.8-.03a19.5 19.5 0 0 0 2.15-.3c.59-.12 1.47-.34 2.77-.69 1.62-.51 3.2-1.17 4.7-1.97z"/><path id="w" class="at" d="M42.07 16.56l-2.31.38c-1.62.26-3.26.4-4.9.42-1.22 0-2.06-.17-2.49-.48h-.01v-.02h-.01c-.45-.43-.68-1.04-.62-1.67s0-.03 0-.04c-.01-.09-.01-.18-.01-.27.08-.68.42-1.31.95-1.74.06-.05.12-.11.18-.16.04-.04.08-.07.13-.11 1.13-.97 3.08-2 5.77-3.07-1.19.45-2.34.98-3.47 1.56-.82.42-1.59.92-2.3 1.5-.04.04-.09.07-.12.11-.07.06-.13.11-.19.17a2.6 2.6 0 0 0-.95 1.74v.32c0 .32.05.65.15.95.1.27.27.52.49.72h.01v.02h.01c.2.14.43.24.66.29.09.02.19.05.28.06.51.09 1.03.13 1.55.13 1.64-.03 3.27-.17 4.89-.42l2.31-.38z"/></g><path id="x" class="at" d="M.62 5.15l1.9 1.51C5.9 9.25 8.13 10.5 9.23 10.4h.04c.62-.13 1.14-.54 1.42-1.11l.04-.04c.05-.07.1-.15.14-.23.29-.63.3-1.35.03-1.99-.04-.13-.09-.26-.13-.39-.53-1.43-1.75-3.3-3.64-5.61h.01l3.65 2.79c-.21-1.31-.59-2.6-1.11-3.82.69.91 1.48 2.06 2.38 3.44 1.23 1.89 1.95 2.98 2.16 3.3l.03.04c.38.6.93 1.07 1.58 1.36a1.224 1.224 0 0 0 1.3-.18c.62-.46 1.22-1.47 1.79-3.04.56-1.41.85-2.91.87-4.42.25 1.08.44 2.17.56 3.27.1.88.16 1.77.16 2.66 0 1.43 0 2.68.03 3.72.04.6.03 1.21-.03 1.81-.08.35-.32.64-.65.78-.35.14-.75.12-1.08-.06.22.33.35.71.38 1.11 0 .36-.04.71-.15 1.05-.1.35-.28.67-.52.95a.88.88 0 0 1-.36.27.64.64 0 0 0-.6-.06c-.04 0-.08.02-.12.03-.04 0-.07.02-.1.04-.03.01-.06.03-.08.05-.17.09-.35.17-.53.24-.07 0-.14-.02-.21-.04-.14-.04-.28-.09-.42-.14-.07-.2-.18-.39-.33-.55-.06-.08-.11-.16-.15-.24h.01s.08.08.13.11c.14.12.34.16.52.11.17-.05.31-.19.35-.37v-.03c.11-.41-.05-.83-.39-1.08a.605.605 0 0 0-.52-.1.54.54 0 0 0-.36.36v.04c-.16-.39-.5-.68-.91-.76-.3-.07-.61.04-.81.27-.04.03-.08.07-.11.11-.06.06-.11.13-.16.2-.08.12-.25.36-.53.74-.09.13-.2.26-.31.39-.15.16-.34.28-.54.36-.4.21-.87.24-1.29.1-.57-.26-1.11-.58-1.61-.95-.62-.42-1.22-.87-1.79-1.35-.49-.41-1.2-1.09-2.16-2.02a27.896 27.896 0 0 1-3.24-4.11L0 4.65l.62.49zm14.3 8.53s.03.08.06.12c.03.04.07.06.11.07.04.01.08 0 .11-.01.03-.03.04-.07.04-.1-.01-.04-.04-.08-.06-.12a.346.346 0 0 0-.12-.07c-.03-.01-.07 0-.1.02s-.04.06-.04.1zm-2.88-5.81c.42.06.84.07 1.26.02.47-.04.74-.17.77-.39s-.16-.57-.58-1.06c-.27-.37-.62-.67-1.03-.88a1.1 1.1 0 0 0-.4-.05l-.14.03c-.17.08-.32.21-.41.38-.15.34-.18.72-.09 1.07.07.52.28.81.63.87z"/><path id="y" class="at" d="M15.28 14.52v.12a1.34 1.34 0 0 0-.24-.53c.1.13.18.27.24.42z"/><path id="a`" class="at" d="M14.54 13.74c.13.05.25.12.35.21-.15-.12-.32-.2-.51-.26h-.02c.06 0 .12.02.18.04z"/><path id="aa" class="at" d="M13.5 14.04s0-.02-.01-.03c.03-.04.07-.08.11-.11-.04.04-.07.09-.1.14z"/><path id="ab" class="at" d="M14.37 13.7h.02c.18.06.36.15.51.26.05.05.1.1.14.15.11.16.19.34.24.53.01.03.02.07.01.1.02.1.05.19.08.29.03.18.1.34.2.49.16.18.29.38.39.59-.17-.07-.36-.14-.56-.24-.17-.07-.34-.16-.5-.25-.62-.31-1.11-.84-1.36-1.49a.76.76 0 0 1 .84-.44z"/><path id="ac" class="at" d="M15.56 14.88c.05-.13.16-.23.3-.27a.53.53 0 0 1 .41.05c.13.08.23.21.28.35.02.05.03.11.03.17v.03c-.05.18-.19.31-.36.37a.61.61 0 0 1-.52-.11.642.642 0 0 1-.13-.1c0-.02-.02-.04-.03-.06a.58.58 0 0 1 .01-.43zm.77-.02s-.12-.07-.18-.05c-.07.01-.12.06-.14.13-.03.08-.03.16 0 .24.02.08.06.15.13.2.05.05.12.07.19.06.07-.02.12-.07.14-.13.03-.08.03-.16 0-.24a.465.465 0 0 0-.13-.21z"/><path id="ad" class="at" d="M17.2 16.09s.05-.04.08-.05c.03-.02.07-.03.1-.04-.07.03-.13.06-.19.09z"/><path id="ae" class="at" d="M16.93 16.32l.04-.02c.06-.03.11-.06.17-.09.08-.05.17-.09.26-.12 0 .08 0 .16.01.24 0-.01-.01-.01-.02-.02 0-.01-.02-.02-.04-.01-.01 0-.02.01-.03.02v.06c0 .01.02.03.03.04.01.01.02.02.04.02.01 0 .02-.02.03-.03.03.14.09.3.18.43.04.13.1.2.16.22.03 0 .06.01.09.01.03.01.07.02.1.02-.03.06-.08.11-.12.15-.1.12-.19.17-.28.15-.1-.03-.28-.24-.54-.64-.04-.07-.12-.19-.22-.38.04-.02.08-.03.13-.05z"/><path id="af" class="at" d="M18 17l-.03.02s-.06-.01-.09-.03a.604.604 0 0 1-.24-.26c-.11-.2-.17-.43-.17-.67.2-.09.44-.07.62.04v.19c0 .21-.02.42-.06.62 0 .02-.02.04-.02.07H18z"/><path id="ag" class="at" d="M17.69 16.93c.05.06.11.1.17.13-.03 0-.06 0-.09-.01-.06-.01-.12-.09-.16-.22a.7.7 0 0 0 .08.1z"/><g id="ah" transform="translate(1.042)"><path id="ai" class="at" d="M11.92 5.55l.14-.03c.14 0 .27.01.41.05.41.21.76.51 1.03.89.42.5.61.85.58 1.07s-.29.34-.77.39c-.42.05-.84.04-1.26-.03-.02 0-.05 0-.07-.01a.636.636 0 0 1-.35-.25c-.12-.18-.19-.39-.22-.61-.08-.36-.05-.74.09-1.08.1-.17.24-.3.42-.38zM11.42 7c.07.49.26.78.57.86.02 0 .04.02.06.02.41.06.83.07 1.25.03.49-.05.74-.17.77-.39s-.15-.56-.57-1.06c-.27-.37-.62-.67-1.03-.88a1.1 1.1 0 0 0-.4-.05s-.1.02-.14.03a.92.92 0 0 0-.41.37c-.15.34-.18.71-.09 1.07z"/><path id="aj" class="at" d="M18 17.01v.02h-.01v-.04H18l.03-.06c.04-.21.06-.41.06-.62v-.19.19c0 .21-.02.42-.07.63 0 .02-.01.05-.02.07z"/><path id="ak" class="at" d="M16.81 16.37c.03.06.06.11.09.16.04.07.08.15.13.22.26.41.43.61.53.64.09.02.18-.03.28-.15l.12-.15h.01c-.04.06-.08.11-.13.15-.1.12-.2.18-.29.15-.1-.03-.27-.23-.54-.64-.02-.05-.07-.12-.12-.21-.03-.05-.06-.1-.09-.16z"/><path id="al" class="at" d="M7.12 1.01l3.65 2.8C10.56 2.5 10.18 1.22 9.66 0c.7.92 1.5 2.08 2.37 3.43 1.31 2 1.97 3.02 2.16 3.29l.04.04c.38.6.93 1.07 1.57 1.36.06.02.11.04.17.05.37.12.78.04 1.08-.21h.02l.02-.03c.62-.46 1.22-1.49 1.79-3.04.55-1.41.85-2.9.87-4.42.25 1.08.44 2.17.56 3.27.1.88.16 1.77.16 2.66 0 1.39 0 2.65.04 3.72.03.6.02 1.21-.04 1.81-.08.35-.32.65-.65.79-.35.14-.74.12-1.08-.05.22.33.34.71.38 1.1 0 .35-.04.71-.15 1.04-.1.35-.28.67-.52.95a.88.88 0 0 1-.36.27.85.85 0 0 0 .35-.27c.24-.27.42-.59.52-.95.11-.34.16-.69.15-1.04-.04-.39-.17-.77-.38-1.11.33.17.73.19 1.08.05.33-.14.57-.43.65-.78.05-.6.06-1.21.03-1.81-.03-1.08-.04-2.33-.03-3.72 0-.89-.06-1.78-.17-2.66-.12-1.09-.3-2.17-.55-3.24 0 .7-.07 1.4-.21 2.08-.16.78-.38 1.55-.66 2.3-.24.67-.54 1.32-.89 1.94-.23.42-.54.8-.91 1.11l-.02.02-.02.02c-.16.14-.36.22-.58.25-.23.02-.47 0-.68-.1a3.76 3.76 0 0 1-1.58-1.35l-.03-.04c-.19-.28-.86-1.29-2.16-3.29C11.13 2.09 10.34.95 9.65.02c.51 1.22.88 2.49 1.1 3.79L7.12 1.02z"/><path id="am" class="at" d="M16.68 16.33h-.02c-.06 0-.13-.02-.2-.04-.14-.04-.28-.08-.42-.14.14.05.28.09.42.13.07.02.15.03.22.04z"/><path id="an" class="at" d="M17.39 15.99s.1-.03.15-.04c-.02 0-.04.01-.06.02-.03 0-.06.01-.08.02a.21.21 0 0 0-.11.04c-.02.01-.05.03-.07.04l-.03.02s.06-.05.09-.06c.03-.02.07-.03.11-.04z"/><path id="ao" class="at" d="M15.28 14.74s0-.07-.01-.1c-.04-.2-.13-.38-.25-.55-.17-.19-.39-.33-.64-.39-.02 0-.03-.01-.05-.01.03 0 .05 0 .08.01.15.04.29.11.41.19.1.07.19.16.26.26.09.14.16.29.19.46v-.1.12c.01.03.02.07.01.1.02.09.04.18.07.26 0 .02 0 .04.01.06-.04-.1-.07-.21-.09-.32z"/><path id="ap" class="at" d="M13.53 14.14c.26.65.74 1.18 1.36 1.49.16.09.33.18.5.25.17.08.35.16.55.24-.2-.07-.39-.15-.56-.23-.17-.07-.34-.16-.5-.25a2.85 2.85 0 0 1-1.36-1.48z"/><path id="aq" class="at" d="M15.7 15.47s-.08-.06-.13-.1v-.05a.56.56 0 0 1 0-.44c.09-.22.34-.34.57-.27.05.01.1.03.14.05.13.08.24.21.29.35l.03.15c.05-.19.04-.38-.03-.56a.922.922 0 0 0-.37-.5.584.584 0 0 0-.51-.1c-.17.05-.31.18-.35.36v.04h-.02s.01-.03.01-.04c.05-.18.19-.32.36-.37.18-.04.37 0 .52.11.34.25.49.68.39 1.08v.03c-.06.17-.19.31-.37.37-.18.05-.38.01-.52-.11zm.87-.27v-.03c0-.06-.01-.11-.03-.17a.65.65 0 0 0-.28-.35.53.53 0 0 0-.41-.05c-.13.04-.24.14-.3.27-.06.14-.06.29-.01.43v.03s.02.02.02.03c.04.04.08.07.12.1.14.12.33.16.51.11s.31-.19.36-.36z"/><path id="ar" class="at" d="M1.85 7.37c.95 1.47 2.04 2.84 3.25 4.1 1 .98 1.68 1.62 2.15 2.02.48.41 1.08.87 1.79 1.36.5.37 1.05.69 1.62.95.42.14.89.11 1.29-.1.2-.09.38-.21.54-.36.11-.12.21-.25.31-.38.25-.33.44-.6.53-.74.05-.07.11-.14.17-.2l-.17-.19.16.18c.05-.05.1-.1.15-.14h.01s-.04.03-.06.06l-.09.09v.03-.02c-.07.06-.12.13-.17.2-.09.13-.28.4-.52.74-.1.13-.2.26-.31.39-.16.15-.34.27-.54.36-.36.18-.78.23-1.17.14-.04-.01-.09-.02-.13-.04a9.41 9.41 0 0 1-1.62-.95c-.62-.42-1.21-.88-1.78-1.36-.47-.4-1.16-1.04-2.16-2.02a28.645 28.645 0 0 1-3.25-4.11z"/><path id="as" class="at" d="M.62 5.14l1.9 1.51c1.33 1.06 2.74 2.02 4.2 2.88 1.11.62 1.95.91 2.5.86h.03c.62-.14 1.14-.55 1.42-1.12s.02-.02.03-.04c.06-.07.11-.15.15-.23.28-.63.29-1.35.04-1.99-.02-.07-.05-.15-.08-.23-.02-.05-.04-.11-.06-.16C10.23 5.2 9 3.32 7.1 1.01c.83.99 1.61 2.04 2.33 3.12.52.78.96 1.61 1.31 2.48.02.05.04.11.06.16.02.08.05.16.08.24.26.64.25 1.36-.03 1.99-.04.08-.09.16-.15.23-.02.02-.02.03-.03.04-.16.29-.37.54-.62.75-.23.19-.51.31-.8.37h-.03c-.25.02-.51-.01-.75-.09-.09-.02-.19-.05-.3-.09-.51-.19-1-.41-1.46-.68-1.47-.86-2.87-1.82-4.21-2.88L.6 5.14z"/></g></svg>
