<svg xmlns="http://www.w3.org/2000/svg" id="a" viewBox="0 0 62.53 26.13"><defs><style>.f{fill:#573e22}</style></defs><path id="b" class="f" d="M17.85 8.01c.77.37 1.63.52 2.48.43 1.05-.09 2.09-.33 3.07-.72.36-.16.74-.41 1.14-.62.19-.1.36-.19.56-.27 1.67-1.06 3.47-1.89 5.36-2.47-.85-.47-1.75-.87-2.67-1.17-2.34-.78-4.79-1.17-7.26-1.16-3.43-.07-6.82.72-9.87 2.3 2.05.62 3.99 1.53 5.77 2.72.4.25.88.59 1.42.97z"/><path id="c" class="f" d="M41.38 5.42c.7.33 1.48.47 2.25.39.95-.09 1.89-.3 2.78-.65.48-.21 1-.6 1.54-.8 1.5-.96 3.13-1.72 4.84-2.24a20.143 20.143 0 0 0-17.91-.03c1.85.56 3.62 1.38 5.23 2.45.36.24.78.54 1.28.88z"/><path id="d" class="f" d="M37 5.03c-2.15-.6-4.43-.53-6.54.19-1.89.58-3.7 1.41-5.36 2.48-.25.09-.49.2-.72.34-.34.2-.67.4-.98.54-.98.39-2.02.63-3.07.72-.85.08-1.71-.07-2.48-.43-.54-.37-1.01-.71-1.42-.98a21.567 21.567 0 0 0-5.77-2.7c-2.08-.7-4.32-.76-6.43-.16-8.33 2.84-2.81 17.53 3.29 20.11 1.79.68 3.7 1.01 5.62.97 2.43-.29 4.88-.43 7.33-.42 2.46-.01 4.92.13 7.36.43 2 .05 4-.28 5.88-.98 1.5-.74 2.79-1.83 3.77-3.18C41.55 16.7 43.51 7.24 37 5.02z"/><path id="e" class="f" d="M58.7 2.72a9.887 9.887 0 0 0-5.92.17c-1.71.52-3.34 1.27-4.84 2.24-.54.2-1.06.59-1.54.8-.89.35-1.83.57-2.78.65-.77.08-1.55-.06-2.25-.39-.49-.34-.92-.65-1.28-.89a20.276 20.276 0 0 0-5.23-2.44 9.872 9.872 0 0 0-5.82-.14c-.13.04-.25.1-.36.15.8.29 1.58.65 2.32 1.07 1.42-.28 2.88-.26 4.3.04.99.11 1.95.4 2.83.84 6.21 2.38 4.25 11.64.22 16.83 1.6-.15 3.43-.24 5.38-.24 2.23 0 4.45.12 6.66.39 1.81.04 3.61-.26 5.31-.9 5.52-2.32 10.53-15.61 2.99-18.19z"/></svg>
