<svg xmlns="http://www.w3.org/2000/svg" id="a" viewBox="0 0 28.4 23.59"><defs><style>.f{fill:#573e22}</style></defs><path id="b" class="f" d="M12.14 4.5c-.18-.65-.85-1.03-1.5-.86L.9 6.28c-.65.18-1.03.85-.86 1.5l.41 1.5L12.54 6l-.4-1.5z"/><path id="c" class="f" d="M16.18 19.41l-3.12-11.5-.42-1.54L.55 9.65l3.53 13.04c.18.65.85 1.03 1.5.86l9.74-2.64c.65-.17 1.03-.84.86-1.49zm-7.46-5.63h.02c.05-.02.11-.03.17-.04h.05s.05.11.03.16c-.06 0-.13 0-.19-.02-.03 0-.06-.02-.08-.05 0-.01-.01-.02-.01-.03zm-.49-.2l-.02.02s-.06-.01-.08-.03a.345.345 0 0 1-.12-.12s.08-.07.14-.07.02.02.02.04c.03.04.05.09.07.14v.02zm-.7.09h-.14c-.17 0-.34-.05-.48-.15 0-.08.04-.16.12-.19h.01s.02 0 .03-.01.02 0 .03 0h.08s.03 0 .05.01h.02s.03.02.04.03c.02.01.03.02.05.03v.02s.03.01.03.02c.02.01.03.03.05.05s.06.06.1.08c.05.02.11.04.15.08-.05 0-.1.01-.15.02zm.33-.06s-.03.01-.05.01l-.11.03s-.09-.06-.14-.08c-.02 0-.04-.02-.06-.03h-.01s-.05-.06-.05-.1c0-.03 0-.07.03-.09h.01l.04-.04h.04c.04 0 .07.02.1.04.01 0 .02.02.03.03a.2.2 0 0 0-.08-.12.35.35 0 0 0-.14-.06c-.04 0-.09 0-.12.04-.03.03-.05.08-.03.12a.364.364 0 0 0-.29-.04c-.07.02-.12.08-.14.15s0 .03 0 .05-.01.04 0 .06c0 .04-.01.12-.02.22 0 .05 0 .09-.02.12-.02.05-.04.1-.07.15a.49.49 0 0 1-.13.12s-.04.03-.06.04-.02.01-.03.01c-.01 0-.02 0-.03.01-.15.02-.31.02-.46 0-.21-.02-.4-.04-.55-.07s-.38-.08-.71-.16c-.41-.12-.82-.28-1.2-.47l-.73-.35.19.03.59.08c.42.06.83.09 1.25.09.22.01.44-.03.64-.13a.48.48 0 0 0 .16-.42v-.07a.628.628 0 0 0-.24-.43c-.02-.01-.03-.03-.05-.04l-.03-.02c-.45-.32-.95-.57-1.47-.74l1.12.14a4.09 4.09 0 0 0-.71-.67c.26.11.58.26.93.43.53.27.79.4.87.43h.01c.16.08.33.12.5.1s.03-.01.05-.02c.02 0 .03 0 .04-.02h.02s.03-.02.04-.03l.02-.02c.01-.01.02-.02.03-.04l.03-.06v-.02c.08-.28.08-.58 0-.87-.06-.37-.18-.72-.37-1.05.19.2.37.41.53.63.13.17.26.36.37.55.17.3.33.57.47.79.08.12.15.25.22.39.02.08 0 .18-.04.25-.06.07-.14.12-.24.12.09.04.16.11.22.19.05.07.08.16.1.24.02.09.02.18 0 .27 0 .04-.02.07-.04.1-.05 0-.1.02-.13.06l-.02.02-.03.04s-.05.08-.08.12zm.36.05s-.02.06-.04.07c-.07 0-.14-.03-.2-.07-.02-.01-.04-.02-.05-.03-.01 0-.02-.01-.04-.02l.02-.03s.02-.04.02-.05a.21.21 0 0 1 .04-.06c0 .02.02.04.04.05h-.02v.02h.03l.09.06h.03s.03.02.05.02h.02v.04zm.7.41s-.03 0-.05-.01a.163.163 0 0 1-.06-.03c-.12-.05-.18-.09-.19-.12s0-.05.03-.08c0-.02.02-.03.04-.04v.03s.03.03.05.04c.01 0 .02 0 .03.02.04.02.08.03.13.03h-.01v.02h.03v-.02h.06l-.02.07s-.02.03-.02.05v.05zm.18.35s-.06-.09-.08-.14c.06.02.12.05.17.08.05.02.09.03.14.03h.13s.02 0 .03.01h.03c.02 0 .03 0 .05.02h.02l.04.04v.02h.02v.02l.03.03v.02l.03.03v.02c.03.09-.01.18-.09.23a.6.6 0 0 1-.25-.1.997.997 0 0 1-.21-.2c-.02-.03-.05-.07-.08-.12zm2.76 3.25c-.43-.19-.84-.43-1.23-.7-.3-.23-.49-.38-.62-.49s-.27-.25-.43-.42a2.31 2.31 0 0 1-.31-.39c0-.01-.01-.02-.02-.04 0-.01-.01-.02-.01-.04v-.08c0-.07 0-.14.03-.2.02-.06.05-.11.08-.16 0-.01.02-.03.03-.04s.04-.03.06-.06c.06-.06.12-.11.19-.16a.12.12 0 0 1 .05-.05l.03-.03c.05-.07.07-.15.04-.23a.345.345 0 0 0-.23-.21s.08-.07.09-.12v-.04c0-.03-.02-.06-.04-.09a.213.213 0 0 0-.15-.07c-.05-.01-.11 0-.16.01h.04c.04 0 .08.03.11.06 0 .01.01.03.02.04s0 .04 0 .06c0 .05-.03.08-.07.1-.03.03-.08.03-.12.02h-.01s-.05-.02-.07-.03a.774.774 0 0 0-.16-.07s-.04-.07-.05-.1c0-.02-.01-.04-.02-.06s.03-.1.05-.15c0-.02.01-.03.02-.05v-.02c.02-.06 0-.12-.04-.17s.03-.07.06-.1a.69.69 0 0 1 .24-.18.9.9 0 0 1 .28-.08c.11-.01.22 0 .31.06a.35.35 0 0 1-.05-.28c.03-.09.1-.17.19-.2.11-.03.23-.05.34-.06.04 0 .09-.01.16-.02.29-.03.63-.08 1.01-.14.23-.03.48-.05.73-.06.3-.01.61 0 .91.02-.41.07-.81.2-1.18.4-.3.13-.57.33-.77.59s-.03.06-.03.08-.01.04-.01.06v.1s.02.04.02.05v.04l.02.02c.1.16.25.28.42.36h.01c.08.05.38.18.97.45.4.18.74.34 1.02.49-.35-.08-.71-.13-1.08-.14l.88.85c-.51-.32-1.06-.57-1.65-.73H11.65a.679.679 0 0 0-.54.08c-.02.01-.04.03-.06.05-.15.1-.24.26-.26.43.05.24.16.46.32.64.08.1.17.21.28.33.18.2.39.42.64.66l.47.44.16.15-.8-.38z"/><path id="d" class="f" d="M27.76 4.97L18.9.15c-.59-.32-1.33-.1-1.66.49L16.5 2l11.01 5.99.74-1.37c.32-.59.1-1.33-.49-1.66z"/><path id="e" class="f" d="M13.39 7.72l3.11 11.5 2.71 1.47c.59.32 1.33.1 1.65-.49l6.46-11.87-11.01-5.98-2.92 5.37zm5.06 1.8h.01s.02.01.03.02h.02s.02.03.02.04h.02v.02h.01l.03.05s.01.05.01.06c0 .01.01.03.01.05v.13c0 .05 0 .1.02.14.03.05.05.1.06.16s-.08-.06-.12-.08a1.03 1.03 0 0 1-.35-.52c.05-.07.14-.1.22-.06zm2.15 1.77c.09-.05.19-.05.28-.01.14.08.28.18.41.28.24.18.52.38.83.61a7.662 7.662 0 0 1 1.22 1.11c-.35-.24-.73-.41-1.13-.52-.31-.11-.64-.15-.97-.11s-.05.02-.07.03-.04.02-.05.03h-.02s-.02.03-.03.05l-.02.02-.02.05s-.01.03-.02.04c-.04.2-.02.39.05.57v.02c.03.08.16.39.4.99.16.4.3.76.39 1.05-.19-.3-.42-.59-.68-.85l.05 1.23a5.93 5.93 0 0 0-.68-1.67s-.02-.03-.03-.04c-.01-.02-.02-.04-.04-.05a.717.717 0 0 0-.45-.31h-.08a.56.56 0 0 0-.48.13c-.13.21-.2.44-.2.67-.04.45-.04.91-.02 1.36l.03.65v.21l-.3-.83c-.18-.44-.31-.89-.41-1.35-.06-.37-.09-.62-.11-.78-.02-.2-.02-.4-.02-.6 0-.17 0-.34.04-.5 0-.01 0-.02.01-.03 0-.01.01-.03.01-.04s.03-.05.04-.07c.04-.05.09-.09.15-.12.05-.03.11-.05.17-.06h.5c.08-.01.15-.06.19-.14.04-.1.03-.22-.03-.32h.01s.1.02.14-.01c.04-.03.06-.08.06-.13 0-.06-.02-.11-.05-.16a.294.294 0 0 0-.12-.1c.01 0 .02.02.03.03.02.03.04.07.03.12v.04s-.02.04-.03.05-.07.04-.11.03c-.04 0-.08-.03-.1-.07s-.03-.05-.04-.08a.348.348 0 0 0-.07-.15s.02-.08.04-.12c0-.02.02-.03.03-.05s.09-.05.14-.08c.02 0 .04-.02.05-.03s.01 0 .02 0 .08-.09.08-.15.07-.04.12-.04c.1 0 .2 0 .3.04.09.03.18.08.26.13a.7.7 0 0 1 .19.26c.01-.1.07-.19.16-.24zm-1.59-.95h.02s0 .08.02.12v.03a.274.274 0 0 0 .07.05l-.03.03c-.04.02-.06.03-.08.02a.372.372 0 0 1-.09-.19s0-.03-.02-.06c0-.02 0-.03-.01-.04s.02 0 .03 0h.01s.03-.01.04-.01c.02 0 .05-.01.07-.02v.06h-.03v.02zm.31.73s0 .02.01.03c.02.04.04.08.07.11h-.01v.03h.02s.03.02.05.03c-.02 0-.05.02-.07.03-.02 0-.03.01-.04.02h-.01l-.03.02s-.01-.03-.02-.04l-.03-.06c-.05-.12-.07-.19-.06-.22s.04-.04.08-.04h.05v.09zm.03-.08h.03c.05.03.11.06.15.09.01 0 .03.02.04.03 0 .06-.04.11-.09.14a.47.47 0 0 1-.13-.15c-.01-.03-.02-.06-.02-.1v-.02h.01zm-.05.75s.04.08.08.12.03.04.05.06c0 0 .02.01.02.02h.02v.02s.02.04.02.06c.01.01.02.03.02.04v.02s.01.04.01.05V12.24l-.02.02v.02c-.04.08-.14.13-.23.11a.751.751 0 0 1-.12-.53c0-.05.01-.1.02-.15 0-.05.02-.11.03-.16.04.06.06.12.08.18zm-.1-1.4c-.01.05-.03.1-.05.15h-.01v.02h-.03s-.03-.06-.04-.09a.248.248 0 0 1 0-.17c.05 0 .11 0 .15.04s0 .03 0 .05zm-2.34-2.27c.15.16.34.28.55.35.16 0 .3-.07.4-.18s.03-.04.05-.05c.1-.14.15-.31.12-.47v-.06-.04a5.31 5.31 0 0 0-.55-1.55l.72.88c.03-.33.01-.65-.04-.97.11.26.24.58.37.96.2.56.3.84.33.92.06.17.16.32.3.43h.01s.03.02.04.03c.02 0 .03.01.05.02h.02s.03.01.05.01h.08l.06-.03h.01c.25-.16.46-.38.6-.63.21-.31.37-.65.46-1 0 .27-.02.54-.06.81-.03.22-.06.44-.12.65-.08.33-.15.63-.2.89-.03.15-.07.29-.11.43-.04.08-.11.14-.2.16a.33.33 0 0 1-.25-.08c.03.09.04.19.03.28-.02.09-.05.17-.1.24-.04.08-.1.15-.18.2-.03.02-.06.04-.1.04s-.09-.05-.14-.05h-.08l-.14.03s-.03 0-.05-.02l-.09-.06c0-.06-.02-.11-.04-.15 0-.02-.01-.04-.02-.06v-.02s0-.07.02-.1.05-.04.09-.05h.01s.03 0 .05.01.02.02.03.03c.03.03.05.06.05.1v.04c.02-.04.03-.09.02-.14 0-.05-.02-.1-.06-.14a.166.166 0 0 0-.12-.05c-.04 0-.08.03-.1.07a.355.355 0 0 0-.17-.23.232.232 0 0 0-.2.01l-.03.03s-.03.02-.05.03c-.03.03-.09.08-.17.14-.03.03-.06.05-.1.08-.04.03-.1.05-.15.06-.06.01-.12.01-.18 0s-.05-.01-.07-.02h-.01l-.03-.02s-.02-.01-.03-.02c-.12-.1-.24-.2-.34-.32-.12-.14-.24-.28-.35-.43-.09-.12-.22-.32-.4-.61-.22-.37-.4-.76-.54-1.17l-.29-.76.12.16.37.47c.26.33.55.64.85.93z"/></svg>
