<svg xmlns="http://www.w3.org/2000/svg" viewBox="0 0 61.88 38.63"><path d="M6.49 35.83c3.73 3.73 9.78 3.74 13.51 0 .89-.89 1.59-1.94 2.07-3.1 4.71 4.9 12.5 5.05 17.39.34.11-.11.23-.22.34-.34 2.02 4.87 7.62 7.19 12.49 5.16a9.38 9.38 0 0 0 3.09-2.07c3.73-3.73 6.49-20.01 6.49-20.01s-14.06 2.38-19.04 5.72C40.66 13.7 30.94 0 30.94 0s-9.73 13.7-11.9 21.54C14.06 18.2 0 15.82 0 15.82s2.76 16.27 6.49 20.01zm42.67-9.32c1.9-1.87 4.11-3.4 6.54-4.51a22.034 22.034 0 0 1-11.05 11.05c1.11-2.43 2.64-4.64 4.51-6.54zM30.94 11.27a28.35 28.35 0 0 1 0 20.16 28.35 28.35 0 0 1 0-20.16zM17.23 33.05C12.32 30.85 8.38 26.91 6.18 22c4.91 2.21 8.84 6.14 11.05 11.05z" fill="#573e22"/></svg>
