<svg xmlns="http://www.w3.org/2000/svg" viewBox="0 0 35.49 38.31"><path d="M35.48 10.56C35.48 4.73 30.76 0 24.93 0H10.56C4.73 0 0 4.73 0 10.56v5.67c0 5.83 4.73 10.56 10.56 10.56h7.13c2.62.13 6.26.63 8.71 2.29 4.56 3.08 9.09 9.23 9.09 9.23V16.68h-.02c0-.14.02-.29.02-.45v-5.67zM9.36 15.24c-1.25 0-2.27-1.02-2.27-2.27s1.02-2.27 2.27-2.27 2.27 1.02 2.27 2.27-1.02 2.27-2.27 2.27zm8.35 0c-1.25 0-2.27-1.02-2.27-2.27s1.02-2.27 2.27-2.27 2.27 1.02 2.27 2.27-1.02 2.27-2.27 2.27zm7.86 0c-1.25 0-2.27-1.02-2.27-2.27s1.02-2.27 2.27-2.27 2.27 1.02 2.27 2.27-1.02 2.27-2.27 2.27z" fill="#573e22"/></svg>
