<svg xmlns="http://www.w3.org/2000/svg" id="a" viewBox="0 0 39 39"><defs><style>.f{fill:#573e22}</style></defs><g id="b" transform="translate(95.674 61.758)"><path id="c" class="f" d="M24.92 11.13c-3.4-2.2-7.8-2.13-11.12.19a5.38 5.38 0 0 1 4.41.65 5.555 5.555 0 0 1 1.54 7.7 5.023 5.023 0 0 0-.72 3.7c.24 1.26.99 2.36 2.06 3.06.75.49 1.64.75 2.54.75 1.57-.01 3.04-.76 3.98-2.02l.2-.27.06.05h.01c2.98-4.64 1.66-10.81-2.96-13.8zm-.04 11.85c-.36.55-1.09.71-1.64.35-.55-.36-.71-1.09-.35-1.64.36-.55 1.09-.71 1.64-.35.55.35.71 1.09.36 1.64z"/><path id="d" class="f" d="M20.72 26.99a5.404 5.404 0 0 1-2.36-3.49c-.29-1.45 0-2.96.82-4.2 1.5-2.24.9-5.26-1.33-6.76-.76-.49-1.64-.75-2.54-.75-1.68 0-3.24.86-4.15 2.27v.02h-.02c-3 4.63-1.68 10.81 2.94 13.8 1.61 1.05 3.5 1.6 5.42 1.61.26 0 .51-.01.76-.03.04 0 .07-.01.11-.01.22-.02.45-.04.66-.08.04 0 .07-.01.09-.01 1.54-.25 3-.86 4.26-1.78-1.56.51-3.27.3-4.65-.58zm-4.58-9.67c-.36.55-1.09.71-1.64.36-.55-.36-.71-1.09-.36-1.64.36-.55 1.09-.71 1.64-.36.54.36.7 1.09.35 1.64z"/></g><path id="e" class="f" d="M27.58 0H11.43L0 11.42v16.16L11.43 39h16.15L39 27.58V11.42L27.58 0zm1.66 4.34c.19-.2.51-.21.71-.02l4.62 4.62c.19.21.18.53-.03.72-.2.18-.5.18-.7 0l-4.62-4.61c-.19-.2-.19-.52.01-.72zm4.97 11.82v6.53c0 .28-.22.5-.5.5h-.02c-.28 0-.51-.22-.51-.5v-6.53a.515.515 0 0 1 1.03 0zM28.03 5.54c.19-.2.51-.2.71-.01l4.62 4.62c.19.21.18.54-.03.73-.2.18-.5.18-.7 0l-4.62-4.62a.513.513 0 0 1 0-.71zm4.48 10.61v6.53a.515.515 0 0 1-1.03 0v-6.53a.515.515 0 0 1 1.03 0zm-5.68-9.41c.19-.2.51-.21.71-.02l4.62 4.62c.19.2.19.51 0 .71-.19.21-.52.22-.72.02l-4.61-4.61c-.2-.2-.19-.51 0-.71h.01zm-1.21 1.19c.19-.2.52-.21.72-.01l4.61 4.62c.2.21.19.53-.02.73-.2.19-.51.19-.71 0l-4.61-4.62a.526.526 0 0 1 0-.72zm4.7 11.55c0 5.98-4.85 10.82-10.83 10.82S8.67 25.45 8.67 19.47 13.52 8.65 19.5 8.65s10.82 4.85 10.82 10.83zM16.16 1.38h6.53c.28 0 .52.23.52.52s-.23.52-.52.52h-6.53c-.28 0-.52-.23-.52-.52s.23-.52.52-.52zm0 1.7h6.53c.29.02.5.26.48.55-.02.26-.22.47-.48.48h-6.53c-.29 0-.52-.23-.52-.52s.23-.52.52-.52zm0 1.71h6.53a.515.515 0 0 1 0 1.03h-6.53a.515.515 0 0 1 0-1.03zm0 1.7h6.53a.515.515 0 0 1 0 1.03h-6.53a.515.515 0 0 1 0-1.03zm-2.89 1.57c.2.19.21.5.03.71l-4.62 4.62a.52.52 0 0 1-.73-.04.508.508 0 0 1 0-.69l4.61-4.61c.2-.19.51-.19.71 0zm-1.2-1.2c.2.19.2.51.01.71l-4.62 4.62a.51.51 0 0 1-.73-.02.513.513 0 0 1 0-.71l4.61-4.62c.2-.19.52-.19.72.02zm-4.55 9.46v6.53a.515.515 0 0 1-1.03 0v-6.53a.515.515 0 0 1 1.03 0zm3.34-10.66c.2.19.21.51.01.72L6.25 11a.52.52 0 0 1-.73-.03.521.521 0 0 1 0-.7l4.61-4.62c.2-.2.52-.19.72.01zM5.81 16.32v6.53c0 .28-.22.5-.5.5H5.3c-.28 0-.51-.22-.52-.5v-6.53c0-.28.23-.5.51-.5s.51.21.51.49zM2.4 22.86a.515.515 0 0 1-1.03 0v-6.53a.515.515 0 0 1 1.03 0v6.53zm1.7 0a.515.515 0 0 1-1.03 0v-6.53a.515.515 0 0 1 1.03 0v6.53zm.21-13.79l4.62-4.62a.52.52 0 0 1 .73.04c.18.2.18.5 0 .69L5.05 9.8a.52.52 0 0 1-.73-.04c-.18-.2-.18-.5 0-.69zm5.44 25.62c-.19.2-.51.21-.71.02l-4.62-4.62c-.2-.2-.19-.52 0-.71.2-.2.52-.21.72-.01l4.62 4.62c.19.2.19.51 0 .71zm1.21-1.19c-.19.2-.52.21-.72.01l-4.61-4.62a.52.52 0 0 1 .03-.73c.2-.18.5-.18.7 0l4.62 4.62c.19.2.19.52-.01.72zm1.2-1.2c-.2.2-.52.21-.72.01l-4.62-4.62a.52.52 0 0 1 .03-.73c.2-.18.5-.18.7 0l4.61 4.61c.19.2.19.51 0 .71zm1.2-1.19c-.19.2-.51.21-.71.02l-4.62-4.62a.51.51 0 0 1 .02-.73c.2-.19.51-.19.71 0l4.62 4.62c.19.2.19.51 0 .71h-.01zm9.46 6.58h-6.53a.514.514 0 1 1 .01-1.03h6.53c.28 0 .52.23.51.52 0 .28-.23.51-.51.51zm0-1.7h-6.53a.522.522 0 0 1-.49-.54c.01-.27.23-.48.49-.49h6.53a.515.515 0 0 1 0 1.03zm-7.03-2.22c0-.28.21-.51.48-.52h6.54c.28 0 .52.23.51.52 0 .28-.23.51-.51.51h-6.53a.49.49 0 0 1-.48-.52zm7.03-1.19h-6.53c-.28 0-.52-.23-.51-.52 0-.28.23-.51.51-.51h6.53c.28 0 .52.23.51.52 0 .28-.23.51-.51.51zm2.89-1.57a.495.495 0 0 1-.01-.71l4.62-4.62c.2-.19.51-.19.71 0 .2.2.21.52.01.72l-4.62 4.62c-.2.18-.51.17-.7-.03h-.01zm1.2 1.21c-.2-.2-.2-.52 0-.71l4.61-4.62a.52.52 0 0 1 .73.03c.18.2.18.5 0 .7l-4.6 4.61c-.2.19-.53.19-.72-.02h-.01zm1.2 1.21c-.2-.2-.2-.52 0-.71l4.61-4.61a.52.52 0 0 1 .73.03c.18.2.18.5 0 .7l-4.6 4.61c-.2.19-.52.19-.72-.01h-.02zm6.54-3.39l-4.6 4.61a.51.51 0 0 1-.73-.02.513.513 0 0 1 0-.71l4.62-4.62a.52.52 0 0 1 .73.03c.18.2.18.5 0 .7h-.01zm.73-6.76c-.28 0-.51-.21-.51-.48v-6.55a.515.515 0 0 1 1.03 0v6.53c0 .27-.22.49-.5.5h-.02zm2.22-.5a.515.515 0 0 1-1.03 0v-6.53a.515.515 0 0 1 1.03 0v6.53z"/></svg>
