<svg xmlns="http://www.w3.org/2000/svg" viewBox="0 0 103.02 98.89" overflow="visible"><path d="M103.02.36a85.901 85.901 0 0 0-55.37 13.99C27.32 28.03 28.33 46.78 28.33 46.78a76.118 76.118 0 0 1-5.26-11.33c-10.15 19.01-9.46 28.9-7.39 35.37 51.18-56.38 72.95-60 72.95-60-26.25 19.58-69 63.83-72.64 67.61C5.8 89.47 1.07 95.6.96 95.74c-.13.18-.23.38-.29.6H.65l-.02.08v.03L0 98.89l3.3-.19.06-.03.13-.06v-.03c.23-.12.44-.28.61-.48.1-.14 4.43-5.79 13.91-16.1l2.89-2.78c6.32 1.08 25.04 2.01 48.11-17.93-7.56.27-15.11-.72-22.34-2.92 0 0 26.42-.64 29.67-2.79s12.09-16.84 12.09-16.84l-16.35-2.77s17.45-1.22 20.29-4.07C95.21 29.05 103.02.36 103.02.36z" fill="#5cbdbf"/></svg>
