<svg xmlns="http://www.w3.org/2000/svg" viewBox="0 0 32.61 21.49" overflow="visible"><path d="M30.83 0H1.78C.8 0 0 .8 0 1.78v14.4c0 .99.8 1.78 1.78 1.78h3.35l-.61 3.52 6.22-3.52h20.08c.99 0 1.78-.8 1.78-1.78V1.78C32.61.8 31.81 0 30.83 0zM11.42 12.61h-.9l-3.5-5.23v5.22h-.84V5.96h.9l3.49 5.22V5.96h.84v6.65zm6.45 0h-4.96V5.96h4.81v.78h-3.93v2.04h3.68v.78h-3.68v2.26h4.08v.79zm7.34 0h-.85l-1.4-5.07c-.12-.42-.19-.68-.21-.78-.07.31-.13.57-.19.78l-1.41 5.07h-.9l-1.76-6.65h.9l1.01 4.36c.11.46.2.91.28 1.36.17-.71.27-1.12.3-1.23l1.27-4.49h1.06l.95 3.37c.24.83.41 1.62.52 2.35.08-.42.2-.9.33-1.45l1.04-4.27h.88l-1.82 6.65z" fill="#9e4024"/></svg>
