<svg xmlns="http://www.w3.org/2000/svg" viewBox="0 0 134.29 117.63" overflow="visible"><style>.st0{fill:#5db530}.st1{fill:#fff}</style><path class="st0" d="M93.94 91.93a239.62 239.62 0 0 1-29.6 20.17c-1.01.57-2.1 1.05-3.25 1.56-.59.26-1.17.52-1.78.81-.07.03-.24.06-.43.09-.13.02-.27.04-.41.07-.68.06-.87-.08-.88-.08s-.14-.21-.03-.92c.1-.72.22-1.43.33-2.13.22-1.33.44-2.72.57-4.08.21-1.6.21-3.17.21-4.7 0-1.79-.92-3.24-2.76-4.31-1.83-1.03-3.79-1.36-5.69-1.67-14.29-2.42-25.64-8.04-34.68-17.17-6.56-6.69-10.6-14.39-11.99-22.91C2.11 47.81 3.5 39.62 7.8 31.6c4.57-8.58 11.5-15.32 21.19-20.59C36.85 6.75 45.44 4.18 54.5 3.4c1.39-.12 2.79-.2 3.94-.27.8-.05 1.49-.09 1.99-.13 13.94.11 25.34 3.06 35.88 9.29 8.53 5.03 14.93 11.56 19.04 19.42 3.98 7.38 5.47 15.26 4.43 23.41 0 .03-.01.07-.02.1l2.62 2.62c.14-.78.27-1.56.37-2.35 1.12-8.78-.48-17.26-4.76-25.19-4.37-8.35-11.15-15.27-20.17-20.6C86.81 3.19 74.91.11 60.38 0h-.07l-.07.01c-.49.04-1.18.08-1.99.13-1.18.07-2.59.15-4.02.27-9.48.82-18.46 3.51-26.69 7.98C17.33 13.94 10 21.08 5.15 30.19.53 38.8-.96 47.62.59 57.14c1.49 9.15 5.8 17.39 12.81 24.51 9.5 9.6 21.38 15.5 36.32 18.02 1.72.29 3.34.56 4.69 1.32 1.04.61 1.25 1.12 1.25 1.7 0 1.49 0 2.9-.19 4.36-.13 1.32-.33 2.59-.55 3.94-.12.72-.24 1.45-.34 2.18-.22 1.46.06 2.62.82 3.42.65.68 1.57 1.03 2.74 1.03.21 0 .44-.01.67-.04l.14-.02c.12-.02.24-.04.35-.06.37-.05.83-.12 1.3-.36.55-.26 1.12-.51 1.68-.76 1.17-.52 2.38-1.05 3.53-1.7 10.5-6.06 20.59-12.93 29.98-20.42 5.97-4.72 10.77-9.22 14.79-13.88h-4.03c-3.52 3.85-7.64 7.61-12.61 11.55z"/><path class="st0" d="M75.27 35.18c-1.6.4-2.4 1.6-2.4 3.5v14.1h-.2c-.2-.2-.3-.4-.5-.7-3.7-5.1-7.5-10.1-11.2-15.2-.2-.3-.5-.6-.7-.9-1-.9-2.3-1.1-3.5-.5-1.3.7-1.8 1.8-1.8 3.2v23.5c0 1.4.8 2.6 2.1 3 2.1.7 4.1-.8 4.2-3.1v-13.5-1.1c.3.4.5.7.7.9 2.2 2.9 4.3 5.9 6.5 8.8 1.6 2.2 3.3 4.5 4.9 6.7 1.1 1.5 2.8 1.9 4.4.9 1.1-.7 1.4-1.8 1.4-3.1v-23.1c0-.3 0-.7-.1-1-.3-1.7-2.1-2.8-3.8-2.4zM98.17 65.38c2 0 3.4-1.3 3.4-3.1s-1.4-3.1-3.4-3.1h-8.5v-5.6h6.5c1 0 1.9 0 2.9-.1 1.6-.3 2.7-1.9 2.4-3.5-.3-1.7-1.5-2.6-3.4-2.7h-8.4v-5.7h8.2c.4 0 .9 0 1.3-.1 1.5-.4 2.5-1.8 2.3-3.3-.2-1.7-1.5-2.9-3.3-2.9h-11.6c-2 0-3.3 1.3-3.3 3.4v23.3c0 2.2 1.3 3.4 3.5 3.4h11.4zM38.07 59.28h-3.2c-1.8-.1-3.7-.1-5.6-.1v-1-19.5c0-2-1.3-3.4-3.1-3.4s-3.2 1.3-3.2 3.3v23.7c0 2 1.4 3.2 3.3 3.3h11.8c1.8 0 3.2-1.4 3.1-3.2 0-1.7-1.4-3-3.1-3.1zM50.37 46.78v-8.5c0-1.5-.9-2.5-2.2-2.9-2.2-.6-4 .9-4 3.4v23c0 .4 0 .9.1 1.3.3 1.4 1.7 2.3 3.1 2.3 1.4 0 2.7-1 3-2.4.1-.5.1-.9.1-1.4-.1-3.7-.1-7.4-.1-11.2v-3.6z"/><path class="st1" d="M107.02 79.9c-.15.17-.3.33-.45.5h4.03c.14-.17.28-.33.42-.5h-4zM118.54 61.01c-.21.71-.43 1.41-.69 2.11.23 0 .46-.01.69-.01v-2.1zM119.67 55.83l2.61 2.61c.04-.2.07-.4.11-.6l-2.62-2.62c-.03.2-.07.4-.1.61zM119.58 56.44l2.57 2.57c.04-.19.09-.38.13-.57l-2.61-2.61-.09.61z"/><path class="st1" d="M119.04 63.6v-4.47c-.15.63-.32 1.25-.5 1.87v2.09c-.23 0-.46.01-.69.01-.06.17-.13.34-.19.5.29-.01.58-.02.88-.02h.5zM107.48 79.4c-.15.17-.3.33-.45.5h4c.14-.17.28-.33.42-.5h-3.97z"/><path class="st0" d="M97.7 71.54l.06-.06c5.92-5.42 12.78-8.04 20.82-8.04v-7.85l15.71 15.71L118.58 87v-7.85h-15.71c-3.68 0-6.86 1.12-9.72 3.37-2.87 2.24-4.67 5.17-5.49 8.66.81-7.92 4.12-14.4 10.04-19.64z"/></svg>
