<svg xmlns="http://www.w3.org/2000/svg" viewBox="0 0 316.55 211.41" overflow="visible"><style>.st0{fill:none}.st1{fill:#eb6100}</style><path class="st0" d="M156.91 79.29c-21.17 0-40.02 10.09-52.01 25.71h104.02c-11.99-15.61-30.84-25.71-52.01-25.71zM156.91 210.41c20.38 0 38.62-9.35 50.65-23.99h-101.3c12.03 14.64 30.27 23.99 50.65 23.99z"/><path class="st1" d="M156.91 79.29c21.17 0 40.02 10.09 52.01 25.71h1.27c-12.15-16.21-31.51-26.71-53.28-26.71S115.78 88.8 103.63 105h1.27c12-15.61 30.84-25.71 52.01-25.71zM156.91 210.41c-20.38 0-38.62-9.35-50.65-23.99h-1.27c12.21 15.22 30.94 24.99 51.92 24.99s39.72-9.77 51.92-24.99h-1.27c-12.03 14.64-30.26 23.99-50.65 23.99z"/><g><path class="st1" d="M40.23 119.08l-8.5-5.42c-.67 3.99-1.3 7.67-1.9 11.05l-8.36-1.41c.99-3.21 2.21-7.83 3.68-13.84l-9.54-6.09-6.29 9.85L3 109.18l6.29-9.85L0 93.41l4.23-6.62 40.22 25.67-4.22 6.62zm11.46-18.44c-1.76 2.76-3.61 4.23-5.54 4.41-1.93.18-4.66-.86-8.17-3.1L7.16 82.28l4.23-6.62 12.29 7.84c-.09-3.45-.39-7.34-.89-11.67l8.65-.86c-.02 5.1-.34 10.72-.95 16.87l11.81 7.54c1.25.8 2.09 1.21 2.52 1.24.43.03.87-.3 1.31-1l2.2-3.44c.46-.73.2-1.59-.8-2.59-.9-.9-3.09-2.56-6.57-4.99 1.06-.38 2.26-1.01 3.59-1.88 1.29-.81 2.33-1.6 3.11-2.37 4.26 3.13 6.95 5.74 8.06 7.84 1.15 2.29.92 4.71-.71 7.27l-3.32 5.18zM68.69 81.17L43.41 40.88l38.15-23.93 25.28 40.29-6.96 4.37-1.48-2.37-24.58 15.42 1.48 2.37-6.61 4.14zm1.42-12.42l24.57-15.41-16-25.5-24.56 15.42 15.99 25.49zm.46-5.97l-10.8-17.21 18.48-11.59 10.8 17.21-18.48 11.59zm2.57-9.24l6.09-3.82-3.9-6.22-6.09 3.82 3.9 6.22zM124.01 52.27l-3.83-33.54c.21 4.52-.14 8.2-1.03 11.05l-5.02-1.56c.54-1.62.87-3.78.98-6.46.11-2.41.03-4.88-.22-7.42l4.8.08-1.25-10.94 7.19-.82.99 8.63 2.3-1.3c2.14 2.98 3.62 5.69 4.42 8.13l9.35-1.07-.16-1.44-8.27.95-.58-5.03 8.27-.95-.15-1.34-10.17 1.16-.6-5.29 10.17-1.16-.35-3.03 7.99-.92.35 3.03 10.27-1.17.6 5.29-10.27 1.17.15 1.34 9.19-1.05.58 5.03-9.19 1.05.17 1.44 11.97-1.37.65 5.7-31.95 3.65-.45-3.9-1.75 1.03c-.36-1.31-1.01-2.94-1.96-4.88l4.01 35.08-7.2.83zm14.33-1.64l-2.88-25.17 25.38-2.9 2.08 18.18c.18 1.61.15 2.86-.09 3.76-.27 1-.87 1.8-1.81 2.39-.84.58-1.93 1.04-3.28 1.36-1.02.22-2.48.44-4.4.66-.57-2.23-1.46-4.29-2.69-6.2 1.93-.08 3.39-.23 4.37-.45.58-.07.85-.34.79-.82l-.35-3.03-11.25 1.29 1.16 10.12-7.03.81zm5.21-16.83l2.36-.27-.38-3.34-2.36.27.38 3.34zm8.78-1l2.47-.28-.38-3.34-2.47.28.38 3.34zM201.83 57.39c-.22-1.82-.68-3.67-1.38-5.55l-1.52 4.45-6.8-2.32 1.2-3.52c-7.42-1.95-12.59-3.3-15.5-4.04l1.63-6.22c.1.03.25.08.44.15 1.55.46 2.78.81 3.69 1.04l4.78-13.99-3.62-1.24 1.91-5.58 44.08 15.06-1.91 5.58-22.16-7.57-5.78 16.93c2.23-.04 4.47-.39 6.7-1.05-.83-2.25-1.42-4.86-1.76-7.81l4.07.24-4.55-1.55 1.82-5.33 14.38 4.91 1.24.21 3.85 3.12c-2.7 4.07-5.88 7.24-9.54 9.53 1.81 2.15 4.12 4.08 6.92 5.81-.9.39-1.96 1-3.2 1.86-1.14.78-2.09 1.53-2.85 2.25-2.88-2.01-5.26-4.33-7.12-6.97-2.71.88-5.72 1.42-9.02 1.6zm-11.66-14.15l5.14 1.43.43-1.27-5.04-1.72-.53 1.56zm2.17-6.36l5.04 1.72.45-1.32-5.04-1.72-.45 1.32zm.46-15.57l5.28-15.46L230.71 17l-5.28 15.46-32.63-11.15zm1.63 9.46l5.04 1.72.4-1.17-5.04-1.72-.4 1.17zm6.69-11.59l18.69 6.38.42-1.22-18.69-6.38-.42 1.22zm1.84-5.38l18.69 6.38.4-1.17-18.69-6.38-.4 1.17zm10.41 33.16c1.2-.75 2.34-1.64 3.42-2.66l-4.65-1.59c.19 1.28.6 2.69 1.23 4.25zM236.15 74.33l-2.03-7.69c5.61-1.85 11.26-4.13 16.96-6.85l1.4 7.15c-5.26 2.66-10.7 5.13-16.33 7.39zm27 26.88c-2.14-3.49-3.18-6.96-3.12-10.42L258.08 93c-2.9-2.01-6.88-4.87-11.95-8.56l3.12-5.04 2.03 1.62 3.87-3.96-1.26-1.23c-3.96 2.87-7.67 4.65-11.12 5.32-.06-.78-.25-1.88-.59-3.28-.33-1.41-.66-2.51-.99-3.32 4.86-.89 10.23-4.34 16.11-10.35l4.37-4.47 23.45 22.9-3.72 3.81-18.79-18.35-.72.74a66.589 66.589 0 0 1-3.94 3.74l19.42 18.97-3.61 3.7-1.7-1.66.07 3.03c-1.71-.32-3.3-.69-4.77-1.11.65 1.55 1.51 3.07 2.58 4.54-.93-.04-2.07.07-3.43.33-1.29.23-2.41.51-3.36.84zm-9.83-43.58c-.01-1.12-.25-2.63-.71-4.53-.46-1.75-.99-3.4-1.59-4.95l6.82-1.07c1.7 3.64 2.66 6.75 2.89 9.33l-7.41 1.22zm3.32 27.46l3.69 2.81c.27-1.42.72-2.91 1.34-4.48l-1.74-1.7-3.29 3.37zm2.92-12.54l2.96-3.03 16.16 15.79-2.96 3.03-16.16-15.79zm5-23.02c-.01-1.17-.25-2.7-.71-4.6-.41-1.8-.92-3.5-1.52-5.1l6.82-.99c1.7 3.98 2.64 7.16 2.82 9.55l-7.41 1.14zm-1.49 9.97l11.27-11.54 6.03 5.89 2.24-2.29 4.14 4.05-2.24 2.29 1.59 1.55 2.24-2.29 4.22 4.12-2.24 2.29 6.25 6.1-11.27 11.54-22.23-21.71zm3.14 31.03c.68.14 1.76.3 3.22.47l-3.03-2.96c-.16.96-.22 1.79-.19 2.49zm4.33-29.73l1.55 1.52 1.26-1.29-1.55-1.52-1.26 1.29zm4.04-4.15l1.55 1.52 1.26-1.29-1.55-1.52-1.26 1.29zm1.65 9.71l1.59 1.55 1.26-1.29-1.59-1.55-1.26 1.29zm4.05-4.14l1.59 1.55 1.26-1.29-1.59-1.55-1.26 1.29zm1.76 9.81l1.55 1.52 1.26-1.29-1.55-1.52-1.26 1.29zm4.05-4.14l1.55 1.52 1.26-1.29-1.55-1.52-1.26 1.29zM278.62 122.06c-.75-1.59-.9-3.13-.43-4.63s1.45-2.61 2.95-3.32c1.46-.7 2.93-.75 4.41-.18 1.48.58 2.59 1.66 3.34 3.25s.89 3.14.4 4.65c-.49 1.51-1.46 2.61-2.92 3.3-1.49.71-2.97.77-4.43.19-1.46-.58-2.57-1.67-3.32-3.26zm11.61-9.05l13.85-8.92 7.62-3.96 4.85 10.23-7.89 3.4-15.66 5.08-2.77-5.83z"/></g><g><path class="st1" d="M88.92 154.54c-.14-1.47-.55-3.02-1.23-4.66 1.58.08 2.74.1 3.47.04.48 0 .72-.24.72-.72v-9.36c-.85.25-2.08.61-3.69 1.06-.14.03-.25.06-.34.08l-1.1-4.83c.71-.14 1.91-.42 3.6-.85.68-.17 1.19-.3 1.53-.38v-7.33h-4.45v-4.62h4.45v-7.96h4.58v7.96h3.86v4.62h-3.86v6.1l3.43-.97.64 4.53c-1.81.57-3.16.97-4.07 1.23v10.72c0 1.19-.11 2.12-.34 2.8-.25.68-.69 1.21-1.31 1.61-1.08.67-3.04.98-5.89.93zm14.44 0c-.96-1.16-2.16-2.27-3.6-3.35 2.71-1.89 4.63-4.28 5.76-7.16-1.04.45-2.6 1.06-4.66 1.82-.14.06-.24.1-.3.13l-1.91-4.36c1.78-.45 4.49-1.26 8.13-2.42.14-1.16.24-2.5.3-4.02h-5.85v-4.41h5.89v-4.36h-6.27v-4.53h6.27v-6.91h4.49v17.83c0 5.08-.45 9.11-1.36 12.07-1.22 4.05-3.53 7.27-6.89 9.67zm11.23-.04v-39.53h4.74v6.91h6.61v4.53h-6.61v4.36h6.19v4.41h-6.19v4.66h7.33v4.53h-7.33v10.12h-4.74zM140.86 154.58v-16.57c-1.36 1.3-2.51 2.34-3.47 3.14-1.41-2.01-2.56-3.46-3.43-4.36 2.2-1.5 4.35-3.37 6.44-5.63 2.15-2.32 3.88-4.66 5.21-7.03l4.83 1.86c-1.21 2.06-2.73 4.22-4.53 6.48v22.12h-5.05zm-3.65-26.48c-1.1-1.89-2.03-3.26-2.8-4.11 1.75-1.13 3.53-2.54 5.34-4.24 1.81-1.69 3.22-3.29 4.24-4.79l4.87 1.99c-1.52 1.98-3.35 3.98-5.46 5.99-2.12 2.03-4.18 3.75-6.19 5.16zm20.13 26.31c-.25-1.81-.76-3.52-1.52-5.13 2.57.14 4.56.17 5.97.08.71 0 1.06-.27 1.06-.81v-14.74h-12.5v-4.79h23.43v4.79h-5.8v14.87c0 1.41-.16 2.47-.47 3.18-.37.76-1 1.33-1.91 1.69-.82.34-1.95.58-3.39.72-1.07.1-2.7.14-4.87.14zm-5.21-32.24v-4.79h20.59v4.79h-20.59zM187.75 154.5v-15.84c-1.19 3.53-2.47 6.31-3.85 8.35-.45-1.36-1.19-2.84-2.2-4.45 1.16-1.61 2.27-3.77 3.35-6.48 1.02-2.57 1.79-5.14 2.33-7.71h-4.7v-4.66h5.08v-8.73h4.58v8.73h4.24v4.66h-4.24v2.08c.54.73 1.45 2.08 2.75 4.02 1.16 1.78 1.95 3.01 2.37 3.69l-2.63 3.6c-.54-1.33-1.37-3.09-2.5-5.3v18.05h-4.58zm10.64.16c-.57-1.3-1.5-2.57-2.8-3.81 2.88-1.04 4.94-2.57 6.19-4.58.99-1.61 1.61-3.93 1.86-6.95h-6.1v-4.15h8.85v-3.52h4.91v3.52h9.32v4.15h-12.2c-.06.54-.14 1.31-.25 2.33h10.51c-.03.57-.07 1.14-.13 1.74-.23 3.02-.47 5.23-.72 6.61-.31 1.5-.72 2.5-1.23 3.01-.68.79-1.67 1.26-2.97 1.4-1.24.14-2.88.17-4.91.08-.06-1.41-.47-2.81-1.23-4.19 1.38.11 2.63.17 3.73.17.62 0 1.06-.13 1.31-.38.45-.45.79-1.91 1.02-4.36h-6.31c-.68 2.03-1.68 3.76-3.01 5.17-1.46 1.52-3.41 2.78-5.84 3.76zm-1.27-20.75v-7.12h4.87c-.2-1.16-.54-2.44-1.02-3.86l1.27-.25h-4.62v-4.02h8.77v-3.69h4.91v3.69h9.32v4.02h-3.3c-.17.42-.41 1.03-.72 1.82-.4 1.07-.69 1.84-.89 2.29h5.3v7.03h-4.58v-3.14h-14.91v3.22h-4.4zm8.94-7.12h5.13c.45-1.3.82-2.67 1.1-4.11h-6.82c.56 1.44.95 2.77 1.14 3.98l-.55.13z"/></g><g><path class="st1" d="M91.64 178.92v-16.48h4.31c1.69 0 3 .33 3.93.98.97.68 1.45 1.69 1.45 3.02 0 .88-.22 1.63-.67 2.27-.45.64-1.09 1.08-1.94 1.32v.11c1.12.18 2 .6 2.63 1.27.67.7 1 1.6 1 2.72 0 1.54-.55 2.73-1.66 3.56-1.06.82-2.54 1.23-4.45 1.23h-4.6zm.84-9.17h2.97c3.33 0 4.99-1.09 4.99-3.27 0-1.18-.41-2.03-1.23-2.56-.77-.5-1.97-.75-3.61-.75h-3.13v6.58zm0 8.42h3.47c1.77 0 3.12-.32 4.06-.95 1-.68 1.5-1.69 1.5-3.04 0-1.23-.48-2.15-1.45-2.77-.95-.61-2.32-.91-4.11-.91h-3.47v7.67zM108.25 178.92v-16.48h.84v16.48h-.84zM116.35 178.92v-16.48h.84v15.73h7.72v.75h-8.56zM130.15 178.92v-16.48h.84v15.73h7.72v.75h-8.56zM143.95 178.92v-16.48h4.31c1.69 0 3 .33 3.93.98.97.68 1.45 1.69 1.45 3.02 0 .88-.22 1.63-.67 2.27-.45.64-1.09 1.08-1.94 1.32v.11c1.12.18 2 .6 2.63 1.27.67.7 1 1.6 1 2.72 0 1.54-.55 2.73-1.66 3.56-1.06.82-2.54 1.23-4.45 1.23h-4.6zm.84-9.17h2.97c3.33 0 4.99-1.09 4.99-3.27 0-1.18-.41-2.03-1.23-2.56-.77-.5-1.97-.75-3.61-.75h-3.13v6.58zm0 8.42h3.47c1.77 0 3.12-.32 4.06-.95 1-.68 1.5-1.69 1.5-3.04 0-1.23-.48-2.15-1.45-2.77-.95-.61-2.32-.91-4.11-.91h-3.47v7.67zM166.17 179.21c-1.97 0-3.57-.78-4.81-2.34-1.26-1.59-1.88-3.67-1.88-6.24s.63-4.64 1.88-6.2c1.23-1.53 2.83-2.29 4.81-2.29 1.98 0 3.59.76 4.81 2.29 1.26 1.56 1.88 3.62 1.88 6.2s-.63 4.65-1.88 6.24c-1.24 1.56-2.84 2.34-4.81 2.34zm-4.21-2.92c1.07 1.42 2.47 2.13 4.21 2.13 1.74 0 3.14-.71 4.21-2.13 1.07-1.42 1.6-3.31 1.6-5.65s-.53-4.21-1.6-5.61c-1.07-1.39-2.47-2.09-4.21-2.09-1.74 0-3.14.7-4.21 2.09s-1.6 3.26-1.6 5.61.53 4.22 1.6 5.65zM176.54 178.92l5.88-16.48h.75l5.9 16.48h-.91l-2.04-5.86h-6.67l-2.06 5.86h-.85zm3.15-6.58h6.17l-1.13-3.29c-.76-2.16-1.38-4.08-1.88-5.74h-.09c-.41 1.39-1.04 3.31-1.91 5.74l-1.16 3.29zM194.08 178.92v-16.48h4.56c3.54 0 5.31 1.42 5.31 4.24 0 1.3-.39 2.34-1.18 3.11-.76.74-1.83 1.18-3.22 1.32l4.65 7.81h-.98l-4.65-7.76h-3.65v7.76h-.84zm.84-8.49h3.43c3.13 0 4.7-1.25 4.7-3.75 0-1.24-.41-2.14-1.23-2.7-.76-.53-1.91-.79-3.47-.79h-3.43v7.24zM209.72 178.92v-16.48h3.7c2.48 0 4.35.75 5.61 2.25 1.19 1.41 1.79 3.39 1.79 5.95s-.59 4.55-1.77 5.97c-1.29 1.54-3.15 2.31-5.61 2.31h-3.72zm.84-.75h2.75c2.24 0 3.93-.71 5.06-2.13 1.04-1.3 1.57-3.1 1.57-5.4s-.52-4.08-1.57-5.36c-1.13-1.39-2.82-2.09-5.06-2.09h-2.75v14.98z"/></g></svg>
