<svg xmlns="http://www.w3.org/2000/svg" viewBox="0 0 52.73 82.37" overflow="visible"><path d="M52.73 40.44v.96c-.06.27-.16.53-.17.8-.17 2.84-1.31 5.25-3.28 7.24-9.86 9.92-19.73 19.83-29.65 29.69-3.61 3.59-9.33 4.24-13.7 1.75-6.72-3.83-7.92-12.84-2.41-18.4C10.23 55.72 16.97 49 23.7 42.26c.33-.33.63-.67 1.18-1.25-.46-.32-.87-.53-1.17-.83-6.79-6.79-13.6-13.56-20.35-20.39C.24 16.63-.69 12.75.5 8.53 1.69 4.3 4.55 1.59 8.84.47 9.6.27 10.38.16 11.15 0h.96c.22.07.44.17.67.19 2.85.27 5.23 1.5 7.24 3.51 9.67 9.68 19.36 19.34 28.97 29.08 1.19 1.21 2.04 2.81 2.83 4.35.51 1 .62 2.2.91 3.31z"/></svg>
