<svg xmlns="http://www.w3.org/2000/svg" viewBox="0 0 255.84 291.59" overflow="visible"><path d="M66.61 291.59c-2.39-.41-4.82-.66-7.16-1.25-11.97-3.02-21.61-9.36-27.92-20.21-3.36-5.78-4.93-12.08-4.94-18.77 0-51.72-.01-103.43.03-155.15 0-1.26-.3-1.73-1.59-1.98C9.86 91.2-.67 77.65.03 62.19c.68-14.97 12.41-27.64 27.2-29.36 1.23-.14 2.47-.22 3.7-.22 13.91-.02 27.81-.01 41.72-.01h1.71v-1.51c0-5.87.05-11.75-.02-17.62-.05-3.7 1.52-6.44 4.5-8.48 3.45-2.37 7.4-3.41 11.44-3.96 3.94-.54 7.94-.94 11.91-.96 17.1-.1 34.21-.06 51.31-.03 5.52.01 11.01.51 16.37 1.93 3.04.8 5.9 2.01 8.28 4.14 2.01 1.79 3.09 4.02 3.08 6.75-.02 6.03 0 12.07 0 18.1v1.65h1.57c14.19 0 28.37-.01 42.56 0 14.89.01 28.31 11.85 30.2 26.65 2.19 17.1-8.63 32-25.56 35.2-.15.03-.3.07-.61.14v1.63c0 51.4.02 102.79-.01 154.19-.01 16.4-7.81 28.16-22 35.9-5.36 2.92-11.13 4.57-17.22 5.07-.27.02-.53.14-.79.22-40.91-.02-81.83-.02-122.76-.02zM38.96 94.97v156.46c0 3.94.73 7.75 2.61 11.2 5.88 10.76 15.23 16.41 27.29 16.49 38.84.24 77.68.12 116.53.06 7.31-.01 14.13-2.02 20.15-6.27 7.12-5.03 11.37-11.89 11.38-20.69.1-52 .05-103.99.05-155.99v-1.26H38.96zm88.9-12.46c32.2 0 64.41 0 96.61-.01 1.07 0 2.16-.08 3.22-.23 12.64-1.85 19.81-16.24 13.58-27.41-3.66-6.55-9.39-9.91-16.87-9.93-16.82-.05-33.64.07-50.46.07-31.92-.01-63.84-.06-95.77-.09-15.18-.01-30.37 0-45.55 0-1.04 0-2.08.04-3.11.11-8.86.66-16.37 8.11-17.09 16.94-.91 11.22 7.69 20.56 18.94 20.56 32.18-.01 64.34-.01 96.5-.01zM86.73 32.5c.52.03.83.06 1.14.06 26.6 0 53.2 0 79.8.02 1 0 1.29-.3 1.28-1.29-.04-4.99-.07-9.99.01-14.98.02-1.3-.33-2.04-1.64-2.24-.23-.04-.46-.14-.69-.2-4.27-1.18-8.6-1.52-13.03-1.48-13.14.1-26.28.04-39.42.03-4.71 0-9.42-.02-14.14-.05-4.02-.02-7.93.66-11.8 1.71-1.1.3-1.59.76-1.56 2.03.1 4.19.04 8.39.04 12.58.01 1.24.01 2.47.01 3.81z"/><path d="M77.43 178.17v-60.42c0-3.82 2.52-6.52 6.12-6.56 3.65-.03 6.29 2.68 6.29 6.54.01 40.28.01 80.56 0 120.84 0 3.42-2.27 6.12-5.37 6.47-3.35.38-6.21-1.64-6.91-4.9-.12-.54-.12-1.11-.12-1.66-.01-20.11-.01-40.21-.01-60.31zM121.76 178.04c0-20.14-.01-40.28 0-60.42 0-4.6 4.15-7.6 8.36-6.08 2.3.83 3.91 3.07 4.03 5.59.01.24 0 .48 0 .72v120.6c0 4.11-2.88 6.9-6.8 6.6-3-.23-5.44-2.74-5.58-5.75-.02-.44-.01-.88-.01-1.32v-59.94zM166.12 178.17v-60.79c0-3 2.1-5.54 4.96-6.06 2.95-.53 5.84.97 6.9 3.73.35.91.51 1.94.51 2.92.02 40.12.02 80.25.02 120.37 0 2.58-.89 4.72-3.25 5.98-2.14 1.15-4.33 1.08-6.37-.24-1.92-1.24-2.79-3.06-2.79-5.38.03-20.17.02-40.35.02-60.53z"/></svg>
