<svg xmlns="http://www.w3.org/2000/svg" viewBox="0 0 164.72 164.73" overflow="visible"><path d="M164.72 82.45c.01 45.91-37.74 83-83.72 82.28-44.04-.7-80.96-36.54-81-82.38C-.04 36.83 37.05-.16 82.47 0c45.61.16 82.25 36.88 82.25 82.45zm-43.41-19.19c-.31-.09-.53-.18-.75-.21-6.86-.72-13.73-1.43-20.59-2.15-13.22-1.37-26.43-2.74-39.65-4.08-.69-.07-.93-.31-1.06-.98-.67-3.28-1.42-6.54-2.1-9.82-.32-1.51-1.13-2.49-2.64-2.92-3.72-1.04-7.43-2.14-11.16-3.15-.66-.18-1.44-.17-2.1 0-1.39.37-2.32 1.74-2.32 3.15-.01 1.44.95 2.75 2.44 3.19 2.86.85 5.74 1.67 8.62 2.47.69.19 1.02.5 1.18 1.26 3.56 16.64 7.16 33.28 10.74 49.92.5 2.3 1.55 3.17 3.9 3.19 4.39.03 8.78.08 13.17.09 10.34.03 20.68.05 31.03.07 2.77.01 4.36-1.19 4.34-3.33-.01-1.68-1.18-3.44-4.3-3.42-12.86.07-25.72.01-38.58-.01-.92 0-1.84-.04-2.75-.11-.27-.02-.72-.18-.76-.35-.46-1.91-.86-3.84-1.31-5.88h23.68c7.71 0 15.42.01 23.12 0 1.99 0 2.99-.81 3.31-2.57.86-4.66 1.73-9.33 2.6-13.99.65-3.43 1.29-6.87 1.94-10.37zm-49.67 61.93c4.87.02 8.69-3.67 8.72-8.43.03-4.85-3.68-8.68-8.44-8.71-4.9-.03-8.76 3.7-8.8 8.49-.02 4.8 3.76 8.63 8.52 8.65zm32.3-17.14c-4.8 0-8.6 3.76-8.62 8.54-.02 4.78 3.77 8.59 8.56 8.6 4.89.01 8.69-3.76 8.67-8.6-.02-4.8-3.79-8.54-8.61-8.54z"/></svg>
