<svg xmlns="http://www.w3.org/2000/svg" viewBox="0 0 142.42 142.31" overflow="visible"><path d="M142.42 72.4c-.16 1.81-.3 3.61-.47 5.42-1.29 13.87-6.2 26.33-14.85 37.24-10.74 13.54-24.55 22.39-41.53 25.72-22.44 4.4-42.73-.68-60.32-15.38C11.85 114.2 3.61 99.79.96 82.52-2.37 60.9 2.97 41.48 17.21 24.77 27.73 12.43 41.04 4.43 57.01 1.44c24.09-4.52 45.33 1.6 63.27 18.36 10.84 10.12 17.63 22.67 20.55 37.2.79 3.93.94 7.99 1.39 11.98.04.34.13.68.2 1.02v2.4zM81.57 91.83c18.23-.96 30.81 6.69 36.95 24.12 15.4-15.23 23.54-42.33 13.67-68.15C121.9 20.92 94.23 2.59 63.32 6.22 35.7 9.45 12.09 30.63 6.85 59.25 4.82 70.33 5.58 81.26 9.16 91.96c3.58 10.67 9.58 19.75 17.82 27.36 4.46-17.65 15.61-26.85 33.68-27.71.24-1.91.2-1.83-1.43-2.71-1.75-.94-3.52-1.91-5.08-3.12-6.04-4.67-10.01-10.88-12.75-17.91-3.02-7.76-4.12-15.77-2.09-23.94 4.16-16.73 19.91-27.1 37.03-24.49 15.2 2.32 27.6 15.58 27.61 32.5.01 8.51-2.45 16.36-6.85 23.6-3.46 5.69-7.85 10.46-13.99 13.37-1.68.79-1.68.77-1.54 2.92zM68.85 136.5c8.59.01 14.84-.88 20.96-2.7 8.45-2.51 16.05-6.6 22.84-12.2.34-.28.73-.85.67-1.22-1.88-12.09-11.58-21.31-23.52-22.55-3.6-.37-7.26-.17-10.89-.23-2.1-.04-3.2-1.07-3.24-3.15-.04-2.24-.04-4.47 0-6.71.03-1.74.8-2.5 2.39-3.16 2.05-.85 4.17-1.7 5.95-2.96 5.44-3.87 8.87-9.32 11.31-15.42 2.6-6.5 3.69-13.23 2.17-20.16-2.98-13.76-16.25-23.14-30.64-20.92-12.35 1.91-22.29 12.91-22.7 25.4-.3 9.04 2.43 17.14 7.58 24.46 3.11 4.42 6.99 7.97 12.33 9.6 1.87.57 2.52 1.42 2.53 3.39.01 2.04.01 4.07 0 6.11-.01 2.48-1.02 3.45-3.47 3.53-2.79.09-5.6.04-8.35.45-11.78 1.76-21.48 12.61-22.13 24.49-.06 1.05.27 1.66 1.12 2.25 11.23 7.75 23.67 11.61 35.09 11.7z"/></svg>
