<svg xmlns="http://www.w3.org/2000/svg" viewBox="0 0 118.49 118.41" overflow="visible"><path d="M0 48.94c.32-2.4.55-4.82.97-7.2C4.34 22.14 20.1 5.67 39.61 1.29 43.47.43 47.38-.04 51.35 0c2.05.02 3.78.78 5.35 2.06.47.38 1.18.68 1.76.66 8.39-.37 16.65.23 24.69 2.88 5.14 1.7 9.99 3.97 14.54 6.9 1.01.65 2.03 1.28 3.05 1.89 2.55 1.52 4.02 3.72 4.19 6.69.05.81.38 1.27.99 1.75 7.71 6.12 11.92 14.08 12.47 23.93.1 1.78.15 3.6-.05 5.37-.34 3.07-2.06 5.24-4.91 6.4-2.9 1.18-5.67.78-8.1-1.18-3.79-3.06-7.49-6.21-11.24-9.33-.3-.25-.62-.49-1-.79-2.04 3.13-5.01 4-8.51 3.87-3.47-.13-6.94-.03-10.42-.03h-1.42c.02 3.55-1.98 5.9-4.31 8.15-3.31 3.18-6.56 6.42-9.74 9.74-2.05 2.13-4.33 3.63-7.51 3.66v1.35c0 3.55-.08 7.11.02 10.66.1 3.42-.79 6.3-3.84 8.31.25.34.45.63.67.9 2.96 3.56 5.81 7.22 8.91 10.64 4.56 5.04 1.87 12.9-4.68 13.76-.11.01-.2.11-.3.17h-5.03c-.98-.14-1.96-.26-2.93-.41-8.74-1.29-15.79-5.45-21.24-12.39-.3-.38-.88-.73-1.34-.75-3.09-.18-5.36-1.61-6.94-4.23-.62-1.02-1.24-2.05-1.88-3.05-5.3-8.26-8.61-17.24-9.47-27.02-.36-4.07-.19-8.19-.27-12.29-.01-.39.05-.93-.17-1.13C1.21 55.75.54 53.94 0 52.06v-3.12zm49.93-43.8c-2.99.46-6.01.77-8.97 1.4C20.74 10.92 5.45 29.9 5.48 50.49c0 1.96.55 2.72 2.43 3.31 13.95 4.37 27.91 8.72 41.86 13.11 1.76.55 3.16.19 4.45-1.12 3.87-3.92 7.76-7.82 11.69-11.68 1.34-1.32 1.69-2.73 1.12-4.55-4.33-13.71-8.59-27.45-12.88-41.18-.83-2.67-1.34-3.04-4.22-3.24zM8.22 59.58c-.34 6.08.13 11.85 1.45 17.56 1.77 7.65 5.32 14.47 9.6 20.96.93 1.41 2.28 1.72 3.85.94 6.95-3.47 13.89-6.95 20.86-10.4 1.31-.65 1.85-1.6 1.83-3.05-.04-4.35-.05-8.7.01-13.04.01-.98-.29-1.35-1.21-1.64-10.38-3.21-20.75-6.48-31.13-9.72-1.71-.54-3.41-1.05-5.26-1.61zM59.79 8.1c.06.34.07.58.13.8 3.74 11.98 7.5 23.95 11.23 35.93.2.65.52.85 1.19.85 4.59-.03 9.18-.02 13.77-.01 1.17 0 2-.52 2.5-1.53 3.58-7.13 7.15-14.25 10.69-21.39.63-1.28.23-2.62-.94-3.48-.45-.33-.96-.57-1.42-.88-9.03-6.06-18.89-9.72-29.81-10.26-2.41-.13-4.83-.03-7.34-.03zm43.38 19.44c-.15.11-.25.14-.28.2-2.35 4.65-4.69 9.31-7 13.98-.11.23.06.78.28.97 4.17 3.52 8.37 7.01 12.57 10.49.79.65 1.73.78 2.7.35 1-.45 1.56-1.24 1.62-2.32.31-5.85-.67-11.42-3.72-16.52-1.64-2.76-3.68-5.16-6.17-7.15zM27.6 102.95c.29.34.54.66.81.94.66.69 1.31 1.4 2.01 2.04 5.96 5.39 13.05 7.41 20.95 6.98 1.08-.06 1.86-.66 2.3-1.66.47-1.07.18-2.02-.53-2.88-3.39-4.07-6.8-8.14-10.17-12.23-.43-.52-.76-.63-1.39-.31-4.44 2.26-8.9 4.47-13.35 6.7-.2.1-.39.25-.63.42z"/></svg>
