<svg xmlns="http://www.w3.org/2000/svg" viewBox="0 0 164.7 164.78" overflow="visible"><path d="M85.52 164.78h-6.23c-.19-.05-.38-.12-.57-.14-3.1-.31-6.22-.44-9.29-.93-16.83-2.71-31.61-9.79-43.82-21.68C5.52 122.46-2.79 98.54.82 70.78c2.54-19.56 11.41-36.15 26.1-49.31C47.17 3.34 70.96-3.22 97.66 1.46c16.83 2.95 31.38 10.74 43.24 23.06 20.08 20.87 27.47 45.82 22.11 74.2-3.85 20.35-14.57 36.77-31.02 49.35-11.66 8.91-24.86 14.22-39.45 16.01-2.33.28-4.68.46-7.02.7zm19.37-93.56C97.32 58.11 89.87 45.2 82.33 32.14 74.74 45.27 67.3 58.18 59.76 71.22h45.13zm-6.75 38.71c-.12-1.43-.17-2.87-.39-4.28-.85-5.38-3.35-9.77-8-12.77-3.29-2.12-6.98-2.64-10.79-2.42-6.11.36-11.07 2.9-14.11 8.31-3.81 6.78-4.02 13.94-1.14 21.09 1.76 4.37 5 7.44 9.46 9.13 2.7 1.03 5.53 1.22 8.37 1.02 5.94-.42 10.56-3.07 13.62-8.26 2.16-3.64 2.89-7.64 2.98-11.82zm11.83 4.77c2.15 0 4.14.1 6.12-.03 1.54-.1 3.12-.28 4.57-.77 7.66-2.58 10.83-12.22 6.09-18.4-2.41-3.13-5.83-4.21-9.59-4.32-3.51-.1-7.03-.02-10.54-.02-.3 0-.61.06-.9.08v37.96h4.25v-14.5zM34.61 95.08H45.6v34.17h4.31V95.01H60.8v-3.76H34.6c.01 1.25.01 2.43.01 3.83z"/><path d="M93.62 111.69c-.32 4.19-1.38 8.07-4.52 11.05-6.53 6.21-17.46 3.89-21.12-4.6-2.36-5.46-2.28-11.08.37-16.45 3.73-7.55 13.68-9.83 20.08-4.68 3.26 2.62 4.52 6.28 4.96 10.28.16 1.45.16 2.93.23 4.4zM110.03 110.79V94.91c2.89.16 5.73.1 8.5.54 3.72.59 5.58 2.97 5.78 6.7.21 3.89-1.59 6.84-5.02 7.93-1.31.42-2.72.59-4.1.69-1.68.1-3.36.02-5.16.02z"/></svg>
