<svg xmlns="http://www.w3.org/2000/svg" viewBox="0 0 500.76 500.53" overflow="visible"><path d="M261.35 0c1.02.14 2.04.35 3.07.4 33.59 1.67 65.46 10.03 95.68 24.69 25.16 12.2 47.68 28.2 67.39 48.02 34.18 34.37 56.79 75.19 67.47 122.53 2.69 11.94 4.73 23.99 5.22 36.22.45 11.17.92 22.4.26 33.53-2.64 44.72-16.25 85.95-41.21 123.18-32.69 48.74-77.11 82.18-132.97 100.31-12.83 4.17-25.97 7.08-39.33 8.99-14.1 2.02-28.26 2.96-42.5 2.58-11.66-.31-23.27-1.32-34.77-3.27-39.8-6.72-76.08-21.88-108.34-46.17-48.03-36.16-79.37-83.54-93.96-141.9-3.04-12.17-5.01-24.55-6-37.07-.29-3.66-.59-7.32-.92-10.98-.09-1.03-.29-2.05-.43-3.07v-15.82c.16-1.02.38-2.03.47-3.06.47-5.25.87-10.5 1.38-15.74 1.25-12.81 3.62-25.43 6.97-37.85 19-70.59 67.52-129.18 133.31-160.87 30.03-14.47 61.7-22.64 95.03-24.26 1.03-.05 2.05-.26 3.07-.39h21.11zm-10.83 476.14c124.48-.07 225.24-100.28 226-224.39.78-126.67-101.6-226.69-224.39-227.4C126.99 23.63 26.19 124.57 24.8 247.62c-1.4 124.64 99.06 228.27 225.72 228.52z"/><path d="M165.05 300.88c10.67-2 21.16-3.97 31.85-5.98.37 2.37.7 4.63 1.07 6.89 1.81 10.77 5.68 20.77 11.62 29.92 6.01 9.25 17.96 18.15 32.1 19.52.53-1.59.74-97.04.22-100.71-4.38-1.19-8.79-2.28-13.12-3.6-10.27-3.13-20-7.55-29.15-13.15-13.9-8.51-22.72-20.93-26.76-36.57-4.46-17.28-3.68-34.35 3.68-50.84 4-8.95 9.66-16.76 17.1-23.14 6.67-5.72 14.37-9.77 22.58-12.83 7.13-2.66 14.49-4.4 22.1-4.92.96-.07 1.91-.2 2.86-.32.23-.03.45-.13.92-.27V90.31h18.78v14.81c.77.15 1.37.34 1.97.38 14.7 1.06 28.03 5.94 39.94 14.56 8.3 6.01 14.45 13.94 19.27 22.92 4 7.46 6.46 15.44 7.71 23.8.1.7.1 1.42.16 2.46-10.96 1.65-21.86 3.29-32.58 4.9-1.03-4.16-1.75-8.09-2.99-11.85-2.41-7.28-5.91-13.99-11.65-19.27-6.08-5.59-13.23-9.07-21.36-10.53-.5 1.78-.67 87.85-.2 91.3 4.51 1.18 9.08 2.26 13.58 3.58 8.1 2.38 16.26 4.62 23.8 8.57 12.08 6.33 22.11 14.86 28.81 26.93 4.59 8.26 7.36 17.14 8.45 26.52 1.54 13.36.81 26.55-4.2 39.14-10.18 25.57-28.71 41.7-55.61 47.91-4.25.98-8.68 1.19-13.02 1.76-.55.07-1.1.12-1.98.21-.02 3.51-.04 6.99-.04 10.46-.01 3.6 0 7.19 0 10.79v10.53h-18.84v-31.5c-4.52-.78-8.84-1.4-13.11-2.29-8.69-1.81-17.16-4.45-25.09-8.45-10.96-5.53-19.5-13.82-25.91-24.26-7-11.4-11.27-23.75-12.66-37.08-.15-1.43-.27-2.86-.38-4.29-.03-.4.04-.8.08-1.44zm96.06 50.4c1.25-.14 2.29-.16 3.29-.37 16.79-3.54 28.48-13.34 35.33-28.98 3.1-7.08 3.98-14.56 3.89-22.24-.06-5.58-.94-10.98-3.03-16.14-1.65-4.08-3.54-8.08-6.83-11.14-8.81-8.19-19.04-13.87-30.66-17.04-.59-.16-1.21-.22-1.99-.35v96.26zm-19.07-219.42c-1.27.2-2.21.32-3.15.49-.78.14-1.57.29-2.34.49-10.88 2.82-20.06 8.32-26.44 17.72-7.92 11.67-9.75 24.44-5.7 37.95 1.64 5.47 4.1 10.63 8.18 14.73 7.58 7.62 16.67 12.78 26.99 15.76.8.23 1.62.35 2.46.53v-87.67z"/></svg>
