<svg xmlns="http://www.w3.org/2000/svg" viewBox="0 0 232.82 232.88" overflow="visible"><path d="M232.82 76c-.41 1.86-.7 3.76-1.26 5.57-.98 3.18-2.74 5.94-5.09 8.29-5.49 5.53-11.01 11.02-16.52 16.53-.14.14-.3.26-.38.33l-83.48-83.48c.19-.2.47-.51.76-.81 5.28-5.28 10.57-10.56 15.85-15.85 3.63-3.63 7.98-5.78 13.09-6.36.27-.03.52-.15.79-.23h3.36c.26.08.52.19.79.22 5.11.59 9.45 2.72 13.08 6.35 17.53 17.54 35.07 35.07 52.6 52.61 2.9 2.9 4.81 6.34 5.73 10.32.28 1.2.46 2.41.68 3.62V76zM148.27 61.47l22.95 22.95c-.21.22-.48.54-.78.84-30.57 30.57-61.11 61.15-91.72 91.68-4.73 4.72-10.57 5.98-16.79 3.67-6.29-2.33-10.03-7.03-10.84-13.82-.4-3.35.25-6.53 1.96-9.43.59-1 1.49-1.83 2.27-2.72.37-.42.81-.77 1.21-1.16 30.26-30.26 60.51-60.51 90.76-90.77.36-.38.65-.82.98-1.24zM179.49 92.64l22.37 22.37c-.38.24-.89.44-1.24.79-31.48 31.46-62.97 62.92-94.39 94.44-1.66 1.67-3.52 2.4-5.7 2.6-10.28.95-18.7-7.04-18.24-17.35.18-4.03 1.77-7.5 4.63-10.36 22.46-22.46 44.92-44.93 67.38-67.38 8.14-8.14 16.29-16.26 24.44-24.38.24-.25.5-.49.75-.73zM118.05 31.29l21.84 21.84c-.23.24-.52.56-.82.86-30.34 30.34-60.7 60.65-90.96 91.06-2.42 2.43-4.87 4.45-8.24 5.13-6.24 1.25-11.56-.52-15.78-5.25-4.13-4.64-5.14-10.04-3.32-15.96.14-.47.48-.92.84-1.27 31.94-31.96 63.88-63.9 95.83-95.85.22-.22.46-.42.61-.56z"/><path d="M87.73 222.69c-2.42.32-4.9.65-7.38.97l-27.06 3.51c-4.43.57-8.86 1.17-13.3 1.7-.43.05-1.03-.17-1.34-.48-11.4-11.36-22.79-22.74-34.15-34.15-.28-.28-.47-.84-.42-1.23 1.16-9.22 2.36-18.44 3.55-27.66.82-6.37 1.65-12.74 2.48-19.11.05-.39.14-.77.28-1.48.39.82.59 1.41.93 1.91 1.59 2.28 3.19 4.56 4.88 6.78.29.38 1.03.65 1.52.6 13.52-1.41 26.23 7.73 29.26 21.08.64 2.82.9 5.67.57 8.56-.16 1.38-.01 1.5 1.41 1.4 12.09-.8 21.13 4.09 27.01 14.65 2.44 4.38 3.42 9.2 2.94 14.2-.16 1.68.23 2.84 1.58 3.76 2.39 1.64 4.77 3.29 7.24 4.99zM2.3 206.49c8.02 8.02 16.05 16.04 24.08 24.07-1.78.24-3.73.49-5.68.77-3.03.44-6.08.84-9.09 1.39-6.71 1.23-12.68-4.81-11.45-11.5.75-4.07 1.21-8.19 1.8-12.29.13-.86.24-1.72.34-2.44z"/></svg>
