<svg xmlns="http://www.w3.org/2000/svg" viewBox="0 0 118.5 113.09" overflow="visible"><path d="M103.66 113.09H14.77c-.13-.08-.26-.19-.4-.23-4.17-1.28-6.23-4.05-6.23-8.39 0-9.1-.01-18.2.02-27.3 0-.85-.25-1.35-.97-1.84C2.93 72.39.36 68.34.18 63.15c-.21-6.06-.22-12.13-.05-18.19.28-9.49 7.91-17.32 17.34-17.83 4.14-.23 8.3-.07 12.45-.1.45 0 .91-.04 1.14-.05-.48-2.46-1.26-4.78-1.33-7.12-.23-7.99 3.19-14.13 10.36-17.7 7.2-3.59 14.16-2.6 20.49 2.37.72.57 1.21.59 1.98.19 3.27-1.67 6.75-2.15 10.34-1.43 10.28 2.08 15.83 12.86 11.6 22.46-.17.38-.31.76-.52 1.29h1.49c4.75 0 9.5-.02 14.25.01 10.18.06 18.54 8.2 18.7 18.3.1 6.06.13 12.13-.02 18.2-.12 4.97-2.55 8.63-7.08 10.77-.78.37-1.01.78-1.01 1.61.03 9.66.02 19.32.02 28.97 0 3.8-2.28 6.84-5.92 7.92-.25.05-.5.17-.75.27zM13.6 77.93c-.04.3-.09.53-.09.76 0 8.66-.02 17.32.01 25.98 0 2.05 1.05 2.99 3.18 2.99h85.03c2.34 0 3.21-.89 3.21-3.28V78.04c0-.84.23-1.85-.16-2.45-.33-.5-1.41-.51-2.15-.75-4.96-1.6-8.15-5.91-8.37-11.34-.13-3.17-1.79-5.55-4.55-6.53-2.6-.93-5.35-.19-7.28 1.96-1.3 1.45-1.67 3.21-1.7 5.1-.04 2.51.17 5.07-.24 7.52-1.57 9.36-9.69 15.42-19.16 14.5-8.1-.79-14.84-7.52-15.38-15.65-.27-4.09-.15-8.21-.19-12.32-.03-3.89-2.87-6.83-6.64-6.85-3.76-.02-6.69 2.88-6.78 6.75-.03 1.36.01 2.71-.01 4.07-.09 6.83-4.16 12.68-10.46 15.05-2.66.98-5.41 1.2-8.27.83zm45.66-45.56c-13.49 0-26.99-.01-40.48 0-7.28.01-13.33 6.1-13.35 13.38-.01 5.51-.02 11.02 0 16.52.02 5.48 4.48 10.22 9.92 10.59 5.63.38 10.67-3.53 11.43-9.04.27-1.96.18-3.98.2-5.97.05-6.7 5.48-12.09 12.17-12.04 6.62.04 11.99 5.45 12.01 12.09.01 3.63-.03 7.26.01 10.9.06 5.93 4.22 10.74 10.2 11.85 5.41 1 11.02-2.23 13.18-7.51.89-2.18.81-4.44.86-6.71.05-2.06-.04-4.19.44-6.18 1.43-6.02 7.11-9.69 13.45-8.91 5.72.7 10.13 5.78 10.3 11.86.11 3.95 3.03 6.89 6.81 6.85 3.78-.04 6.63-3.05 6.63-7.01v-17c0-7.7-5.95-13.65-13.65-13.66-13.38-.01-26.75-.01-40.13-.01zm-10.94-5.34c3.31 0 6.62.04 9.93-.04.52-.01 1.24-.39 1.52-.82 1.8-2.77 2.49-5.81 2.03-9.11-.74-5.37-4.74-9.82-10.13-11.18-5.25-1.33-10.95.8-14.14 5.28-3.15 4.42-3.3 10.45-.42 14.98.41.64.86.93 1.64.92 3.19-.06 6.38-.03 9.57-.03zm17.3-.14c.26.06.4.12.55.12 3.43.01 6.86.03 10.29-.02.44-.01.97-.34 1.31-.67 4.7-4.6 3.75-12.74-1.88-16.42-3.39-2.21-8.13-2.36-10.99-.3 2.97 5.62 3.19 11.38.72 17.29z"/></svg>
