<svg xmlns="http://www.w3.org/2000/svg" viewBox="0 0 162.55 162.51" overflow="visible"><path d="M76.98 0h8.63c.55.08 1.1.17 1.65.23 2.42.28 4.86.43 7.25.84 18.98 3.25 35.06 11.94 47.69 26.48 17.1 19.67 23.39 42.62 18.99 68.25-3.2 18.67-12.21 34.37-26.59 46.7-19.64 16.85-42.47 23.04-67.92 18.64-19.41-3.36-35.54-12.91-48.01-28.15C2.77 113.54-2.94 91.2 1.41 66.51c3.41-19.36 13.04-35.33 28.14-47.9C41 9.07 54.16 3.21 68.91.96 71.59.55 74.29.32 76.98 0zm-32.8 64.35c.22 7.45 2.02 14.01 4.93 19.59 4.3 8.24 10.33 15.05 17.41 20.95 7.44 6.19 15.64 10.84 25.36 12.47 5.16.86 10.28.47 15.08-1.28 3.64-1.32 6.48-4.2 8.71-7.44.94-1.36.67-2.76-.55-3.89-.69-.65-1.51-1.18-2.29-1.72-5-3.44-10-6.87-15.02-10.28-1.75-1.19-3.79-1.13-4.97.38-1.67 2.13-3.28 4.34-4.67 6.66-.6.99-1.26 1.3-2.25 1.38-2.06.17-3.96-.37-5.78-1.26-3.98-1.95-7.15-4.92-10.14-8.1-3.02-3.2-5.96-6.46-7.88-10.48-.83-1.75-1.45-3.56-.98-5.54.08-.32.23-.71.48-.9 2.11-1.57 4.27-3.07 6.37-4.65 2.07-1.56 2.33-3.54.8-5.63-3.84-5.25-7.68-10.5-11.54-15.74-1.93-2.61-3.96-2.87-6.16-.5-1.95 2.1-3.64 4.43-5.38 6.71-.39.52-.68 1.22-.76 1.86-.35 2.94-.62 5.91-.77 7.41zm74.05 13h.15c-.05-1.2-.08-2.39-.17-3.58-.39-4.9-1.47-9.61-3.84-13.96-2.99-5.49-7.39-9.46-13.11-11.95-6.44-2.8-13.18-3.64-20.13-2.78-1.22.15-2.04 1.05-2.47 2.21-.91 2.48.88 4.75 3.64 4.8 3.22.06 6.47.01 9.65.47 10.13 1.44 16.95 8.12 18.54 18.21.52 3.28.45 6.66.52 10 .04 2.18 1.32 3.81 3.35 3.9 2.19.1 3.77-1.29 3.86-3.49.06-1.28.01-2.55.01-3.83zm-17.39-1.71c-.16-1.13-.24-2.29-.51-3.4-1.8-7.49-9.83-12.51-17.41-10.92-1.75.37-2.97 2-2.82 3.77.15 1.82 1.56 3.19 3.36 3.28 1.19.06 2.42-.03 3.57.24 4.3 1.02 5.77 2.46 6.34 5.7.18 1.03.04 2.14-.09 3.2-.24 2.02.95 3.82 2.88 4.2 1.89.36 3.69-.78 4.15-2.72.26-1.08.35-2.2.53-3.35z"/></svg>
