<svg xmlns="http://www.w3.org/2000/svg" viewBox="0 0 205.68 205.69" overflow="visible"><path d="M106.79 205.69h-7.67c-.23-.06-.45-.14-.69-.16-5.23-.62-10.53-.86-15.67-1.9-24.79-5.06-45.23-17.48-60.76-37.44C2.67 141.31-3.86 113.1 2.16 82.25c4.44-22.78 15.73-41.94 33.38-57C60.97 3.54 90.42-4.14 123.23 2.09c21.34 4.05 39.61 14.28 54.34 30.24 23.69 25.67 32.47 56 26.12 90.29-4.63 25.05-17.58 45.43-37.58 61.19-15.93 12.55-34.11 19.65-54.34 21.43-1.66.14-3.32.3-4.98.45zm-3.91-15.82c47.96 0 87.19-39.38 87.01-87.24-.18-47.48-38.35-85.93-85.36-86.8-49.06-.9-88.72 38.79-88.68 87.07.03 47.89 39.14 86.97 87.03 86.97z"/><path d="M104.74 101.67c-.41-.25-.9-.44-1.23-.77-10.89-10.87-21.77-21.74-32.64-32.63-5.95-5.96-7.49-14.01-4.15-21.35 5.24-11.5 20.75-14.43 29.71-5.52 15.87 15.78 31.68 31.61 47.48 47.46 7.32 7.34 7.25 18.93-.08 26.25-15.65 15.65-31.29 31.32-46.97 46.94-5.42 5.4-11.98 6.98-19.18 4.61-7.2-2.37-11.43-7.63-12.47-15.12-.83-6 1.03-11.28 5.36-15.61 11.19-11.18 22.39-22.37 33.58-33.56.11-.11.2-.25.29-.37l.3-.33z"/></svg>
