<svg xmlns="http://www.w3.org/2000/svg" viewBox="0 0 143.77 143.61" overflow="visible"><path d="M66.84 0h10.07c.3.08.59.19.89.23 2.6.36 5.24.56 7.81 1.08 31.31 6.24 54.6 31.91 57.71 63.58.14 1.46.3 2.91.45 4.36v5.27c-.07.29-.18.58-.2.88-.2 2.14-.28 4.31-.59 6.43-2.44 16.43-9.53 30.56-21.64 41.93-16.73 15.7-36.68 22.1-59.4 19.16-16.03-2.07-29.87-9.05-41.13-20.67C3.79 104.69-2.8 83.63 1.07 59.56c2.71-16.88 10.94-30.93 23.86-42.13C35.55 8.24 47.86 2.66 61.78.69L66.84 0zM16.35 37.79c-18.2 29.18-10.55 69.54 21.23 89.36 31.37 19.57 72.59 8.93 90.91-23.26 18.2-31.98 6.21-72.71-26.59-89.81C70.49-2.3 35.36 10.22 19.31 33.59h15.86c1.8 0 2.47.53 2.85 2.24.67 2.99 1.32 5.99 1.99 8.99.43 1.92.88 3.84 1.3 5.7.83-.07 1.5-.17 2.17-.17 26.2-.01 52.4-.01 78.6-.01 2.6 0 3.47 1.28 2.47 3.67-4.4 10.6-8.81 21.2-13.21 31.8-.88 2.1-1.22 2.32-3.49 2.32H49.72c.89 3.94 1.82 8.09 2.76 12.31H54c16.81 0 33.63 0 50.44.01.59 0 1.21.03 1.77.21.99.32 1.43 1.1 1.36 2.14-.07 1.04-.62 1.71-1.63 1.94-.38.09-.79.1-1.19.1-17.77 0-35.55.01-53.32 0-1.96 0-2.55-.47-2.97-2.38C43.73 81.34 39 60.22 34.3 39.09c-.2-.9-.57-1.13-1.44-1.12-4.63.04-9.27.03-13.9.01-.84 0-1.67-.12-2.61-.19zm32.67 47.26c.9-1.46 2.13-1.31 3.32-1.31 17.93 0 35.86-.01 53.79.02.96 0 1.47-.24 1.86-1.19 3.63-8.85 7.31-17.67 10.98-26.51.17-.41.29-.84.47-1.35H42.23c2.25 10.04 4.48 20.02 6.79 30.34z"/><path d="M67.83 113.78a8.169 8.169 0 0 1-8.24 8.17c-4.56-.03-8.09-3.67-8.07-8.32.02-4.43 3.63-8.02 8.1-8.06 4.51-.05 8.22 3.66 8.21 8.21zm-4.33-.08c-.03-2.08-1.76-3.77-3.86-3.76-2.06.01-3.83 1.77-3.83 3.82 0 2.03 1.81 3.84 3.83 3.85 2.09.02 3.89-1.8 3.86-3.91zM107.61 113.84c-.03 4.5-3.68 8.13-8.17 8.1-4.55-.03-8.16-3.7-8.14-8.28.02-4.47 3.73-8.15 8.19-8.12 4.54.05 8.15 3.72 8.12 8.3zm-4.32-.11c-.01-2.08-1.73-3.79-3.82-3.79s-3.82 1.7-3.84 3.79c-.01 2.11 1.82 3.94 3.89 3.89 2.08-.06 3.77-1.8 3.77-3.89z"/></svg>
