<svg xmlns="http://www.w3.org/2000/svg" viewBox="0 0 129.16 110.29" overflow="visible"><path d="M0 90.32c.79-2.61 1.24-5.4 2.44-7.81 4.17-8.36 10-15.45 17.22-21.38 10.46-8.6 22.5-13.47 35.93-14.9 12.78-1.36 25.27-.15 37.21 4.83 14.48 6.04 25.41 16.1 33.14 29.72 1.99 3.5 3.25 7.17 3.21 11.24-.08 9.46-8.12 17.81-17.56 18.18-1.12.04-2.23.07-3.35.07-29.55 0-59.09-.01-88.64.01-4.9 0-9.28-1.36-13.01-4.59-3.58-3.1-5.72-7.01-6.37-11.72-.02-.26-.14-.51-.22-.77v-2.88zm88.89-17.77v-1.4c0-4.91-.02-9.82.02-14.73.01-.87-.25-1.32-1.1-1.53-4.34-1.04-8.64-2.21-13.01-3.1-2.43-.49-4.95-.5-7.57-.74v19.27H62.5v-19.2c-7.41.2-14.49 1.42-21.34 3.87-.8.28-.74.8-.74 1.4v16.13H35V57.67c-.7.33-1.25.56-1.76.84-10.77 5.84-19.14 14.1-25.16 24.77C6.77 85.61 5.73 88 5.5 90.67c-.65 7.64 5.72 14.25 13.74 14.26 30.26.01 60.53.01 90.79-.01 1.03 0 2.08-.12 3.09-.32 7.58-1.53 13.95-10.2 8.83-19.87-6.09-11.5-14.87-20.35-26.39-26.45-.4-.21-.83-.38-1.44-.66v14.95c-1.77-.02-3.4-.02-5.23-.02zM70.05 5.23V0c3.93.1 6.98 1.73 9.03 4.98 2.24 3.57 2.28 7.31.3 11.02-.88 1.65-1.91 3.22-2.87 4.83-2.45 4.08-.64 7.98 4.15 8.79v5.41c-1.11-.21-2.22-.31-3.25-.64-6.33-2.02-9.3-9.44-6.13-15.29.95-1.75 2.03-3.43 3.05-5.14 2.3-3.88.64-7.67-3.77-8.59-.16-.02-.31-.08-.51-.14zM59.17 29.62v5.3c-2.82-.01-5.22-.96-7.24-2.85-3.68-3.43-4.51-8.7-2.06-13.14.94-1.71 2-3.36 3-5.04 2.2-3.71.61-7.45-3.58-8.48-.3-.07-.75-.42-.77-.66-.07-1.54-.04-3.09-.04-4.62 3.75-.43 8.05 2.26 9.74 6.06 1.53 3.44 1.36 6.83-.52 10.1-.91 1.59-1.9 3.14-2.83 4.72-2.32 3.99-.44 7.89 4.3 8.61z"/></svg>
