<svg xmlns="http://www.w3.org/2000/svg" viewBox="0 0 107.5 108.51" overflow="visible"><path d="M84.56 51.35c-6.08 4.73-13.44 4.72-20.62-.05-2.79 2.83-6.34 3.41-10.18 3.4-3.81 0-7.32-.56-10.22-3.47-2.93 2.67-6.41 3.47-10.26 3.47-3.82-.01-7.42-.37-10.23-3.46-4.41 3.96-9.67 3.84-14.9 3.16-5.43-.71-9.09-6.23-7.93-11.57 2.02-9.31 4.1-18.6 6.17-27.89.54-2.4 1.9-3.26 4.4-3.24 5.47.04 10.93-.03 16.4-.05.88 0 1.75.08 2.63.08 10.18.01 20.35 0 30.53 0h16.88c6.62 0 13.24 0 19.87-.01 2.34 0 3.55 1.01 4.07 3.34 2.01 9.06 4.03 18.12 6.07 27.18 1.48 6.55-3.12 12.37-9.84 12.4-1.79.01-3.6.04-5.38-.1-2.84-.21-5.31-1.39-7.46-3.19zM48.41 18.84c-.35 8.35-.72 16.51-1.01 24.67-.08 2.13 1.89 3.95 4.11 4.02 1.2.04 2.39.01 3.59.01 3.5 0 5.25-1.79 5.1-5.25-.23-5.41-.47-10.83-.72-16.24-.1-2.11-.18-4.22-.34-6.33-.02-.31-.43-.84-.66-.84-3.3-.06-6.61-.04-10.07-.04zm17.95.07c0 .39-.01.7 0 1.01.32 7.64.63 15.29.98 22.93.11 2.46 2.42 4.62 4.93 4.68 1.52.04 3.03.03 4.55 0 2.2-.05 3.68-1.93 3.38-4.13-.7-5.12-1.35-10.25-2.03-15.38-.4-3.03-.84-6.05-1.26-9.11H66.36zm-25.39-.08H39.9c-2.63 0-5.27.06-7.9-.03-1.16-.04-1.46.41-1.59 1.47-.55 4.5-1.19 8.99-1.79 13.49-.43 3.19-.9 6.38-1.28 9.58-.3 2.56 1.23 4.18 3.83 4.19h3.23c3.61 0 5.66-1.9 5.84-5.51.27-5.41.52-10.83.72-16.24.08-2.26.01-4.52.01-6.95zm-17.58 0c-3.29 0-6.35.04-9.42-.03-.99-.02-1.29.37-1.47 1.24-.65 3.12-1.36 6.22-2.06 9.33-1.08 4.82-2.16 9.64-3.23 14.46-.4 1.8.52 3.51 2.17 3.63 2.02.15 4.1.21 6.08-.12 2.97-.5 4.59-2.89 5-6.32.61-5.13 1.35-10.25 2.04-15.38.29-2.19.57-4.39.89-6.81zm60.79 0c.25 2.02.46 3.87.71 5.71.77 5.76 1.59 11.51 2.31 17.27.41 3.29 2.95 5.7 6.26 5.72l3.95.03c2.02.01 3.39-1.62 2.95-3.57-1.8-8.05-3.62-16.09-5.39-24.15-.17-.79-.49-1.04-1.27-1.03-2.55.04-5.11.01-7.66.01-.58.01-1.16.01-1.86.01zM63.22 69.13h-18.6v32.3h1.33c3.59 0 7.19-.01 10.78 0 2.22.01 3.69 1.43 3.69 3.52 0 2.1-1.45 3.55-3.66 3.55-13.57.01-27.15.01-40.72 0-2.28 0-3.74-1.46-3.74-3.77-.01-14.85-.01-29.7 0-44.55 0-2.14 1.57-3.74 3.56-3.74 1.94 0 3.45 1.54 3.55 3.63.02.4.01.8.01 1.2v40.06h18.03v-1.38-33.77c0-2.87 1.28-4.15 4.16-4.15h24.55c2.82 0 4.08 1.27 4.08 4.09v35.19h18.04v-1.44-39.4c0-2.49 1.39-4.07 3.55-4.08 1.87-.01 3.37 1.34 3.53 3.21.04.44.03.88.03 1.32v42.99c0 3.44-1.16 4.6-4.59 4.6H67.32c-2.79 0-4.1-1.31-4.1-4.09V70.77v-1.64zM53.71 7.03H15.86c-1.92 0-3.32-1.12-3.6-2.83-.29-1.77.56-3.39 2.17-3.94.62-.21 1.33-.23 2-.24C39.35.01 62.27.01 85.18.01c2.24 0 4.47-.03 6.71.01 2.11.04 3.52 1.55 3.48 3.61-.04 1.87-1.45 3.31-3.33 3.39-.36.02-.72 0-1.08 0-12.42.01-24.84.01-37.25.01z"/></svg>
