<svg xmlns="http://www.w3.org/2000/svg" viewBox="0 0 70.58 104.31" overflow="visible"><path d="M70.58 42.24v1.2c-.81 2.06-2.33 2.7-4.5 2.68-8.72-.09-17.45-.02-26.17-.06-1.06-.01-1.34.29-1.34 1.34.04 6.58.05 13.16 0 19.75-.01 1.09.3 1.41 1.4 1.41 7.49-.05 14.98-.05 22.47 0 1.14.01 1.48-.29 1.47-1.45-.06-4.79-.04-9.57-.02-14.36.01-1.88 1.2-3.21 2.99-3.43 1.57-.19 2.75.69 3.7 2.76v49.58c-.79 2.01-2.26 2.68-4.4 2.67-20.69-.06-41.37-.03-62.06-.03-2.98 0-4.12-1.13-4.12-4.11V43.56c0-2.95 1.16-4.11 4.13-4.11 20.69 0 41.37.02 62.06-.03 2.2-.02 3.68.69 4.39 2.82zM6.75 68.4h25.07V46.14H6.75V68.4zm31.92 29.17h25.12V75.28H38.67v22.29zm-6.85.01V75.32H6.74v22.26h25.08zM35.27 15.17c1.36-3.72 2.9-7.08 5.32-9.96C44.26.83 48.9-.89 54.46.44c5.63 1.34 9.4 4.82 10.67 10.56 1.12 5.04-.47 9.55-3.43 13.6-3.19 4.36-7.55 7.21-12.64 8.82-10.43 3.3-20.81 3.18-30.89-1.34-5.8-2.61-10.2-6.79-12.27-13.02-2.26-6.81 0-13.5 5.79-16.88C17.27-1.08 24.55-1.11 29.74 5c2.2 2.59 3.72 5.55 4.94 8.69.16.4.32.8.59 1.48zm3.71 13.6c5.97-.62 11.35-2.12 15.71-6.23 2.15-2.03 3.54-4.47 4.02-7.42.48-2.94-.93-5.92-3.55-7.35-3.05-1.67-6.24-1.45-8.48.83-1.18 1.21-2.24 2.61-3.03 4.1-2.63 4.95-3.78 10.35-4.67 16.07zm-7.63.08c0-.59.05-.94-.01-1.28-.79-4.64-1.83-9.22-3.8-13.53-.99-2.15-2.16-4.18-4-5.74-2.45-2.07-5.12-1.99-7.82-.69-2.59 1.25-4 3.39-4 6.29 0 2.92 1.21 5.42 3.09 7.58 2.99 3.45 6.91 5.31 11.24 6.38 1.71.43 3.48.66 5.3.99z"/></svg>
