<svg xmlns="http://www.w3.org/2000/svg" viewBox="0 0 162.53 162.5" overflow="visible"><path d="M0 84.23V78c.07-.59.15-1.18.22-1.77.37-3.13.55-6.29 1.12-9.38 3.2-17.52 11.18-32.54 24.21-44.67C44.3 4.73 66.6-2.4 91.95.71c18.93 2.32 35.13 10.62 48.18 24.54 17.93 19.13 25.07 41.94 21.51 67.85-2.62 19.08-11.29 35.28-25.62 48.13-20 17.95-43.54 24.53-69.92 19.77-20.45-3.69-36.97-14.27-49.59-30.76C7.71 118.74 2.48 105.73.7 91.35.42 88.98.23 86.6 0 84.23zm134.74-10.36c.46-2.93-.06-6.09-.87-9.18-2.19-8.39-7.01-15.16-13.41-20.82-7.35-6.5-16.13-10.2-25.58-12.39-5.35-1.24-10.78-1.45-16.29-1.26-6.63.23-13.05 1.44-19.16 3.76-8.99 3.41-16.88 8.48-22.99 16.2-5.47 6.91-8.41 14.62-8.6 23.35-.19 8.59 2.74 16.29 7.88 23.01 6.74 8.82 15.69 14.67 26.3 17.86 3.77 1.13 7.68 1.77 11.51 2.7.87.21 1.79.54 2.47 1.08 1.48 1.17 1.38 2.84 1.07 4.51-.39 2.11-.85 4.21-1.07 6.34-.25 2.5 1.4 3.92 3.71 3.08 2.35-.85 4.64-1.94 6.8-3.18 7.76-4.46 15.1-9.55 22.2-15 6.29-4.83 12.27-9.97 17.2-16.23 5.45-6.91 9.25-14.43 8.83-23.83z"/><path d="M91.72 76.93c.11-.55.3-1.11.3-1.66.03-3.6.01-7.19.02-10.79 0-1.56.1-1.66 1.6-1.65 3.4 0 3.4 0 3.4 3.42v18.58c0 1.74-.3 1.89-1.99 2.08-2.15.24-3.54-.51-4.76-2.31-2.39-3.54-5-6.93-7.56-10.35-.42-.56-1.06-.97-1.87-1.69-.15 1.02-.32 1.63-.32 2.23-.02 3.56-.05 7.11.01 10.67.02 1.1-.34 1.48-1.44 1.44-3.33-.11-3.31.59-3.3-3.29.01-6.31 0-12.62.01-18.94 0-1.67.22-1.6 1.88-1.83 2.36-.32 3.59.79 4.82 2.57 2.48 3.62 5.19 7.09 7.79 10.63.28.39.46.85.69 1.28.23-.14.48-.26.72-.39zM101.38 74.86v-10.3c0-1.5.18-1.71 1.61-1.72 4.31-.02 8.62.01 12.93-.02 1.06-.01 1.52.42 1.49 1.51-.07 3.37.49 3.32-3.17 3.28-2.03-.02-4.07-.08-6.1-.09-1.59 0-1.9.32-1.97 1.86-.12 2.91 0 3.03 2.92 3.03 2.2 0 4.39-.01 6.59.01 1.39.01 1.69.32 1.72 1.69.08 3.21 0 3.26-3.23 3.17-2.11-.06-4.23-.01-6.35-.05-1.13-.02-1.56.53-1.65 1.58-.26 3.11-.06 3.33 3.04 3.33 2.16 0 4.31-.01 6.47 0 1.38.01 1.68.33 1.72 1.69.07 3.02.07 3.03-2.97 3.02-3.83 0-7.67.01-11.5 0-1.47 0-1.56-.11-1.56-1.58.01-3.47.01-6.94.01-10.41zM46.1 74.85c0-3.31-.01-6.62 0-9.93.01-1.76.25-1.94 2-2.03 3.32-.18 3.02-.41 3.02 3.03.01 4.83 0 9.65 0 14.48 0 1.63.13 1.75 1.79 1.75 2.55 0 5.11-.01 7.66 0 1.51.01 1.67.25 1.7 1.74.07 3.29.2 2.97-3.07 2.97-3.71.01-7.42.01-11.13 0-1.63 0-1.96-.32-1.97-1.96-.01-3.35 0-6.7 0-10.05zM66.47 74.88c0-3.52-.01-7.03 0-10.55 0-1.34.23-1.54 1.54-1.49 3.18.12 3.18.12 3.18 3.38v19.06c0 1.48-.11 1.6-1.56 1.59-3.52-.02-3.15.39-3.16-3.11-.01-2.97 0-5.93 0-8.88z"/></svg>
