<svg xmlns="http://www.w3.org/2000/svg" viewBox="0 0 113.03 112.95" overflow="visible"><path d="M113.03 58.3c-.24 2.13-.41 4.27-.72 6.39-1.69 11.59-6.56 21.7-14.53 30.25-8.45 9.06-18.78 14.91-31 17.03-18.61 3.22-35.07-1.52-48.97-14.35C7.62 88.22 1.75 76.43.34 62.65-1.43 45.28 3.7 30.07 15.73 17.37 24.44 8.18 35.17 2.52 47.69.69 65.46-1.9 81.25 2.76 94.6 14.85c10.14 9.18 15.99 20.74 17.87 34.29.25 1.77.38 3.55.56 5.33v3.83zm-5.48-1.75c.07-27.68-22.18-50.73-50.3-51.19-28.18-.45-51.89 22.08-51.9 51.12 0 28.68 23.19 51.12 51.19 51.13 28.09 0 51.01-22.95 51.01-51.06z"/><path d="M75.25 56.45c0 10.5-8.38 18.86-18.87 18.85-10.36-.02-18.82-8.51-18.78-18.87.04-10.46 8.44-18.75 18.98-18.74 10.36.01 18.67 8.36 18.67 18.76zm-5.34-.01c0-7.35-6.05-13.4-13.4-13.41-7.45-.01-13.48 5.99-13.5 13.42-.01 7.42 6.04 13.49 13.46 13.51 7.35.03 13.45-6.1 13.44-13.52zM74.08 83.01c1.6.85 3.13 1.67 4.75 2.53-2.6 4.89-5.15 9.69-7.78 14.63-1.59-.84-3.12-1.65-4.76-2.52 2.61-4.89 5.18-9.73 7.79-14.64zM97.19 65.8c-.83 1.63-1.62 3.18-2.44 4.8-4.85-2.47-9.6-4.88-14.45-7.34.82-1.62 1.6-3.17 2.43-4.81l14.46 7.35zM51.53 82.89c.83 1.63 1.61 3.14 2.45 4.79-4.76 2.44-9.45 4.84-14.22 7.29-.83-1.63-1.63-3.17-2.46-4.79 4.78-2.45 9.47-4.85 14.23-7.29zM24.43 44.88c1.02 1.49 1.98 2.9 3.03 4.45-3.85 2.62-7.65 5.2-11.55 7.86-1.02-1.5-2-2.93-3.03-4.45 3.84-2.62 7.62-5.19 11.55-7.86zM37.54 18.08c1.04 1.47 2.05 2.89 3.12 4.4-3.79 2.69-7.52 5.33-11.34 8.04-1.04-1.46-2.04-2.88-3.12-4.4 3.8-2.7 7.53-5.34 11.34-8.04zM38.49 75.55c-1.49 1.04-2.92 2.04-4.42 3.09-2.62-3.75-5.21-7.47-7.88-11.29 1.49-1.04 2.91-2.04 4.41-3.09 2.65 3.77 5.23 7.48 7.89 11.29zM69.24 26.88c1.54-1.04 2.95-2 4.46-3.02 2.54 3.75 5.03 7.44 7.62 11.26-1.5 1.02-2.92 1.99-4.45 3.03-2.54-3.76-5.04-7.44-7.63-11.27zM89.52 48.54c-1.46-1.06-2.83-2.07-4.35-3.18 2.63-3.58 5.23-7.13 7.91-10.78 1.44 1.06 2.84 2.08 4.35 3.19-2.66 3.6-5.26 7.15-7.91 10.77zM58.86 13.08c1.04 1.05 2.26 2.28 3.41 3.45-2.65 2.65-5.4 5.39-8.15 8.13-1.13-1.15-2.33-2.36-3.48-3.53 2.72-2.67 5.5-5.38 8.22-8.05zM37.64 37.56v-5.29c1.63 0 3.24-.02 4.84.03.18.01.5.39.51.61.04 1.54.02 3.08.02 4.66-1.87-.01-3.61-.01-5.37-.01zM21.45 67.24v5.32H16.1c0-1.57-.03-3.15.03-4.72.01-.21.42-.56.66-.57 1.51-.05 3.01-.03 4.66-.03zM91.38 80.66V86h-5.33c0-1.6-.02-3.21.03-4.82.01-.18.39-.5.61-.5 1.54-.04 3.08-.02 4.69-.02zM69.97 18.69v-5.25c1.59 0 3.12-.03 4.65.03.22.01.59.41.6.64.05 1.5.03 3 .03 4.58h-5.28z"/></svg>
