<svg xmlns="http://www.w3.org/2000/svg" viewBox="0 0 52.62 82.31" overflow="visible"><path d="M39.85 0h2.39c.14.06.28.16.43.19 4.75.82 8.01 3.48 9.4 8.09 1.4 4.65.09 8.68-3.35 12.1-6.62 6.57-13.18 13.18-19.77 19.78-.33.33-.64.67-1.15 1.21.48.37.9.62 1.24.95 6.73 6.73 13.47 13.46 20.18 20.21 3.65 3.67 4.43 9.35 1.96 13.78-3.82 6.84-12.89 8.05-18.53 2.42-9.69-9.69-19.35-19.41-29.02-29.11-4.83-4.84-4.86-12.02-.03-16.88C13.3 23 23.03 13.28 32.73 3.56 34.35 1.94 36.26.87 38.48.34c.46-.11.92-.23 1.37-.34z"/></svg>
