<svg xmlns="http://www.w3.org/2000/svg" viewBox="0 0 205.79 205.71" overflow="visible"><path d="M106.78 205.71h-7.67c-.35-.06-.69-.16-1.04-.17-7.36-.33-14.63-1.37-21.72-3.38-30.01-8.51-52.15-26.7-65.95-54.64C-.2 126.03-2.57 103.35 2.71 80c5.01-22.18 16.24-40.8 33.64-55.38C61.64 3.42 90.8-4.07 123.17 2.08c22.11 4.2 40.75 15.06 55.85 31.73 15.49 17.09 24.26 37.21 26.31 60.22.15 1.74.31 3.49.46 5.23v7.19c-.06.31-.15.61-.17.92-.26 6.44-1.11 12.79-2.62 19.05-5.2 21.53-16.13 39.63-32.86 54.12-16.73 14.49-36.19 22.71-58.26 24.7-1.71.16-3.4.31-5.1.47zm-2.33-15.86c49.2-.84 88.75-42.88 85.25-93.16-3.3-47.27-44.51-84.24-93.35-80.62-46.89 3.48-83.94 44.52-80.17 93.51 3.56 46.12 42.67 81.1 88.27 80.27z"/><path d="M102.39 101.82c1.4 1.36 2.5 2.41 3.57 3.48 10.2 10.2 20.43 20.37 30.59 30.61 5.34 5.39 6.97 11.89 4.62 19.06-2.32 7.1-7.47 11.34-14.85 12.49-6.09.94-11.49-.86-15.88-5.24-15.84-15.8-31.69-31.6-47.46-47.47-7.03-7.07-6.87-18.68.33-25.92 15.75-15.84 31.51-31.67 47.4-47.36 5.46-5.39 12.2-6.71 19.38-4.04 7.1 2.64 11.11 7.99 11.92 15.54.65 5.99-1.45 11.05-5.68 15.27-10.88 10.88-21.75 21.76-32.64 32.63-.32.33-.76.56-1.3.95z"/></svg>
