<svg xmlns="http://www.w3.org/2000/svg" viewBox="0 0 88.19 95.24"><path d="M76.82 12.34C69.24 4.11 58.25 0 44.1 0S18.95 4.11 11.37 12.34 0 32.38 0 47.77s3.8 27.16 11.4 35.28c7.6 8.12 18.5 12.18 32.69 12.18 14.19 0 25.09-4.06 32.69-12.18s11.4-19.88 11.4-35.28c0-15.39-3.79-27.21-11.37-35.43zM62.77 69.92c-1.42 1.51-5.71 6.1-18.66 6.1s-17.25-4.6-18.67-6.1c-4.12-4.4-6.21-11.85-6.21-22.14 0-10.35 2.11-17.88 6.27-22.4 1.4-1.52 5.66-6.15 18.6-6.15s17.19 4.62 18.59 6.15c4.17 4.52 6.29 12.06 6.29 22.4s-2.09 17.74-6.22 22.14z" fill="#fff"/></svg>
