<svg xmlns="http://www.w3.org/2000/svg" id="a" viewBox="0 0 122.46 125.94"><defs><style>.b{fill:#005dae}</style></defs><path class="b" d="M61.23 0C31.51 0 6.61 20.6 0 48.3h5.1C11.6 23.36 34.27 4.96 61.24 4.96s49.63 18.41 56.13 43.34h5.08C115.82 20.62 90.94.03 61.23 0z"/><path class="b" d="M71.15 41.41c-2.34-.52-4.75-.59-7.11-.21a2.473 2.473 0 0 0-2.06 2.84 2.479 2.479 0 0 0 2.84 2.06c.59-.08 1.19-.13 1.79-.14.15 0 .3-.03.45-.03 2.89 0 5.58.88 7.82 2.37h7.21a19.035 19.035 0 0 0-10.94-6.89zM78.07 27.67a34.147 34.147 0 0 0-11.02-1.83c-1.89 0-3.78.16-5.65.47a2.484 2.484 0 0 0-2.01 2.88 2.495 2.495 0 0 0 2.82 2.02c1.6-.26 3.22-.4 4.84-.4 11.97 0 22.24 7.2 26.77 17.49h5.34c-3.44-9.37-10.92-17.16-21.1-20.63zM51.46 44.09c-.56-1.38-1.11-2.72-1.66-4.01-2.02-4.79-3.83-8.67-5.52-11.84-.08-.16-.18-.3-.29-.43l-.25-.31c-.34-.44-.71-.86-1.11-1.24-.63-.6-1.41-1.03-2.25-1.25a5.38 5.38 0 0 0-3.49.36c-1.57.68-5.52 2.69-6.85 3.53-.04.03-.07.06-.1.08-.01 0-.02.01-.03.02s-.03.02-.04.03h-.02l-.06.06-.4.3c-2.44 1.8-4.74 3.51-6.58 6.39-.17.27-.35.53-.51.78-1.18 1.76-2.52 3.76-2.02 7.04.24 1.58.54 3.15.86 4.72h5.06c-.4-1.81-.75-3.63-1.03-5.47-.2-1.31.16-1.93 1.24-3.53.19-.28.38-.57.58-.87.9-1.35 2.02-2.54 3.31-3.51l5.87 13.38h5.4L37.05 38l-2.58-5.89c1.54-.82 3.5-1.79 4.4-2.19.17-.07.27-.09.28-.09.04.03.09.06.13.1.21.21.4.43.58.67l.16.21c1.57 2.97 3.32 6.75 5.21 11.23.54 1.28 1.08 2.6 1.63 3.94.29.71.22 1.28.06 1.37-.46.24-1.02.49-1.63.75-.18.08-.37.15-.56.23h7.11c.31-1.29.22-2.75-.37-4.21zM61.24 120.98c-25.24 0-46.7-16.13-54.68-38.63H1.32c8.18 25.29 31.91 43.59 59.92 43.59s51.74-18.3 59.92-43.59h-5.25c-7.99 22.49-29.44 38.6-54.66 38.63z"/><path class="b" d="M54.24 98.93a87.17 87.17 0 0 0 10.43 6.03c3.79 1.9 7.74 3.44 11.81 4.6.46.12.94.19 1.42.18 2.22 0 4.42-1.23 5.96-2.09l.16-.09c2.19-1.32 4.26-2.83 6.19-4.5h.01s.02-.03.02-.04c.13-.11.25-.24.35-.38 0-.01.02-.02.03-.03.85-1.17 2.4-3.48 3.76-5.51.66-.99 1.27-1.9 1.72-2.56 1.67-2.46 1-5.73-1.63-7.95-1.18-1-2.34-1.97-3.49-2.9-.56-.46-1.11-.91-1.66-1.34h-8.08c2.02 1.5 4.22 3.23 6.6 5.18 1.12.92 2.26 1.86 3.42 2.84.65.55.89 1.14.73 1.37-.45.67-1.07 1.6-1.74 2.6-.75 1.12-1.55 2.31-2.25 3.34l-5.33-3.8-11.65-8.3c.73-.93 1.61-2.03 2.41-3.02l.17-.21h-6.34c-.55.71-1.01 1.31-1.34 1.78-.08.11-.17.24-.24.34-.05.04-.09.07-.15.1-.35.17-.38.16-.52.07-1.14-.7-2.26-1.46-3.35-2.28h-7.68c2.69 2.53 5.48 4.69 8.43 6.51.82.52 1.77.8 2.74.81.8-.01 1.58-.19 2.31-.53l17.03 12.13c-.93.71-1.89 1.37-2.9 1.97l-.15.08c-.73.41-2.95 1.65-3.66 1.45a66.039 66.039 0 0 1-10.93-4.27 83.35 83.35 0 0 1-9.83-5.68 69.341 69.341 0 0 1-14.13-12.46h-6.35c.44.59.89 1.18 1.35 1.76a73.942 73.942 0 0 0 16.36 14.82z"/></svg>
