<svg xmlns="http://www.w3.org/2000/svg" id="a" viewBox="0 0 123.93 115.6"><defs><style>.b{fill:#005dae}</style></defs><path class="b" d="M43.15 19.3a3.005 3.005 0 0 0-3.23 2.77v7.28c-.05 0-5.46-8.37-5.46-8.37a3.686 3.686 0 0 0-3.35-1.69c-2.33 0-3.54 1.09-3.54 2.97v12.35c-.02.2-.02.4 0 .6a2.669 2.669 0 0 0 2.99 2.3c.2.03.4.03.6.01a2.663 2.663 0 0 0 2.4-2.91v-6.87c.05 0 5.17 7.59 5.17 7.59 1.18 1.77 2.07 2.18 3.7 2.18 1.96 0 3.48-.75 3.48-2.66V22.06a3.012 3.012 0 0 0-2.77-2.77zM90.1 19.38a2.6 2.6 0 0 0-2.92 2.22l-1.69 9.48c-.05 0-1.74-9.02-1.74-9.02-.35-1.91-.99-2.68-3.11-2.68s-2.76.77-3.11 2.68l-1.69 9.02c-.05 0-1.74-9.48-1.74-9.48a2.586 2.586 0 0 0-2.92-2.22c-.06 0-.12-.01-.18-.01a2.524 2.524 0 0 0-2.61 2.43c.1 1.09.33 2.17.67 3.22l2.71 9.91c.28 1.53 1.66 2.6 3.21 2.49H76c1.51.1 2.82-1.06 2.92-2.57l1.69-8.08c.05 0 1.74 8.08 1.74 8.08v.08a2.748 2.748 0 0 0 2.99 2.48h.94c1.55.11 2.94-.96 3.22-2.49l2.7-9.91c.34-1.04.57-2.12.67-3.21 0-.06 0-.12-.01-.17a2.516 2.516 0 0 0-2.77-2.24zM63.96 33.04h-7.45v-2.78h5.73c1.85 0 2.68-.82 2.68-2.03s-.83-2.03-2.68-2.03h-5.73v-2.44h7.15c1.85 0 2.68-.82 2.68-2.03s-.83-2.03-2.68-2.03h-9.81c-2.38 0-3.51.99-3.51 3.31V33.8c0 2.32 1.12 3.31 3.51 3.31h10.1c1.85 0 2.68-.82 2.68-2.03s-.83-2.03-2.68-2.03z"/><path class="b" d="M103.33 0l-8.9 6.4L85.52 0l-8.91 6.4-8.9-6.4-8.91 6.39L49.89 0l-8.9 6.39L32.07 0l-9.06 6.5L11.7 0l-.01 18.96H0v20.95h16.8l.01-31.07 6.51 3.73 8.75-6.27 8.91 6.39 8.9-6.39 8.91 6.39L67.7 6.3l8.91 6.39 8.9-6.39 8.91 6.39 8.91-6.39 8.75 6.28 6.51-3.73-.01 31.06h5.11l.02-39.9-11.32 6.5L103.33 0z"/><path class="b" d="M106.27 26.42l-3.19-.77c-1.31-.32-2.06-.65-2.06-1.43s.97-1.16 2.01-1.16c3.05 0 3.08 2.13 5.14 2.13 1.53 0 2.68-.85 2.68-2.2 0-2.93-4.61-3.7-8.17-3.7-5.36 0-7.5 2.73-7.5 5.63 0 2.44 1.69 4.08 4.77 4.88l4.1 1.07c1.12.29 1.69.58 1.69 1.28 0 1.06-1.12 1.45-2.38 1.45-3.03 0-3.29-2.54-5.49-2.54-.06 0-.12-.01-.18-.01-1.3-.04-2.38.99-2.42 2.28 0 1.57 1.98 4.18 8.47 4.18 4.07 0 8.01-1.79 8.01-5.92 0-3.02-2.22-4.37-5.47-5.17zM75.3 99.57c-.18-.41-.29-.85-.33-1.3-.22-2.23 1.26-3.27 3.31-4.13 2.4-1.01 5.57-2.97 7.08-3.53l.22-1.83c-.88-1.08-.98-2.01-1.41-3.6a1.35 1.35 0 0 1-.66-.9l-.5-2.83c-.03-.4.16-.78.5-.99 0-3.2.93-5.55 3.3-6.5H69.27v25.6h6.03zM95.58 80.46c.34.21.53.59.5.99l-.5 2.83c-.08.38-.33.71-.66.9-.42 1.59-.52 2.52-1.41 3.6l.23 1.83c1.5.56 4.68 2.52 7.08 3.53 2.04.85 3.53 1.9 3.3 4.13-.04.45-.15.89-.33 1.3h6.69v-25.6H92.29c2.37.95 3.3 3.29 3.3 6.5z"/><path class="b" d="M9.63 115.6h101.28c8.37 0 12.98-4.54 12.98-12.8v-1.7c0-.16.03-.28.03-.44V73.97h-5.1v26.69c0 5.74-1.95 7.68-7.7 7.68H16.08c.76-2.48 1.08-5.08.94-7.68v-26.7H.24v30.53c0 5.37.73 11.1 9.39 11.1z"/><path class="b" d="M29.6 86.31h29.04c1.42 0 2.56-1.15 2.56-2.56 0-1.42-1.15-2.56-2.56-2.56H29.6a2.565 2.565 0 0 0-2.51 2.51 2.553 2.553 0 0 0 2.51 2.61zM29.6 97.54h29.04c1.42 0 2.56-1.15 2.56-2.56s-1.15-2.56-2.56-2.56H29.6c-1.42 0-2.56 1.15-2.56 2.56s1.15 2.56 2.56 2.56z"/></svg>
