<svg xmlns="http://www.w3.org/2000/svg" viewBox="0 0 610.8 610.8" overflow="visible"><path d="M305.4 0C136.73 0 0 136.73 0 305.4s136.73 305.4 305.4 305.4 305.4-136.73 305.4-305.4C610.62 136.81 473.99.19 305.4 0zM182.6 80.99a505.024 505.024 0 0 0-38.76 119.84H72.11A257.368 257.368 0 0 1 182.6 80.99zM49.54 305.4h.03a254.94 254.94 0 0 1 10.35-71.56h78.7a522.632 522.632 0 0 0 2.05 143.08H59.89a254.61 254.61 0 0 1-10.35-71.52zm22.57 104.57h74.49c9.17 42.05 22.78 83 40.62 122.16A257.091 257.091 0 0 1 72.11 409.97zm216.77 150.47c-19-1.16-37.81-4.45-56.07-9.8h.03a604.565 604.565 0 0 1-52.93-140.67h108.97v150.47zm0-183.51h-115.5c-8.09-47.28-9.11-95.5-3.05-143.08H288.88v143.08zm-113-176.1c9.83-49.53 28.3-96.94 54.58-140.06 19-5.73 38.61-9.23 58.42-10.41v150.47h-113zm362.82 0h-71.74a504.193 504.193 0 0 0-38.79-119.84A257.307 257.307 0 0 1 538.7 200.83zM321.92 50.36c19.74 1.19 39.27 4.66 58.21 10.35a443.54 443.54 0 0 1 53.54 140.12H321.92V50.36zm0 183.49h117.34c6.19 47.56 5.38 95.76-2.41 143.08l-114.92.03V233.85zm.03 326.59h-.03V409.97h108.54a593.951 593.951 0 0 1-52.47 140.67 254.354 254.354 0 0 1-56.04 9.8zm101.64-28.31a606.196 606.196 0 0 0 40.62-122.16h74.49a257.185 257.185 0 0 1-115.11 122.16zm46.55-155.2c7.23-47.38 7.91-95.52 2.02-143.08h78.73a251.72 251.72 0 0 1 0 143.08h-80.75z"/></svg>
