<svg xmlns="http://www.w3.org/2000/svg" viewBox="0 0 676.32 680.91" overflow="visible"><path d="M614.19 549.77s56.04-85.67 23.75-202.34c-49.29-163.66-199.32-208.47-199.32-208.47s109.61 57.13 128.13 196.72c6.52 109.59-35.54 166.25-35.54 166.25l-62.12-35.87 43.76 163.25 163.47-43.7-62.13-35.84zM274.1 617.06c-86.13-33.04-129.17-115.1-129.17-115.1L207 466.12 43.76 422.36 0 585.62l62.12-35.84s45.11 99.33 170.02 123.34c151.9 37.01 273.79-69.62 273.79-69.62-67.31 35.38-145.69 46.6-231.83 13.56zM184.3 214.23c77.06-51.87 153.96-47.17 153.96-47.17l1.99 69.96 117.53-117.53L338.01 0v71.71c-40.23 1.61-95.77 1.39-173.23 67.26C86.33 201.84 50.24 318.1 70.26 425.64c.03-70.46 36.98-159.54 114.04-211.41z"/></svg>
