<svg xmlns="http://www.w3.org/2000/svg" viewBox="0 0 483.12 537.19" overflow="visible"><style>.st0{fill:#242424}</style><path class="st0" d="M483.11 502.52c-.5-13.75-9.52-153.71-13.39-189.43-3.86-35.72 5.8-229.62 5.8-292.77l-.08-.02c0-14.03 1.28-37.63-28.71 0-43.29 54.36-33.81 262.8-32.53 274.92 1.28 12.11 14.05 11.48 25.52 11.48-11.42 154.99-33.79 190.07-17.21 212.4 30.83 41.51 61.23.63 60.6-16.58zM83.26.57C66.03-3.19 24.92 11.53 4.17 84.01c-11.52 38.67 1.3 80.48 32.53 106.04 15.3 14.43 21.02 10.72 23.61 35.14 5.1 48.3-17.21 223.96-19.14 258.46-4.04 72.67 68.25 65.24 69.55 13.79.97-39.14-14.66-153.7-20.42-242.15v-1.04h-.02c.66-56.66 7.73-44.74 27.91-64.99 33.5-29.06 44.16-76.55 26.31-117.15C126.26 18.87 100.49 4.34 83.26.57zM332.68 160.68c-5.1-49.76-12.23-147.65-19.15-157.77-4.46-6.55-5.79 1.31-5.79 5.24 0 1.93 3.86 135.52 3.86 140.1 0 4.58-10.16 5.12-10.16-1.41s-7.05-140.1-7.05-142.72c0-3.86-5.1-5.8-5.79-.66-.71 5.8.64 139.36.64 142.07 0 6.55-12.75 11.78-13.39-1.93-.27-5.93.64-138.14.64-140.1 0-3.86-5.1-4.58-5.8-1.31-.75 3.86-6.3 143.75-7.01 145.99a5.187 5.187 0 0 1-6.4 3.6 5.209 5.209 0 0 1-3.8-4.92c0-5.8 3.86-143.38 3.19-145.33-.68-1.95-4.46-1.31-5.1 1.31l.09.04A1014.63 1014.63 0 0 0 237 109.59c-5.1 49.76-10.84 75.34 7.01 96.9s28.07 24.23 28.07 24.23c-1.27 11.78-15.45 258.61-15.94 267.77-3.19 50.4 60.6 52.37 59.33 1.31-.79-31.43-15.96-206.88-22.33-269.72 27.31-11.58 43.51-40 39.54-69.4z"/></svg>
