<svg xmlns="http://www.w3.org/2000/svg" viewBox="0 0 348.08 585.56" overflow="visible"><path d="M331.59 173.1c-10.15-29.48-24.55-56.72-42.58-81.08-.67-2.01-1.85-3.89-3.53-5.41-.45-.4-.92-.75-1.41-1.08-27.62-35.25-63.09-64.07-104.53-84.28l-.04-.02c-3.25-1.56-6.95-1.63-10.29-.26-.06.03-.12.05-.19.08-.16.07-.32.12-.48.2-40.6 19.8-76.22 48.75-104.05 84-.64.39-1.26.84-1.83 1.36a12.648 12.648 0 0 0-3.65 5.8c-10.89 14.68-20.47 30.37-28.53 46.9-35.1 71.98-40.07 153.32-14 229.03 25.19 73.15 76.46 132.59 144.87 168.22v39.06c0 5.58 5.58 9.94 12.71 9.94 7.11 0 12.68-4.37 12.68-9.94v-39.09c56.56-29.53 102.84-76.98 130.84-134.4 35.11-71.98 40.08-153.31 14.01-229.03zm-144.86 4.26V36.09a266.557 266.557 0 0 1 73.3 59.81l-73.3 81.46zm-25.39-.07L87.63 95.38C108.42 71.34 133.4 51 161.34 35.6v141.69zm25.39 298.11V373.7l99.68-110.77c2.27-2.52 3.42-5.77 3.24-9.16s-1.66-6.5-4.18-8.77c-5.2-4.68-13.24-4.26-17.92.94l-80.81 89.8V215.3l89.12-99.03c54.35 77.47 66.19 181.43 21.85 272.34-24.05 49.32-63.16 90.43-110.95 117.03v-29.93c-.01-.1-.03-.21-.03-.31zM49.45 153.14a266.72 266.72 0 0 1 22.28-37.5l89.62 99.58v120.5L80.59 246c-4.68-5.2-12.72-5.62-17.92-.94-5.2 4.68-5.62 12.72-.94 17.92l99.62 110.7v132.51C36.79 437.71-13.52 282.26 49.45 153.14z" fill="#038c7f"/></svg>
