<svg xmlns="http://www.w3.org/2000/svg" viewBox="0 0 629.24 494.65" overflow="visible"><path d="M549.43 0H238.68c-44.07.04-79.8 35.75-79.85 79.82v4.52H79.76C35.67 84.43-.01 120.2 0 164.28v160.8c.04 36.35 24.59 68.1 59.76 77.29v72.3c.03 7.76 4.54 14.8 11.57 18.08 2.66 1.26 5.56 1.91 8.5 1.9 4.7 0 9.25-1.66 12.86-4.68l102.01-85.25h195.9c35.36-.05 66.48-23.33 76.53-57.23l69.43 58.02c8.51 7.1 21.16 5.96 28.26-2.55 3.01-3.61 4.66-8.16 4.66-12.86v-72.3c35.17-9.18 59.72-40.93 59.76-77.27V79.82C629.19 35.77 593.49.06 549.43 0zM430.37 324.99c-.04 21.91-17.79 39.66-39.7 39.7l-.07.11H187.53c-4.7 0-9.25 1.66-12.86 4.68l-74.56 62.4v-47.02c0-11.08-8.98-20.06-20.06-20.06-21.91-.04-39.66-17.79-39.7-39.7V164.28c.04-21.82 17.65-39.54 39.47-39.7h79.08v116.06c.05 44.06 35.76 79.77 79.82 79.82h192.23c-.36 1.49-.56 3-.58 4.53zm119.13-44.87c-11.08 0-20.06 8.98-20.06 20.06v46.99l-74.56-62.4a20.072 20.072 0 0 0-12.86-4.65H238.68c-21.91-.02-39.67-17.78-39.7-39.7V79.82c.02-21.91 17.78-39.67 39.7-39.7h310.75c21.91.02 39.67 17.78 39.7 39.7l.07 160.6c-.03 21.91-17.78 39.67-39.7 39.7z"/><path d="M525.51 115.97H262.56c-7.39 0-13.37 5.99-13.37 13.38 0 7.39 5.99 13.37 13.37 13.37h262.95c7.39 0 13.38-5.99 13.37-13.38 0-7.38-5.99-13.37-13.37-13.37zM525.51 185.72H262.56c-7.39 0-13.37 5.99-13.37 13.38 0 7.39 5.99 13.37 13.37 13.37h262.95c7.39 0 13.38-5.99 13.37-13.38 0-7.38-5.99-13.37-13.37-13.37z"/></svg>
