<svg xmlns="http://www.w3.org/2000/svg" viewBox="0 0 1097.48 1097.48" overflow="visible"><style>.st0{fill:#038c7f}</style><path class="st0" d="M1054.36 335.14c-27.64-65.34-67.2-124.03-117.6-174.42S827.68 70.76 762.33 43.12C694.68 14.51 622.82 0 548.74 0S402.8 14.51 335.14 43.12c-65.34 27.64-124.03 67.2-174.42 117.6S70.76 269.8 43.12 335.14C14.51 402.8 0 474.66 0 548.74s14.51 145.94 43.12 213.59c27.64 65.34 67.2 124.03 117.6 174.42s109.08 89.96 174.42 117.6c67.65 28.61 139.52 43.12 213.59 43.12s145.94-14.51 213.59-43.12c65.34-27.64 124.03-67.2 174.42-117.6s89.96-109.08 117.6-174.42c28.61-67.65 43.12-139.52 43.12-213.59s-14.49-145.94-43.1-213.6zm-505.62 758.82c-300.64 0-545.22-244.58-545.22-545.22S248.1 3.52 548.74 3.52s545.22 244.58 545.22 545.22-244.58 545.22-545.22 545.22z"/><path class="st0" d="M472.81 548.2L360.6 845.61 815.27 548.2 360.6 250.85z"/></svg>
