<svg xmlns="http://www.w3.org/2000/svg" viewBox="0 0 713.74 496.33" overflow="visible"><path d="M244.8 368.6H93.72c-10.15 0-18.38 8.23-18.38 18.38 0 10.15 8.23 18.38 18.38 18.38H244.8c10.15 0 18.38-8.23 18.38-18.38 0-10.15-8.23-18.38-18.38-18.38zM322.61 368.01c-10.46 0-18.95 8.48-18.95 18.95s8.48 18.95 18.95 18.95 18.95-8.48 18.95-18.95c-.02-10.46-8.49-18.94-18.95-18.95z"/><path d="M699.92 36.55a27.168 27.168 0 0 0-19-19.77A81.124 81.124 0 0 0 631.78 0H81.96A81.094 81.094 0 0 0 32.8 16.8a27.203 27.203 0 0 0-14.08 9.52c-2.33 3.03-4 6.51-4.91 10.22A81.409 81.409 0 0 0 0 81.96v332.42c.05 45.24 36.71 81.91 81.96 81.96h549.82c45.24-.05 81.91-36.71 81.96-81.96V81.96c.01-16.18-4.8-31.99-13.82-45.41zM612.6 55.13L427.3 198.26c-27.28-38.9-80.92-48.31-119.81-21.04a86.172 86.172 0 0 0-21.04 21.04L101.07 55.13H612.6zm-224.37 193V248.17c.02 17.31-13.98 31.36-31.29 31.4-17.32.04-31.4-13.97-31.44-31.29s13.97-31.4 31.29-31.44h.07c17.3.02 31.33 14.03 31.37 31.33v-.04zm270.38 166.25c-.02 14.81-12.02 26.81-26.83 26.83H81.96c-14.81-.02-26.81-12.02-26.83-26.83V89.27l214.37 165.6c.53.32 1.08.62 1.64.88 3.92 47.34 45.49 82.54 92.83 78.62 41.9-3.47 75.14-36.72 78.62-78.62.53-.35 1.14-.48 1.65-.88L658.61 89.29v325.09z"/></svg>
