<svg xmlns="http://www.w3.org/2000/svg" viewBox="0 0 1097.48 1097.48" overflow="visible"><style>.st0{fill:#038c7f}</style><path class="st0" d="M0 548.74c0 74.08 14.51 145.94 43.12 213.59 27.64 65.34 67.2 124.03 117.6 174.42s109.08 89.96 174.42 117.6c67.65 28.61 139.52 43.12 213.59 43.12s145.94-14.51 213.59-43.12c65.34-27.64 124.03-67.2 174.42-117.6s89.96-109.08 117.6-174.42c28.61-67.65 43.12-139.52 43.12-213.59s-14.51-145.94-43.12-213.59c-27.64-65.34-67.2-124.03-117.6-174.42S827.68 70.76 762.33 43.12C694.68 14.51 622.82 0 548.74 0c-74.08 0-145.94 14.51-213.6 43.12-65.34 27.64-124.03 67.2-174.42 117.6S70.76 269.8 43.12 335.14C14.51 402.8 0 474.66 0 548.74zm3.52 0C3.52 248.1 248.1 3.52 548.74 3.52s545.22 244.58 545.22 545.22-244.58 545.22-545.22 545.22S3.52 849.38 3.52 548.74z"/><path class="st0" d="M624.67 548.2l112.21 297.41L282.21 548.2l454.67-297.35z"/></svg>
