<svg xmlns="http://www.w3.org/2000/svg" viewBox="0 0 617.76 541.39" overflow="visible"><path d="M613.28 93.05a18.829 18.829 0 0 0-14.36-6.65H138.96c-.73 0-1.46.04-2.18.13L123.7 28.57a18.848 18.848 0 0 0-15.34-14.45L21.05.13C10.71-1.08 1.34 6.31.13 16.65c-1.14 9.74 5.38 18.73 14.99 20.67l74.7 11.96 64.33 285.31c1.94 8.59 9.57 14.69 18.37 14.69h389.47c9.23.01 17.1-6.67 18.61-15.78l36.91-225.21c.89-5.45-.65-11.03-4.23-15.24zm-468.02 31.03h85.16l11.59 79.1h-78.88l-17.87-79.1zm42.34 187.53l-18.78-83.31h76.97L258 311.61h-70.4zm170.33 0h-74.57l-12.22-83.31h86.79v83.31zm0-108.43h-90.48l-11.59-79.1h102.07v79.1zm96.49 108.43h-71.47V228.3h83.68l-12.21 83.31zm-71.47-108.43v-79.1h98.95l-11.59 79.1h-87.36zm163.06 108.43H479.9l12.22-83.31h67.55l-13.66 83.31zm17.76-108.43h-67.99l11.59-79.1h69.34l-12.94 79.1zM258.24 390.03c-41.8 0-75.68 33.88-75.68 75.68 0 41.8 33.88 75.68 75.68 75.68 41.8 0 75.68-33.88 75.68-75.68-.05-41.77-33.9-75.63-75.68-75.68zm0 113.71c-21 0-38.02-17.02-38.02-38.02s17.02-38.02 38.02-38.02c21 0 38.02 17.02 38.02 38.02-.02 20.98-17.03 37.99-38.02 38.02zM491.42 390.03c-41.8 0-75.68 33.88-75.68 75.68 0 41.8 33.88 75.68 75.68 75.68 41.8 0 75.68-33.88 75.68-75.68-.04-41.77-33.9-75.63-75.68-75.68zm38.03 75.68c-.02 20.99-17.03 38-38.02 38.02-21 0-38.02-17.02-38.02-38.02s17.02-38.02 38.02-38.02 38.02 17.02 38.02 38.02z"/></svg>
