<svg xmlns="http://www.w3.org/2000/svg" id="a" viewBox="0 0 133.09 110.61"><defs><style>.b{fill:#005dae}</style></defs><path class="b" d="M16.49 87.82h15.22v22.8H16.49zM31.7 30.64c0-9.98-1.91-17.58-5.74-22.8S16.47 0 8.98 0C5.94-.05 2.91.38 0 1.29v16.6a25.6 25.6 0 0 1 7.16-1.17c3.34 0 5.73 1.24 7.17 3.71 1.38 2.37 2.08 6.06 2.14 10.99v22.33H31.7V30.64zM58.5 53.53c2.97-11.55 9.29-20.12 20.61-24.48 6.85-2.64 14.02-3.08 21.23-2.59 7.62.52 14.75 2.62 20.89 7.42 5.8 4.54 10.26 11.85 11.85 19.67-.26.04-.52.11-.78.11-5.28 0-10.56.02-15.83-.02-.42 0-1.06-.3-1.21-.63-2.57-5.61-7.15-8.4-13.05-9.33-5.43-.85-10.81-.77-16.12.82-4.39 1.32-7.5 4.1-9.51 8.2-.2.41-.75.92-1.14.93-5.48.06-10.96.04-16.43.03-.11 0-.23-.05-.52-.12zM112.7 87.82h19.28c-1.67 4.68-4.05 8.68-7.15 11.99-6.74 7.2-16.39 10.8-28.97 10.8-12.58 0-22.24-3.61-28.97-10.8-3.1-3.31-5.48-7.32-7.15-11.99h19.28c.1.12.2.24.31.36 1.25 1.33 5.07 5.41 16.54 5.41s15.28-4.07 16.54-5.41c.11-.11.21-.24.31-.36z"/></svg>
