<svg xmlns="http://www.w3.org/2000/svg" id="a" viewBox="0 0 103.85 128.69"><defs><style>.b{fill:#005dae}</style></defs><path class="b" d="M30.82 28.56c3.28 0 5.94-2.66 5.95-5.94V5.95A5.934 5.934 0 0 0 30.84 0c-3.28 0-5.94 2.66-5.95 5.94V22.6a5.943 5.943 0 0 0 5.93 5.96zM75.8 28.59c3.28 0 5.94-2.65 5.94-5.92V5.98a5.926 5.926 0 0 0-6-5.87 5.95 5.95 0 0 0-5.87 5.86v16.67a5.926 5.926 0 0 0 5.93 5.94zM66.21 7.9l-25.78.02v5.3l25.78-.01V7.9zM103.83 21.74c0-7.66-6.21-13.86-13.87-13.86h-4.55v5.31h4.54c4.73 0 8.56 3.83 8.56 8.56v27.07h5.32V21.74zM5.31 21.81c0-4.73 3.83-8.56 8.56-8.57h7.37v-5.3h-7.37C6.2 7.95 0 14.16 0 21.82v26.99h5.32v-27z"/><path class="b" d="M94.91 28.41c0-5.55-4.03-10.28-9.51-11.18v5.42c0 .22-.05.43-.06.65 2.17.76 3.63 2.8 3.65 5.11v20.4h5.93v-20.4zM14.88 28.41c0-3 2.44-5.43 5.44-5.44h.95c0-.12-.04-.24-.04-.37v-5.56h-.92c-6.28 0-11.36 5.09-11.36 11.37v20.4h5.93v-20.4zM66.21 22.65v-5.6H40.43v5.58c0 .12-.03.23-.04.35h25.85c0-.11-.03-.22-.03-.33zM103.85 82.87h-5.31v4.43l-.02 27.53c0 4.73-3.84 8.56-8.56 8.56l-76.09-.06c-4.73-.01-8.55-3.85-8.56-8.57V99.67h.02v-16.8H.02v4.4L0 114.75c0 7.66 6.2 13.87 13.86 13.88l76.09.06c7.66 0 13.87-6.19 13.88-13.85V99.58h.02V82.86z"/><path class="b" d="M20.31 118.63h39.12v-.03c.12.02.25.03.37.03.6 0 1.18-.14 1.73-.38.42-.18.83-.39 1.23-.63.91-.54 1.79-1.16 2.61-1.83 29.72-24.45 28.25-26.14 29.5-28.67l.04-4.26h-30.5c-4.61 1.45-7.95 5.76-7.95 10.84v19H20.32c-3 0-5.44-2.44-5.44-5.44v-24.4H8.95v24.4c0 6.28 5.09 11.37 11.37 11.37zM62.39 93.7c0-3 2.43-5.43 5.44-5.44h19.02c-.16.21-.3.39-.48.61-1.95 2.37-6.85 5.4-9.88 8.54a147.29 147.29 0 0 1-14.1 13.15V93.7z"/></svg>
