<svg xmlns="http://www.w3.org/2000/svg" id="a" viewBox="0 0 129.08 112.36"><defs><style>.b{fill:#005dae}</style></defs><path class="b" d="M23 36.64h33.84c-.96-2.22-1.88-4.36-2.72-6.35H21.51c-.89 0-1.7.82-2.01 2.05l-3.89 15.2h4.6L23 36.63zM72.26 0c-6.92.11-12.45 5.81-12.34 12.73.12 2.09.69 4.13 1.67 5.98 1.47 2.9 10.68 17.28 10.68 17.28s9.2-14.39 10.67-17.28a14.56 14.56 0 0 0 1.67-5.98C84.72 5.81 79.19.11 72.27 0zm-.2 16.4c-2.8-.17-4.95-2.57-4.78-5.38.16-2.8 2.57-4.95 5.37-4.78 2.69.16 4.79 2.39 4.79 5.08a5.23 5.23 0 0 1-5.38 5.08zM109.78 32.36c-.31-1.24-1.12-2.07-2.01-2.07H92.29c-.84 1.99-1.77 4.14-2.72 6.35h16.71l2.75 10.91h4.59l-3.84-15.19zM86.28 100.14L85.4 81.6H17.02l-4.9 18.54h74.16zM117 100.15l-4.9-18.55H89.71l.88 18.55H117z"/><path class="b" d="M128.76 107.53l-6.55-25.92h-4.59l6.16 24.4H5.26l6.24-24.4H6.9L.14 108.06c-.25.98-.16 2.01.24 2.93.27.76.96 1.3 1.77 1.37h124.74c1.23 0 2.19-1.42 2.19-3.18 0-.57-.1-1.13-.31-1.66z"/></svg>
