<svg xmlns="http://www.w3.org/2000/svg" id="a" viewBox="0 0 114.73 120.33"><defs><style>.b{fill:#005dae}</style></defs><path class="b" d="M101.55 77.81l-.09 37.51-52.61-.12.09-37.51-29.69-.07-.09 37.51h-5.97l.09-37.53h-5l-.1 42.5 10.97.03 29.69.07 57.61.13.1-42.51h-5zm-57.7 37.37l-19.69-.05.08-33.41 19.69.05-.08 33.41zM95.52 17.92V0H19.2v17.92L0 37.12v6.28h114.73v-6.28l-19.2-19.2zM24.2 5h66.32v11.46H24.2V5zm-2.26 33.4H5.79l16.94-16.94h7.44v2.29l-8.23 13.72v.93zm24.69-14.2l-2.69 13.47v.73H27.21l7.96-13.26v-3.68h11.46v2.74zm2.26 14.2l2.69-13.47.03-3.48h11.48v2.99l2.74 13.96H48.89zm21.95 0v-.24L68.1 24.2v-2.74h11.46v3.68l7.96 13.26H70.85zm21.94 0v-.93l-8.23-13.72v-2.29h7.44l16.94 16.94H92.78z"/><path class="b" d="M54.91 77.7l-.06 26.06 40.66.09.06-26.06-40.66-.09zm35.61 21.14l-30.66-.07.04-16.95 30.66.07-.04 16.95zM35.67 95.72v5.48h4.98v-5.48h-4.98"/></svg>
