<svg xmlns="http://www.w3.org/2000/svg" viewBox="0 -144 1008 1008"><path fill="currentColor" d="M873 313c-49 49-129 49-178 0s-49-129 0-178 129-49 178 0 49 129 0 178zm-585-25c-36 35-93 35-128 0-35-36-35-93 0-128s92-35 128 0c35 35 35 92 0 128zm-13 547c-28 28-74 28-102 0s-28-74 0-102 74-28 102 0 28 74 0 102zm560 0c-28 28-74 28-102 0s-28-74 0-102 74-28 102 0 28 74 0 102zM612 108c0 60-48 108-108 108s-108-48-108-108S444 0 504 0s108 48 108 108zM180 504c0 40-32 72-72 72s-72-32-72-72 32-72 72-72 72 32 72 72zm396 396c0 40-32 72-72 72s-72-32-72-72 32-72 72-72 72 32 72 72zm396-396c0 40-32 72-72 72s-72-32-72-72 32-72 72-72 72 32 72 72z"/></svg>
