<svg xmlns="http://www.w3.org/2000/svg" id="a" viewBox="0 0 134.93 110.61"><defs><style>.c{fill:#005dae}</style></defs><path id="b" class="c" d="M14.33 20.43c1.38 2.37 2.08 6.06 2.14 10.99l.02 79.18H31.7V30.64c0-9.98-1.91-17.58-5.74-22.8C22.13 2.61 16.47 0 8.98 0 5.94-.05 2.91.38 0 1.29v16.6a25.6 25.6 0 0 1 7.16-1.17c3.34 0 5.73 1.24 7.17 3.71"/><path class="c" d="M124.85 37.15c-6.72-7.29-16.46-10.93-29-10.93s-22.28 3.64-29 10.93c-6.72 7.29-10.08 17.76-10.08 31.4s3.37 24.07 10.1 31.26c6.73 7.19 16.39 10.8 28.97 10.8 12.58 0 22.24-3.6 28.97-10.8 6.74-7.2 10.1-17.62 10.1-31.26s-3.36-24.11-10.08-31.4zm-12.46 51.03c-1.26 1.34-5.06 5.41-16.54 5.41s-15.29-4.07-16.54-5.41c-3.65-3.9-5.5-10.5-5.5-19.62 0-9.17 1.87-15.85 5.56-19.85 1.24-1.35 5.02-5.45 16.48-5.45s15.23 4.1 16.47 5.45c3.7 4.01 5.57 10.69 5.57 19.85s-1.85 15.72-5.51 19.62z"/></svg>
