<svg xmlns="http://www.w3.org/2000/svg" id="a" viewBox="0 0 114.73 120.22"><defs><style>.b{fill:#005dae}</style></defs><path class="b" d="M0 38.41v18.96c0 5.57 3.4 10.36 8.23 12.41v-1.44h5v2.49c.08 0 .16.01.24.01 3.6 0 6.98-1.4 9.53-3.94.54-.54 1.02-1.11 1.45-1.71 2.45 3.42 6.45 5.66 10.97 5.66s8.57-2.26 11.01-5.72c2.45 3.4 6.45 5.61 10.94 5.61h.13c4.42-.04 8.36-2.26 10.79-5.63 2.44 3.46 6.47 5.73 11.02 5.73s8.52-2.23 10.96-5.65c.43.6.91 1.17 1.44 1.71 2.54 2.55 5.92 3.95 9.52 3.96h.02c.08 0 .16-.01.24-.01v-2.5h5v1.45c1.58-.67 3.03-1.63 4.27-2.88 2.55-2.54 3.95-5.92 3.96-9.55V43.41H0v-5zm5 5h104.73v13.98c0 2.26-.89 4.39-2.49 5.99a8.387 8.387 0 0 1-5.98 2.47h-.01c-2.26 0-4.39-.89-5.99-2.49a8.404 8.404 0 0 1-2.47-5.98h-2.5l-2.5-.02v.02c0 4.67-3.81 8.46-8.47 8.46s-8.47-3.8-8.47-8.47h-5v-.02c-.04 4.58-3.81 8.35-8.39 8.39h-.08c-4.63 0-8.42-3.74-8.47-8.38h-5c0 4.68-3.8 8.48-8.47 8.48s-8.47-3.8-8.47-8.47h-5c0 2.27-.88 4.39-2.48 5.99a8.42 8.42 0 0 1-5.99 2.48 8.42 8.42 0 0 1-5.99-2.48 8.42 8.42 0 0 1-2.48-5.99V43.41z"/><path class="b" d="M21.95 51.88h5v5.49h-5zM43.89 51.88v5.49l5-.02v-5.46h-5z"/><path class="b" d="M43.89 57.37h5v-.02l-5 .02zM65.84 51.88v5.46l5 .03v-5.49h-5z"/><path class="b" d="M65.84 57.37h5l-5-.03v.03zM13.23 115.22V70.83c-1.77-.03-3.46-.4-5-1.05v50.44H19.2v-5h-5.97zM101.5 115.22H48.89v5h57.61V69.79c-1.56.66-3.26 1.02-5 1.05v44.38z"/><path class="b" d="M101.5 68.34v2.5c1.74-.03 3.44-.39 5-1.05v-1.45h-5zM13.23 68.34h-5v1.44c1.54.65 3.23 1.02 5 1.05v-2.49zM19.2 76.81v38.41h5V81.81h19.69v33.41h5V76.81H19.2zM43.89 115.22H19.2v5h29.69v-5h-5z"/><path class="b" d="M35.66 95.77h5v5.49h-5zM95.53 21.46h-3.54l16.95 16.94H92.78v.01h21.95v-1.28l-19.2-19.21v3.54zM21.95 38.4H5.79l16.95-16.94H19.2v-3.54L0 37.12v1.29h21.95v-.01z"/><path class="b" d="M92.78 40.91h-5v-2.05l-.27-.45H70.84v2.5h-5v-2.5H48.89v2.5h-5l.04-2.5H27.22l-.27.45v2.05h-5v-2.5H0v4.99h114.73v-4.99H92.78v2.5zM24.2 16.46V5h66.33v11.46h3.53l1.47 1.46V0H19.2v17.92l1.47-1.46h3.53z"/><path class="b" d="M22.74 21.46h7.44v-2.5h5v2.5h11.45v-2.5h5l-.02 2.5H63.1v-2.5h5v2.5h11.45v-2.5h5v2.5h10.98v-3.54l-1.47-1.46H20.67l-1.47 1.46v3.54h3.54zM35.18 25.14v-3.68h-5v2.29l-8.23 13.72v.93h5.27l7.96-13.26zM21.95 40.91h5v-2.05l.27-.45h-5.27v2.5z"/><path class="b" d="M30.18 18.96h5v2.5h-5zM84.55 23.75v-2.29h-5v3.68l7.96 13.26h5.27v-.93l-8.23-13.72zM87.78 38.86v2.05h5v-2.5h-5.27l.27.45zM79.55 18.96h5v2.5h-5zM43.94 37.67l-.01.73h4.96l2.7-13.46.02-3.48h-4.98v2.74l-2.69 13.47zM43.89 40.91h5v-2.5h-4.96l-.04 2.5z"/><path class="b" d="M51.63 18.96h-5v2.5h4.98l.02-2.5zM65.84 38.4h5v-.24L68.1 24.2v-2.74h-5v2.99l2.74 13.95zM65.84 38.41v2.5h5v-2.5h-5zM63.1 18.96h5v2.5h-5zM95.53 76.81H54.87v26.95h40.66V76.81zm-5 21.95H59.87V81.81h30.66v16.95z"/></svg>
