<svg xmlns="http://www.w3.org/2000/svg" id="a" viewBox="0 0 129.08 112.36"><defs><style>.b{fill:#005dae}</style></defs><path class="b" d="M37.54 48H25.9l-13.78 52.14h74.16l-1.17-24.6H34.85c-.73-.04-1.39-.47-1.71-1.14-.42-.77-.55-1.67-.37-2.53L37.54 48zM87.15 48a3007.89 3007.89 0 0 1-10.36 21.54c-.03.07-.08.12-.11.18h32.28L103.22 48H87.16zM117 100.15l-6.5-24.6H89.42l1.17 24.6H117z"/><path class="b" d="M128.76 107.53l-18.98-75.17c-.31-1.24-1.12-2.07-2.01-2.07H92.29c-.84 1.99-1.76 4.14-2.72 6.35h16.71L123.79 106H5.26L23 36.64h33.84c-.96-2.22-1.88-4.36-2.72-6.35H21.51c-.89 0-1.7.82-2.01 2.05L.14 108.06c-.25.98-.16 2.01.24 2.93.27.76.96 1.3 1.77 1.37h124.74c1.23 0 2.19-1.42 2.19-3.18 0-.57-.1-1.13-.31-1.66z"/><path class="b" d="M72.26 35.99s9.2-14.39 10.67-17.28a14.56 14.56 0 0 0 1.67-5.98C84.71 5.81 79.18.11 72.26 0c-6.92.11-12.45 5.81-12.34 12.73.12 2.09.69 4.13 1.67 5.98 1.47 2.9 10.68 17.28 10.68 17.28zm.39-29.75c2.69.16 4.79 2.39 4.79 5.08a5.23 5.23 0 0 1-5.38 5.08c-2.8-.17-4.95-2.57-4.78-5.38.16-2.8 2.57-4.95 5.37-4.78zM37.66 69.72h32.07c-.03-.06-.08-.11-.11-.18-.38-.78-5.43-11.17-10.36-21.54H41.99l-4.33 21.72z"/></svg>
