<svg xmlns="http://www.w3.org/2000/svg" id="a" viewBox="0 0 103.85 128.69"><defs><style>.b{fill:#005dae}</style></defs><path class="b" d="M30.82 28.56a5.94 5.94 0 0 0 5.94-5.94V5.95A5.92 5.92 0 0 0 30.84 0c-3.28 0-5.94 2.66-5.95 5.94V22.6a5.943 5.943 0 0 0 5.93 5.96zM75.8 28.59c3.28 0 5.94-2.65 5.94-5.92V5.98a5.926 5.926 0 0 0-6-5.87 5.95 5.95 0 0 0-5.87 5.86v16.67a5.926 5.926 0 0 0 5.93 5.94zM66.21 7.9l-25.78.02v5.3l25.78-.01V7.9z"/><path class="b" d="M103.84 82.13l-.02-60.39c0-7.66-6.21-13.86-13.87-13.86H85.4v5.31h4.54c4.73 0 8.56 3.83 8.57 8.56l.02 65.54-.02 27.53c0 4.73-3.84 8.56-8.57 8.56l-76.09-.05c-4.73-.01-8.55-3.85-8.56-8.57V99.67h.03V82.06L5.3 21.82c0-4.73 3.83-8.56 8.56-8.57h7.37V7.94h-7.37C6.2 7.95 0 14.16 0 21.82l.02 65.45L0 114.75c0 7.66 6.2 13.87 13.86 13.88l76.09.06c7.66 0 13.87-6.19 13.88-13.85V99.58h.03V82.13z"/><path class="b" d="M20.31 22.97h.95c0-.12-.04-.24-.04-.37v-5.56h-.92c-6.28 0-11.36 5.09-11.36 11.37v78.86c0 6.28 5.09 11.37 11.37 11.37h39.12v-.03c.12.02.25.03.37.03.6 0 1.18-.14 1.73-.38.42-.18.83-.39 1.23-.63.91-.54 1.79-1.16 2.61-1.83 29.72-24.45 28.25-26.14 29.5-28.67l.05-4.43V28.41c0-5.55-4.03-10.28-9.5-11.18v5.42c0 .22-.05.43-.06.65 2.17.76 3.63 2.8 3.65 5.11v53.93H67.86c-6.28 0-11.37 5.09-11.37 11.37v19H20.31c-3 0-5.44-2.44-5.44-5.44V28.41c0-3 2.44-5.43 5.44-5.44zm42.08 70.74c0-3 2.43-5.43 5.44-5.44h19.02c-.16.21-.3.39-.48.61-1.95 2.37-6.85 5.4-9.88 8.54a147.29 147.29 0 0 1-14.1 13.15V93.71z"/><path class="b" d="M66.21 22.65v-5.6H40.43v5.58c0 .12-.03.23-.04.35h25.85c0-.11-.03-.22-.03-.33z"/></svg>
