<svg xmlns="http://www.w3.org/2000/svg" id="a" viewBox="0 0 123.71 116.1"><defs><style>.b{fill:#005dae}</style></defs><path class="b" d="M58.41 82.49H29.37c-1.41 0-2.56 1.25-2.56 2.8s1.15 2.8 2.56 2.8h29.04c1.41 0 2.56-1.25 2.56-2.8s-1.15-2.8-2.56-2.8zM58.41 71.13H29.37c-1.38.03-2.48 1.24-2.51 2.74-.03 1.54 1.1 2.82 2.51 2.85h29.04c1.41 0 2.56-1.25 2.56-2.8 0-1.54-1.15-2.8-2.56-2.8zM69.04 89.61h6.03c-.18-.42-.29-.86-.33-1.31-.22-2.24 1.26-3.3 3.31-4.16 2.4-1.02 5.57-2.99 7.08-3.56l.22-1.84c-.88-1.09-.98-2.02-1.41-3.63-.34-.19-.58-.52-.66-.91l-.5-2.85c-.03-.4.16-.78.5-1 0-4.26 1.61-7.02 6.03-7.02s6.03 2.76 6.03 7.02c.34.21.53.6.5 1l-.5 2.85c-.09.38-.33.71-.66.91-.42 1.6-.52 2.53-1.41 3.63l.23 1.84c1.5.56 4.68 2.54 7.08 3.56 2.04.86 3.53 1.92 3.3 4.16-.04.45-.15.89-.33 1.31h6.69V56.16h-41.2V89.6zM58.44 59.21H29.4c-1.42 0-2.56 1.25-2.56 2.8s1.15 2.8 2.56 2.8h29.04c1.42 0 2.56-1.25 2.56-2.8s-1.15-2.8-2.56-2.8zM30.57 37.52c.2.03.4.03.6.01a2.663 2.663 0 0 0 2.4-2.91v-6.87c.05 0 5.17 7.59 5.17 7.59 1.18 1.77 2.07 2.18 3.7 2.18 1.95 0 3.48-.75 3.48-2.66V22.07a3.012 3.012 0 0 0-2.77-2.77 3.005 3.005 0 0 0-3.23 2.77v7.28c-.05 0-5.46-8.37-5.46-8.37a3.686 3.686 0 0 0-3.35-1.69c-2.33 0-3.54 1.09-3.54 2.97v12.35a2.669 2.669 0 0 0 3 2.9zM63.96 33.04h-7.45v-2.78h5.73c1.85 0 2.68-.82 2.68-2.03s-.83-2.03-2.68-2.03h-5.73v-2.44h7.15c1.85 0 2.68-.82 2.68-2.03s-.83-2.03-2.68-2.03h-9.81c-2.38 0-3.51.99-3.51 3.31V33.8c0 2.32 1.12 3.31 3.51 3.31h10.1c1.85 0 2.68-.82 2.68-2.03s-.83-2.03-2.68-2.03zM71.78 34.93c.28 1.53 1.66 2.6 3.21 2.49h1.02c1.51.1 2.82-1.06 2.92-2.57l1.69-8.08c.05 0 1.74 8.08 1.74 8.08v.08a2.748 2.748 0 0 0 2.99 2.48h.94c1.55.11 2.94-.96 3.22-2.49l2.7-9.91c.34-1.04.57-2.12.67-3.22 0-.06 0-.12-.01-.17a2.516 2.516 0 0 0-2.77-2.24c-1.42-.19-2.73.8-2.92 2.22l-1.69 9.48c-.05 0-1.74-9.02-1.74-9.02-.35-1.91-.99-2.68-3.11-2.68s-2.76.77-3.11 2.68l-1.69 9.02c-.05 0-1.74-9.48-1.74-9.48a2.586 2.586 0 0 0-2.92-2.22c-.06 0-.12-.01-.18-.01a2.524 2.524 0 0 0-2.61 2.43c.1 1.09.33 2.17.67 3.22l2.71 9.91zM106.27 26.42l-3.19-.77c-1.31-.31-2.06-.65-2.06-1.43s.97-1.16 2.01-1.16c3.05 0 3.08 2.13 5.14 2.13 1.53 0 2.68-.85 2.68-2.2 0-2.93-4.61-3.7-8.17-3.7-5.36 0-7.5 2.73-7.5 5.63 0 2.44 1.69 4.08 4.77 4.88l4.1 1.06c1.12.29 1.69.58 1.69 1.28 0 1.06-1.12 1.45-2.38 1.45-3.03 0-3.29-2.54-5.49-2.54-.06 0-.12-.01-.18-.01-1.3-.04-2.38.99-2.42 2.28 0 1.57 1.98 4.18 8.47 4.18 4.07 0 8.01-1.79 8.01-5.92 0-3.02-2.22-4.37-5.47-5.17z"/><path class="b" d="M112.39 6.51L103.34 0l-8.91 6.4L85.52 0l-8.91 6.4-8.9-6.4-8.91 6.39L49.89 0l-8.9 6.39L32.07 0l-9.06 6.5L11.7 0l-.01 18.96H0v30.99h16.79l.02-41.11 6.51 3.73 8.75-6.27 8.91 6.39 8.9-6.39 8.91 6.39L67.7 6.3l8.91 6.39 8.9-6.39 8.91 6.39 8.91-6.39 8.75 6.28 6.51-3.73-.01 41.1h5.11l.02-49.94-11.32 6.5zM118.59 62.39V99.8c-.01 6.27-1.95 8.39-7.71 8.39H15.85c.76-2.71 1.08-5.55.94-8.38V49.95H0v54.04c0 5.86.73 12.11 9.4 12.11h101.28c8.37 0 12.98-4.96 12.98-13.97v-1.86c0-.17.03-.31.03-.48V49.95h-5.11v12.44z"/></svg>
