<svg xmlns="http://www.w3.org/2000/svg" id="a" viewBox="0 0 125.94 125.94"><defs><style>.b{fill:#005dae}</style></defs><path class="b" d="M62.97 0C28.19 0 0 28.2 0 62.97c0 34.78 28.2 62.97 62.97 62.97 34.78 0 62.97-28.2 62.97-62.97C125.9 28.21 97.73.04 62.97 0zm0 120.98C30.93 120.98 4.96 95 4.96 62.96c0-32.04 25.98-58.01 58.02-58.01 32.04 0 58.01 25.97 58.01 58.01-.04 32.03-25.99 57.98-58.01 58.01z"/><path class="b" d="M96.19 86.6c-1.18-1-2.34-1.97-3.49-2.9-4.13-3.38-7.78-6.15-10.84-8.23-.14-.1-.3-.18-.46-.24l-.38-.17c-.52-.24-1.06-.44-1.61-.6-2.09-.61-4.34.17-5.61 1.94l-.84 1.03c-.35.43-.68.83-1 1.22-2.03 2.5-3.51 4.35-4.31 5.48-.08.11-.17.24-.24.34-.05.04-.09.07-.14.1-.35.17-.38.16-.52.07-9.06-5.59-16.72-14.85-24.12-29.14a.754.754 0 0 1-.08-.24c.26-.14.53-.25.8-.35.02 0 .04-.02.06-.03s.04-.01.07-.02c.02 0 .04-.03.06-.03.02 0 .03 0 .04-.01.15-.07.32-.15.5-.23.68-.3 1.56-.64 2.48-1 1.28-.49 2.58-1 3.7-1.54.24-.11.48-.23.71-.34 2.56-1.36 3.48-4.49 2.22-7.61-.56-1.38-1.11-2.72-1.66-4.01-2.02-4.79-3.83-8.67-5.52-11.84-.08-.16-.18-.3-.29-.43l-.25-.31c-.34-.44-.71-.86-1.11-1.24-.63-.6-1.41-1.03-2.25-1.25a5.38 5.38 0 0 0-3.49.36c-1.57.68-5.52 2.69-6.86 3.53-.04.03-.07.06-.1.08-.01 0-.02.01-.03.02s-.03.02-.04.03h-.02l-.06.06-.4.3c-2.44 1.8-4.74 3.51-6.58 6.39-.17.27-.35.53-.51.78-1.18 1.76-2.52 3.76-2.02 7.04a86.565 86.565 0 0 0 17.6 40.53 73.942 73.942 0 0 0 16.36 14.82 87.17 87.17 0 0 0 10.43 6.03c3.79 1.9 7.74 3.44 11.81 4.6.46.12.94.19 1.42.18 2.22 0 4.42-1.23 5.96-2.09l.16-.09c2.19-1.32 4.26-2.83 6.19-4.5h.01s.02-.03.02-.04c.13-.11.25-.24.35-.38 0-.01.02-.02.03-.03.85-1.18 2.4-3.48 3.76-5.51.66-.99 1.27-1.9 1.72-2.56 1.67-2.46 1-5.73-1.63-7.95zM40.6 29.9c.17-.07.27-.09.28-.09.04.03.09.06.13.1.21.21.4.43.58.67l.16.21c1.57 2.97 3.32 6.75 5.21 11.23.54 1.28 1.08 2.6 1.63 3.94.29.71.22 1.28.06 1.37-.46.24-1.02.49-1.63.75-.71.3-1.48.6-2.24.89l-1 .39-4.98-11.38-2.58-5.89c1.54-.82 3.5-1.79 4.4-2.19zm42.72 73.34l-.15.08c-.73.41-2.94 1.65-3.66 1.45a65.17 65.17 0 0 1-10.93-4.27c-3.4-1.67-6.69-3.57-9.83-5.68a68.791 68.791 0 0 1-15.28-13.81 81.473 81.473 0 0 1-16.56-38.17c-.2-1.31.16-1.93 1.24-3.53.19-.28.38-.57.58-.87.9-1.35 2.02-2.54 3.31-3.51l7.27 16.56c-.06.04-.11.07-.16.11-1.42 1.08-2.16 3.75-.9 6.2 7.82 15.12 16.06 24.99 25.91 31.07.82.52 1.77.8 2.74.81.8-.01 1.58-.19 2.31-.52l17.03 12.13c-.93.71-1.89 1.37-2.9 1.97zm10.41-11.49c-.45.67-1.07 1.6-1.74 2.6-.75 1.12-1.55 2.31-2.25 3.34l-5.33-3.8-11.65-8.3c.73-.93 1.61-2.03 2.41-3.02.67-.82 1.27-1.56 1.64-2.01l.87-1.07c.16-.21.26-.26.24-.26.08 0 .15.01.23.03.3.09.6.21.88.34l.25.11c2.9 1.98 6.36 4.62 10.3 7.83 1.12.92 2.26 1.86 3.42 2.84.65.55.89 1.14.73 1.37zM79.8 27.67a34.147 34.147 0 0 0-11.02-1.83c-1.89 0-3.78.16-5.65.47a2.484 2.484 0 0 0-2.01 2.88 2.495 2.495 0 0 0 2.82 2.02c1.6-.26 3.22-.4 4.84-.4 16.16.01 29.26 13.12 29.25 29.28 0 3.2-.53 6.38-1.56 9.42a2.48 2.48 0 0 0 1.55 3.15c1.3.44 2.71-.25 3.15-1.55 6.09-17.89-3.47-37.34-21.36-43.44z"/><path class="b" d="M72.88 41.41c-2.34-.52-4.75-.59-7.11-.21a2.473 2.473 0 0 0-2.06 2.84 2.473 2.473 0 0 0 2.84 2.06c.59-.08 1.19-.13 1.79-.14.15 0 .3-.03.45-.03 7.8 0 14.13 6.33 14.14 14.13 0 .44-.03.87-.07 1.3-.05.59-.14 1.18-.26 1.76-.29 1.34.55 2.66 1.89 2.95a2.48 2.48 0 0 0 2.96-1.89c2.27-10.31-4.24-20.5-14.55-22.77z"/></svg>
