<svg xmlns="http://www.w3.org/2000/svg" viewBox="0 0 68.02 46.92"><path d="M53.78 29.15c-1.44-.46-1.94-.04-1.53 1.45.28 1.01.07 1.72-1.19 2.15-1.7.58-2.88 2.08-4.27 3.19-3.69 2.96-7.35 5.96-11.02 8.94-.05.04-.12.07-.14.13-1.51 3.09-3.57 1.73-5.64.74-4.43-2.13-8.88-4.23-13.35-6.29-1.06-.49-1.67-1-1.32-2.29.14-.52-.04-1.14-.14-1.71-.14-.81-.58-1.15-1.33-.63-2.81 1.94-5.09.82-7.35-1.1-1.65-1.4-3.44-2.65-5.2-3.92-.92-.64-1.37-1.39-1.3-2.56.31-4.78.43-9.57.03-14.35-.1-1.18.19-1.86 1.51-2.18 2.22-.53 3.93-2.08 5.74-3.39 1.6-1.16 3.2-2.31 5.06-3.09 1.83-.76 3.5-.52 5.07.54 2.39 1.6 4.77 3.22 7.07 4.94 1.01.75 1.86 1.04 2.84.09.05-.04.12-.06.16-.11 2.8-3.23 6.17-2.83 9.69-1.52 1.06.39 1.93.16 3.01-.35C44.81 5.65 49.24 3.1 53.67.57c1.23-.7 2.15-.84 3.46.03 3.25 2.15 6.64 4.07 10 6.06.79.47 1.01.8.78 1.91-.54 2.69-.41 5.49-.01 8.21.31 2.15.12 3.63-1.97 4.93-3.19 1.98-6.12 4.4-9.14 6.65-.92.69-1.9 1.04-3.01.79zm-37.4-6.06h-.13c.26 4.65.54 9.29.76 13.93.04.81.32 1.3 1.04 1.64 4.14 1.97 8.28 3.97 12.42 5.95.89.42 1.41.32 1.44-.86.18-5.92.42-11.85.62-17.77.04-1.07-.1-2.02-1.61-1.33-.83.38-1.44-.3-2.09-.64-3.55-1.88-7.1-3.75-10.63-5.67-1.34-.73-1.86-.37-1.82 1.11.04 1.21 0 2.43 0 3.64zm17.19 18.48c0 .62-.04 1.07 0 1.51.08.66-.37 1.59.37 1.92.71.32 1.21-.53 1.73-.95 4.72-3.81 9.4-7.66 14.14-11.44.73-.58.86-1.15.74-1.97-.32-2.07-.54-4.15-.66-6.25-.16-2.67-.48-5.33-.79-7.98-.08-.66-.18-1.92-1.32-.92-3.48 3.08-7.61 5.12-11.63 7.31-1.23.67-1.94 1.43-2.03 2.88-.35 5.35.07 10.72-.54 15.89zM16.5 15.62c.44.34.7.63 1.03.78 4.62 2.19 9.12 4.6 13.51 7.2.74.44 1.32.23 1.97-.06 5.61-2.5 10.7-5.82 15.35-9.95-4.94-2.54-10.08-4.36-15.46-5.55-.99-.22-1.84-.04-2.68.58-2.52 1.86-5.22 3.46-8.1 4.71-1.79.78-3.62 1.48-5.62 2.28zM55.52 1.51c-1-.12-1.5.19-2 .47C49.7 4.14 45.9 6.37 41.9 8.2c-.33.15-.79.25-.82.7-.04.63.58.61.95.75 3.26 1.25 6.5 2.48 9.4 4.55.99.7 2.34 1.89 3.96.67 2.9-2.18 5.86-4.29 8.83-6.38.99-.7 1.2-1.22.03-1.91-2.46-1.47-4.89-2.99-7.35-4.46-.54-.32-1.15-.51-1.38-.61zM12.75 18.93c.83-.44 2-.43 2.26-1.73.3-1.52 1.33-2.22 2.8-2.67 1.76-.54 3.43-1.38 5.12-2.12 1.08-.48 1.38-1.03.18-1.83-2.28-1.53-4.59-3.03-6.73-4.73-1.85-1.47-3.54-1.36-5.36-.12-2.42 1.65-4.77 3.43-7.29 4.93-1.37.82-1.03 1.21-.05 1.93 2.46 1.83 4.88 3.7 7.31 5.56.51.39 1.06.7 1.76.79zm41.85-.76c.33 2.72.64 5.44.98 8.15.15 1.17.66 1.56 1.73.74 2.69-2.06 5.39-4.09 8.1-6.11.79-.59 1.16-1.33.99-2.31-.51-2.85-.29-5.73-.35-8.59-.01-.48.2-1.11-.4-1.36-.54-.23-.97.21-1.37.5-2.74 1.98-5.44 4.02-8.22 5.95-1.14.79-1.69 1.68-1.46 3.05zM1.73 21.02h-.06c0 2.04.03 4.08-.01 6.12-.02.84.22 1.43.92 1.94 2.11 1.54 4.18 3.14 6.27 4.7.34.25.68.72 1.16.53.63-.25.35-.88.36-1.35.09-4.07-.25-8.16.34-12.21.09-.63-.05-1.11-.57-1.5-2.4-1.79-4.8-3.58-7.19-5.38-.89-.67-1.23-.38-1.22.65.01 2.17 0 4.33 0 6.5zM15 26.78h-.12v-6.11c0-.5.06-1.1-.48-1.36-.54-.25-.93.26-1.36.5-.63.35-.87.92-.88 1.59-.05 4.14-.08 8.27-.11 12.41 0 .53.08 1.14.81.96 1.07-.27 2.28-.39 2.17-2.07-.12-1.97-.03-3.94-.03-5.92zm35.83-9.79c.3 3.09.58 6.06.89 9.04.09.83.56 1.41 1.35 1.71.49.18.94.17.88-.53-.33-3.42-.66-6.84-1.05-10.26-.1-.84-.86-1.14-1.57-1.09-.73.06-.42.78-.49 1.13z"/></svg>
