<svg xmlns="http://www.w3.org/2000/svg" viewBox="0 0 17.29 15.54"><path d="M8.18 15.53c-.28.03-.52-.07-.6-.35-.09-.35.09-.64.37-.8.94-.53 1.89-1.03 2.85-1.53 1.8-.94 3.59-1.88 5.39-2.82.36-.19.74-.32.99.11.27.45-.09.73-.41.91-2.74 1.47-5.49 2.91-8.24 4.36-.11.06-.24.08-.36.11zM.47 10.67C.1 10.56 0 10.26 0 9.93c.04-2.85.06-5.71.17-8.56C.19.89.14-.04.86 0c.78.05.47.91.47 1.42.01 2.73.03 5.46-.31 8.17-.05.42.04.93-.55 1.08zM4.37 12.88c-.7-.02-.72-.45-.44-.9 1.59-2.54 3.2-5.07 4.82-7.6.18-.28.51-.47.8-.22.15.13.27.52.18.68-1.51 2.74-3.15 5.39-5.01 7.9-.06.08-.23.09-.36.14z"/></svg>
