<svg xmlns="http://www.w3.org/2000/svg" id="a" viewBox="0 0 44 44"><defs><style>.b{fill:#000001}</style></defs><path class="b" d="M22 0C9.85 0 0 9.85 0 22s9.85 22 22 22 22-9.85 22-22S34.15 0 22 0zm0 43.5C10.13 43.5.5 33.87.5 22S10.13.5 22 .5 43.5 10.13 43.5 22 33.87 43.5 22 43.5z"/><path class="b" d="M30.88 30.99c-.24-.44-.8-.6-1.23-.35h-.03v.02c-4.28 2.46-9.82-.07-13.4-3.67-3.56-3.58-6.05-9.09-3.58-13.33.25-.43.11-.99-.33-1.24a.903.903 0 0 0-1.24.33c-2.96 5.08-.19 11.46 3.86 15.53 2.9 2.91 6.98 5.18 10.93 5.18h.03a9.16 9.16 0 0 0 4.63-1.22c.44-.24.6-.8.35-1.23z"/><path class="b" d="M12.62 10.72c-.35.36-.35.93 0 1.29s.93.35 1.29 0c.48-.46 1.24-.46 1.72 0l1.59 1.59c.48.48.48 1.25 0 1.72-1.29 1.29-2.67 3.1-1.87 5.56.81 2.46 4.57 6.23 7.05 7.05 2.48.81 4.27-.57 5.56-1.87a1.22 1.22 0 0 1 1.73 0l1.58 1.58c.48.48.48 1.25 0 1.73-.36.35-.37.92-.02 1.28s.92.37 1.28.02l.02-.02c.59-.59.89-1.37.89-2.14 0-.79-.3-1.56-.89-2.15l-1.58-1.58a3.054 3.054 0 0 0-4.3 0c-1.19 1.2-2.28 1.89-3.71 1.42-1.95-.64-5.25-3.94-5.89-5.89-.47-1.43.23-2.52 1.42-3.71a3.024 3.024 0 0 0 0-4.29l-1.58-1.58a3.01 3.01 0 0 0-2.12-.89h-.06c-.77 0-1.53.3-2.12.88z"/></svg>
