<svg xmlns="http://www.w3.org/2000/svg" viewBox="0 0 37.31 39.53"><path d="M.58 30.53C.39 24.67-.08 19.14.01 13.58c.01-.64.05-1.28.08-1.91.13-2.32 1.11-3.7 3.55-4.44C7.96 5.93 11.8 3.58 15.3.74c.87-.7 1.63-.89 2.78-.63 5.38 1.19 10.58 2.87 15.59 5.17 1.47.67 2.02 1.61 2.15 3.2.38 4.7.94 9.39 1.43 14.08.15 1.43.1 2.37-1.58 3.31-2.64 1.47-4.86 3.71-7.24 5.64-2.63 2.13-5.62 3.98-7.75 6.54-1.87 2.24-3.28 1.52-5.14.62-4.55-2.18-9.11-4.33-13.66-6.51-.77-.37-1.9-.6-1.31-1.62zM1.93 8.78c3.79 2 7.51 3.94 11.23 5.91.96.51 1.89 1.07 2.82 1.63.32.19.68.45.43.91-.22.4-.66.43-1.02.31-.48-.16-.91-.44-1.36-.68-3.49-1.86-7-3.69-10.47-5.58-1.32-.72-1.87-.38-1.88 1.08-.06 5.81.11 11.61.68 17.4.09.88.38 1.41 1.16 1.78 4.04 1.91 8.07 3.84 12.1 5.77 1.18.57 1.62.14 1.64-1.09.1-6.19.28-12.38.31-18.57 0-.88.35-1.07.93-1.36 1.82-.92 3.67-1.8 5.44-2.81 3.41-1.94 6.52-4.31 9.56-6.97-5.07-2.47-10.11-4.37-15.45-5.48-1.05-.22-1.82 0-2.64.59-3.73 2.74-7.82 4.81-12.2 6.31-.42.14-.87.23-1.27.85zm17.38 22.51h-.42c0 1.54-.02 3.07.01 4.6.01.61-.32 1.45.27 1.79.66.38 1.1-.45 1.57-.82 3.84-3.09 7.55-6.32 11.49-9.27 2.41-1.8 3.88-3.5 3.16-6.86-.8-3.78-.87-7.72-1.26-11.59-.08-.81-.33-1.55-1.28-.71-3.58 3.18-7.86 5.23-11.99 7.5-1.08.59-1.6 1.26-1.58 2.53.06 4.28.02 8.56.02 12.83z"/></svg>
