<svg xmlns="http://www.w3.org/2000/svg" viewBox="0 0 49.68 61.32"><path d="M37.78 46.68c.15.37.28.72.44 1.06.15.31.24.64-.07.86-.35.25-.76.18-1.03-.14-.41-.48-.79-1-1.16-1.53-.49-.71-1.05-1.33-2-1.26-.65.05-1.62-.82-1.85.03-.24.87.73 1.34 1.65 1.4.4.03.75.12.99.45-.75 1.06-1.58 1.98-3.01 2.11-.02-.18-.09-.36-.07-.53.12-.88.39-1.79-.43-2.5-.2-.17-.6-.21-.65.06-.18.98-.74 1.95-.31 2.97.22.52.62.97.9 1.47.36.63 1.28 1.32.5 1.98-.75.64-1.03-.68-1.78-.84-.69.14-.31 1.64-1.36 1.39-.95-.22-.24-1.26-.67-1.82-.19.05-.38.07-.55.14-.49.18-1.01.92-1.47.17-.48-.77.31-1.12.81-1.47 1.05-.73 2.19-1.36 2.22-2.89.01-.57.66-1.41-.21-1.61-.77-.18-1.09.71-1.3 1.4-.12.41.06.91-.51 1.38-.21-1.04-1.99-.66-1.67-2.37.15-.79-.25-.93.54-.78.95.18 1.76.14 2.38-.95-1.66-.73-3.16-1.02-4.6.27-.24.21-.51.39-.78.56-.44.28-.95.63-1.39.18-.55-.57.12-.87.42-1.23.16-.19.33-.37.45-.51-.2-.86-1.57-.43-1.45-1.37.13-1.03 1.19-.41 1.74-.75.24-.33.05-.6-.14-.85-.29-.39-.51-.85-.06-1.18.56-.41.96.06 1.26.48.89 1.25 1.66 2.61 3.5 2.59.43 0 1 .35 1.21-.12.24-.54-.29-.91-.73-1.2-.1-.07-.23-.12-.34-.17-.54-.25-1.34.15-1.65-.67 1.14.23.32-2.22 1.96-1.42.33.16 1.04.58 1.04 1.08 0 .67.21 1.24.99 1.6.78-1.66 1.11-3.21-.37-4.67-.27-.26-.43-.63-.63-.96-.21-.35-.32-.73-.01-1.06.35-.37.74-.18.99.12.72.87 1.21.82 1.53-.3.11-.36.41-.48.76-.39.38.1.4.44.45.76.07.51-.17 1.35.87.88.43-.19.9-.8 1.3-.13.46.77-.25 1.21-.78 1.49-1.8.95-2.47 2.45-2.31 4.53.84.12 1.48-.42 1.47-1.06-.03-2.42 1.39-1.11 2-.68.48.34.76 1.39.79 1.94.04.68-.91.14-1.42.06-.78-.12-1.37.15-2.08 1.02 1.54.41 2.81 1.21 4.25.05.5-.4 1.04-.75 1.57-1.09.35-.22.76-.28 1.05.05.3.36.1.7-.2 1-.42.42-1.24.84-.07 1.33.45.19 1.16.19.97.9-.17.61-.84.44-1.33.5-.18.03-.35.13-.6.23zM16.88 54.19c.15.34.25.56.36.78.21.43.7.91.02 1.3-.59.34-.94-.15-1.25-.56-.81-1.12-1.42-2.47-3.09-2.56-.58-.03-1.4-.6-1.6.28-.16.68.64.98 1.24 1.23.49.21 1.21-.16 1.48.58-1.05-.06-.61 1.31-1.91 1.66-2.12.57-1.18-.4-1.1-1.18.07-.7-.13-1.46-.79-1.56-.91-.14-.47.82-.68 1.27-.68 1.42.23 2.41.98 3.45.39.54 1.08 1.2.39 1.84-.63.58-.95-.3-1.34-.63-.31-.27-.53-.26-.79.03-.34.39-.15 1.36-.98 1.17-.93-.21-.28-1.26-.74-1.83-.17.02-.37 0-.52.07-.5.23-1.1.75-1.47 0-.33-.68.39-1.05.85-1.3 1.67-.87 2.3-2.28 2.37-4.05 0-.12-.07-.24-.15-.52-.93.1-1.39.64-1.54 1.52-.08.47.08 1.06-.58 1.28-.21-.9-1.59-.71-1.6-1.23-.01-.62-1.27-2.74 1.29-1.8.57.21 1.23-.2 1.55-.94-1.84-1.11-3.47-.81-5.03.53-.45.38-1.03 1.07-1.64.44-.61-.62.17-.98.54-1.36.54-.56.36-.89-.33-1.04-.47-.1-.92-.23-.79-.84.1-.47.54-.47.93-.47 1.04.01 1.07-.44.54-1.16-.28-.38-.51-.85 0-1.16.56-.34.95.11 1.27.52.95 1.25 1.66 2.82 3.66 2.62.39-.04.95.48 1.12-.2.14-.57-.36-.94-.82-1.15-.57-.26-1.28-.14-1.8-.58.4-1.47 1.87-1.63 2.98-2.42.38 1.15-.93 2.77.97 3.49.65-1.69.98-3.26-.46-4.76-.45-.47-1.35-1.25-.48-1.93.76-.58 1.02.72 1.67.89.43-.13.53-.51.64-.87.12-.38.25-.78.73-.73.47.04.57.45.58.85.02.69 0 1.39 1.03.82.38-.21.85-.55 1.17 0 .32.55-.06.98-.51 1.28-1.27.85-2.66 1.6-2.61 3.46.01.46-.51 1.11.21 1.29.63.16.96-.48 1.23-1 .27-.51-.02-1.17.54-1.74 1.03.73 2.03 1.45 2.04 3.07-.75 0-1.51-.05-2.25.02-.36.04-.75.31-.76.75 0 .53.47.48.83.57 1.37.36 2.64.26 3.72-.78.23-.22.51-.38.79-.54.4-.24.86-.44 1.23-.04.44.48 0 .82-.34 1.09-.25.2-.57.3-.73.38.48 1.01 1.91.66 1.59 1.8-.23.84-1.12.26-1.88.58zM26.37 7.63c1.85-.12 1.35-1.8 1.93-2.76 1.3.57 1.88 1.64 2.34 2.96-.99.67-2.67-.78-3.31 1.01 1.75.97 3.34.87 4.88-.5.46-.41 1.08-1.23 1.78-.44.57.64-.23.96-.61 1.34-.43.44-.38.79.25.96.43.11.97.11.93.74-.04.64-.57.58-1.01.59-.86.01-1.02.36-.56 1.07.27.42.66.96-.02 1.29-.58.29-.94-.24-1.23-.65-.93-1.32-1.79-2.7-3.73-2.56-.35.03-.82-.31-1 .16-.19.5.25.82.61 1.08.62.44 1.53.16 2.07.82-.62 1.22-1.91 1.55-2.96 2.44-.48-1.24.81-2.87-1.03-3.62-.8 1.77-.9 3.39.53 4.9.4.43 1.05 1.04.52 1.66-.57.68-.99-.08-1.38-.44-.56-.5-.76-.07-.98.34-.22.42-.24 1.14-.96.92-.64-.2-.41-.85-.44-1.33-.01-.18-.05-.37-.07-.51-.3-.23-.48-.02-.71.06-.47.18-1.03.89-1.45.07-.34-.67.3-1.05.79-1.34 1.39-.82 2.4-1.87 2.42-3.61 0-.36.21-.81-.31-.95-.42-.11-.79.18-.93.52-.29.68-.47 1.41-.7 2.14-1.16-.66-2.18-1.34-2.05-2.95.51-.34 1.31.15 2.02-.07.42-.13.92-.29.88-.84-.03-.49-.53-.44-.88-.54-1.4-.39-2.6-.11-3.72.83-.53.45-1.26 1.36-1.95.58-.76-.87.76-1.1.88-1.86-.28-.64-1.68-.31-1.45-1.38.22-1.03 1.27-.12 1.74-.52.45-.84-1.3-1.65-.13-2.19 1.09-.51 1.43.86 1.84 1.53.73 1.21 1.84 1.49 3.05 1.68.36.06.86.18 1.01-.26.18-.49-.22-.89-.62-1.06-.68-.29-1.41-.46-2.13-.69.65-1.32 1.68-1.97 3.14-2.18.45.87-.96 2.48.93 3.16.77-1.64.97-3.18-.41-4.65-.3-.32-.52-.73-.71-1.13-.14-.29-.14-.64.13-.89.39-.37.73-.13.97.18.66.89 1.15.94 1.49-.23.09-.32.3-.61.68-.54.46.08.58.45.57.86-.02.76.05 1.36 1.04.75.4-.25.9-.41 1.16.12.3.61-.24.97-.67 1.21C27 3.95 26.1 5.44 26.38 7.59zM42.57 17.74c.19-.06.42-.11.64-.2.45-.16.95-.67 1.31.02.31.58-.17.96-.6 1.24-1.29.86-2.62 1.66-2.5 3.53.03.41-.44.97.1 1.19.55.22.9-.34 1.2-.75.41-.56.03-1.44.73-1.9 1.02.69 1.93 1.47 2.02 3.1.03-.06-.24-.14-.48-.13-.81.02-1.68-.32-2.36.41-.2.22-.21.51.04.65.86.47 1.85.63 2.76.39.7-.19 1.28-.81 1.95-1.19.51-.29 1.06-1.05 1.64-.29.5.65-.28.97-.65 1.37-.12.14-.21.31-.32.47.43.64 1.79.27 1.62 1.32-.18 1.12-1.36.14-1.95.64.04.2.04.39.11.55.22.53 1.02 1.12.15 1.61-.79.45-1.11-.43-1.41-.93-.81-1.34-1.85-2.25-3.48-2.31-.36-.01-.83-.16-.99.3-.13.4.18.73.48.96.2.15.49.17.7.31.45.31 1.22-.11 1.47.64-1.04-.15-.3 2.25-1.95 1.34-.54-.3-.34.8-1.03.75-.5-.72.27-1.55-.03-2.31-.16-.42-.33-.9-.86-.89-.53 0-.41.53-.52.86-.48 1.4-.15 2.59.79 3.71.46.55 1.29 1.31.51 1.97-.75.63-1.03-.66-1.68-.88-.75.22-.45 1.64-1.43 1.48-.98-.16-.29-1.24-.75-1.85-.21.05-.46.07-.67.18-.47.25-1 .56-1.33-.04-.33-.6.26-.95.67-1.2 1.45-.86 2.52-1.95 2.55-3.75 0-.3-.06-.61-.09-.93-1.84.16-1.4 1.77-1.89 2.81-1.29-.68-2.11-1.61-2.27-3.08.99-.55 2.49.68 3.26-.95-1.86-1.1-3.49-.75-5.06.57-.44.37-.99 1.09-1.63.4-.61-.66.21-.96.56-1.35.51-.58.32-.9-.38-1.03-.4-.08-.78-.23-.77-.69 0-.66.55-.59.99-.6.78 0 1.13-.24.61-1.02-.29-.44-.58-1.03-.05-1.36.68-.43 1.05.29 1.32.73 1.08 1.76 2.44 2.92 4.67 2.41q-.31-.84-2.83-2.1c.98-.38 1.11-1.86 2.47-1.68.06 0 .26-.61.65-.39.32.18.27.57.17.86-.35 1-.31 1.86.8 2.54.87-1.77.98-3.35-.42-4.89-.42-.46-1.19-1.11-.51-1.8.56-.56 1 .18 1.4.55.32.29.59.19.8-.1.31-.42.16-1.37.96-1.18.89.21.23 1.29.78 1.89zM10.79 26.62c.9-1.91.81-3.6-.66-5.14-.41-.43-.95-1.09-.3-1.66.5-.44.91.16 1.24.53.3.34.59.48.92.06.32-.41.2-1.36 1.01-1.15.91.23.2 1.29.75 1.89.19-.07.44-.12.64-.24.46-.28.97-.55 1.31.06.27.49-.16.82-.51 1.1-.25.2-.49.42-.77.57-1.78.91-1.88 2.51-1.86 4.22 1.87-.12 1.39-1.78 2.13-3.22.09 1.51 1.48 1.08 1.8 2.57.31 1.44-.2 1.01-.81 1-.82-.02-1.67-.25-2.2.83 1.45.76 2.83 1.09 4.23-.05.39-.32.83-.59 1.27-.85.38-.22.8-.55 1.2-.08.38.45.12.83-.26 1.14-.74.58-1.05 1.07.23 1.27.35.06.6.24.61.62 0 .51-.37.65-.77.64-.98-.03-1.38.24-.73 1.2.25.37.52.82.02 1.18-.62.44-.95-.11-1.23-.5-.98-1.34-1.77-2.9-3.83-2.69-.35.04-.84-.29-1 .21-.16.5.26.88.65 1.05.69.3 1.43.47 2.16.69-.65 1.41-2.13 1.51-3.16 2.59-.32-1.37.82-2.85-.96-3.68-.65 1.65-1 3.16.35 4.69.44.49 1.39 1.21.6 1.94-.74.68-1.07-.63-1.7-.75-.82.22-.46 1.7-1.45 1.51-.92-.17-.28-1.26-.67-1.81-.13-.02-.25-.09-.36-.06-.57.12-1.2 1.01-1.67.21-.49-.84.47-1.19 1.01-1.56 1.08-.74 2.05-1.51 2.07-2.99 0-.48.42-1.15-.14-1.37-.6-.23-.95.41-1.29.9-.36.53.26 1.53-.81 1.69 0-.99-2.2-.47-1.43-2.06.06-.12-.31-.46-.66-.95 1 0 1.74.03 2.48-.01.39-.03.8-.28.83-.68.03-.45-.42-.59-.81-.66-1.36-.24-2.63-.19-3.77.79-.51.44-1.21 1.42-1.93.65-.84-.9.74-1.08.85-1.95-.05-.49-.69-.23-1.01-.48-.26-.2-.55-.38-.48-.75.08-.45.39-.67.83-.57 1.18.26 1.28-.16.71-1.06-.26-.41-.41-.88.04-1.19.6-.41.95.11 1.22.54.91 1.44 1.88 2.77 3.84 2.71.35-.01.83.2.96-.34.1-.43-.24-.77-.56-.92-.73-.33-1.51-.54-2.85-1 1.56-.22 1.46-2.05 2.99-1.54.05.02.26-.8.74-.37.16.14.16.62.06.89-.38 1.06-.14 1.84.87 2.39z"/></svg>
