<svg xmlns="http://www.w3.org/2000/svg" viewBox="0 0 60.34 58.24"><path d="M35.6 32.78c-.83 1.1-1.56 2.05-3.1 1.94 0-.36-.01-.73 0-1.09.02-.69.19-1.71-.68-1.71-.73 0-.62 1.09-.75 1.73-.29 1.38.75 2.22 1.39 3.22.26.4.71.88.14 1.34-.48.38-.8-.05-1.12-.36-1.39-1.31-.95.98-1.85.94-1.18-.05.12-2.1-1.45-1.61-.45.14-.95.71-1.31 0-.38-.73.36-.97.78-1.31q2.18-1.76 2.23-4.38c-.69-.12-.98.38-1.34.83-.41.5.23 1.73-.83 1.52-.3-.06-2.09-.35-1.39-1.84.03-.07-.53-.3-.5-.83.93-.55 2.45.77 3.2-.88-1.66-.97-3.16-.92-4.64.39-.43.38-1.01 1.1-1.64.58-.64-.53.02-1.01.43-1.39.32-.3.22-.55-.06-.79-.39-.34-1.36-.2-1.16-1 .22-.9 1.29-.22 1.9-.77-.12-.26-.25-.53-.39-.81-.18-.36-.32-.77.06-1.04.5-.36.84.04 1.1.41.89 1.24 1.67 2.61 3.48 2.66.43.01.99.34 1.19-.18.21-.56-.3-.96-.78-1.15-.57-.23-1.2-.34-1.91-.52.65-1.27 1.65-1.91 2.97-2.15 0 .61-.05 1.34.02 2.06.04.44.29.91.83.89.53-.02.43-.52.52-.87.3-1.23.25-2.34-.67-3.38-.44-.5-1.39-1.22-.62-1.94.73-.7 1.03.71 1.85.7.09-.19.21-.47.35-.74.17-.34.32-.78.79-.69.45.08.56.47.49.89-.16 1.04.28 1.13 1.06.67.41-.25.88-.47 1.15.06.31.59-.23.94-.63 1.23-1.04.73-2.23 1.33-2.38 2.8-.06.58-.55 1.43.28 1.64.73.19.92-.67 1.16-1.26.18-.45.04-1.05.56-1.35.94.81 1.66 1.76 2.17 3.01-1.09.41-2.68-.92-3.28.98 1.58.67 3.03.83 4.44-.43.5-.44 1.28-1.34 1.96-.54.63.74-.69 1.02-.86 1.68.1.45.55.45.87.6.37.19.7.38.51.86-.13.32-.41.51-.77.42-1.33-.31-1.14.28-.64 1.06.26.41.41.86-.12 1.16-.55.3-.84-.19-1.07-.53-.86-1.29-1.72-2.58-3.49-2.64-.4-.02-.98-.29-1.13.31-.12.48.29.84.72 1.02.58.24 1.2.39 1.96.63zM55.77 26.26c-.82 1.21-2.01 1.56-3 2.26-.71-.64.13-1.3-.02-1.95-.14-.64-.32-1.23-1.14-1.42-.42 1.55-.97 3.02.4 4.45.47.49 1.36 1.27.69 1.96-.83.84-1.08-.74-1.8-.77-.64.29-.34 1.57-1.31 1.4-1.04-.19-.03-1.29-.62-1.78-.18.04-.37.05-.54.12-.49.21-1.04.89-1.49.19-.5-.79.39-1.13.87-1.42 1.22-.74 2.09-1.66 2.23-3.13.04-.42.26-1.02-.26-1.17-.55-.16-.93.32-1.11.83-.21.59-.37 1.2-.57 1.88-.73-.11-.67-1.46-1.63-1.02-.06-.63-.24-1.27-.31-1.85-.06-.57.81-.26 1.28-.23.67.04 1.27-.03 1.64-.76-1.72-1.27-3.25-.81-4.75.41-.45.36-1 1.07-1.63.4-.5-.53.14-.9.48-1.24.35-.36.34-.66-.08-.93-.39-.25-1.16-.21-.94-.95.25-.85 1.14-.27 1.62-.54.3-.39-.01-.62-.14-.89-.18-.39-.6-.8-.06-1.18.6-.42.98.07 1.22.5 1.01 1.82 2.4 2.89 4.6 2.51.04-.76-.43-1.07-.93-1.4-.51-.34-1.71.07-1.53-.62.12-.5.49-1.87 1.83-1.51.23.06.35-.71.91-.47.54.93-.73 2.35.75 3.05 1.19-2.03 1.15-2.36-.38-4.71-.3-.46-.95-.95-.5-1.5.54-.66 1-.02 1.39.38.26.27.51.33.8.03.38-.4.16-1.51 1.14-1.15.74.27.16 1.19.51 1.7.37.2.62-.06.88-.2.41-.21.87-.45 1.17.08.29.52-.18.81-.53 1.08-1.13.9-2.6 1.52-2.53 3.33.02.46-.52 1.08.21 1.28.55.16.92-.41 1.1-.88.22-.57.32-1.19.62-1.83.22 1.02 1.96.68 1.67 2.27-.14.79.23.88-.57.77-.51-.07-1.01-.2-1.49.09-.27.16-.58.32-.58.7 0 .45.39.41.68.5 1.37.4 2.6.31 3.73-.71.47-.42 1.12-1.27 1.78-.6.75.76-.57 1.07-.68 1.74.11.43.58.4.88.58.34.2.73.37.55.84-.12.33-.45.45-.8.39-.87-.14-1.31.04-.77.98.27.47.55 1.01-.13 1.28-.6.24-.9-.36-1.17-.77-.78-1.21-1.61-2.33-3.22-2.4-.43-.02-1.02-.26-1.19.25-.18.55.29.93.81 1.11.59.21 1.2.38 1.95.62zM7.65 11.4c-.54-.37-1.54-.31-1.41-1.12.14-.85 1.13-.24 1.7-.63.01-.12.05-.29.04-.46-.04-.56-.99-1.21-.07-1.63.73-.33 1.06.53 1.39 1.04.73 1.11 1.59 2 3.03 2.04.41.01.99.24 1.12-.36.11-.49-.31-.82-.74-.98-.59-.21-1.2-.37-1.81-.56.55-1.44 2.01-1.51 2.95-2.47.36 1.01-.37 1.82.05 2.6.17.31.32.75.81.67.39-.07.39-.44.47-.74.37-1.31.18-2.47-.72-3.56-.45-.54-1.32-1.3-.57-1.96.77-.68.99.71 1.73.86.66-.21.29-1.66 1.33-1.42.99.22.06 1.3.65 1.85.21-.08.45-.15.66-.27.46-.26 1-.59 1.35-.04.39.59-.26.89-.63 1.19-1.03.82-2.35 1.41-2.42 3-.02.52-.41 1.28.32 1.45.63.15.93-.51 1.09-1.1.13-.48.31-.95.49-1.51.91.9 2.13 1.46 1.89 2.97-.9.46-2.23-.52-2.93.92 1.65.95 3.13.86 4.58-.34.49-.41 1.07-1.25 1.78-.64.83.71-.23 1.01-.56 1.45-.42.55-.14.8.41.92.39.08.79.22.78.68-.02.65-.57.58-1 .6-.79.04-.82.41-.49 1 .22.39.5.86-.06 1.16-.62.33-.97-.18-1.21-.61-.97-1.8-2.37-2.73-4.49-2.4-.01 1.05.63 1.37 1.44 1.51.41.07.93-.06 1.09.54-.93.16-.64 1.81-1.17 1.56-.86-.4-1.07.63-1.66.41-.45-1 .65-2.38-.9-3.16-.89 1.7-.94 3.21.43 4.7.36.4 1.14.98.57 1.63-.52.59-1.02-.02-1.43-.41-.29-.28-.57-.28-.8.03-.31.41-.13 1.36-.98 1.13-.82-.22-.25-1.15-.59-1.67-.23-.26-.47-.11-.68.02-.45.28-.99.61-1.35.06-.37-.57.22-.92.62-1.21 1.12-.83 2.44-1.5 2.37-3.21-.02-.45.56-1.1-.16-1.3-.62-.17-.95.5-1.22 1.01-.27.5.07 1.17-.46 1.61-1.28-.54-1.84-1.61-2.15-2.91.76 0 1.51.05 2.25-.02.37-.03.76-.32.8-.72.05-.52-.43-.53-.8-.61-1.3-.28-2.49-.22-3.58.73-.47.41-1.12 1.26-1.79.6-.76-.75.62-1.07.64-1.88zM34.32 16.36c-.29.1-.6.17-.86.31-.43.23-.88.39-1.17-.11-.32-.54.2-.8.53-1.07 1-.83 2.39-1.32 2.47-2.94.03-.58.64-1.42-.18-1.63-.8-.2-1.08.71-1.27 1.39-.12.41-.19.83-.29 1.27-1.43-.58-1.64-1.93-2.3-2.99.74-.5 1.46.32 2.19.03.42-.17.9-.31.9-.84s-.51-.43-.86-.54c-1.25-.4-2.32-.2-3.37.68-.52.44-1.26 1.37-1.96.66-.8-.81.78-1.08.76-1.9-.25-.11-.54-.22-.81-.36-.33-.17-.78-.29-.68-.78.09-.45.46-.57.89-.49 1.22.23 1.22-.26.67-1.11-.26-.39-.48-.84.05-1.15.53-.31.84.16 1.09.5.89 1.25 1.68 2.62 3.48 2.65.41 0 .98.26 1.13-.34.12-.5-.31-.83-.73-.99-.59-.23-1.21-.37-2.12-.64.9-.41 1.1-1.1 1.4-1.75.57.45 2.64-1.15 1.76 1.33-.21.61.24 1.21.97 1.51.95-1.78.78-3.37-.56-4.87-.39-.44-1.06-1.01-.36-1.63.55-.49.89.19 1.21.54.33.35.59.43.91 0 .3-.39.12-1.35 1.04-1.03.82.29.19 1.16.5 1.66.48.22.74-.16 1.07-.31.39-.19.77-.22 1.02.14.36.53-.09.83-.45 1.08-1.27.87-2.62 1.65-2.64 3.47 0 .42-.34.96.21 1.15.45.15.86-.24 1.04-.67.24-.58.39-1.2.62-1.95 1.25.58 1.85 1.6 2.2 2.88-.93.63-2.35-.56-3.17.92 1.62 1.06 3.09.91 4.6-.29.48-.38 1.05-1.26 1.77-.6.61.56-.18.98-.52 1.39-.28.33-.17.6.12.8.37.27 1.17.2.97.93-.24.88-1.13.28-1.65.58-.04.1-.13.23-.11.32.14.6 1.18 1.24.22 1.76-.84.46-1.15-.61-1.5-1.13-.72-1.05-1.47-1.91-2.88-1.9-.46 0-1.1-.49-1.28.2-.17.63.48 1.18 1 1.19 1.66.04 1.23.88.81 1.77-.42.87-1.56.09-2.03.88-.51-.35-.21-.78-.15-1.2.16-1.1.14-1.1-.96-1.97-.61 1.56-.9 3.02.36 4.45.44.5 1.4 1.19.6 1.92-.67.61-1.07-.63-1.65-.77-.74.33-.48 1.61-1.38 1.47-.97-.15-.27-1.22-.67-1.86zM1.49 35.17c-.27-.13-.6-.3-.94-.46-.29-.15-.61-.32-.55-.69.08-.46.44-.6.87-.51.94.18 1.24-.1.75-.99-.23-.41-.45-.91.03-1.19.59-.35.92.21 1.2.62.77 1.09 1.41 2.34 2.99 2.41.51.02 1.27.44 1.43-.34.13-.64-.55-.92-1.12-1.09-.48-.15-.96-.29-1.45-.44.62-1.3 1.81-1.71 3.01-2.28 0 .85-.06 1.66.03 2.45.03.29.29.75.79.65.38-.08.41-.44.47-.75.26-1.3.21-2.5-.75-3.58-.46-.52-1.3-1.3-.5-1.96.74-.6.98.78 1.7.88.58-.27.26-1.37 1.05-1.37.94 0 .48.85.62 1.33.17.57.52.42.89.25.43-.21.94-.8 1.32-.17.45.75-.3 1.18-.81 1.47-1.53.87-2.37 2.09-2.22 3.89.01.17.13.33.2.52 1.47-.26 1.14-1.7 1.74-2.5 1.02.59 2.17 1.07 1.96 2.76-.74.53-2.21-.73-2.98.9 1.46.65 2.79 1.04 4.17-.14.43-.37.93-.68 1.41-.98.29-.18.61-.17.87.11.26.29.23.62-.05.84-1.06.81-.96 1.32.32 1.73.39.13.44.73 0 .9-.8.29-1.72.15-1.08 1.62.43.98-.69 1.1-1.56-.15-.78-1.13-1.53-2.21-3.12-2.18-.42 0-.99-.37-1.19.14-.2.52.28.9.73 1.2.54.36 1.31 0 1.76.58-.46 1.32-1.56 1.77-2.78 2.08-.29-.44-.1-.95-.1-1.45 0-.64.05-1.54-.7-1.53-.66 0-.63.94-.74 1.55-.2 1.1.28 1.95.91 2.81.38.51 1.29 1.13.69 1.77-.85.9-1.17-.53-1.86-.72-.88.12-.18 1.73-1.26 1.53-.93-.17-.23-1.29-.83-1.83-.19.06-.44.12-.66.22-.4.18-.87.54-1.18.02-.35-.58.17-.94.58-1.23 1.28-.88 2.57-1.72 2.43-3.58-.03-.35.31-.79-.23-.95-.42-.13-.67.25-.94.52-.58.58-.08 1.56-.95 2.23-.05-1.08-1.91-.64-1.5-2.3.19-.76-.19-.88.59-.76.51.07 1.01.18 1.49-.1.27-.16.58-.33.57-.7-.01-.44-.39-.41-.69-.49-1.37-.41-2.59-.27-3.73.7-.48.41-1.14 1.25-1.79.57-.71-.75.67-1.05.68-1.84zM33.66 50.58c.63 0 1.32.02 2.01 0 .4-.02.82-.22.87-.62.06-.46-.45-.58-.78-.66-1.22-.28-2.35-.22-3.43.63-.53.42-1.18 1.42-1.93.76-.86-.76.7-1.17.6-1.96-.31-.55-1.43-.12-1.41-.98.02-.87.85-.52 1.35-.65.77-.19.38-.64.23-1.02-.16-.42-.45-.88.14-1.14.53-.23.82.24 1.08.58.92 1.21 1.69 2.63 3.58 2.43.34-.04.83.31.98-.2.16-.52-.32-.79-.68-1.04-.58-.4-1.42-.1-1.94-.7.62-1.06 1.49-1.82 2.86-2.07.36.68-.26 1.53.06 2.28.14.34.31.78.74.78.5 0 .53-.45.59-.84.19-1.21.28-2.37-.63-3.43-.45-.51-1.36-1.22-.63-1.94.69-.68 1.03.75 1.8.66.42-.38.82-1.57.9-1.4.62 1.26 1.65 1.53 2.84 1.87.29.08-.59.97-1.09 1.29-1.09.7-1.84 1.58-1.88 2.91-.01.41-.25.99.32 1.14.48.13.82-.3.99-.73.23-.58.39-1.18.58-1.8 1.15.68 1.83 1.59 2.17 2.81-.68.36-1.46-.06-2.19.12-.39.1-.81.29-.85.67-.05.45.41.61.8.66 1.14.15 2.29.34 3.26-.57.32-.3.73-.52 1.12-.74.41-.23.89-.38 1.21.07.3.41-.11.69-.39.94-.24.21-.52.38-.53.79.24.59 1.14.17 1.35.82.05.16 0 .36 0 .54-2.11-.28-1.01 1.99-1.9 2.42-.57.27-1.01-.79-1.42-1.34-1.16-1.55-1.77-1.77-3.93-1.37.22 1.49 1.72 1.04 2.5 1.67-.39 1.28-1.41 1.79-2.7 2.05-.54-.88.46-2.28-.93-3.12-.82 1.53-1.04 2.95.16 4.37.25.29.47.61.66.94.21.37.6.76.16 1.2-.47.48-.81.08-1.11-.25-.68-.75-1.13-.8-1.35.34-.06.32-.33.58-.7.49-.35-.08-.48-.39-.49-.73-.01-.73-.07-1.36-1.07-.79-.39.22-.91.37-1.12-.22-.19-.53.3-.8.65-1.04 1.21-.85 2.52-1.61 2.38-3.4-.03-.4.47-.95-.14-1.15-.57-.19-.87.4-1.17.8-.07.1-.1.23-.14.35-.17.51.12 1.2-.6 1.48.04-1.01-2.04-.4-1.43-1.87.17-.42-.68-.41-.39-1.05z"/></svg>
