<svg xmlns="http://www.w3.org/2000/svg" viewBox="0 0 37.37 51.93"><path d="M26.27 18.68c-.72-4.47-.57-8.95-1.67-13.3-.18-.72-.45-.88-.97-1.13C19.85 2.46 15.92 1.1 11.61.39c1.06-.79 1.9-.16 2.71 0 3.52.68 6.87 1.92 10.13 3.42 1.18.55 1.68 1.42 1.78 2.69.19 2.48.55 4.95.72 7.42.07.99.41 1.55 1.37 1.77 2.32.54 4.26 2 6.5 2.76.88.3.87 1.09.94 1.73.57 5.26 1.07 10.53 1.6 15.8.11 1.1.01 1.94-1.39 2.26-.8.18-1.48.96-2.17 1.52-4.27 3.46-8.85 6.62-12.68 10.52-2.42 2.47-4.14 1.75-6.46.6-4.24-2.09-8.52-4.08-12.82-6.05C.79 44.35.43 43.81.39 42.57.18 36.49-.09 30.43.03 24.36c.01-.63 0-1.29.19-1.89.28-.9.85-1.38 1.89-.9 4.69 2.2 9.26 4.61 13.74 7.22.36.21.93.43.58.99-.27.43-.82.38-1.23.22-.65-.26-1.25-.63-1.88-.95-3.33-1.76-6.66-3.52-9.99-5.3-1.25-.67-1.68-.3-1.69 1.09-.06 5.76.11 11.5.46 17.24.06 1 .44 1.64 1.37 2.07 3.99 1.87 7.97 3.77 11.94 5.69 1.21.58 1.74.33 1.77-1.06.13-6.13.35-12.26.41-18.39 0-.88.19-1.26.92-1.58 5.33-2.29 9.97-5.68 14.54-9.19.78-.6.73-.94 0-1.38-1.43-.84-2.93-1.55-4.51-2.09-1.08-.37-1.47-.09-1.24 1.02.16.79.08 1.42-1.02 1.51zm-6.96 24.35h-.46c0 1.91.02 3.83-.01 5.74-.01.56-.38 1.24.21 1.57.62.35 1.01-.37 1.42-.7 4.87-3.92 9.71-7.88 14.59-11.79.6-.48.68-1.03.61-1.68-.45-4.24-.87-8.49-1.39-12.72-.11-.92.35-2.25-.52-2.69-1.12-.57-1.58.96-2.36 1.49-3.39 2.3-6.95 4.29-10.55 6.22-.89.48-1.58.93-1.57 2.13.05 4.14.02 8.29.02 12.43z"/><path d="M19.96 23.49c-1.67.78-2.47.18-3.53-.32-2.96-1.41-5.7-3.41-9.07-3.86-.63-.08-.84-.44-.84-1.05 0-4.34-.06-8.68 0-13.02.03-2.17.67-2.48 2.6-1.47 2.88 1.51 5.74 3.06 8.63 4.57.87.45 1.06.87.95 2.02-.36 3.87-.34 7.77-.47 11.65-.03.9.42 1.41 1.72 1.49zm-2.67-10.21h.36c0-.83-.05-1.66.01-2.48.07-.94-.25-1.56-1.1-2.01-2.48-1.29-4.95-2.63-7.41-3.96-1.2-.65-1.72-.34-1.72 1.07.01 3.69-.01 7.39.34 11.07.08.8.36 1.33 1.05 1.66 2.36 1.12 4.72 2.22 7.08 3.36 1 .48 1.4.21 1.39-.89-.02-2.61 0-5.21 0-7.82z"/></svg>
