<svg xmlns="http://www.w3.org/2000/svg" viewBox="0 0 32.01 31.95"><path d="M13.6 25.97c-.85 1.25-1.86 1.86-3.07 2.23-.57-.66.12-1.33 0-1.99-.08-.44-.24-.96-.71-1.06-.75-.16-.46.56-.63.89-.79 1.57.16 2.67.99 3.81.32.44.92.92.33 1.49-.57.55-.89-.12-1.22-.45-.3-.3-.55-.51-.91-.05-.3.39-.15 1.35-1.04 1.04-.83-.29-.18-1.16-.4-1.62-.54-.27-.82.08-1.13.25-.38.2-.77.28-1.03-.09-.37-.52.09-.84.44-1.09 1.25-.89 2.64-1.65 2.65-3.48 0-.41.32-.97-.31-1.11-.49-.11-.8.32-1.01.73-.12.22-.18.48-.28.71-.16.38.03 1.2-.49 1.05-.59-.16-1.04-.83-1.56-1.28.82-.77-.86-.87-.36-1.6.91-.43 2.45.91 3.04-.88-1.56-.78-3.01-.9-4.42.35-.46.41-1.14 1.27-1.79.65-.95-.9.83-1.04.68-1.81-.17-.7-1.54-.33-1.33-1.31.19-.88 1.08-.34 1.55-.44.31-.32.19-.53.07-.77-.24-.47-.9-1.02-.11-1.45.7-.39 1 .38 1.3.81.78 1.12 1.55 2.21 3.1 2.26.46.02 1.11.43 1.26-.31.11-.56-.43-.9-.92-1.07-.54-.19-1.1-.29-1.79-.46.48-1.22 1.64-1.6 2.56-2.11.86-.48.68.45.58.83-.26.96-.27 1.74.84 2.21.77-1.61.89-3.06-.35-4.46-.41-.47-1.29-1.1-.65-1.78.89-.94 1.06.81 2.17.58.32-.11 0-1.45.98-1.23.92.21.21 1.11.47 1.63.13.05.25.14.36.13.62-.05 1.25-1.2 1.79-.26.48.83-.56 1.2-1.08 1.5-1.29.74-1.89 1.84-2.03 3.24-.03.29 0 .75.19.87.38.25.8-.08.95-.38.35-.72.59-1.5 1.07-2.78.09 1.47 1.79 1.37 1.43 2.77-.02.09.8.28.42.77-.26.33-.71.14-1.08.03-.82-.23-1.5-.12-2.02.86 1.53.73 2.9 1.02 4.33-.24.5-.44 1.21-1.4 1.94-.72.91.84-.74 1.08-.7 1.94.33.17.76.31 1.1.57.5.38.31 1.03-.14 1-1.44-.09-1.73.27-.9 1.49.21.3.01.66-.29.8-.44.21-.7-.16-.95-.44-.89-1.03-1.38-2.52-3.09-2.6-.54-.03-1.31-.49-1.53.14-.25.72.52 1.06 1.14 1.26.47.15.97.24 1.64.39zM23.52 1.39c.39-.34.04-1.44.9-1.39 1.07.06.24 1.24.81 1.69.1.01.22.04.34.03.55-.04 1.18-.99 1.61-.05.35.78-.53 1.1-1.03 1.38-1.68.95-2.22 2.34-1.87 4.17.67.18.97-.29 1.21-.72.33-.58.04-1.43.79-1.84.21.9 2.11.66 1.48 2.17-.03.07.64.17.39.69-.16.02-.34.08-.52.06-.81-.09-1.67-.39-2.3.42-.08.11-.07.44.02.5.77.57 1.69.54 2.55.44.53-.06 1.01-.51 1.51-.77.59-.3 1.16-1.22 1.81-.64.8.72-.57 1.07-.59 1.79.42.26.89.53 1.32.85.09.07.03.34.04.52-2.1-.28-1.01 1.93-1.89 2.4-.52.28-1-.67-1.32-1.19-.62-.99-1.42-1.64-2.59-1.72-.45-.03-1.14-.34-1.3.33-.12.54.4.88.93 1.03.49.14.97.29 1.74.52-.71.42-1.01.89-1.21 1.54-.13.42-1.27-.37-1.65.64-.58-1.11.34-2.44-1.03-3.17-1.01 1.52-.87 2.94.2 4.38.38.51 1.29 1.09.66 1.77-.72.78-1.1-.53-1.85-.6-.56.07-.29.7-.52 1.02-.42.57-.97.61-1.07-.11-.14-1.02-.27-1.64-1.45-.94-.27.16-.67.09-.81-.27-.21-.55.23-.87.59-1.08 1.56-.88 2.59-2.06 2.46-3.97-.01-.17-.11-.34-.17-.52-1.71.09-1.02 1.86-1.83 2.55-.92-.76-1.95-1.41-1.95-2.85.75-.03 1.51-.02 2.25-.13.26-.04.62-.34.68-.58.1-.38-.35-.46-.62-.56-1.55-.56-2.85-.09-4.07.91-.38.32-.87 1.03-1.46.44-.58-.59.11-1 .46-1.42.23-.28.28-.57-.1-.78-.44-.25-1.36-.1-1.09-.97.23-.76 1.2-.19 1.75-.69-.06-.21-.09-.45-.19-.67-.18-.41-.5-.89-.01-1.2.59-.37.98.19 1.21.6.99 1.78 2.4 2.7 4.54 2.37-.13-1.76-1.87-1.2-2.69-1.9.65-1.08 1.55-1.74 2.86-1.93.02.16.06.39.08.62.05.83-.37 2.16.8 2.14.93-.02.5-1.38.64-2.15.16-.85-.46-1.41-.85-2.06-.34-.56-1.22-1.18-.55-1.82.81-.78.99.71 1.93.68z"/></svg>
