<svg xmlns="http://www.w3.org/2000/svg" viewBox="0 0 20.47 23.48"><path d="M12.91 8.73c-.62.68-.91 1.46-.93 2.4-.07 3.29-.19 6.57-.34 9.86-.05 1.25.21 2.15 1.7 2.14-1.12.49-1.95.5-3.25-.18-2.87-1.51-5.62-3.5-9.01-3.83-.86-.08-.82-.74-.84-1.26C.13 13.73.03 9.6 0 5.46c-.01-2.15.99-2.68 2.92-1.64 2.86 1.53 5.73 3.06 8.6 4.59.43.23.82.66 1.39.32zm-11.7 2h.05c0 1.79-.02 3.58 0 5.37.01.84.11 1.69 1 2.13 2.35 1.14 4.71 2.29 7.07 3.41.76.36 1.34.36 1.38-.76.1-3.51.23-7.02.37-10.53.03-.73-.25-1.21-.89-1.55-2.54-1.35-5.06-2.71-7.6-4.07-1.15-.61-1.44-.09-1.41 1.01.04 1.66.01 3.32.01 4.99z"/><path d="M18.94 18.55c1.12-1.75.04-3.55.06-5.32.02-1.88-.37-3.77-.6-5.65-.07-.53.22-1.26-.42-1.53-.61-.25-.99.41-1.45.71-.21.14-.4.32-.59.48.67-.76 1.33-1.52 2.11-2.41C13.96 2.63 9.75 1.2 5.27.46 5.63-.2 6.04.02 6.48.1c3.58.69 7.01 1.82 10.37 3.23 1.6.67 2.56 1.53 2.65 3.45.16 3.3.58 6.59.94 9.88.13 1.2-.3 1.82-1.5 1.89z"/></svg>
