<svg xmlns="http://www.w3.org/2000/svg" id="a" viewBox="0 0 41 41"><defs><style>.b{fill:#fff}</style></defs><circle class="b" cx="20.5" cy="20.5" r="5.01"/><path class="b" d="M27.75 8.36h-14.5c-2.7 0-4.88 2.19-4.89 4.89v14.49c0 2.7 2.19 4.88 4.89 4.89h14.49c2.7 0 4.88-2.19 4.89-4.89V13.25c0-2.7-2.19-4.88-4.89-4.89zM20.5 28.15c-4.23 0-7.65-3.43-7.65-7.65s3.43-7.65 7.65-7.65 7.65 3.43 7.65 7.65-3.43 7.65-7.65 7.65zm7.89-13.83c-1.02 0-1.85-.83-1.85-1.85s.83-1.85 1.85-1.85 1.85.83 1.85 1.85-.83 1.85-1.85 1.85z"/><path class="b" d="M31 0H10C4.48 0 0 4.48 0 10v21c0 5.52 4.48 10 10 10h21c5.52 0 10-4.48 10-10V10c0-5.52-4.48-10-10-10zm4.5 29.6a8.64 8.64 0 0 1-5.9 5.9H11.74c-3.59-1.03-6.23-4.33-6.24-8.26V14.1c.01-4.74 3.86-8.59 8.6-8.6h13.14c3.92.01 7.22 2.65 8.26 6.24V29.6z"/></svg>
