<svg xmlns="http://www.w3.org/2000/svg" viewBox="0 0 38.89 54.2"><path d="M9.92 13.46c.9-.88.39-2.21 1.57-2.04 1.14.17.16 1.36.58 1.87.86.33 1.77-1.16 2.26-.09.49 1.06-.84 1.42-1.52 1.86-1.64 1.06-1.9 2.53-1.66 4.33 1.83-.3 1.31-2.06 2.05-2.99.74.04.42 1.21 1.47 1.16.68-.03.02 1.52.82 2.02-.45.47-.93.21-1.42.08-.93-.26-1.6.06-2.13.97 1.84.87 3.49.97 5.08-.5.46-.43 1.15-1.17 1.82-.55.73.67-.16 1.05-.56 1.49-.42.45-.35.82.29.94.51.1 1.16.15 1.06.82-.13.82-.9.46-1.42.54-.18.03-.35.11-.49.15-.44.85 1.43 1.73.08 2.31-1.08.47-1.41-.9-1.82-1.58-1.04-1.72-2.53-1.87-4.31-1.65.29 1.82 2.1 1.26 2.96 2.04-.66 1.31-1.72 1.98-3.14 2.19-.39-.78.04-1.63-.17-2.42-.1-.38-.3-.8-.69-.82-.45-.03-.6.43-.65.81-.17 1.26-.46 2.54.65 3.59.32.3.53.72.76 1.1.26.43.66.92.07 1.34-.56.39-.94-.05-1.28-.46-.16-.2-.3-.41-.44-.6-.96.34-.51 1.91-1.6 1.7-1.02-.19-.43-1.29-.62-1.98-.29.04-.48.04-.65.09-.53.14-1.09 1.08-1.58.1-.37-.76.4-1.15.92-1.47 1.25-.77 2.24-1.69 2.33-3.26.03-.47.37-1.15-.26-1.33-.63-.18-.98.44-1.26.96-.33.6.1 1.45-.61 1.92-1.14-.79-1.94-1.81-2.25-3.22.87-.05 1.75-.04 2.62-.16.33-.05.74-.3.68-.78-.05-.4-.42-.42-.73-.48-1.41-.28-2.74-.35-3.94.73-.5.45-1.19 1.45-1.9.82-.98-.87.56-1.3.69-2.04-.38-.64-1.72-.39-1.57-1.38.16-1.03 1.39-.22 2-.86-.08-.19-.17-.42-.27-.63-.21-.45-.65-.98-.1-1.37.64-.45 1.07.14 1.37.61.88 1.37 1.78 2.66 3.65 2.69.43 0 1 .3 1.19-.2.21-.55-.33-.91-.75-1.2-.15-.11-.34-.16-.52-.22-.52-.15-1.19.1-1.49-.59 1.09.05.34-2.08 1.77-1.54.83.32.53-1.08 1.4-.65.57.98-.95 2.67.95 3.43.81-1.69.98-3.28-.35-4.79-.25-.29-.46-.61-.66-.94-.24-.39-.47-.84-.06-1.22.45-.41.85-.06 1.14.28.24.29.4.65.66 1.09zM20.55 44.69c.44.66 1.82.22 1.57 1.38-.22 1.04-1.21.25-1.77.5-.06.15-.14.26-.14.38 0 .65 1.01 1.39.21 1.89-.93.57-1.31-.55-1.67-1.12-.76-1.23-1.73-2.02-3.2-2.09-.41-.02-1.01-.23-1.17.3-.17.57.3.93.81 1.11.6.2 1.2.37 2.16.66-1.18.38-1.01 1.55-2.46 1.89-1.5.35-1.18.19-.95-.83.22-.94.06-1.77-.99-2.26-.94 1.92-.87 3.63.62 5.24.4.43.99 1.08.4 1.67-.6.6-.98-.17-1.4-.51-.69-.55-.89-.02-1.04.5-.14.46-.3.91-.87.8-.45-.09-.48-.55-.46-.94.04-.95-.2-1.43-1.18-.73-.46.33-.95.53-1.31-.07-.36-.62.2-.92.6-1.21 1.32-.97 2.92-1.74 2.74-3.8-.03-.4.43-.96-.19-1.15-.55-.17-.99.3-1.17.78-.27.7-.26 1.5-.75 2.13-1.18-.75-1.79-1.84-2.21-3.21.6-.31 1.35-.05 2.08-.08.54-.02 1.16-.17 1.23-.69.09-.67-.63-.65-1.09-.75-1.38-.27-2.61-.03-3.76.91-.53.43-1.24 1.59-2.04.56-.71-.91.83-1.07.97-2.02-.22-.56-1.77-.17-1.5-1.3.24-.98 1.22-.29 1.79-.55.43-.8-1.23-1.64-.13-2.18 1.1-.54 1.45.79 1.88 1.46.78 1.21 1.87 1.67 3.19 1.79.36.03.86.15 1.01-.28.16-.47-.19-.9-.6-1.07-.68-.29-1.41-.46-2.11-.68.49-1.53 1.85-1.89 3.07-2.59.41.87-.25 1.75.04 2.58.15.42.34.89.87.88.53 0 .41-.53.52-.87.43-1.37.26-2.57-.7-3.73-.45-.54-1.56-1.27-.71-2.08.78-.75 1.17.67 1.98.8.14-.24.34-.49.46-.77.18-.41.29-.93.87-.82.44.09.52.53.5.92-.05 1.05.35 1.27 1.22.7.41-.27.88-.4 1.19.06.43.61-.14.95-.53 1.22-1.41 1-2.93 1.9-2.85 3.97.01.36-.24.85.19 1 .46.16.92-.17 1.11-.58.31-.68.49-1.43.81-2.42.64 1.04 2.01 1.18 1.97 2.59 0 .11.62.32.34.67-.15.18-.59.23-.87.19-.95-.14-2.4-.41-2.35.7.04.99 1.66.75 2.63.76 1.04.01 1.67-.85 2.49-1.32.52-.3 1.09-.98 1.67-.28.55.66-.29.95-.61 1.36-.15.19-.26.41-.39.61zM33.91 36.45c-.82 1.39-1.93 1.95-3.22 2.28-.37-.7-.02-1.47-.12-2.2-.06-.46-.18-.98-.67-1.05-.59-.08-.66.52-.72.92-.18 1.2-.36 2.42.62 3.43.31.32.54.72.77 1.1.26.42.68.89.12 1.35-.56.46-.95.01-1.25-.41-.18-.26-.27-.59-.36-.8-1.02.62-.67 1.98-1.76 1.76-1-.2-.36-1.19-.58-1.78-.13-.04-.25-.11-.36-.11-.63.03-1.29 1.15-1.83.25-.56-.93.52-1.33 1.1-1.69 1.71-1.06 2.35-2.51 2-4.52-1.8.31-1.47 1.9-1.79 3.05-1.35-.82-2.23-1.75-2.46-3.3.64-.32 1.47.14 2.25-.02.46-.1.93-.31 1-.76.1-.66-.53-.53-.93-.66-1.39-.45-2.56-.16-3.72.75-.54.43-1.25 1.58-2.05.64-.69-.82.7-1.15.9-1.81-.3-.81-1.72-.41-1.63-1.38.09-.99 1.2-.37 1.74-.74.05-.1.16-.21.15-.31-.05-.64-1.06-1.35-.25-1.86.9-.57 1.35.48 1.67 1.08.98 1.84 2.59 2.25 4.48 2.26q-.24-1-2.72-2.2c.72-1.13 1.76-1.84 3.06-2.36.69 1.06-.87 2.78 1.03 3.53.87-1.66.96-3.24-.32-4.76-.28-.34-.51-.73-.76-1.11-.27-.42-.34-.86.11-1.19.41-.3.7.02.98.29.27.26.55.5.78.71.66-.08.51-.57.62-.89.16-.48.47-.81.99-.65.39.12.58.46.47.92-.29 1.24.28 1.17 1.1.72.42-.23.91-.38 1.19.1.35.59-.2.93-.59 1.23-1.21.92-2.66 1.64-2.66 3.47 0 .46-.31 1.13.34 1.31.56.16.91-.36 1.08-.87.2-.59.36-1.2.69-2.34.23 1.51 2.17 1 1.73 2.82-.2.83.23.97-.75.81-.98-.16-1.77 0-2.22 1.05 1.84.82 3.52.93 5.1-.57.45-.43 1.15-1.14 1.82-.45.56.58-.22.97-.54 1.4-.52.68.02.88.53 1.02.47.13.91.3.77.87-.11.45-.57.46-.95.44-.95-.04-1.43.19-.72 1.16.33.45.55.94-.04 1.31-.62.39-.93-.15-1.22-.56-.99-1.41-1.85-2.98-3.97-2.79-.35.03-.83-.3-1 .17-.18.48.21.91.6 1.09.73.34 1.53.54 2.37.82zM36.25 10.19c.44.66 1.79.36 1.58 1.44-.18.92-1.24.32-1.79.68-.2.36 0 .62.17.88.25.42.38.91-.08 1.19-.56.35-.93-.1-1.25-.53-.85-1.17-1.51-2.58-3.28-2.61-.57-.01-1.4-.63-1.58.31-.13.66.63 1 1.26 1.23.5.18 1.21-.17 1.49.58-1.08-.05-.22 2.35-1.97 1.54-.6-.28-.35 1-1.19.72-.5-1.02 1.01-2.67-.92-3.47-.92 1.79-.96 3.42.48 4.99.41.44 1.06 1.04.59 1.66-.6.79-1.08 0-1.54-.4-.55-.47-.8-.1-.95.38-.16.49-.24 1.1-.94.92-.56-.14-.38-.73-.43-1.15-.03-.25-.09-.49-.13-.7-.85-.3-1.76 1.15-2.27.1-.51-1.07.82-1.44 1.5-1.84 1.72-1.01 1.8-2.58 1.84-4.3-2.07.04-1.29 2.13-2.25 2.91-1.12-.8-1.84-1.84-2.22-3.21 1.07-.58 2.77.93 3.48-1-1.74-.86-3.38-.96-4.92.45-.32.3-.74.51-1.13.71-.29.15-.63.15-.88-.11-.35-.36-.2-.71.11-.99.72-.65 1.36-1.25-.25-1.54-.43-.08-.61-.47-.5-.89.09-.36.41-.44.76-.42.37.02.74 0 1.09 0 .03-.23.07-.35.06-.47-.08-.67-1.23-1.41-.13-1.95.77-.38 1.21.58 1.52 1.15 1.02 1.9 2.6 2.42 4.66 2.11-.36-1.74-1.98-1.4-3.15-2.04.88-1.16 1.91-1.96 3.41-2.28 0 .89-.06 1.77.03 2.63.03.34.32.76.74.79.55.04.47-.47.56-.82.4-1.42.35-2.71-.71-3.91-.49-.55-1.52-1.31-.75-2.09.89-.9 1.19.79 2.08.81.15-.3.33-.63.47-.97.15-.38.32-.76.78-.68.44.08.55.48.53.9-.04.9-.02 1.71 1.18.8.46-.35.96-.54 1.28.1.31.61-.25.92-.64 1.22-1.25.95-2.78 1.68-2.73 3.62.01.46-.47 1.12.2 1.31.61.18 1.05-.39 1.26-.95.23-.58.04-1.3.57-1.78 1.19.65 1.93 1.66 2.35 3.16-.86 0-1.67-.03-2.47.01-.39.02-.79.28-.81.68-.02.45.43.59.82.64 1.26.18 2.54.43 3.59-.65.22-.22.51-.38.79-.54.5-.31 1.01-1.07 1.62-.3.51.65-.23.98-.6 1.38-.17.18-.3.39-.43.58z"/></svg>
