<svg xmlns="http://www.w3.org/2000/svg" viewBox="0 0 78.98 134.61"><defs><clipPath id="a"><path fill="none" d="M0 0h78.98v134.6H0z"/></clipPath></defs><g clip-path="url(#a)"><path d="M70.5 57.04c-4.68 0-8.48 3.79-8.48 8.47v.02-5.93c0-4.69-3.79-8.48-8.48-8.49-4.19 0-7.75 3.06-8.39 7.2l-.11-.03v-4.73c.05-4.68-3.71-8.52-8.39-8.57-4.68-.05-8.52 3.71-8.57 8.39v2.45l-.26.07V8.39c0-4.63-3.76-8.39-8.4-8.39s-8.39 3.76-8.39 8.39v66.94A25.033 25.033 0 0 0 0 95.91v13.25c0 14.06 11.98 25.45 26.76 25.45 1.1 0 2.2-.07 3.29-.2.92.13 1.85.2 2.77.2h24.36c12.04 0 21.8-10.61 21.8-23.69V65.54c0-4.69-3.8-8.49-8.48-8.49" fill="#0a59a1"/></g></svg>
