<svg xmlns="http://www.w3.org/2000/svg" viewBox="0 0 24.74 38.96"><path d="M12.99 0C10.87 2.47 9.36 4.97 9.3 8.13c-.06 2.8.8 5.27 2.51 7.45 1.22 1.56 2.56 3.02 3.72 4.62 5.34 7.37 1.68 16.26-3.25 18.75-.14-.38.2-.57.36-.8 4.05-5.63 3.76-12.34-.9-17.54-2.17-2.41-4.01-4.93-4.69-8.18C6 7.43 8.57 1.8 12.99 0z"/><path d="M22.86 4.89c-1.21.88-2.29 1.42-3.04 2.39-1.93 2.51-2.02 5.38-.07 8.13.99 1.4 2.2 2.66 3.18 4.07 2.88 4.17 2.27 9.78-1.36 13.07-.26.24-.5.6-1.15.44 3.49-5.12 1.6-9.55-1.82-13.73-2.71-3.3-4.08-6.8-1.77-10.87 1.24-2.19 3.12-3.43 6.03-3.5zM6.39 36.54c3.27-3.24 3.22-5.46.08-8.31-1.04-.94-2.18-1.78-3.16-2.79-4.09-4.18-4.45-11.09-.73-15.25.41.76.23 1.5.08 2.18-.98 4.69.51 8.54 3.91 11.77 1.2 1.14 2.46 2.24 3.35 3.67 2.25 3.63.9 7.28-3.53 8.74z"/></svg>
