<svg xmlns="http://www.w3.org/2000/svg" viewBox="0 0 35.59 58.49"><path d="M31.97 26.62c1.79.49 2.16 1.89 2.3 3.49.4 4.58.81 9.15 1.3 13.72.11 1.01-.05 1.47-1.1 1.79-1.29.4-2.19 1.51-3.23 2.35-3.63 2.93-7.58 5.57-10.75 8.94-2.16 2.3-3.67 1.71-5.81.64-4-2.01-8.06-3.88-12.1-5.8-.86-.41-1.3-.83-1.32-1.98-.07-5.04-.78-10.09-.4-15.12.3-3.87-.8-7.59-.82-11.4C.02 19.28 0 15.32 0 11.35c0-3.18.22-3.46 3.17-4.53C7.11 5.39 10.73 3.38 14 .76c.87-.7 1.64-.92 2.78-.66C21.97 1.28 27 2.85 31.79 5.21c1.01.5 1.29 1.11 1.39 2.2.39 4.57.88 9.14 1.41 13.7.16 1.38.21 2.49-1.48 2.95-.63.17-1.15.79-1.67 1.25-.61.54-.46.97.27 1.25-1.02-.44-1.8-.05-2.6.61-3.24 2.68-6.52 5.31-9.78 7.97-.4.33-.89.62-.95 1.26.28.04.42.11.51.07 4.88-2.03 8.98-5.28 13.16-8.4.65-.49.34-.98-.07-1.45zM16.3 17.37c0-.82-.07-1.6-1.28-1.1-.81.33-1.46-.2-2.14-.56-3.27-1.74-6.55-3.46-9.81-5.22-1.07-.58-1.64-.47-1.69.9-.21 5.5.17 10.97.59 16.44.06.8.36 1.26 1.08 1.6 3.76 1.76 7.5 3.54 11.23 5.35 1.09.53 1.43.24 1.51-.95.37-5.48.31-10.97.5-16.46zm1 25.36c0-1.5.01-2.65 0-3.8 0-.59-.18-1.48-.85-1.09-1.3.76-2.04-.15-2.94-.62-3.11-1.62-6.22-3.26-9.31-4.92-1.25-.67-1.79-.52-1.79 1.06.01 5.36 0 10.73.41 16.08.08 1.02.61 1.44 1.41 1.81 3.57 1.69 7.15 3.39 10.7 5.14 1.38.68 1.98.42 1.97-1.2-.02-4.28 0-8.56.4-12.47zm.94 12.29c.38.53-.52 1.54.39 1.93.68.29 1.2-.56 1.73-.99 3.57-2.9 7.04-5.93 10.74-8.66 2.19-1.62 3.31-3.22 2.76-6.12-.67-3.56-.83-7.21-1.22-10.83-.08-.72-.18-1.68-1.21-.78-3.39 2.99-7.44 4.92-11.35 7.08-.83.46-1.09 1.01-1.2 1.94-.6 5.41 0 10.86-.65 16.41zm-.42-25.3h-.42c0 1.34-.02 2.68 0 4.03 0 .49-.24 1.16.26 1.41.6.31 1.03-.33 1.45-.67 4.31-3.51 8.58-7.05 12.93-10.52.81-.65 1.09-1.3.99-2.26-.34-3.23-.67-6.46-1-9.69-.12-1.2-.19-2.42-.38-3.61-.11-.7-.44-1.3-1.27-.55-3.29 3.01-7.32 4.86-11.15 7.01-.91.51-1.46 1.08-1.44 2.22.05 4.21.02 8.42.02 12.63zM31.14 6.04C26.37 3.78 21.7 1.96 16.73.94c-.98-.2-1.7-.09-2.48.48-3.41 2.5-7.12 4.46-11.14 5.84-.44.15-1.14.15-1.2.77-.07.65.64.71 1.06.92 3.94 1.96 7.88 3.95 11.65 6.23.89.54 1.59.42 2.47.03 5.1-2.29 9.67-5.36 14.05-9.16z"/></svg>
