<svg xmlns="http://www.w3.org/2000/svg" id="a" viewBox="0 0 44 44"><defs><style>.b{fill:#000001}</style></defs><path class="b" d="M22 0C9.85 0 0 9.85 0 22s9.85 22 22 22 22-9.85 22-22S34.15 0 22 0zm0 43.5C10.13 43.5.5 33.87.5 22S10.13.5 22 .5 43.5 10.13 43.5 22 33.87 43.5 22 43.5z"/><path class="b" d="M31.54 32.34v-8.71c0-.5-.41-.91-.91-.91s-.91.41-.91.91v7.8h-2.14v-6.74c0-.5-.41-.91-.91-.91h-5.85c-.5 0-.91.41-.91.91v6.74h-5.64v-7.8c0-.5-.41-.91-.91-.91s-.91.41-.91.91v8.71c0 .5.4.9.9.91h7.47c.5 0 .9-.41.9-.91V25.6h4.04v6.74c0 .5.4.9.9.91h3.97c.5 0 .9-.41.9-.91zM12.55 22.25c.92-.01 1.8-.37 2.47-1.01.56.66 1.38 1.03 2.23 1.01.9 0 1.77-.38 2.39-1.03.02.02.03.04.04.06 1.2 1.26 3.19 1.3 4.45.1l.1-.1c.02-.02.03-.04.04-.06a3.38 3.38 0 0 0 2.39 1.03c.86.02 1.67-.35 2.23-1 .67.63 1.55.99 2.47 1 .85.02 1.66-.36 2.19-1.02.38-.52.56-1.14.53-1.77v-.04c-.01-.21-.05-.42-.11-.62l-1.19-4.42s-.02-.04-.02-.06c0-.02-.02-.06-.03-.09-.01-.03-.03-.05-.04-.08a.304.304 0 0 0-.05-.07c-.02-.02-.04-.04-.05-.06-.02-.02-.04-.05-.07-.07-.02-.02-.04-.03-.06-.04l-.09-.06c-.02 0-.03-.02-.05-.03-.03-.02-.07-.03-.11-.05-.02 0-.04-.01-.05-.02-.04-.01-.08-.02-.11-.03H11.87c-.04 0-.07.02-.11.03-.02 0-.04.01-.06.02-.04.01-.07.03-.11.05-.02 0-.03.02-.05.03l-.09.06c-.02.01-.04.03-.05.04l-.07.07c-.02.02-.03.04-.05.06-.02.03-.03.05-.05.08-.01.02-.03.05-.04.07-.01.03-.03.06-.04.09 0 .02-.01.04-.02.05l-1.19 4.42c-.06.21-.1.42-.11.63v.02c-.03.63.15 1.26.53 1.79a2.73 2.73 0 0 0 2.19 1.02zm18.68-6.73l1.01 3.74c.1.29.06.6-.11.85-.19.22-.46.33-.75.31a1.99 1.99 0 0 1-1.84-1.6L29 15.51h2.22zm-4.06 0l.58 3.6c.07.33-.01.68-.23.95-.22.24-.53.37-.85.36-.84-.03-1.52-.69-1.58-1.53l-.18-3.38h2.25zm-6.33 0h2.26l.19 3.48c.03.38-.11.75-.36 1.03-.51.53-1.34.54-1.87.04-.29-.28-.43-.67-.4-1.06l.19-3.48zm-4.07 0h2.25l-.19 3.38c-.05.84-.73 1.5-1.57 1.53-.32.01-.63-.12-.85-.36-.21-.27-.3-.61-.23-.95l.58-3.6zm-5.07 3.74l1.01-3.74h2.23l-.54 3.31a1.99 1.99 0 0 1-1.84 1.6c-.28.02-.56-.1-.75-.31a.97.97 0 0 1-.11-.86zM12.44 10.51v1.54c0 .5.41.91.91.91s.91-.41.91-.91v-.63h15.46v.63c0 .5.41.91.91.91s.91-.41.91-.91v-1.54c0-.5-.41-.91-.91-.91H13.35c-.5 0-.91.41-.91.91z"/></svg>
