<svg xmlns="http://www.w3.org/2000/svg" viewBox="0 0 80.05 72" overflow="visible"><path d="M65.43 0h-50.8C6.55 0 0 5.89 0 13.16v45.68C0 66.11 6.55 72 14.63 72h50.8c8.08 0 14.63-5.89 14.63-13.16V13.16C80.05 5.89 73.51 0 65.43 0zM34.69 45.93c-1.03 4.48-2.48 8.17-5.55 11.24-3.7 3.7-6.45 5.35-10.14 5.21H7.94l1.68-9.45h10.47c1.96-.67 3.1-1.42 4.78-3.76 1.6-2.24 2.59-4.49 2.52-6.52-.01-.4-.01-.4-.04-.57H3.25l2.29-13.61c.32-1.92 1.4-3.61 3.25-5.08 1.74-1.37 3.41-2.05 5.01-2.05.29 0 .59.03.88.1L13.01 31.6h16.11l3.36-20.5h8l-5.79 34.83zm34.78.02H53.12v16.52H43.2V34.71h26.27v11.24zm7.1-25.48l-23.49-.01-.01 10H43.2V11.07h29.21s2.89 1.51 3.94 4.49c.97 2.76.22 4.91.22 4.91z" fill="#fff"/></svg>
