<svg xmlns="http://www.w3.org/2000/svg" viewBox="0 0 96.62 66.94" overflow="visible"><style>.st0{fill:#fff}</style><path class="st0" d="M52.81 66.94h12.91V45.43h21.3V30.8H52.81z"/><path class="st0" d="M95.98 5.85C94.6 1.96 90.84 0 90.84 0H38.83l-4.36 26.74H13.49l2.17-13.25c-.38-.09-.77-.13-1.15-.13-2.09 0-4.27.89-6.53 2.67-2.4 1.92-3.81 4.13-4.23 6.62L.78 40.39h31.39c.03.23.03.23.05.74.09 2.64-1.19 6.16-3.28 9.07-2.19 3.05-3.3 4.05-6.23 4.31H0v12.31h21.31c2.29 0 8.12-.17 12.85-5.08 3.6-3.73 5.32-7.97 6.74-13.16 1-3.64 4.18-22.76 6.31-35.9l5.59.02v12.54h12.85l.02-12.93h30.58c.01.01.99-2.86-.27-6.46z"/><path class="st0" d="M25.5 23.35a6.8 6.8 0 0 0 6.8-6.8c0-3.76-3.04-6.8-6.8-6.8s-6.81 3.04-6.81 6.8 3.05 6.8 6.81 6.8z"/></svg>
