<svg xmlns="http://www.w3.org/2000/svg" viewBox="0 0 21.32 21.31" overflow="visible"><style>.st0{fill:#323333}</style><path class="st0" d="M10.66 21.31C4.78 21.31 0 16.53 0 10.66S4.78 0 10.66 0s10.66 4.78 10.66 10.66-4.79 10.65-10.66 10.65zm0-20.56C5.2.75.75 5.19.75 10.66s4.44 9.91 9.91 9.91 9.91-4.44 9.91-9.91S16.12.75 10.66.75z"/><path class="st0" d="M16.2 13.43c-.46.23-1.03.35-1.73.35-.89 0-1.61-.28-2.15-.84s-.81-1.3-.81-2.23c0-.96.3-1.75.9-2.38.6-.63 1.37-.93 2.31-.93.59 0 1.09.08 1.48.25v.97c-.43-.25-.92-.38-1.45-.38-.67 0-1.21.22-1.62.66s-.6 1.03-.6 1.74c0 .68.19 1.24.57 1.66s.89.63 1.53.63c.6 0 1.12-.14 1.57-.41v.91z"/><path d="M10.69 8.3H8.43v5.48h-.92V8.3H5.26v-.65h5.43v.65z" fill="#313333"/></svg>
