<svg xmlns="http://www.w3.org/2000/svg" viewBox="0 0 30.2 30.2" overflow="visible"><path d="M15.1 0C6.76 0 0 6.76 0 15.1s6.76 15.1 15.1 15.1 15.1-6.76 15.1-15.1S23.44 0 15.1 0zm-3.04 2.42c-.03.02-.06.03-.08.06a11.227 11.227 0 0 0-3.23 5.07c-.01.02-.01.04-.02.07-1.22-.23-2.44-.53-3.63-.9 1.8-2.15 4.24-3.65 6.96-4.3zM4.15 8.01c1.35.45 2.74.81 4.14 1.08a23.78 23.78 0 0 0-.71 5.24h-5.5c.13-2.25.84-4.43 2.07-6.32zm0 14.18a12.84 12.84 0 0 1-2.06-6.32h5.48c.05 1.77.29 3.53.72 5.24-1.4.27-2.79.63-4.14 1.08zm.96 1.3c1.19-.38 2.4-.68 3.62-.91.25.72.55 1.42.89 2.1a9.56 9.56 0 0 0 2.35 3.04c.02.02.05.04.08.06-2.71-.65-5.14-2.15-6.94-4.29zm9.22 3.77c-.51-.14-.98-.39-1.39-.73a9.672 9.672 0 0 1-2.67-4.2c1.35-.18 2.7-.29 4.06-.31v5.24zm0-6.76c-1.51.03-3.02.15-4.51.37-.42-1.63-.66-3.31-.7-5h5.22l-.01 4.63zm0-6.17H9.1c.04-1.68.28-3.36.71-4.99 1.5.21 3.01.33 4.52.36v4.63zm0-6.17c-1.36-.03-2.71-.13-4.05-.31.2-.56.44-1.1.71-1.63.47-.98 1.14-1.85 1.96-2.56.41-.34.88-.59 1.39-.74v5.24zm11.72-.15a12.84 12.84 0 0 1 2.06 6.32h-5.48a23.88 23.88 0 0 0-.72-5.25c1.4-.26 2.78-.62 4.14-1.07zm-.96-1.3c-1.19.38-2.4.68-3.62.91-.25-.72-.55-1.42-.89-2.1a9.56 9.56 0 0 0-2.35-3.04c-.03-.02-.05-.04-.08-.06 2.71.65 5.14 2.15 6.94 4.29zm-9.22-3.78c.51.15.98.4 1.39.74a9.672 9.672 0 0 1 2.67 4.2c-1.35.18-2.7.29-4.06.31V2.93zm0 6.77c1.51-.03 3.02-.15 4.51-.36.42 1.63.66 3.31.7 5h-5.22l.01-4.64zm0 6.17h5.23c-.04 1.68-.28 3.36-.71 4.99-1.5-.21-3.01-.34-4.52-.36v-4.63zm1.38 10.66c-.41.34-.88.59-1.39.73v-5.23c1.36.03 2.71.13 4.05.31-.2.56-.44 1.1-.71 1.63-.46.98-1.13 1.85-1.95 2.56zm.89 1.25c.03-.02.05-.04.08-.06 1.51-1.37 2.63-3.12 3.23-5.07.01-.02.01-.05.02-.07 1.23.23 2.44.53 3.63.9-1.8 2.14-4.24 3.65-6.96 4.3zm7.91-5.59a33.15 33.15 0 0 0-4.14-1.08c.43-1.71.67-3.47.71-5.24h5.49a12.84 12.84 0 0 1-2.06 6.32z" fill="#563919"/></svg>
