<svg xmlns="http://www.w3.org/2000/svg" viewBox="0 0 31.11 31.64" overflow="visible"><path d="M30.82 15.34L16.33.32c-.43-.42-1.12-.42-1.54 0L.3 15.34c-.4.42-.4 1.09.01 1.5l2.9 2.9v10.82c0 .59.48 1.07 1.07 1.07h7.51c.59 0 1.07-.48 1.07-1.07v-9.12h5.36v9.12c0 .59.48 1.07 1.07 1.07h7.51c.59 0 1.07-.48 1.07-1.07V19.74l2.9-2.9c.44-.41.45-1.08.05-1.5zM25.75 29.5h-5.36v-9.12c0-.59-.48-1.07-1.07-1.07H11.8c-.59 0-1.07.48-1.07 1.07v9.12H5.37V19.2L15.56 8.52l10.2 10.68-.01 10.3zm1.35-12L16.33 6.22c-.43-.43-1.12-.43-1.55 0L4.01 17.5l-1.44-1.44L15.56 2.61l12.98 13.46-1.44 1.43z" fill="#563919"/></svg>
