<svg xmlns="http://www.w3.org/2000/svg" viewBox="0 0 171.11 230.35" overflow="visible"><style>.st0{fill:#56391a}.st1{fill:#563919}</style><path class="st0" d="M132.61 96.71c-1.24 12.03-6.55 23.54-14.73 33.86-8.56 10.8-19.37 18.9-31.13 25.82-4.12 2.42-8.44 1.2-10.69-2.68-1.96-3.38-.95-7.26 3.01-9.77 10.23-6.48 20.21-13.21 27.72-22.97 6.07-7.88 10.13-16.54 11.08-26.55.54-5.64 3.75-8.47 8.64-7.96 4.26.45 6.4 3.61 6.1 10.25zM37.19 94.69c0-1.16-.17-2.35.03-3.47.74-4.08 3.09-6.54 7.42-6.59 3.96-.05 7.24 2.99 7.25 7.24.02 17.35 8.51 28.95 23.9 36.17 4.25 1.99 5.66 6.13 3.86 9.9-1.76 3.68-5.81 5.02-10.12 3.35-18.66-7.2-32.26-26.75-32.34-46.6z"/><path class="st1" d="M121.86 14.71c-3.52.58-5.82.13-8.49-2.77-14.29-15.59-40.12-15.97-54.61-.79-3.11 3.25-5.64 4.16-10.1 3.46C33 12.16 17.86 24.66 17.85 39.49c-.02 8.21 3.2 15.21 10.01 19.43 4.95 3.06 5.75 6.58 5.59 11.69-.28 8.43 2.48 10.9 10.95 10.9 26.38.01 52.75 0 79.13 0 13.38 0 14.4-.9 14.24-14.4-.04-3.26 1.02-4.92 3.78-6.61 6.99-4.28 11.43-10.53 11.95-18.92 1-16.43-14.57-29.67-31.64-26.87zm8.73 34.94c-1.67.63-3.57.72-5.38.91-3.09.34-5.43 1.81-6.37 4.75-.97 3.02-.52 5.89 2.1 8.13.8.68 2.4 1.11 1.74 2.57-.61 1.34-2.08.64-3.14.65-11.29.05-22.58.03-33.87.03s-22.58.02-33.87-.03c-1.04 0-2.55.64-2.97-.92-.29-1.1.93-1.59 1.65-2.24 2.47-2.24 3.2-5.1 2.18-8.13-1.05-3.1-3.52-4.58-6.84-4.86-2.96-.25-5.86-.77-8.42-2.57-6.43-4.56-6.19-12.85.64-16.73 4.79-2.72 9.74-2.78 14.74-.39 6.38 3.05 9.42 2.15 12.5-3.89 4.33-8.49 11.58-12.04 20.68-11.98 9.13.06 16.23 3.89 20.42 12.4 2.68 5.45 6.07 6.49 11.76 3.7 4.24-2.08 8.59-2.65 12.97-.92 4.43 1.74 7.72 4.71 7.57 9.92-.16 5.2-3.69 7.92-8.09 9.6zM168.68 187.78c-.04-.4-.08-.81-.14-1.21-1.58-11.19-4.62-21.67-12.85-29.98-8.37-8.46-18.15-14.9-28.96-19.8-5.7-2.58-8.92-1.45-11.93 4.04-2.16 3.93-4.51 7.71-7.49 11.07-11.73 13.25-28.88 13.91-41.6 1.64-3.87-3.73-6.61-8.2-9.04-12.96-2.78-5.45-5.79-6.4-11.39-4.01-5.5 2.35-10.65 5.36-15.63 8.62-23 15.03-29.1 32.02-26.81 60.57.34 4.29 3.11 6.44 7.45 6.32 4.36-.12 6.73-2.48 7.06-6.76.17-2.14.19-4.32-.01-6.45-1.9-21.15 7.95-35.37 26.19-44.83 2.37-1.23 3.35-.79 4.66 1.29 2.57 4.08 5.73 7.76 9.53 10.75 2.34 1.84 3.06 3.9 3.02 6.8-.16 10.44-.15 20.88-.02 31.31.07 5.99 3.98 9.09 9.38 7.68 4.31-1.13 5.43-4.5 5.45-8.41.05-8.12.02-16.24.02-24.36 0-1.68-.32-3.23 2.52-2.78 17.98 2.83 32.02-4.04 43.07-17.91 4.64-5.82 4.61-5.85 10.87-1.95.98.61 1.96 1.23 2.93 1.87 10.43 6.94 17.64 15.93 18.62 28.94.58 7.76 1.02 15.53 1.89 23.26.47 4.18-.81 5.19-5 5.18-45.99-.16-91.97-.06-137.96-.17-4.05-.01-7.65.45-10.46 3.26h-.01s-.36.31-.77.87c-.04.05-.08.1-.13.15v.02c-.71 1.01-1.49 2.69-.97 4.79H.16s.78 3.67 3.77 5.17h.05c.74.37 1.6.56 2.62.53l-.02.02 156.97-.1c3.17.09 6.28.11 6.45-4.29.01-.11.01-.22.02-.33 0-.02.01-.04.01-.06 3.09-19.01-1.35-37.79-1.35-37.79z"/></svg>
