<svg xmlns="http://www.w3.org/2000/svg" viewBox="0 0 120.93 159.36" overflow="visible"><style>.st0{fill:#563919}</style><path class="st0" d="M65.39 0c8.19 2.28 15.52 5.82 20.62 13.08 7.91 11.25 7.85 26.24-.36 36.9-8.67 11.28-23.15 15.66-35.61 10.78-13.45-5.27-21.77-17.63-20.84-30.98C30.22 15.22 39.84 3.97 53.89.85c.57-.13 1.07-.56 1.6-.85h9.9zM120.85 106.33c-.01-3.29-.15-6.66-1.46-9.74-6.7-15.74-18.19-25.72-35.51-26.79-15.95-.98-32-.56-47.99-.11C19.88 70.15 2.33 84.55.62 99.35v.02c0 .04-.01.07-.01.11-.07.82-.51 5.71-.6 8.66-.01.01-.01.03-.02.04v50.62c.87.67 1.89.48 2.86.49 37.78.01 75.56-.04 113.35.08 3.85.01 4.75-1.45 4.72-4.94-.11-16.04 0-32.07-.07-48.1z"/></svg>
