<svg xmlns="http://www.w3.org/2000/svg" viewBox="0 0 231.79 231.79" overflow="visible"><style>.st0{fill:#040000}</style><path class="st0" d="M115.76 127.27c-2.88.04-4.58 2.14-4.62 5.89-.05 4.78-.01 9.57-.01 14.35 0 4.78-.02 9.57.01 14.35.02 4.15 1.83 6.54 4.83 6.48 2.89-.06 4.64-2.38 4.64-6.3.02-9.57.03-19.14 0-28.71-.02-3.84-1.88-6.11-4.85-6.06zM147.38 147.99c0-5.03-.04-10.06.02-15.09.04-3.16-1.26-5.25-4.51-5.6-2.8-.3-4.94 2.09-4.97 5.57-.07 9.94-.07 19.88 0 29.81.02 3.5 2.16 5.93 4.93 5.61 3.19-.37 4.6-2.38 4.55-5.58-.07-4.9-.02-9.81-.02-14.72zM89.09 127.3c-2.89-.16-4.62 2.05-4.65 5.75-.04 4.9-.01 9.81-.01 14.71 0 5.03-.04 10.05.01 15.08.04 3.39 1.87 5.64 4.58 5.46 3.26-.21 4.71-2.26 4.71-5.41.01-10.05.02-20.1.01-30.15.01-3.12-1.33-5.26-4.65-5.44zM155.59 119.84c-13.24-.04-26.48-.03-39.72-.03H96.75c-7.11 0-14.22-.01-21.33.02-1.01 0-2.46-.41-2.53 1.27-.08 1.8 1.36 1.71 2.6 1.73h.74c26.48 0 52.96 0 79.44-.01 1.39 0 3.45.43 3.27-1.76-.15-1.86-2.12-1.21-3.35-1.22z"/><path class="st0" d="M115.9 0C51.89 0 0 51.89 0 115.9s51.89 115.9 115.9 115.9 115.9-51.89 115.9-115.9C231.79 51.89 179.9 0 115.9 0zm6.35 55.79s2.17-1.32 4.42 0c1.45 1.28 2.85 2.59 3.6 4.45 5.63 13.81 11.27 27.61 16.92 41.41 1.15 2.82.68 5.29-1.57 7.34-2 1.83-4.27 1.61-6.51.55-1.52-.72-2.32-2.11-2.94-3.62-5.64-13.8-11.24-27.62-16.95-41.4-1.62-3.92.02-6.51 3.03-8.73zm-37.62 45.76c2.8-7.04 5.71-14.04 8.57-21.05 2.58-6.34 5.21-12.66 7.72-19.03.93-2.35 2.21-4.33 4.38-5.67 0 0 2.19-1.46 4.42 0 4.07 3.98 4.3 5.09 2.06 10.58-5.17 12.68-10.36 25.35-15.54 38.02-.23.57-.45 1.14-.71 1.69-1.66 3.49-5.06 5.1-8.03 3.82-3.13-1.35-4.35-4.65-2.87-8.36zm85.93 19.21c-2.08 1.05-1.95 2.93-1.96 4.76-.04 11.66-.03 23.32-.01 34.97.01 3.91-.75 7.56-3.13 10.75-2.57 3.46-5.86 5.4-10.31 5.4-26.14-.04-52.27.01-78.41-.04-7.5-.01-13.08-5.75-13.29-13.79-.25-9.81-.05-19.63-.08-29.45-.01-2.33-.12-4.67.03-6.99.2-2.96-.45-5.26-3.48-6.51-2.19-.9-2.97-2.88-3.66-4.88-.11-.33-.22-.66-.34-.98v-.06c-1.02-3.54-.48-6.47 0-8.03v-.02c.01-.04.03-.07.04-.1.22-.7.42-1.1.42-1.1 1.86-4.53 4.12-5.91 9.56-6.06 3.68-.1 7.37-.15 11.04.03 3.81.18 4.39.86 4.49 4.65.14 5.37 2.21 8.36 6.52 9.39 4.13.99 8.15-.71 9.81-5.66 2.41-7.18 6.98-9.29 14.01-8.52 4 .44 8.1.24 12.14.04 4.41-.23 7.33 1.34 8.59 5.72.44 1.52 1.15 2.98 1.99 4.34 2.16 3.49 5.64 4.92 9.45 3.91 3.65-.97 5.93-3.8 6.22-7.74.45-5.94.65-6.14 6.78-6.18 3.31-.02 6.63-.13 9.94.06 5.5.32 8.56 3.13 9.25 8.57.72 5.55.11 10.64-5.61 13.52z"/></svg>
