<svg xmlns="http://www.w3.org/2000/svg" viewBox="0 0 197.72 197.72" overflow="visible"><style>.st0{fill:#040000}</style><path class="st0" d="M81.63 69.74C82 75 86.8 79.68 92.6 80.29V57.17c-6.96 1.56-11.38 6.71-10.97 12.57zM106 105.64v27.3c9.91-2.56 15.47-8.58 14.76-15.39-.68-6.55-6.86-11.62-14.76-11.91z"/><path class="st0" d="M98.86 0C44.26 0 0 44.26 0 98.86s44.26 98.86 98.86 98.86 98.86-44.26 98.86-98.86S153.46 0 98.86 0zm44 120.2c-3.64 14.6-13.46 22.85-27.43 26.77-3.13.88-6.32 1.5-9.85 2.33v12.64H92.69v-12.83c-18.7-2.68-32.75-10.46-36.75-30.8 6.59-.69 12.81-1.23 18.99-2.04 2.98-.4 4.28.63 5.38 3.44 2.16 5.54 6.26 9.33 12.48 11.97 0-9.74.08-18.64-.11-27.53-.02-.98-1.43-2.36-2.51-2.81-3.63-1.52-7.47-2.54-11.11-4.05-13-5.4-20-16.01-19.42-29.21.49-11.19 8.73-20.83 21.52-24.89 3.71-1.18 7.58-1.83 11.73-2.81-.16-2.31-.31-4.41-.46-6.51h12.85c.27 2.24.54 4.47.8 6.61 22.32 5.85 30.29 12.07 32.24 25.43-7.14.79-14.27 1.58-21.51 2.38-2.5-4.67-4.57-9.62-11.12-10.78 0 7.02.39 13.6-.12 20.11-.43 5.57 1.18 7.82 6.92 9.2 14.07 3.37 27.16 8.68 30.36 25.45.01 2.63.01 5.28.01 7.93z"/></svg>
