<svg xmlns="http://www.w3.org/2000/svg" viewBox="0 0 35.5 32.65" overflow="visible"><path d="M32.78 6.2C29.75 2.47 24.79.28 18.81.02 12.44-.26 6.77 1.75 3.27 5.5a11.118 11.118 0 0 0-3.23 8.83c.67 6.04 6.3 9.07 8.44 10.02l-.1 7.09c-.01.5.29.94.75 1.13.14.06.3.09.45.09.33 0 .65-.14.88-.38l6.05-6.47c.45-.48.43-1.24-.05-1.7a1.21 1.21 0 0 0-1.7.05l-3.93 4.2.07-4.8c.01-.52-.32-.98-.81-1.15-.07-.02-7.02-2.51-7.67-8.35-.2-2.58.75-5.11 2.59-6.92C8.05 3.9 13.04 2.18 18.7 2.42c5.29.23 9.63 2.11 12.22 5.29a8.873 8.873 0 0 1 2.12 6.89c-.95 5.71-6.22 9.12-14.11 9.12-.66 0-1.2.54-1.2 1.2s.54 1.2 1.2 1.2c9.03 0 15.34-4.26 16.48-11.13.41-3.16-.54-6.36-2.63-8.79z" fill="#563919"/></svg>
