<svg xmlns="http://www.w3.org/2000/svg" viewBox="0 0 31.43 41.01" overflow="visible"><path d="M25.97 9.32H3.42v29.82c.06 1.08.97 1.91 2.05 1.86h20.5a1.97 1.97 0 0 0 2.05-1.86V9.32h-2.05zM10.59 36.66H8.54V14.29h2.05v22.37zm6.15 0h-2.05V14.29h2.05v22.37zm6.15 0h-2.05V14.29h2.05v22.37zm6.49-32.93h-7.52A3.935 3.935 0 0 0 17.76 0h-4.1a3.935 3.935 0 0 0-4.1 3.73H2.05C.97 3.69.06 4.52 0 5.6v1.86h31.43V5.6a1.972 1.972 0 0 0-2.05-1.87zM15.03 1.87h1.37a1.97 1.97 0 0 1 2.05 1.86h-5.47a1.97 1.97 0 0 1 2.05-1.86z" fill="#040000"/></svg>
