<svg xmlns="http://www.w3.org/2000/svg" viewBox="0 0 238.97 268.95" overflow="visible"><style>.st0{fill:#563919}</style><path class="st0" d="M147.13 74.14c11.58-.19 23.17-.07 34.75-.07h29.79c8.93 0 8.93 0 7.25-8.72-3.62-18.75-20.97-31.65-40.68-30.24-17.98 1.28-33.61 17.08-34.76 34.99-.19 2.91.4 4.09 3.65 4.04zM6.99 73.12c16.36-.09 32.73-.05 50.46-.05-7.75-7.74-15.14-14.14-21.31-21.56-5.36-6.46-11.48-8.29-19.39-7.64-7.62.63-12.37 4.69-12.71 12.31-.21 4.62.06 9.26-.12 13.89-.1 2.4.71 3.06 3.07 3.05zM205.7 20.8c3.44-2.77 9.46-4.56 9.73-8.4.25-3.66-4-7.64-6.29-11.46-.22-.37-.59-.66-.84-.94-1.38.31-1.4 1.51-1.8 2.34-3.91 8.31-7.76 16.66-11.63 24.99l.91.79c3.32-2.43 6.72-4.74 9.92-7.32zM227.2 142.55c-71.65.12-143.29.12-214.94 0-4.18-.01-4.86.94-3.85 4.91 8.59 33.79 17.24 67.58 25.3 101.5 2.2 9.27 5.55 16.7 15.05 19.99h141.33c7.82-2.56 12.82-7.25 14.86-15.79 8.43-35.21 17.25-70.33 26.19-105.42 1.08-4.31.48-5.2-3.94-5.19zm-48.25 107.22c-39.46.08-78.93.08-118.39 0-7.13-.02-11.22-4.18-11.07-10.59.14-6.19 4.2-9.79 11.22-9.8 19.73-.03 39.46-.01 59.19-.01 19.57 0 39.13-.01 58.7 0 7.31.01 11.45 3.6 11.57 9.97.12 6.29-4.06 10.42-11.22 10.43zm13.7-34.97c-2.06.88-4.22.73-6.36.73-22.19.01-44.39 0-66.58 0-22.69 0-45.38.03-68.08-.02-5.47-.01-9.28-2.76-10.6-7.27-1.21-4.12.62-8.74 4.48-11.15 2.01-1.25 4.24-1.8 6.61-1.8 45.22 0 90.44-.03 135.65.04 5.87.01 10.3 3.73 11.17 8.71.75 4.22-2.03 8.95-6.29 10.76zm13.42-42.51c-.31 4.64-4.29 8.49-9.57 9.17-1.64.21-3.3.22-4.96.22-47.88.01-95.76.01-143.63.01-1.16 0-2.32.04-3.48-.05-6.48-.51-10.88-4.56-10.88-10 0-5.53 4.85-10.08 11.3-10.16 11.26-.14 22.53-.04 33.8-.04h41.25c24.19 0 48.37-.01 72.56.02 1.8 0 3.67.04 5.39.5 5.38 1.41 8.54 5.52 8.22 10.33z"/><path class="st0" d="M221.31 89.88c-27.02-.04-54.05-.07-81.07.06-3.28.02-5.43-1.01-7.61-3.43-24.2-26.8-48.58-53.45-72.73-80.29-2.45-2.71-3.69-2.47-6.02-.22-5.01 4.83-10.11 9.58-15.47 14-2.81 2.31-2.48 3.69-.21 6.15 13.82 14.97 27.48 30.09 41.18 45.17 5.38 5.93 10.72 11.89 16.71 18.55h-5.9c-23.71 0-47.42.02-71.12-.03-3.02-.01-5.98.25-8.82 1.16C4.27 92.9.13 98.14 0 103.68c-.13 5.73 3.59 10.64 9.69 13.04 3.03 1.19 6.16 1.15 9.3 1.15 67.14.01 134.29.01 201.43-.01 1.99 0 4.01.07 5.95-.27 5.88-1.03 10.53-3.77 12.52-9.82.02-2.41.04-4.81.07-7.22-2.69-7.29-8.14-10.65-17.65-10.67zm-104.93 20.79c-5.64.11-9.84-4.12-9.91-10-.08-5.93 3.92-10.17 9.63-10.2 5.74-.04 10.01 4.19 10.04 9.93.03 5.75-4.16 10.16-9.76 10.27z"/></svg>
