<svg xmlns="http://www.w3.org/2000/svg" viewBox="0 0 151.61 147.89" overflow="visible"><path d="M132.1 0c3.45 3.1 5.17 14.34 2.79 18.29-1.38 2.28-3.54 2.89-5.98 2.52-2.84-.44-4.61-2.48-4.5-5.09.16-3.66-1.26-4.22-4.55-4.21-29.23.13-58.46.13-87.69 0-3.29-.01-4.75.53-4.52 4.22.17 2.68-1.67 4.62-4.48 5.08-2.45.4-4.59-.23-5.97-2.53-2.42-4.04-.77-15.12 2.73-18.28H132.1z" fill="#573a1a"/><path d="M16.29 114.73c0-8.43-.04-16.86.01-25.3.03-4.92 2.2-7.69 5.94-7.39 4.38.35 5.59 3.24 5.56 7.26-.09 14.38.05 28.77-.1 43.15-.03 2.97.62 3.99 3.78 3.91 9.26-.22 18.53-.23 27.78 0 3.27.08 3.77-1.15 3.73-4.01-.14-11.9-.08-23.81-.05-35.71.01-6.39 1.85-8.2 8.28-8.21 10.42-.02 20.84-.02 31.26 0 6.83.01 8.64 1.86 8.65 8.9.02 11.57.15 23.15-.08 34.72-.07 3.52.97 4.39 4.39 4.32 8.8-.18 8.8 0 8.8-8.75 0-12.73-.02-25.46.01-38.19.01-4.97 2.12-7.64 5.92-7.37 4.46.32 5.59 3.29 5.57 7.25-.05 17.03.01 34.06-.04 51.09-.02 5.58-1.84 7.38-7.46 7.43-7.11.07-14.22.08-21.33 0-5.4-.07-7.44-2.14-7.46-7.56-.05-12.07-.15-24.14.07-36.21.06-3.36-1.01-4.15-4.16-4.01-5.45.24-10.93.29-16.37-.01-3.58-.2-4.79.63-4.69 4.51.3 11.73.12 23.48.1 35.21-.01 6.27-1.68 8.06-7.81 8.08-14.22.05-28.45.05-42.67 0-5.82-.02-7.6-1.87-7.64-7.81-.03-8.44.01-16.87.01-25.3z" fill="#56391a"/><path d="M150.91 57.43c-2.05-8-4.06-16.01-6.17-24-1.92-7.27-2.71-7.85-10.23-7.86-31.42-.01-62.84-.01-94.26-.01-8.27 0-16.54.02-24.8 0-3.63-.01-6.43 1-7.48 4.98C5.5 39.94 2.59 49.23.45 58.7-2.26 70.72 7.6 80.76 19.83 78.9c3.82-.58 7.36-1.89 10.4-4.3 1.43-1.14 2.34-1.48 4.14-.09 8.06 6.19 16.08 6.25 24.55.19 2.02-1.45 3.03-1.33 4.95.11 7.16 5.37 15.85 5.93 22.59 1.01 3.03-2.22 4.8-2.39 7.9-.17 6.74 4.82 15.48 4.8 21.7-.08 2.79-2.19 4.33-1.84 7.07-.07 11 7.11 23.58 3.43 27.56-7.49 0-.02.01-.03.01-.04.15-.41.29-.83.41-1.26v-.19c1.21-4.96-.15-8.97-.2-9.09zM30.81 43.81c-.64 4.22-1.3 8.44-2.05 12.65-1.12 6.31-6.04 11.04-11.46 11.08-3.84.03-6.34-1.85-5.5-5.72 1.7-7.85 3.71-15.65 6.11-23.31 1.07-3.43 4.28-1.5 6.52-1.57 7.39 0 7.42.01 6.38 6.87zm25.96 3.23c-.17 4.11.03 8.23-.77 12.32-.77 3.97-3.14 6.5-6.82 7.75-5.38 1.84-9.67-1.52-9.4-6.83 1.11-7.2 2.15-14.04 3.24-20.88.26-1.65 1.13-2.34 2.99-2.52 11.17-1.05 11.23-1.05 10.76 10.16zm19.66 20.43c-5.11.3-8.8-3.45-8.67-9.15.1-4.78.61-9.55.78-14.33.26-7.04.21-7.04 7.34-7.04 7.96.08 6.94-1.14 7.53 7.05.34 4.61.49 9.23.76 13.84.3 5.3-2.94 9.35-7.74 9.63zm32.35-.8c-3.49 1.91-6.73.85-9.57-1.51-2.7-2.24-3.68-5.35-3.84-8.77-.23-4.76-.17-9.57-.85-14.27-.65-4.54.98-5.93 5.2-5.19 0 0 1.36.33 2.78.02 4.88-1.41 6.71 1.2 6.99 6.62.25 4.89 1.36 9.76 2.33 14.59.72 3.56.41 6.62-3.04 8.51zm29.85-.38c-2.3 1.86-4.95 1.58-7.51.5-4.67-1.96-7.24-5.53-7.99-10.5-.72-4.73-1.04-9.58-2.34-14.15-1.4-4.9.48-5.81 4.66-5.21 1.01.27 2.3.01 2.3.01 5.14-1.72 6.89 1.52 7.86 6.7.99 5.32 2.91 10.47 4.24 15.74.58 2.39 1.09 5.05-1.22 6.91z" fill="#563919"/></svg>
