<svg xmlns="http://www.w3.org/2000/svg" viewBox="0 0 25.21 31.71" overflow="visible"><path d="M7.41 0h13.85c1.05 0 2.05.42 2.79 1.16.74.74 1.16 1.74 1.16 2.79v23.81c0 1.05-.42 2.05-1.16 2.79-.74.74-1.74 1.16-2.79 1.16H3.94c-1.04 0-2.04-.42-2.78-1.16v-.01A3.897 3.897 0 0 1 0 27.77V6.48l.47-.44L6.39.42 6.83 0h.58zM5.92 21.9v1.51h3.74V21.9H5.92zm5.71-3.58v7.28h7.87v-7.28h-7.87zm-5.71-.06v1.51h3.74v-1.51H5.92zm0-4.18v1.51h13.64v-1.51H5.92zm0-3.97v1.51h13.64v-1.51H5.92zm6.12-3.94v1.51h7.52V6.17h-7.52zm-8.13.68l.68.08 1.31.16h.02l.06.01c.17.03.34.02.5-.03.29-.07.56-.21.78-.41.21-.17.37-.4.44-.67.04-.18.04-.37-.01-.54l-.01-.06v-.07L7.58 4l-.05-.59-3.62 3.44zm5.08-3.88l.06.93.09 1.27c.09.39.09.79-.01 1.17a2.76 2.76 0 0 1-.89 1.45c-.4.35-.89.61-1.41.74-.37.1-.75.11-1.12.04l-1.3-.16-1.44-.18v19.53c0 .26.1.5.28.68.18.18.43.28.68.28h17.32c.26 0 .5-.1.68-.28a.97.97 0 0 0 .28-.68V3.95c0-.26-.1-.5-.28-.68a.98.98 0 0 0-.68-.29L8.99 2.97z" fill-rule="evenodd" clip-rule="evenodd" fill="#563919"/></svg>
