<svg xmlns="http://www.w3.org/2000/svg" viewBox="0 0 149.23 135.53" overflow="visible"><style>.st0{fill:#583b1b}</style><path class="st0" d="M38.57 70.76c-4.32-.91-6.24-2.6-5.96-6.83.4-5.92.07-11.89.11-17.83.04-7.41 3.63-11.67 11.01-11.76 20.31-.24 40.64-.25 60.95.01 7.24.09 10.89 4.5 10.98 11.9.07 5.95-.25 11.91.11 17.84.25 4.15-1.06 6.58-5.96 7.48 0-7.93.01-15.73 0-23.52-.01-7.37-.91-8.28-8.2-8.28H46.6c-7.4 0-8.02.61-8.03 7.81-.01 7.58 0 15.18 0 23.18z"/><path d="M74.36 77.44H51.09c-2.45 0-5.16-.35-5.2-3.25-.04-2.99 2.78-3.26 5.15-3.27 15.68-.03 31.35-.05 47.03.02 2.31.01 5.09.21 4.91 3.44-.16 2.73-2.62 3.04-4.86 3.05-7.92.03-15.84.01-23.76.01z" fill="#5b3f1e"/><path d="M74.53 58.69c7.9 0 15.8.01 23.7-.01 2.2 0 4.68-.13 4.76 2.86.08 2.96-2.34 3.1-4.58 3.1-15.8 0-31.6-.01-47.4.01-2.42 0-5.13-.1-5.06-3.19.06-2.78 2.65-2.79 4.89-2.78 7.89.04 15.79.01 23.69.01z" fill="#56391a"/><path class="st0" d="M74.38 51.99c-7.91 0-15.82-.01-23.73.01-2.24 0-4.77-.13-4.76-2.95.01-2.64 2.33-3.16 4.69-3.15 15.99.03 31.97.01 47.96.02 2.3 0 4.57.42 4.47 3.32-.09 2.69-2.39 2.75-4.4 2.75-8.08.01-16.15 0-24.23 0z"/><path d="M149.21 52.75c.01-5.93-2.28-10.17-7.58-13.33-13.19-7.86-25.86-16.58-39.07-24.42C93.69 9.75 85.72 2.73 75.35.2c-1.64-.44-2.97 0-2.97 0-3.94 1.21-7.54 3.08-11.03 5.27-18.52 11.6-37.16 23.01-55.6 34.74-.4.26-.78.53-1.15.8V41S.34 43.94.03 47.69c-.01.04-.02.06-.03.1v80.31c1 5.02 4.37 7.01 9.18 7.3 1.49.09 2.97.12 4.45.12 40.13.01 80.26.01 120.4 0 1.65 0 3.28.01 4.94-.21 7.59-1.01 10.13-3.43 10.19-11.21.14-23.78.02-47.57.05-71.35zm-12.13 73.68c-1.82-.58-3.02-1.99-4.36-3.18-12.57-11.2-25.19-22.35-37.61-33.71-2.4-2.2-4.29-2.59-6.68-.51-9.55 8.31-19.1 8.37-28.64-.02-2.45-2.15-4.36-1.57-6.72.57-12.82 11.66-25.81 23.14-38.72 34.7-1.77 1.58-3.53 3.13-6.11 2.2-3.34-1.2-3.29-5.14.26-8.33 10.56-9.49 21.17-18.92 31.81-28.31 8.3-7.33 8.34-7.29-1.07-12.73-9.12-5.27-18.26-10.52-27.37-15.81-6.91-4.01-7.04-7.78-.39-11.87 19.78-12.16 39.61-24.25 59.34-36.51 2.39-1.48 4.03-1.65 6.52-.1 20 12.44 40.12 24.68 60.18 37.03 5.43 3.34 5.39 7.59-.13 10.83-11.08 6.49-22.13 13.06-33.4 19.2-4.21 2.3-3.57 3.41-.4 6.15 12.11 10.47 23.96 21.25 35.93 31.88 1.51 1.35 2.89 2.71 3.14 4.83-.03 2.9-2.66 4.62-5.58 3.69z" fill="#563919"/></svg>
