<svg xmlns="http://www.w3.org/2000/svg" viewBox="0 0 163.17 163.76" overflow="visible"><style>.st0{fill:#563919}</style><path class="st0" d="M162.86 70.23c-.93-7.34-5.05-11.12-12.46-11.56-4.46-.26-8.93-.11-13.39-.09-8.27.05-8.54.32-9.14 8.33-.4 5.31-3.47 9.13-8.39 10.43-5.13 1.36-9.82-.57-12.74-5.27-1.14-1.84-2.09-3.79-2.69-5.85-1.7-5.9-5.63-8.01-11.57-7.71-5.44.28-10.96.54-16.36-.05-9.47-1.03-15.63 1.8-18.88 11.48-2.24 6.67-7.66 8.96-13.23 7.63-5.8-1.39-8.59-5.41-8.79-12.65-.13-5.11-.92-6.02-6.05-6.27-4.96-.24-9.92-.17-14.88-.04-7.34.21-10.38 2.07-12.89 8.18v-.01s-.27.54-.57 1.48c-.02.05-.03.09-.05.14v.02c-.64 2.1-1.38 6.05 0 10.83v.08c.15.44.3.88.46 1.32.93 2.7 1.98 5.37 4.93 6.58 4.08 1.68 4.95 4.79 4.69 8.78-.21 3.13-.05 6.28-.04 9.42.03 13.23-.23 26.47.1 39.69.27 10.83 7.8 18.56 17.91 18.58 35.23.07 70.46 0 105.68.05 5.99.01 10.44-2.61 13.9-7.27 3.2-4.31 4.22-9.22 4.21-14.49-.03-15.71-.04-31.43.01-47.14.01-2.48-.16-5.01 2.64-6.42 7.71-3.88 8.53-10.73 7.59-18.2zM51.73 145.21c-.01 4.25-1.96 7.01-6.35 7.3-3.66.24-6.12-2.79-6.18-7.36-.08-6.77-.02-13.55-.02-20.32 0-6.61-.04-13.22.01-19.83.04-4.99 2.37-7.96 6.27-7.75 4.48.25 6.28 3.13 6.28 7.32.02 13.55 0 27.09-.01 40.64zm36.2-1.13c-.01 5.29-2.37 8.41-6.26 8.5-4.04.09-6.48-3.14-6.51-8.73-.04-6.45-.01-12.9-.01-19.35 0-6.45-.06-12.9.02-19.35.06-5.06 2.35-7.88 6.23-7.93 4-.06 6.51 3 6.52 8.17.04 12.89.04 25.79.01 38.69zm29.98 8.43c-3.73.43-6.61-2.85-6.64-7.56-.09-13.39-.09-26.79 0-40.18.03-4.69 2.93-7.91 6.7-7.51 4.38.46 6.12 3.28 6.08 7.54-.08 6.78-.02 13.56-.02 20.34 0 6.61-.07 13.23.02 19.84.05 4.32-1.84 7.03-6.14 7.53zm17.28-61.28c-35.69.02-71.38.02-107.07.02h-.99c-1.68-.03-3.61.09-3.51-2.33.1-2.27 2.06-1.71 3.42-1.72 9.58-.04 19.17-.02 28.75-.02h25.78c17.84 0 35.69-.02 53.53.03 1.66 0 4.31-.87 4.5 1.65.23 2.94-2.55 2.36-4.41 2.37z"/><path class="st0" d="M73.27.87c-3.01-1.97-5.96 0-5.96 0-2.92 1.81-4.65 4.48-5.9 7.65-3.39 8.58-6.92 17.1-10.41 25.65-3.86 9.46-7.78 18.89-11.56 28.38-1.99 5.01-.36 9.45 3.87 11.27 4 1.72 8.58-.45 10.82-5.15.35-.74.64-1.52.96-2.28 6.98-17.08 13.98-34.16 20.95-51.24 3.03-7.41 2.71-8.91-2.77-14.28zM123.77 62.69c-7.61-18.6-15.22-37.21-22.81-55.82-1.02-2.5-2.9-4.27-4.86-6-3.03-1.78-5.96 0-5.96 0-4.07 2.99-6.27 6.47-4.07 11.77 7.69 18.57 15.24 37.2 22.84 55.8.83 2.03 1.91 3.92 3.96 4.88 3.02 1.42 6.08 1.72 8.78-.75 3.04-2.76 3.68-6.08 2.12-9.88z"/></svg>
