<svg xmlns="http://www.w3.org/2000/svg" viewBox="0 0 36.88 36.88" overflow="visible"><path d="M18.483.003c4.87-.07 9.56 1.86 12.95 5.36 3.57 3.39 5.55 8.12 5.44 13.04.02 10.18-8.22 18.46-18.4 18.48s-18.46-8.22-18.48-18.4c-.02-10.18 8.22-18.46 18.4-18.48h.09zm0 5.53c-3.03-.02-5.51 2.41-5.53 5.44-.02 3.03 2.41 5.51 5.44 5.53 3.03.02 5.51-2.41 5.53-5.44.11-2.94-2.18-5.42-5.12-5.53h-.32zm0 26.17c4.45-.04 8.59-2.28 11.06-5.97-.26-1.8-1.62-3.25-4.13-4.21-2.2-.91-4.55-1.41-6.94-1.49-2.37.08-4.7.58-6.89 1.49-2.55.97-3.91 2.41-4.17 4.21a13.49 13.49 0 0 0 11.07 5.97z" fill="#d8567b"/></svg>
