<svg xmlns="http://www.w3.org/2000/svg" id="Layer_1" data-name="Layer 1" viewBox="0 0 41.6 34.28"><defs><style>.cls-1{fill:#282625}</style></defs><path class="cls-1" d="M209.38-17.76h21.07a.09.09 0 0 0 .09-.06l8.14-20.67a5.29 5.29 0 0 1 5-3.37h1.07a2 2 0 0 1 2 2 2 2 0 0 1-2 2h-1.07a1.32 1.32 0 0 0-1.24.84l-8.14 20.67a4.07 4.07 0 0 1-3.81 2.59H230a3.66 3.66 0 0 1 1 2.51 3.67 3.67 0 0 1-3.67 3.67 3.67 3.67 0 0 1-3.67-3.67 3.65 3.65 0 0 1 1-2.51h-9a3.7 3.7 0 0 1 1 2.51 3.67 3.67 0 0 1-3.67 3.67 3.67 3.67 0 0 1-3.67-3.67 3.7 3.7 0 0 1 1-2.51h-.88a2 2 0 0 1-2-2 2 2 0 0 1 1.94-2z" transform="translate(-205.12 41.86)"/><path class="cls-1" d="M205.21-30.62l2.85 10.25a2.38 2.38 0 0 0 2.29 1.74h19.78l6.07-15h-28.7a2.37 2.37 0 0 0-1.9.94 2.33 2.33 0 0 0-.39 2.07zm8.17 1a1 1 0 0 1 .9 1.12v4.73a1 1 0 0 1-.9 1.13 1 1 0 0 1-.9-1.13v-4.73a1 1 0 0 1 .9-1.12zm5.55 0a1 1 0 0 1 .9 1.12v4.73a1 1 0 0 1-.9 1.13 1 1 0 0 1-.9-1.13v-4.73a1 1 0 0 1 .9-1.12zm5.55 0a1 1 0 0 1 .9 1.12v4.73a1 1 0 0 1-.9 1.13 1 1 0 0 1-.9-1.13v-4.73a1 1 0 0 1 .9-1.12z" transform="translate(-205.12 41.86)"/></svg>
