<svg xmlns="http://www.w3.org/2000/svg" viewBox="0 0 27.04 30.93" overflow="visible"><path d="M5.718 30.932h.12c-2.09.05-3.82-1.6-3.87-3.69v-16.65c-1.07 0-1.94-.86-1.97-1.93v-2.09c.02-.73.34-1.42.89-1.9.54-.51 1.26-.8 2-.8h2.89v-.98a2.822 2.822 0 0 1 2.74-2.89h9.86a2.82 2.82 0 0 1 2.89 2.73v1.14h2.92a2.9 2.9 0 0 1 1.97.8c.55.48.87 1.17.89 1.9v2.09a1.966 1.966 0 0 1-1.97 1.93v16.47c.05 2.09-1.6 3.82-3.69 3.87H5.718zm3.04-29.03a.941.941 0 0 0-.98.91v1.03h11.61v-.98a.95.95 0 0 0-.95-.95h-9.68zm16.43 6.76v-1.94c0-.52-.43-.95-.95-.95H2.948a.948.948 0 0 0-.98.91v1.98h23.22zm-3.87 20.34h-.06c1.07-.03 1.94-.89 1.97-1.97v-16.47H3.878v16.47c.03 1.07.89 1.94 1.97 1.97h15.47zm-1.01-1.94h-1.94a.924.924 0 0 1-.98-.88v-12.66c-.03-.52.37-.96.88-.98h2.04c.52 0 .95.42.95.94V26.102c.02.52-.39.96-.91.98-.01-.02-.03-.02-.04-.02zm-5.81 0h-1.94a.924.924 0 0 1-.98-.88v-12.66c-.03-.52.37-.96.88-.98h2.04c.52 0 .95.41.95.94V26.102c.02.52-.39.96-.91.98-.01-.02-.02-.02-.04-.02zm-5.8 0h-1.94a.924.924 0 0 1-.98-.88v-12.66c-.03-.52.37-.96.88-.98h2.04c.52 0 .95.42.95.94v12.61c.02.52-.39.96-.91.98-.01-.01-.03-.01-.04-.01zm11.61-13.55h-1.94v12.57h1.94v-12.57zm-5.81 0h-1.94v12.57h1.94v-12.57zm-5.8 0h-1.94v12.57h1.94v-12.57z" fill="#080204"/></svg>
