<svg xmlns="http://www.w3.org/2000/svg" viewBox="0 0 322.75 268.32" overflow="visible"><path d="M153.56 74.39c8.3-2.76 10.89-5.73 14.48-16.64 17.98.23 36.2 11.33 35.54 30.41-.53 15.46-2 30.89-3.4 46.31-1.31 14.42-2.99 28.82-4.67 43.2-2.95 25.3-5.96 50.59-9.1 75.86-.76 6.12-5.57 9.11-10.7 10.72-5.95 1.86-12.24 2.65-19.17 4.07-.16-3.19-.35-5.27-.35-7.36-.03-20.5 0-40.99-.04-61.49-.01-5.69-3.24-9.84-7.55-10-4.7-.17-8.11 3.92-8.12 9.97-.03 20.66-.02 41.32-.02 61.98v5.78c-9.06.07-17.22-1.23-23.9-6.74-2.18-1.8-3.94-5.13-4.29-7.96-3.82-31.22-7.43-62.47-10.88-93.74-2.32-21.01-4.37-42.06-6.4-63.1-1.88-19.46 7.42-32.26 26.53-36.79 2.88-.68 5.81-1.14 9.09-1.78 1.66 7.91 5.39 13.79 12.81 16.95 1.02.44 1.29 2.66 1.9 4.06-2.59 17.19-5.19 34.37-7.72 51.56-.14.93-.07 2.19.46 2.86 3.65 4.63 7.44 9.15 11.36 13.92 3.09-3.81 5.61-7.32 8.56-10.42 2.82-2.96 3.22-6.05 2.64-9.96-2.51-17.21-4.73-34.44-7.06-51.67z"/><path d="M255.94 62.02c-2.08 2.59-3.68 4.91-5.61 6.91-14 14.52-37.04 9.96-43.93-8.97-5-13.74-4.49-27.97-.08-41.69 4.57-14.21 20.53-20.89 35.79-15.45 22.46 8 40.47 22.04 54.57 41.22 20.12 27.38 28.19 58.35 25.61 91.81-1.82 23.67-9.36 45.67-22.94 65.68-14.28 21.04-33.61 35.25-56.4 45.31-16.6 7.33-36.08-5.86-36.92-24.94-.34-7.79-.29-15.64.26-23.42 1.32-18.42 18.32-31.11 36.08-24.5 4.15 1.55 8.06 4.74 11.08 8.08 3.32 3.67 5.17 2.85 7.77-.37 10.95-13.56 17.82-28.94 19.82-46.21 2.69-23.25-2.73-44.62-16.54-63.65-2.48-3.44-5.58-6.43-8.56-9.81zM124.21 29.31c.46-3.96.7-7.97 1.42-11.88C127.91 5.12 140.41-2.11 154.07.55c9.25 1.8 15.22 6.64 17.45 16.11 3.35 14.24 2.5 27.44-8.41 38.46-11.93 12.04-24.02 7.26-32.65-4.6-4.6-6.32-6.43-13.43-6.25-21.21zM76.39 174.27C61 159.33 56 141.01 58.73 120.15c1.53-11.74 6.56-21.83 13.94-30.95 2.37-2.94 4.14-3.02 6.84-.4 7.8 7.54 7.88 7.46 1.84 16.46-10.88 16.25-10.05 36.73 2.84 52.89 3.17 3.98 1.86 5.89-.87 8.59-2.09 2.07-3.92 4.41-5.87 6.63-.36.3-.71.6-1.06.9zM0 133.76c1.67-26.14 6.16-47.42 19.09-66.15 4.25-6.15 8.63-12.2 13.04-18.24 2.25-3.07 4.61-3.99 7.53-.44 2.32 2.82 4.96 5.42 7.75 7.78 2.94 2.47 2.16 4.17.18 7-6.26 8.95-13 17.77-17.79 27.5-9.18 18.66-10.27 38.71-6.8 59.04 3.14 18.4 11.61 34.19 23.95 48 1.85 2.07 1.98 3.46-.04 5.39-3.25 3.09-6.31 6.39-9.47 9.59-1.68 1.7-3.15 1.94-5.01-.06-12.8-13.81-22.08-29.74-26.82-47.88-3.02-11.5-4.23-23.48-5.61-31.53z"/><path d="M56.45 193.44c-8.21-8.55-14.12-17.81-18.36-28.22-9.61-23.61-9.19-47.29 1.02-70.34C43 86.07 49.68 78.5 55.2 70.44c1.7-2.49 3.79-2.39 5.74-.08.11.13.23.24.35.35 7.09 6.67 7.09 6.67 1.25 14.18-21.09 27.15-21.16 64.07-.17 91.71 4.9 6.45 4.85 6.7-1.19 12.01-1.48 1.32-2.78 2.83-4.73 4.83zM144.57 133.28c-1.16-1.38-2.09-2.5-3.39-4.05 4.65-4.2 9.13-8.24 13.71-12.36 2.92 5.97 2.74 6.25-10.32 16.41zM153.87 108.18c2.01 4.23-1.45 8.56-11.58 14.96-.88-5.1 1.51-8.23 11.58-14.96zM152.85 96.82c2.56 8.93-4.69 10.58-8.71 14.91-1.82-7.94 3.92-10.68 8.71-14.91zM144.95 98.6c.68-4.13.93-6.77 1.61-9.3.28-1.06 1.47-1.87 2.25-2.79 1 .9 2.53 1.62 2.9 2.72 1.79 5.43-2.99 6.3-6.76 9.37zM149.66 139.23c-2.67-3.63.58-8.21 7.79-10.63-2.48 3.39-4.96 6.77-7.79 10.63z"/></svg>
