<svg xmlns="http://www.w3.org/2000/svg" viewBox="0 0 195.54 185.09" overflow="visible"><path d="M121.13 78.65c2.28.27 4.29.33 6.21.76 3.89.88 7.16 2.8 8.73 6.69 1.12 2.76 2.28 5.58 2.86 8.48 2.18 11.05 4.12 22.14 6.28 33.93-3.32 1.42-6.35 3.42-9.62 3.96-8.17 1.35-16.43 2.44-24.69 2.89-8.96.48-17.99.53-26.95.01-9.23-.54-18.61-.73-27.46-4.07-5.38-2.03-6.04-3.04-5.03-8.54 1.89-10.29 3.79-20.58 5.92-30.82 1.64-7.85 5.81-11.49 13.21-13 2.93-.6 4.37.45 5.59 2.73 3.53 6.57 7.08 13.13 10.65 19.69 3.48 6.4 6.99 12.79 11.08 20.26 7.99-14.8 15.51-28.7 23.22-42.97zM171 72.52c-4.2.81-5.03.63-4.63-2.17.97-6.9-3.22-9.57-8.46-11.61-5.7-2.22-11.45-4.3-17.62-6.61v20.5c-3.54.67-3.78.59-4.04-2.39-.35-4.13-.37-8.3-.86-12.42-.76-6.35-.86-6.42-7.14-7.38-3.08-.47-3.4-1.98-2.36-4.64h7.13c-2.37-12.7-7.27-22.82-20.95-26.2.19-.32.39-.63.58-.95 2.41.45 4.81.9 7.95 1.49-.86-1.22-1.34-2.14-2.03-2.85-5.04-5.2-10.57-9.72-17.66-11.78-1.66-.48-3.71-.79-5.27-.27-8.2 2.72-15.01 7.55-20.84 14.71 2.46-.22 4.33-.39 6.19-.56-7.34 3.21-12.8 7.83-15.1 15.7-1 3.44-2.41 6.75-3.84 10.68h6.13c1.55 3.6 1.36 4.06-1.83 4.67-5.64 1.08-5.65 1.11-6.05 6.57-.31 4.31-.65 8.61-.99 12.92-.12 1.51-.12 3.3-2.24 3.2-2.19-.1-2.62-2-2.52-3.66.22-3.64.74-7.26 1.12-10.9.18-1.75.31-3.51.56-6.28-5.35 1.64-9.92 2.92-14.4 4.48-2.01.71-3.74 2.2-5.74 2.98-4.69 1.81-7.53 4.64-6.83 10.1.22 1.67-.09 3.62-2.56 3.29-2.26-.3-2.1-1.98-1.96-3.81.82-10.56 3.16-20.74 8.14-30.12 6.19-11.67 14.81-21.19 26.05-28.29 7.12-4.49 14.75-7.78 22.99-9.33 18.05-3.4 35.4-1.73 51.69 7.53 13.11 7.45 23.24 17.69 29.73 31.29 4.03 8.44 7.13 17.21 7.09 26.79 0 1.67.35 3.31.57 5.32zM63.96 27.53c-9.97 3.49-18.11 8.54-25.02 15.31-3.66 3.58-7.67 7.43-7.16 13.03 7.73-2.56 15.44-5.05 23.09-7.71 1.07-.37 2.27-1.43 2.66-2.46 2.17-5.71 4.1-11.51 6.43-18.17zm68.2.6c1.95 5.62 3.83 10.73 5.46 15.92.76 2.43 1.84 3.86 4.53 4.52 4.81 1.17 9.53 2.77 14.18 4.46 2.72.99 5.24 2.51 8.51 4.11-1.17-3.98-1.82-7.4-4.41-9.96-3.51-3.47-6.83-7.23-10.75-10.18-5.24-3.96-10.9-7.42-17.52-8.87zm21.36 5.26C144 19.27 130.8 10.66 113.94 6.18c4.78 5.24 8.98 9.89 13.24 14.46.65.7 1.59 1.27 2.5 1.58 8.35 2.83 16.38 6.3 23.84 11.17zM82.46 6.58c-16.48 3.64-29.74 12.05-39.42 25.79 1.79-.46 3.42-1.19 4.97-2.05 2.75-1.53 5.29-3.74 8.23-4.6 8.05-2.35 14.69-6.32 19.58-13.32 1.64-2.34 4.39-3.9 6.64-5.82z"/><path d="M77.3 46.84c.3-5.88.54-10.82.82-15.76.15-2.57 1.68-4.27 3.74-5.56 9.51-5.94 19.24-6.65 29.27-1.28 3.33 1.78 5.52 4.09 5.37 8.17-.14 3.62-.11 7.25.07 10.86.07 1.34.44 2.93 1.25 3.92 2.34 2.84 2.8 6.35-.15 8.6-3.57 2.73-5.01 6.44-6.74 10.2-.96 2.09-2.12 4.19-3.61 5.91-5.84 6.7-16.73 5.64-21.28-1.98-.93-1.57-1.79-3.2-2.47-4.89-1.31-3.27-3.02-6.11-5.72-8.56-3.72-3.39-3.51-6.97-.55-9.63zM89.42 159.6c-4.22-6.17-4.22-6.17-.84-9.22 1.62 2.03 3.36 3.94 4.78 6.07 2.61 3.93 6.18 3.94 8.89.08 1.49-2.12 3.39-3.96 5.01-5.81 3.2 1.11 3.43 2.58 1.75 4.68-1.1 1.38-2.06 2.86-3.06 4.25 2.99 1.75 5.8 2.92 8.03 4.78 7.44 6.16 4.76 13.2-2.11 16.93-9.49 5.14-19.77 4.97-29.09-.52-7.73-4.56-6.96-11.61-1.85-15.66 2.55-2.03 5.46-3.62 8.49-5.58zm7.95 21.63c4.54-.65 9.23-.81 12.83-4.39 2.57-2.56 3-7.09.45-9.31-6.81-5.92-20.04-5.42-25.26.14-2.94 3.14-2.86 6.66.44 9.47 3.29 2.84 7.33 3.66 11.54 4.09zM174.97 123.92c4.78 1.48 9.91 2.44 14.46 4.63 6.99 3.36 8.65 11.28 1.42 16.88-4.94 3.83-10.71 4.44-16.49 4.6-3.25.09-6.61-.77-9.79-1.68-4.11-1.17-7.44-3.55-9.49-7.54-.55-1.07-1.74-1.83-2.67-2.69-1.39-1.31-1.31-2.93-.06-3.93 2.81-2.26 5.66-4.72 8.91-6.13 4.21-1.82 8.82-2.71 13.71-4.14zm-.15 22.79c4.04-.31 7.69-1.15 10.97-3.43 4.28-2.98 4.88-7.4.89-10.79-2.03-1.73-4.85-2.82-7.5-3.46-4.79-1.17-9.52-.6-14 1.76-3.53 1.86-3.84 5.43-4.27 8.53-.4 2.84 2.63 4.13 4.86 5 2.87 1.14 6.01 1.62 9.05 2.39zM18.57 150.52c-3.46-1.17-8.58-1.98-12.7-4.47-8.25-4.98-7.65-13.55.89-17.98 9.78-5.08 19.59-4.32 29.09.79 2.52 1.36 3.77 4.59 7.04 5.21.35.07.85 2.38.4 3.06-1.59 2.4-3.5 4.62-5.42 6.79-4.78 5.39-11.44 5.55-19.3 6.6zm2.35-22.5c-4.99.32-9.38 1.34-12.85 5.05-3.38 3.62-3.16 6.67.77 9.63 6.26 4.71 16.73 4.91 22.93.22 1.22-.93 2.84-2.76 2.64-3.88-.6-3.31-.97-7.16-4.99-8.52-2.8-.96-5.66-1.68-8.5-2.5zM97.45 83.3c2.77 5.06 5.22 9.17 7.24 13.47.59 1.25.45 3.36-.23 4.59-1.81 3.28-4.1 6.31-6.62 10.05-2.77-3.82-5.14-7.13-7.57-10.4-1.17-1.57-.9-3.04-.02-4.61 2.25-4.02 4.45-8.08 7.2-13.1zM62.69 135.99c-.91 4.65-.9 4.65-4.18 4.05-1.29-.24-2.57-.47-3.86-.69-1.51-.25-2.67-1.08-2.06-2.61.39-.95 1.76-2.17 2.64-2.13 2.4.12 4.77.84 7.46 1.38zM132.58 136.28c3.45-.68 6.46-1.27 9.54-1.87 1.55 2.3 1.38 3.88-1.14 4.83-5.08 1.91-6.91 1.42-8.4-2.96zM70.5 143.57c.46-1.41.81-2.46 1.17-3.58.69 0 1.23-.16 1.62.03 1.94.92 3.97 1.76 5.7 2.99.66.47 1.06 2.03.82 2.88-.42 1.52-1.79 1.85-3.21 1.09-1.88-1.01-3.74-2.09-6.1-3.41zM115.35 143.85l8.21-4.64c.75 1.51 1.24 2.5 1.95 3.94-2.36 1.37-4.51 2.82-6.83 3.93-1.76.83-2.08.44-3.33-3.23z"/><path d="M98.02 176.48c-.16 0-.33.01-.49 0-3.89-.16-6.23-1.76-6.24-4.27-.01-2.48 3.15-4.66 6.66-4.61 3.52.05 6.59 2.36 6.44 4.85-.17 2.52-2.62 4.08-6.37 4.03zM174.61 133.21c4.34-.04 6.78 1.49 6.73 4.21-.05 2.71-2.54 4.21-6.83 4.12-.33-.01-.67 0-1-.03-3.19-.28-5.35-1.99-5.31-4.19.04-2.17 2.29-3.88 5.4-4.12.35-.01.68.01 1.01.01zM20.42 141.57c-.83-.06-1.68-.03-2.48-.21-2.07-.48-3.76-1.38-3.81-3.89-.05-2.5 1.49-3.64 3.62-4 1.62-.27 3.32-.27 4.96-.15 2.36.17 4.4 1.24 4.41 3.83.01 2.5-1.93 3.71-4.23 4.22-.8.17-1.64.14-2.47.2z"/></svg>
