<svg xmlns="http://www.w3.org/2000/svg" viewBox="0 0 371.48 296.24" overflow="visible"><style>.st0{fill:#040000}</style><path class="st0" d="M249.96 205.88c-9.4-6.6-16.85-15.07-21.93-25.38-2.76-5.62-4.79-11.59-7.15-17.41.21-.68.71-1.43.59-2.05-5.83-30.34 8.73-60.89 36.27-76 5.87-3.22 5.91-3.81 2.43-9.59-8.32-13.82-21.86-17.69-36.67-19.79-1.32 10.3-6.97 16.82-16.41 20.18 0 .99-.1 1.83.01 2.63 2.75 19.06 5.45 38.13 8.38 57.16.52 3.36.36 6.04-2.05 8.69-1.82 2-2.98 4.59-4.43 6.91-2.27 2.14-4.55 4.28-6.96 6.54-1.35-1.55-2.87-3.05-4.12-4.76-4.5-6.16-11.82-11.19-8.56-20.6.11-.32-.41-.86-.63-1.29.36-.65.93-1.26 1.03-1.95 1.71-11.34 3.47-22.68 4.96-34.05.69-5.28.82-10.63 1.2-15.94.4-1.16.81-2.32 1.2-3.45-9.8-4.01-12.09-6.82-16.41-19.96-1.74.23-3.54.37-5.29.72-10.72 2.18-21.16 5.33-27.97 14.57-2.73 3.72-3.72 8.72-5.5 13.14 8.31 8.06 16.62 16.13 24.93 24.19-8.31-8.06-16.62-16.13-24.93-24.19-.62 1.78-1.8 3.58-1.75 5.35.24 8.76.6 17.53 1.32 26.26.42 5.15 1.58 10.25 2.41 15.37-.22.77-.69 1.56-.61 2.3 2.41 22.66 4.75 45.34 7.35 67.98 2.97 25.77 6.04 51.53 9.45 77.25.46 3.43 2.41 7.45 4.99 9.66 7.1 6.07 16.17 6.83 25.59 7.86v-16c0-26.83.04-53.67-.03-80.5-.01-3.95.72-7.42 4.59-9.17 9.03-4.08 16.12.39 16.13 10.1.03 29.83.01 59.66.01 89.5v5.26c7.81 1.69 25.19-2.5 30.35-9.24.87-1.14 1.74-2.49 1.98-3.86.85-4.75 1.5-9.53 2.08-14.32 2.26-18.48 4.42-36.98 6.74-55.46.39-2.85.04-4.81-2.59-6.66zM166.7 109.5c-6.12 5.92-6.12 5.92 0 0l21.14 20.75-21.14-20.75zM62.68 174.92c-2.55-23.15-5.25-46.28-7.56-69.45-1.28-12.87-3.54-26.13 8.04-36.75-3.59-.92-6.41-1.65-9.51-2.45-1.14 5.65-3.54 9.92-8.81 12.18-.77.33-1.37 2.21-1.24 3.28 1.19 9.9 1.52 20.06 4.17 29.57 2.67 9.6-2.65 14.36-7.73 19.87-6.99-5.73-9.97-12.25-7.92-21.19 2.04-8.89 2.97-18.04 4.19-27.1.19-1.39-.26-3.88-1.11-4.24-5.41-2.33-7.83-6.76-9.11-12.16-2.45.54-4.55.97-6.64 1.46C5.63 71.17-1.55 81.63.28 95.5c1.11 8.41 1.9 16.86 2.82 25.29 3.03 27.61 6 55.23 9.14 82.83.37 3.21.78 7.1 2.72 9.3 4.19 4.75 10.13 6.39 16.89 6.1v-5.3c0-17.83-.04-35.66.01-53.5.02-5.32 1.99-7.11 7.33-7.14 6.01-.04 7.76 1.46 7.79 7.06.06 13.67.02 27.33.02 41v18.06c7.92.53 13.48-2.89 17.75-8.61.95-1.27 1.41-3.31 1.26-4.92-.97-10.26-2.21-20.5-3.33-30.75z"/><path class="st0" d="M147.8 237.37c-3.43-30.72-6.84-61.43-10.32-92.15-.23-2.03-1.04-4-1.57-6 .14-1.92.54-3.86.39-5.75-1.11-13.55-2.64-27.07-3.38-40.64-.29-5.33 1.11-10.74 1.74-16.12 3.27-3.99 6.55-7.99 10.05-12.27-3.43-.8-6.46-1.77-9.55-2.09-1.21-.12-3.17.9-3.75 1.96-1.15 2.11-1.57 4.62-2.3 6.96-3.54 2.62-7.09 5.23-10.93 8.07.05.55.08 1.54.21 2.52 2.25 15.94 4.53 31.87 6.73 47.81.17 1.24.33 2.9-.31 3.76-3.31 4.46-6.88 8.72-10.74 13.53-3.77-4.86-7.15-9.11-10.38-13.48-.61-.82-.89-2.16-.77-3.19.72-6.1 1.57-12.19 2.45-18.27 1.4-9.7 2.95-19.38 4.17-29.1.21-1.69-.33-4.64-1.4-5.14-6.73-3.16-10.57-8.26-11.58-15.42-14.41.13-30.77 8.08-33 23.62-1.16 8.08-.19 16.58.61 24.82 2.78 28.79 5.88 57.54 8.95 86.3.11 1.05 1.2 2 1.84 3-.24 1.94-.84 3.91-.65 5.81 1.17 11.57 2.67 23.11 3.77 34.68.75 7.88 2.57 14.88 11.25 17.39 4.58 1.33 9.29 2.2 14.75 3.46v-6.52c0-20.48.01-40.95.02-61.43 0-3.83-.41-7.73.22-11.46.39-2.32 1.86-5.43 3.74-6.37 8.55-4.22 15.69.58 15.7 10.13.01 23.14-.02 46.28-.03 69.42v6.21c5.37-1.14 9.84-1.77 14.1-3.05 9.49-2.85 12.38-7.91 10.53-17.57-.18-1.14-.43-2.28-.56-3.43zM192.02 57.55c5.49 3.79 11.34 4.26 17.25.6 11.22-6.94 16.01-17.2 16.38-30.28-1.03-5.17-1.63-10.47-3.19-15.48C219.72 3.6 211.61-.42 198.89.03c-11.92.42-19.77 7.9-20.79 19.81-.18 2.15-.37 4.3-.54 6.46-1.05 13.13 3.56 23.72 14.46 31.25zM48.95 60.36c7.49-6.95 9.09-23.37 2.63-31.29-1.85-2.26-4.86-4.36-7.66-4.92-11.98-2.43-20.84 2.28-20.95 18.28-.43.17-.87.33-1.3.5 1.91 5 3.04 10.5 5.89 14.88 5.68 8.76 14 9.4 21.39 2.55z"/><path class="st0" d="M107.94 62.78c2.32 1.15 5.45 1 8.17.82.87-.06 1.61-2.12 2.42-3.26 2.51 2.74 4.09.27 5.65-1.16 8.21-7.5 10.14-16.86 8.87-27.61-1.4-11.87-6.14-17.63-17.81-18.86-15.99-1.69-23.88 11.05-21.27 23.55-.33.84-.98 1.69-.94 2.51.47 10.79 5.13 19.15 14.91 24.01zM196.54 135.06c-.71.67-1.14 2.8-.68 3.29.86.9 3.07 1.88 3.67 1.43 3.54-2.67 7.13-5.45 9.95-8.82 1.15-1.37.4-4.32.59-7.95-5.23 4.59-9.48 8.21-13.53 12.05zM196.41 116.87c10.16-6.91 12.64-10.71 8.75-15.1-4.14 4.2-10.31 7.04-8.75 15.1zM110.3 133.88c2.9-5.59 11.96-6.36 9.68-15.79-4.92 4.4-9.03 8.08-13.31 11.9l3.63 3.89zM109.6 113.05c2.66-4.35 9.85-5.05 7.5-12.79-4.92 3.03-8.88 5.95-7.5 12.79zM35.27 120.41c1.5-.56 3.43-.72 4.42-1.77 1.96-2.07 6.22-3.35 4.02-8.24-3.31 3.02-6.1 5.56-8.89 8.1.14.64.3 1.27.45 1.91zM35.33 103.65c.5.36.99.72 1.49 1.09 2.28-2.63 7.33-3.4 5.36-9.93-2.61 3.36-4.73 6.1-6.85 8.84zM333.52 201.41l-6.94-2.11-1.71-3.19c11.49-6.99 20.17-17.96 24.25-32.11 9.47-31.91-6.69-63.14-38.34-72.75-31.85-9.67-63.26 7.1-72.94 38.95-9.61 31.65 7.35 62.44 39.14 72.32 14.03 4.48 27.97 3.37 40.17-2.29l1.71 3.19-2.11 6.94 37.95 71.91 16.77-8.96-37.95-71.9zm-51.32-16.04c-22.25-6.76-33.28-27.73-26.58-49.78 6.76-22.25 27.65-33.75 49.9-26.99 22.05 6.7 33.22 27.93 26.46 50.19-6.7 22.05-27.73 33.28-49.78 26.58z"/></svg>
