<svg xmlns="http://www.w3.org/2000/svg" viewBox="0 0 52 38" overflow="visible"><path d="M51 28h-.37L42.06 9.91C44.92 9.49 46 7.44 46 6c0-.55-.45-1-1-1s-1 .45-1 1c0 .08-.03 2-3 2-1.09 0-2.85-.87-4.71-1.8-1.9-.95-4.04-1.98-6.33-2.62C29.75 1.58 28.06 0 26 0s-3.75 1.58-3.96 3.58c-2.29.63-4.43 1.67-6.33 2.62C13.85 7.13 12.09 8 11 8 8.03 8 8 6.08 8 6c0-.55-.45-1-1-1s-1 .45-1 1c0 1.44 1.08 3.49 3.94 3.91L1.37 28H1c-.55 0-1 .45-1 1 0 4.96 4.93 9 11 9s11-4.04 11-9c0-.55-.45-1-1-1h-.37L12.05 9.87c1.33-.28 2.85-1.03 4.55-1.88 1.75-.87 3.7-1.82 5.73-2.41A4.004 4.004 0 0 0 26 8c1.64 0 3.06-1 3.67-2.42 2.02.59 3.98 1.54 5.73 2.41 1.7.85 3.22 1.6 4.56 1.88L31.37 28H31c-.55 0-1 .45-1 1 0 4.96 4.93 9 11 9s11-4.04 11-9c0-.55-.45-1-1-1zm-40 8.1c-4.53 0-8.37-2.76-9-6.15h18c-.63 3.39-4.47 6.15-9 6.15zM3.58 28L11 12.34 18.42 28H3.58zM26 6.1a2.1 2.1 0 1 1 0-4.2 2.1 2.1 0 0 1 0 4.2zm15 6.24L48.42 28H33.58L41 12.34zm0 23.76c-4.53 0-8.37-2.76-9-6.15h18c-.63 3.39-4.47 6.15-9 6.15z" fill="#fff"/></svg>
