<svg xmlns="http://www.w3.org/2000/svg" viewBox="0 0 22.13 22.11" overflow="visible"><path d="M11.05 19.61h-.09c2.63 0 5.01-1.2 6.57-3.08-.86-1.56-2.51-2.63-4.42-2.63-.09 0-.18 0-.27.05-.59.18-1.2.32-1.83.32-.61 0-1.25-.14-1.81-.32-.09-.05-.18-.05-.27-.05a4.98 4.98 0 0 0-4.42 2.63 8.494 8.494 0 0 0 6.54 3.08zm0-15.33c-2.17 0-3.92 1.74-3.92 3.92s1.74 3.92 3.92 3.92c2.2 0 3.94-1.74 3.94-3.92s-1.74-3.92-3.94-3.92zm0-4.28c6.12 0 11.08 4.94 11.08 11.05 0 6.12-4.96 11.05-11.08 11.05C4.96 22.11 0 17.17 0 11.05 0 4.94 4.96 0 11.05 0z" fill="#fff"/></svg>
