<svg xmlns="http://www.w3.org/2000/svg" viewBox="0 0 47 48" overflow="visible"><style>.st0{fill:#505050}</style><path class="st0" d="M38.81 32H16v-2h22.81a2 2 0 0 0 1.87-1.3l4.27-10.38c.11-.28.06-.62-.13-.89S44.33 17 44 17H14v-2h30c.98 0 1.91.48 2.47 1.29s.69 1.84.34 2.76l-4.27 10.38c-.57 1.53-2.08 2.57-3.73 2.57z"/><path class="st0" d="M40 39H20.62c-2.1 0-3.03-1.48-3.55-2.59-.75-1.62-6.56-19.56-7.8-23.41H0v-2h10.73l.22.69c1.99 6.17 7.3 22.49 7.94 23.88.55 1.19 1.05 1.43 1.73 1.43H40v2zM18.99 48c-2.21 0-4.01-1.8-4.01-4.01s1.8-4.01 4.01-4.01S23 41.78 23 43.99 21.2 48 18.99 48zm0-6.01a2.01 2.01 0 0 0 0 4.02c1.11 0 2.01-.91 2.01-2.02 0-1.1-.9-2-2.01-2zM37.01 48C34.8 48 33 46.2 33 43.99s1.8-4.01 4.01-4.01 4.01 1.8 4.01 4.01c-.01 2.21-1.8 4.01-4.01 4.01zm0-6.01c-1.11 0-2.01.9-2.01 2.01a2.01 2.01 0 0 0 4.02-.01c-.01-1.1-.91-2-2.01-2zM23 10h-2V0h18v5h-2V2H23z"/><path class="st0" d="M35 14h-2v-3H19v3h-2V9h18z"/><path class="st0" d="M43 14h-2V6H29v4h-2V4h16z"/></svg>
