<svg xmlns="http://www.w3.org/2000/svg" viewBox="0 0 47.11 41" overflow="visible"><path d="M39.52 25H15v-2h24.52c.44 0 .83-.28.96-.71l4.58-15c.09-.31.04-.63-.15-.89-.19-.25-.49-.4-.81-.4H13V4h31.1c.96 0 1.84.44 2.41 1.21s.74 1.74.46 2.66l-4.58 15A2.979 2.979 0 0 1 39.52 25z"/><path d="M41 32H19.49a2.97 2.97 0 0 1-2.87-2.14L8.26 2H0V0h9.74l8.79 29.29c.13.43.51.71.96.71H41v2zM17.99 41c-2.21 0-4.01-1.8-4.01-4.01s1.8-4.01 4.01-4.01S22 34.78 22 36.99 20.2 41 17.99 41zm0-6.01a2.01 2.01 0 0 0 0 4.02c1.11 0 2.01-.91 2.01-2.02 0-1.1-.9-2-2.01-2zM38.01 41C35.8 41 34 39.2 34 36.99s1.8-4.01 4.01-4.01 4.01 1.8 4.01 4.01c-.01 2.21-1.8 4.01-4.01 4.01zm0-6.01c-1.11 0-2.01.9-2.01 2.01a2.01 2.01 0 0 0 4.02-.01c-.01-1.1-.91-2-2.01-2z"/><g><path d="M24 13.5h11v2H24z"/></g><g><path d="M28.5 9h2v11h-2z"/></g></svg>
