<svg xmlns="http://www.w3.org/2000/svg" viewBox="0 0 47 36" overflow="visible"><style>.st0{fill:#494949}</style><path class="st0" d="M44.5 31h-2v-1h2c.83 0 1.5-.67 1.5-1.5v-6.79c0-1.09-.55-1.71-1.5-1.71h-1.29l-3.55-6.38c-.26-.38-.72-.62-1.22-.62H30.5v-1h7.94c.83 0 1.6.41 2.07 1.09L43.79 19h.71c1.5 0 2.5 1.09 2.5 2.71v6.79a2.5 2.5 0 0 1-2.5 2.5z"/><path class="st0" d="M31 31H16.5v-1H30V5h-8.5V4H31zM8.5 31H4v-9.5h1V30h3.5zM38.49 36c-2.49 0-4.51-2.01-4.51-4.49 0-2.48 2.02-4.49 4.51-4.49S43 29.04 43 31.51c0 2.48-2.02 4.49-4.51 4.49zm0-7.98c-1.93 0-3.51 1.57-3.51 3.49 0 1.92 1.57 3.49 3.51 3.49S42 33.44 42 31.51c0-1.92-1.57-3.49-3.51-3.49z"/><path class="st0" d="M12.49 36c-2.49 0-4.51-2.01-4.51-4.49 0-2.48 2.02-4.49 4.51-4.49S17 29.04 17 31.51c0 2.48-2.02 4.49-4.51 4.49zm0-7.98c-1.93 0-3.51 1.57-3.51 3.49 0 1.92 1.57 3.49 3.51 3.49S16 33.44 16 31.51c0-1.92-1.57-3.49-3.51-3.49zM30.5 30h4v1h-4zM40 21h-7.5v-1H39v-.35l-1.92-2.87.84-.56L40 19.35zM10.5 21C4.71 21 0 16.29 0 10.5S4.71 0 10.5 0 21 4.71 21 10.5 16.29 21 10.5 21zm0-20C5.26 1 1 5.26 1 10.5S5.26 20 10.5 20s9.5-4.26 9.5-9.5S15.74 1 10.5 1z"/><path class="st0" d="M8.68 14.39l-4.2-4.2.71-.71 3.49 3.49 6.37-6.37.71.71z"/></svg>
