<svg xmlns="http://www.w3.org/2000/svg" viewBox="0 0 28.76 28.67" overflow="visible"><path d="M14.14 0h7.96c.55 0 1.1.05 1.64.19.54.13 1.07.28 1.56.54.63.33 1.21.72 1.7 1.24.3.32.57.65.76 1.05.23.48.48.95.63 1.46.1.35.16.71.23 1.07.07.32.08.64.08.97 0 1.92-.04 3.83.01 5.75.09 3.06.01 6.12.05 9.19.01.49-.07.97-.1 1.46s-.16.96-.27 1.43c-.16.67-.46 1.28-.89 1.82-.22.27-.44.54-.67.79-.18.19-.4.34-.61.5-.52.4-1.11.66-1.72.89-.36.14-.75.2-1.12.29-.03.01-.07 0-.11 0h-3.51c-.13 0-.14-.03-.12-.14.04-.19.05-.38-.02-.58-.03-.09-.02-.2.01-.3.04-.12.07-.23 0-.35-.02-.03-.01-.08-.01-.12v-9.5c0-.17.03-.2.21-.2h4.22c.15 0 .2-.07.23-.19.01-.04.01-.09.01-.14-.04-.96-.03-1.92-.02-2.88 0-.27.02-.55.02-.82 0-.24-.05-.29-.29-.29h-2.42c-.22 0-.44 0-.65-.02-.15-.02-.3.02-.45.02-.24-.01-.48.01-.71 0-.1 0-.15-.07-.15-.17 0-.47-.04-.94.01-1.4.05-.42-.01-.85.08-1.26.03-.15.06-.3.16-.44.12-.16.19-.36.33-.51.19-.21.42-.36.68-.48.35-.17.72-.22 1.1-.27.36-.05.72-.06 1.07-.06.32 0 .65.01.97.02.24 0 .24 0 .24-.23V5.18 4.5c0-.17-.08-.27-.27-.28-.7-.04-1.4-.04-2.1-.03-.37.01-.74.06-1.11.09-.37.03-.74.1-1.11.19-.21.05-.43.12-.64.16-.12.03-.25.07-.37.12-.3.11-.59.26-.88.39-.1.04-.17.12-.26.17-.34.21-.64.47-.9.78-.14.17-.25.36-.38.54-.2.28-.36.58-.5.89-.1.22-.23.44-.27.69-.01.08-.04.15-.1.21-.02.02-.04.06-.05.1-.05.28-.16.57-.22.88-.04.24-.06.5-.11.73-.05.25.02.51-.09.75-.01.02-.01.05-.01.08-.04.65-.03 1.29-.03 1.94 0 .22-.08.27-.29.22a.444.444 0 0 0-.2-.01c-.13.02-.25.02-.38-.01a.42.42 0 0 0-.27.02c-.09.04-.18-.01-.27-.01-.42.01-.84.01-1.27 0-.04 0-.08 0-.12-.01-.18-.04-.28.04-.28.23v.85c0 .33-.03.66.01.98.09.73.03 1.45.05 2.18 0 .12.08.1.15.1h2.64c.24 0 .3.07.25.32-.01.04-.01.08-.01.12 0 1.39-.02 2.77 0 4.16.04 2.14 0 4.28.02 6.42 0 .18 0 .18-.18.18h-.54c-1.76-.02-3.53.06-5.29.02-.75-.01-1.5 0-2.25-.02-.71-.02-1.42-.08-2.11-.27-.78-.22-1.49-.57-2.13-1.07-.2-.15-.39-.32-.57-.49-.38-.33-.63-.75-.9-1.16-.4-.61-.58-1.3-.77-1.98-.06-.21-.06-.43-.07-.65-.13-2.72-.04-5.44-.05-8.16C0 12.13.01 9.4.02 6.68c0-.39.07-.77.1-1.16.02-.29.1-.56.15-.85.05-.29.18-.56.3-.84.27-.62.6-1.19 1.04-1.72.45-.53.99-.95 1.58-1.31.36-.22.75-.36 1.15-.49.35-.12.72-.22 1.09-.26.16-.03.32-.05.48-.05h8.23z" fill="#fafafa"/></svg>
