<svg xmlns="http://www.w3.org/2000/svg" viewBox="0 0 66.47 64.96" overflow="visible"><path d="M66.47 41.52c-5.08 3.5-10.14 7.02-15.24 10.49-.97.66-2.05 1.23-3.15 1.64-7.22 2.72-14.45 5.39-21.69 8.05-.65.24-1.38.36-2.08.37-2.86.04-5.73.02-8.69.02v-2.83c2.62 0 5.2.04 7.77-.02.93-.02 1.9-.18 2.77-.5 6.98-2.55 13.95-5.14 20.92-7.75.88-.33 1.74-.79 2.52-1.32 3.89-2.63 7.75-5.31 11.62-7.97.32-.22.63-.46.95-.71-1.32-1.12-2.78-1.12-4.66-.03-1.96 1.14-3.92 2.29-5.88 3.43-.89.52-1.86.94-2.68 1.57-3.33 2.54-7.04 3.31-11.18 2.99-3.21-.25-6.45-.05-9.68-.05h-1.35v-4.26h10.08c2.01 0 2.98-.79 3.51-2.91-.36-.03-.7-.08-1.04-.08-4.3-.01-8.6-.03-12.91.03-.6.01-1.31.29-1.79.68-1.52 1.22-3.09 2.43-4.39 3.87-1.35 1.49-2.91 1.3-4.63 1.18V44.6c2.36.59 3.64-1.15 4.87-2.52 2.47-2.76 5.34-3.62 8.98-3.36 4.16.3 8.36.06 12.54.08.7 0 1.16-.14 1.55-.8 2.24-3.84 5.85-4.66 9.82-2.23-.51.98-1.02 1.96-1.54 2.94-.52.97-1.05 1.94-1.42 3.11 1.73-1 3.43-2.04 5.19-2.99.97-.52 1.99-1.06 3.05-1.3 2.33-.53 4.42-.01 6.08 1.84.58.65 1.19 1.28 1.78 1.92v.23zm-24.3 3.85c1.08.47 4.85-.88 5.75-2.4 1.27-2.14 2.39-4.37 3.59-6.59-1.26-.64-2.47-.99-3.75-.51-2.37.88-3.45 2.98-4.4 5.06-.61 1.36-.8 2.92-1.19 4.44zM0 64.96V40.67h12.67v24.29H0zm9.55-5.52H6.99v2.58h2.56v-2.58zM35.29 0c1.58 1.58 3.12 3.13 4.66 4.67 1.55 1.55 3.09 3.1 4.67 4.62 4.13 3.95 5.26 10.43 2.7 15.64-2.56 5.2-8.4 8.3-13.91 7.38-6.13-1.02-10.64-5.49-11.45-11.35-.6-4.38.61-8.21 3.68-11.38 2.91-3 5.9-5.93 8.86-8.88.23-.23.47-.42.79-.7zm-9.2 19.05c-.1 4.92 4.45 9.43 9.01 9.01v-2.51c-3.94-.61-5.48-2.16-6.49-6.5h-2.52z"/></svg>
