<svg xmlns="http://www.w3.org/2000/svg" viewBox="0 0 29.95 29.95" overflow="visible"><path d="M14.98 5.82c5.06 0 9.16 4.1 9.16 9.16 0 5.06-4.1 9.16-9.16 9.16-5.06 0-9.16-4.1-9.16-9.16 0-5.06 4.1-9.16 9.16-9.16zM4.33 4.44c1.29 1.2.58 3.23 2 4.56.73-1.03 1.62-1.93 2.65-2.66a4.173 4.173 0 0 0-4.65-1.9zM0 15.05c.94-1.61 2.83-2.4 4.63-1.95-.21 1.24-.21 2.51 0 3.76-1.93.06-2.87-1.87-4.63-1.81zm4.44 10.57c1.2-1.29 3.23-.58 4.56-2-.52-.36-1-.77-1.45-1.22-.44-.44-.85-.92-1.21-1.44-1.6.96-2.37 2.86-1.9 4.66zm10.62 4.33a4.187 4.187 0 0 1-1.95-4.63c1.24.21 2.51.21 3.76 0 .06 1.93-1.88 2.87-1.81 4.63zm10.56-4.44c-1.29-1.2-.58-3.23-2-4.56-.73 1.03-1.62 1.93-2.66 2.66.96 1.6 2.86 2.38 4.66 1.9zm4.33-10.61a4.187 4.187 0 0 1-4.63 1.95c.22-1.24.22-2.51 0-3.76 1.94-.06 2.87 1.87 4.63 1.81zM25.51 4.33c-1.2 1.29-3.23.59-4.56 2 .52.36 1 .77 1.45 1.22.44.44.85.92 1.21 1.43 1.6-.95 2.38-2.85 1.9-4.65zM2.8 10.08l2.93-.05c-.19.31-.36.64-.49.98-.14.34-.25.69-.32 1.05L2.8 10.08zm.1 10.04l2.04-2.1c.17.71.46 1.39.86 2.01l-2.9.09zm7.17 7.04l-.05-2.93c.31.19.64.36.98.49.34.14.69.25 1.06.32l-1.99 2.12zm10.05-.1l-2.1-2.03c.36-.08.7-.2 1.04-.34.34-.14.66-.32.97-.52l.09 2.89zm7.03-7.18l-2.93.05c.19-.31.36-.64.49-.98.14-.34.25-.7.32-1.06l2.12 1.99zm-.1-10.05l-2.03 2.1c-.08-.35-.2-.7-.34-1.04-.15-.34-.32-.66-.52-.97l2.89-.09zM19.87 2.8l.05 2.93c-.63-.39-1.31-.66-2.03-.81l1.98-2.12zm-10.04.1l2.1 2.03c-.35.08-.7.2-1.04.34-.34.15-.66.32-.97.52L9.83 2.9zM14.9 0c1.61.94 2.4 2.83 1.95 4.63-.62-.11-1.24-.16-1.87-.16-.63 0-1.26.05-1.89.16C13.03 2.7 14.97 1.76 14.9 0zM8.55 13.3c2.49-4.67 6.75-5.59 12.07-4.27-4.35-3.59-12.2-1.99-12.07 4.27zm5.18 8.91a13.4 13.4 0 0 1-6.29-4.33c-.3 1.25 3.42 5.39 6.29 4.33zM8.8 18.77c-1.01-2.4-1.3-5.03-.83-7.59-1.14.58-1.85 6.11.83 7.59z" fill-rule="evenodd" clip-rule="evenodd" fill="#fff"/></svg>
