<svg xmlns="http://www.w3.org/2000/svg" viewBox="0 0 28.56 29.33" overflow="visible"><path d="M0 28.57V.72C.63.48 1.26.04 1.9.04 10.18-.01 18.46 0 26.74 0c1.43 0 1.82.39 1.82 1.83v25.69c0 1.45-.36 1.8-1.84 1.8-8.28 0-16.56.02-24.85-.03-.62 0-1.24-.47-1.87-.72zm25.9-25.9c-4.11 0-8.05-.21-11.95.09C12 2.91 10.39 4.39 9.15 6c-.22.29-.21.83-.18 1.24.1 1.26.31 2.52.4 3.78.17 2.4-.24 4.6-1.91 6.53-1.47 1.7-2.66 3.65-4.04 5.44-.85 1.11-.88 2.3-.68 3.6h6.65c-.76-1.73.12-2.94 1.17-3.99 1.95-1.97 4.2-3.08 7.19-2.03-1.23-2.62-2.38-5.27-3.96-7.62-1.73-2.57-1.67-5.88.59-8 2.2-2.06 5.66-2.07 7.88 0 2.25 2.09 2.47 5.53.51 7.96-.3.37-.66.7-.86 1.12-1.07 2.25-2.08 4.53-3.15 6.78-.28.58-.13 1.05.4 1.09.85.06 1.94.17 2.55-.27 1.3-.93 2.43-2.13 3.48-3.35.44-.51.68-1.34.7-2.03.07-3.41.03-6.82.03-10.23-.02-1.07-.02-2.13-.02-3.35zm-13.91.08H2.74v19.96c1.52-2.01 2.88-3.94 4.38-5.77 1.15-1.39 1.72-2.94 1.67-4.69-.04-1.38-.15-2.77-.39-4.13-.28-1.57.09-2.81 1.39-3.75.69-.5 1.37-1.01 2.2-1.62zm13.88 15.86c-.68.75-1.15 1.33-1.68 1.85-.57.55-1.14 1.11-1.79 1.55-1.7 1.17-2.93 1.08-4.5-.26-.94-.8-1.99-1.1-3.2-.84-2.01.43-3.53 1.57-4.59 3.3-.87 1.44-.26 2.46 1.42 2.46h13.19c.38 0 .75-.03 1.14-.05.01-2.68.01-5.21.01-8.01zM18.3 7.15c-1.1.01-2.04.93-2.07 2.01-.03 1.14.94 2.1 2.1 2.09 1.11-.01 2.05-.92 2.08-2.01.03-1.12-.96-2.1-2.11-2.09z"/></svg>
