<svg xmlns="http://www.w3.org/2000/svg" viewBox="0 0 39.36 32.8" overflow="visible"><path d="M14.53 0h3.82c.33.08.66.19.99.24 3.77.53 7.25 1.77 10.1 4.35 2.55 2.31 3.91 5.16 3.25 8.7-.11.61.04.9.64 1.15 2.2.93 4.16 2.18 5.17 4.47.36.81.57 1.7.85 2.55v.71c-.38 1.67-.79 3.42-2.24 4.46-1.74 1.25-2.56 2.69-2.11 4.85.08.37-.4 1.11-.79 1.26-.39.16-1.08-.06-1.48-.35-.67-.48-1.16-1.21-1.81-1.72-.35-.27-.88-.41-1.33-.44-1.9-.11-3.85.1-5.68-.28-3.62-.75-6.76-2.37-8.18-6.15-.05-.14-.14-.36-.23-.38-1.1-.17-2.2-.4-3.3-.41-.4 0-.83.51-1.2.85-.9.84-1.72 1.78-2.68 2.54-.4.32-1.17.56-1.57.39-.4-.17-.73-.9-.77-1.41-.08-.9.02-1.83.15-2.73.17-1.2-.03-2.11-1.27-2.68-.63-.29-1.15-.85-1.66-1.35-4.04-3.91-4.31-9.05-.65-13.17 2.27-2.56 5.27-3.9 8.51-4.74C12.22.43 13.38.24 14.53 0zM8.78 22.11c2.31-1.93 2.31-1.93 5.13-1.56.16.02.31.06.47.07 4.9.46 9.44-.48 13.28-3.72 3.05-2.58 3.45-6.4.99-9.29-.76-.89-1.68-1.75-2.69-2.31-6.34-3.51-12.78-3.54-19.08.02-5.44 3.06-5.68 8.86-.57 12.42 1.56 1.1 3.29 1.88 2.47 4.37zM32 27.7c.46-.45 1-1.01 1.58-1.52.51-.44 1.11-.78 1.59-1.25 1.77-1.76 2-4.01.32-5.84-.92-1.01-2.29-1.63-3.5-2.35-.18-.11-.71.08-.87.29-2.39 3.19-5.74 4.79-9.47 5.75-1.02.26-2.08.38-3.51.64.95.93 1.6 1.8 2.45 2.38 2.81 1.9 5.94 2.25 9.24 1.74.73-.12 1.52.1 2.17.16z"/><path d="M14.63 12.15c.09-1.22.51-1.75 1.36-1.76.77 0 1.3.42 1.34 1.22.05.84-.44 1.48-1.25 1.39-.55-.05-1.06-.61-1.45-.85zM10.46 10.34c1.21.13 1.73.49 1.72 1.39-.01.82-.47 1.28-1.23 1.31-.82.04-1.47-.45-1.37-1.27.07-.56.63-1.05.88-1.43zM19.96 11.78c.04-.94.53-1.4 1.36-1.38.78.01 1.27.5 1.29 1.27.02.84-.48 1.36-1.31 1.37-.83.02-1.28-.49-1.34-1.26zM30.45 21.99c.69-.49 1.11-1.01 1.48-.98.39.03.73.6 1.09.93-.36.38-.68.96-1.1 1.06-.32.07-.78-.51-1.47-1.01zM29.29 21.93c-.68.53-1.11 1.12-1.45 1.06-.42-.06-.77-.65-1.14-1.02.35-.35.68-.93 1.06-.97.38-.03.81.47 1.53.93z"/></svg>
