<svg xmlns="http://www.w3.org/2000/svg" viewBox="0 0 58.66 58.52" overflow="visible"><path d="M58.66 34.9c-2.26.16-4.52.3-6.78.52-.32.03-.74.4-.89.72-.77 1.69-1.47 3.42-2.25 5.26 1.41 1.68 2.92 3.47 4.34 5.16l-7.21 7.15c-1.43-1.2-3.09-2.55-4.68-3.97-.57-.51-.99-.52-1.67-.21-1.37.62-2.8 1.13-4.22 1.61-.57.19-.84.41-.87 1.05-.09 1.63-.26 3.25-.41 4.88-.04.47-.11.94-.17 1.44H23.79c-.18-2.14-.37-4.23-.51-6.33-.05-.73-.27-1.09-1.01-1.35-1.38-.48-2.73-1.09-4.03-1.77-.66-.35-1.09-.36-1.66.15-1.51 1.35-3.08 2.63-4.61 3.92-2.36-2.43-4.68-4.81-7.08-7.27 1.25-1.48 2.61-3.13 4.02-4.74.45-.52.52-.9.21-1.56-.65-1.4-1.16-2.87-1.66-4.33-.19-.56-.43-.81-1.07-.85-1.79-.1-3.57-.33-5.35-.42-.76-.04-1.05-.26-1.04-1.05.04-2.75.03-5.5 0-8.24-.01-.72.25-.96.96-1 1.91-.11 3.81-.26 5.71-.5.38-.05.86-.45 1.04-.82.7-1.42 1.26-2.92 1.96-4.33.29-.57.21-.91-.18-1.36-1.38-1.59-2.72-3.21-4.03-4.76 2.38-2.39 4.72-4.72 7.15-7.16 1.52 1.28 3.12 2.57 4.65 3.95.69.62 1.22.7 2.08.27 1.31-.65 2.75-1.03 4.11-1.59.3-.12.71-.45.74-.72.22-2.22.36-4.44.52-6.66h10.28c.16 2.34.3 4.68.49 7.01.02.23.33.51.58.62 1.74.76 3.51 1.47 5.39 2.26 1.69-1.43 3.51-2.96 5.22-4.4 2.41 2.4 4.76 4.75 7.18 7.16-1.32 1.57-2.69 3.22-4.1 4.83-.44.51-.54.9-.22 1.56.63 1.32 1.19 2.7 1.6 4.1.23.81.59 1.04 1.38 1.09 2.05.15 4.1.41 6.15.62V34.9zM8.09 45.82c1.38 1.41 2.66 2.7 3.98 4.05 1.65-1.39 3.35-2.82 5.11-4.3 2.4 1.68 4.96 2.92 7.79 3.56.22.05.43.59.47.93.22 2.01.38 4.02.57 6.03h5.68c.16-1.99.29-3.9.49-5.79.04-.35.32-.93.57-.98 2.85-.53 5.46-1.62 7.9-3.17 1.82 1.53 3.57 3 5.24 4.41l4-4c-1.38-1.65-2.81-3.34-4.02-4.78 1.1-2.67 2.18-5.13 3.12-7.65.25-.68.52-.94 1.2-.99 1.71-.11 3.42-.23 5.11-.44.34-.04.89-.46.91-.73.09-1.62.04-3.25.04-5-1.95-.16-3.8-.36-5.66-.45-.84-.04-1.16-.33-1.43-1.17-.72-2.22-1.57-4.4-2.52-6.53-.32-.71-.31-1.08.18-1.63 1.31-1.48 2.56-3.01 3.66-4.32-1.4-1.41-2.67-2.71-4-4.05-1.36 1.15-2.84 2.36-4.27 3.63-.54.48-.9.43-1.55.1-1.97-1.01-3.97-2.02-6.05-2.73-1.11-.38-1.5-.83-1.54-1.95-.06-1.8-.28-3.6-.44-5.46-1.66 0-3.13.05-4.6-.02-.92-.05-1.15.34-1.18 1.17-.06 1.51-.25 3.01-.34 4.52-.05.81-.35 1.13-1.2 1.4-2.22.71-4.38 1.6-6.52 2.54-.65.29-1.01.3-1.54-.16-1.49-1.32-3.03-2.57-4.4-3.73-1.39 1.35-2.72 2.64-4.09 3.96C9.87 13.4 11 14.8 12.2 16.11c.65.72.69 1.22.18 2.12-1.01 1.79-1.93 3.67-2.53 5.62-.4 1.28-.96 1.68-2.2 1.71-1.73.05-3.46.26-5.17.41v5.68c1.98.16 3.88.33 5.78.47.69.05.94.32 1.17 1.03.72 2.22 1.57 4.4 2.51 6.53.32.72.41 1.14-.15 1.76-1.28 1.45-2.5 2.97-3.7 4.38z"/><path d="M40.59 29.06h2.17c.82 5.33-4.04 11.64-10.06 13.17-6.76 1.71-13.63-1.96-16.14-8.44-2.18-5.64-.24-15.29 9.71-18.15-.51-.54-1-1.05-1.49-1.58.57-.52 1.11-1.02 1.55-1.42 1.58 1.58 3.25 3.25 4.86 4.85-1.53 1.52-3.18 3.17-4.84 4.82-.41-.43-.92-.96-1.68-1.76.82-.66 1.74-1.4 2.88-2.32-4.76-.02-9.24 5.27-9.43 10.68-.2 5.58 4.51 10.76 10.09 11.28 5.91.56 12.01-3.68 12.38-11.13z"/></svg>
