<svg xmlns="http://www.w3.org/2000/svg" viewBox="0 0 41.26 33.43" overflow="visible"><path d="M12.63 33.43c-.09-.5-.17-.99-.28-1.65h2.53v-2.07H0c.13-.42.19-.71.31-.97 2-4.45 4.02-8.88 6-13.34.29-.65.64-.86 1.34-.86 3.93.03 7.86.02 11.87.02.16-4.77 2.2-8.07 7.12-8.83 3.45-.53 6.63 1.28 8.15 4.36 1.72 3.48.9 6.62-2.74 10.33 1.34 3 2.69 6.02 4.13 9.23H21.2v2.06h2.42v1.72H12.63zM2.47 28.06c1.29 0 2.31.03 3.33-.02.25-.01.64-.23.71-.44.37-1.07.65-2.17 1.02-3.42-1.08 0-1.98-.03-2.87.02-.22.01-.52.22-.62.42-.52 1.06-.99 2.14-1.57 3.44zm9.42-.05c.19-1.32.35-2.51.54-3.83-.97 0-1.8-.03-2.62.02-.22.01-.55.21-.61.39-.36 1.1-.66 2.22-1 3.42h3.69zm16.23-.11c-.32-1.07-.6-2.1-.95-3.1-.08-.24-.38-.57-.59-.58-.88-.07-1.77-.03-2.67-.03.73 4.81-.26 3.77 3.86 3.85.07 0 .15-.06.35-.14zm.69-3.59c.33 1.1.64 2.19 1 3.26.07.2.36.45.56.46 1.02.05 2.03.02 3.08.02-.79-3.54-1.61-4.21-4.64-3.74zm-13.77 2.38c.81-.04 1.51-.07 2.24-.11v-2.32h-3.16c-.18 1.27-.36 2.46-.55 3.8.54-.03.94-.05 1.35-.07.05-.49.08-.84.12-1.3zm7.7 1.3c-.2-1.32-.39-2.54-.57-3.73h-3.13v2.3c.7.06 1.31.11 1.94.16.1.47.19.88.27 1.27h1.49zM5.11 22.45h2.95c.24-.85.47-1.65.71-2.49-3.05-.08-2.48-.64-3.66 2.49zm4.77-.03c2.94.32 2.98.3 3.06-2.38-2.3-.49-2.5-.35-3.06 2.38zm4.52-.02h3c-.06-.88-.11-1.65-.17-2.46h-2.46c-.12.81-.25 1.61-.37 2.46zm7.47.05c-.3-2.8-.58-3.03-2.83-2.35v2.35h2.83zm-5.15 9.11h2.7v-1.9c-.71 0-1.34-.01-1.96 0-.23 0-.45.04-.74.07v1.83zM9.7 16.31c-1.89-.39-2.22-.16-2.61 1.87 2.2.34 2.48.14 2.61-1.87zm3.89-.01c-2.05-.31-2.29-.11-2.34 1.9h2.05c.1-.68.19-1.26.29-1.9zm12.81 6.16c-.27-1.1-.27-1.1-3.07-1.89.1.65.2 1.25.29 1.89h2.78zm-11.09-6.3c-.11.77-.2 1.37-.3 2.05h2.2v-1.96c-.29-.03-.51-.08-.74-.08-.35-.02-.7-.01-1.16-.01zm12.87 5.48c.14.97.93 1.16 2.85.66-.18-.39-.35-.77-.53-1.17-.82.18-1.57.35-2.32.51zm-7.21-3.42c-.15-.31-.22-.54-.36-.71-.38-.47-.28-1.58-1.22-1.25-.3.11-.27 1.13-.38 1.73-.01.05.08.13.15.23h1.81zM34.74 6.71c-.43-.39-.77-.71-1.23-1.12.87-.96 1.7-1.89 2.58-2.85.43.39.78.71 1.23 1.11-.87.96-1.71 1.89-2.58 2.86z"/><path d="M13.95 11.7c.13-.58.25-1.06.37-1.6 1.25.27 2.39.52 3.68.8-.11.55-.2 1.03-.31 1.61-1.28-.27-2.47-.53-3.74-.81zM29.48 0l1.63.34c-.28 1.29-.53 2.46-.8 3.7-.52-.1-.94-.17-1.58-.29.25-1.23.49-2.43.75-3.75zM22.42.87c.53-.17 1-.33 1.57-.52.39 1.2.76 2.35 1.17 3.63-.54.17-1 .32-1.56.5-.4-1.25-.78-2.39-1.18-3.61zM17.83 3.91c.98.89 1.87 1.7 2.83 2.57-.36.42-.66.78-1.06 1.24-.94-.83-1.84-1.63-2.85-2.53.36-.42.69-.81 1.08-1.28zM40.39 8.43c.18.54.32.97.52 1.56-1.23.4-2.39.78-3.64 1.19-.19-.55-.34-.99-.53-1.55 1.19-.39 2.36-.78 3.65-1.2zM37.53 14.72c1.27.27 2.45.52 3.73.79-.11.54-.21.98-.34 1.59-1.24-.25-2.41-.49-3.75-.76.12-.55.23-1.02.36-1.62zM38.49 22.09c-.43.46-.75.8-1.14 1.21-.96-.87-1.86-1.69-2.82-2.57.39-.43.73-.79 1.13-1.23.96.88 1.86 1.7 2.83 2.59z"/></svg>
