<svg xmlns="http://www.w3.org/2000/svg" viewBox="0 0 28.64 28.64" overflow="visible"><path d="M21.18 0c2.82 1.02 4.58 3.35 6.39 5.49 1.56 1.85 1.35 4.68-.3 6.47-1.57 1.72-3.31 3.28-4.95 4.89-.27-1.08-.57-2.2-.79-3.33-.04-.23.19-.57.39-.77.88-.92 1.8-1.79 2.68-2.71.93-.96.94-2.09.02-3.06-.98-1.03-2-2.04-3.03-3.03-.97-.93-2.12-.97-3.07-.05-2.3 2.24-4.57 4.52-6.81 6.82-.91.94-.85 2.09.05 3.08 1.12 1.23 2.24 2.44 3.37 3.66-.58.54-1.32 1.24-2.27 2.14-1.43-1.58-3.19-3.12-4.41-5-1.22-1.86-.95-4.08.59-5.75 2.44-2.65 5.04-5.16 7.64-7.66C17.24.66 18.09.4 18.8 0h2.38z"/><path d="M0 18.8c1.27-3.09 4.15-4.77 6.2-7.25.29 1.2.58 2.28.77 3.37.05.26-.18.65-.39.87-.81.87-1.68 1.68-2.51 2.54-1.12 1.17-1.1 2.26.04 3.42.89.91 1.78 1.8 2.69 2.69 1.13 1.1 2.24 1.17 3.33.1 2.24-2.19 4.45-4.4 6.64-6.64.98-1.01.94-2.15.01-3.17-1.1-1.19-2.21-2.38-3.4-3.65.62-.53 1.4-1.21 2.37-2.04 1.31 1.41 2.94 2.87 4.21 4.59 1.36 1.85 1.01 4.59-.59 6.26-2.36 2.46-4.77 4.87-7.23 7.23-1.76 1.7-4.54 2.05-6.45.56-1.79-1.4-3.31-3.16-4.88-4.83-.4-.42-.54-1.1-.81-1.67V18.8z"/></svg>
