<svg xmlns="http://www.w3.org/2000/svg" viewBox="0 0 27.63 32.52" overflow="visible"><path d="M27.63 17.82c-.19.71-.37 1.43-.57 2.14-1.53 5.28-5.46 8.62-11.8 9.92.5.59.95 1.12 1.54 1.82-.3.24-.59.48-1.01.82-1.03-1.14-2.03-2.24-3.07-3.39 1.03-1.15 2-2.24 3.03-3.39l.99.85c-.46.56-.89 1.06-1.33 1.59 2.58.42 7.68-2.44 9.69-6.77 1.95-4.22 1.91-11.09-4.53-15.74.19-.32.39-.64.65-1.09 3.09 2.02 5.02 4.75 5.95 8.22.15.56.31 1.12.47 1.67-.01 1.12-.01 2.23-.01 3.35z"/><path d="M9.59 30.54c1.08-3.26 2.15-6.52 3.29-9.96H3.7c4.51-5.6 8.82-10.95 13.14-16.31.06.03.13.06.19.09-1.06 3.25-2.13 6.5-3.24 9.89h9.18c-4.52 5.62-8.86 11-13.19 16.38-.07-.03-.13-.06-.19-.09z"/><path d="M12.15 2.49c-.52-.59-.95-1.09-1.48-1.7.33-.24.64-.47 1.08-.79.91 1.02 1.9 2.12 2.96 3.3-1.03 1.15-1.99 2.23-3.01 3.37l-.99-.82c.49-.61.95-1.18 1.54-1.92-5.2.96-8.77 3.68-10.28 8.54-1.81 5.85.18 10.57 5.02 14.27-.19.33-.38.65-.57.97-3.95-1.84-6.71-7.3-6.4-12.57C.38 9.02 4.18 5.02 12.15 2.49z"/></svg>
