<svg xmlns="http://www.w3.org/2000/svg" viewBox="0 0 66.36 50.8" overflow="visible"><path d="M21.1 19.95c.51-.04.86-.08 1.21-.08.63-.01 1.26 0 1.96 0 .04.7.08 1.28.14 2.21 1.61-1.61 3.05-3.04 4.49-4.48 1.46-1.46 2.91-2.93 4.26-4.3 6.6 6.59 13.12 13.11 19.66 19.65-.59.56-1.34 1.27-2.14 2.02-.31-.27-.69-.6-1.22-1.07v16.91H17.33V33.94c-.6.47-.95.75-1.33 1.06-.73-.74-1.45-1.48-2.24-2.29 2.17-2.17 4.31-4.35 6.51-6.47.63-.61.89-1.23.85-2.1-.07-1.34-.02-2.69-.02-4.19zm25.48 28.19c.05-.22.1-.34.1-.45.01-5.33.03-10.67-.02-16 0-.44-.33-.97-.66-1.3-2.99-3.04-6.02-6.03-9.02-9.05-1.17-1.18-2.3-2.41-3.38-3.55-.3.12-.39.13-.44.18-4.31 4.3-8.62 8.59-12.91 12.9-.17.17-.31.45-.31.68.01 5.25.03 10.5.06 15.75 0 .27.04.53.06.84h26.52zM22.38 11.82c-1.63-2.81-3.22-5.53-4.84-8.32-.93.54-1.78 1.03-2.71 1.57 1.61 2.81 3.17 5.52 4.83 8.42-1.85-.21-3.23-.95-4.43-2.06-2.59-2.39-3.26-6.54-1.61-9.66.35-.66.77-.96 1.58-.95 5.48.07 9.53 6.09 7.18 11zM49.14 3.85c-1.66 2.86-3.23 5.57-4.91 8.48-1-2.97-.73-5.55 1-7.88 1.68-2.26 3.99-3.34 6.83-3.2.26.01.6.25.73.48 1.46 2.47 1.61 5.06.4 7.64-1.17 2.49-3.18 3.98-6.19 4.52 1.67-2.91 3.22-5.61 4.86-8.46-.88-.51-1.74-1.01-2.72-1.58zM55.39 23.51c2.82-1.63 5.51-3.18 8.32-4.81-.5-.89-.98-1.74-1.54-2.74-2.8 1.6-5.54 3.17-8.32 4.77-.02-3.23 3.21-6.4 6.79-6.79 1.75-.19 3.43.01 4.95.95.35.22.76.68.77 1.04.07 2.83-1.1 5.08-3.36 6.77-1.75 1.31-5 2.14-7.61.81zM12.73 20.2c-2.97-1.7-5.68-3.25-8.45-4.85-.53.92-1.03 1.77-1.58 2.72 2.8 1.62 5.54 3.21 8.33 4.82-3.1 1.62-7.59.32-9.58-2.89-.72-1.17-1-2.64-1.38-4-.26-.93.2-1.53 1.09-1.96 4.39-2.12 9.66.03 11.21 4.62.14.41.19.83.36 1.54zM34.97 9.47c0-1.71.06-3.33-.02-4.94-.07-1.53.36-3.12-.24-4.53 2.28.8 3.74 2.69 3.7 4.97-.04 2.08-1.61 4.26-3.44 4.5zM31.75 9.54c-2.19-.8-3.41-2.62-3.36-4.77.04-2.05 1.29-3.79 3.36-4.49v9.26z"/><path d="M31.35 46.2h-7.69V33.34h7.69V46.2zM43.85 41.51h-9.88v-8.16h9.88v8.16z"/></svg>
