<svg xmlns="http://www.w3.org/2000/svg" viewBox="0 0 29.34 21.09" overflow="visible"><path d="M25.33 21.09H4.14c-3.1-1.15-4.31-3.38-4.12-6.64.17-2.96.03-5.93.04-8.89C.07 2.27 2.28.02 5.54.01c6.11-.01 12.21-.02 18.32 0 3.19.01 5.46 2.29 5.48 5.47.01 3.4 0 6.8.01 10.2 0 1.41-.39 2.7-1.42 3.65-.77.7-1.73 1.18-2.6 1.76zM18.8 7.97c-1.01.65-1.97 1.16-2.8 1.82-.92.73-1.64.8-2.54-.06-.79-.75-1.75-1.33-2.74-2.06-2.12 3.69-4.18 7.29-6.33 11.04h20.57c-2.09-3.65-4.09-7.14-6.16-10.74zM9.4 6.66c-1.81-1.37-3.58-2.7-5.35-4.03-1.22.61-1.76 1.61-1.77 2.89-.02 3.35-.03 6.71.02 10.06.01.68.33 1.36.51 2.04.11-.01.21-.03.32-.04 2.08-3.62 4.16-7.24 6.27-10.92zm16.82 10.9c.12-.01.24-.03.37-.04.15-.56.42-1.11.42-1.67.04-3.51.05-7.02-.01-10.54-.01-.69-.4-1.38-.66-2.19-2.19 1.41-4.16 2.67-6.16 3.95 2.09 3.62 4.06 7.06 6.04 10.49z"/></svg>
