<svg xmlns="http://www.w3.org/2000/svg" viewBox="0 0 24.21 28.93" overflow="visible"><path d="M6.15 0h4.04c.89.49 1.63 1.07 1.63 2.23-.01 8.2.01 16.4-.02 24.6 0 1.31-.76 2.02-2.09 2.08-.91.04-1.82.02-2.73.01-2.05-.01-2.62-.57-2.62-2.61 0-7.84.03-15.69-.03-23.53C4.33 1.35 4.8.45 6.15 0zM24.21 4.76v20.23c-.59.9-1.24 1.84-2.41 1.86-2.76.07-5.52.02-8.31.02V2.72c2.42 0 4.75.07 7.08-.02 1.69-.05 2.91.51 3.64 2.06zm-9.5 4.57h7.49V6.41h-7.49v2.92zm2.09 3.74c-.02-1.9-1.29-.83-2.03-1.16v1.16h2.03zm2.59-1.01c-1.98-.28-2.07-.23-1.87 1.01h1.87v-1.01zm-2.65 3.45h-2.06c.04.41.08.74.11 1.03h1.94c.01-.38.01-.68.01-1.03zm.66-.02c.02 1.26.11 1.3 1.98 1v-1H17.4zm-2.6 2.76h2.06c-.05-.42-.08-.75-.11-1.03H14.8v1.03zm5.39-5.18h1.84v-1.01c-1.92-.26-1.98-.23-1.84 1.01zm1.82 2.46h-1.85c-.35 1.2.39 1.07 1.08 1.11.87.04 1-.36.77-1.11zm-4.49 2.73h1.95c-.03-.41-.06-.73-.09-1.06h-1.86v1.06zm2.55 0h2.05c-.04-.41-.07-.74-.1-1.06h-1.89c-.02.35-.04.65-.06 1.06zm-5.16-4.77c-.44 1.31.1 1.44.83 1.38.47-.04 1.31.08.97-.65-.19-.41-1.15-.48-1.8-.73zm4.34 0c-.66.24-1.62.32-1.81.74-.33.73.51.6.98.64.74.07 1.27-.07.83-1.38zm2.66.09c-.58.48-1.6-.52-1.81.7-.14.84.65.54 1.09.59.8.09 1.09-.24.72-1.29zM2.57 26.85C.8 26.48.02 25.61.01 24 0 17.85-.01 11.71.02 5.57c0-1.62.98-2.61 2.55-2.67v23.95z"/></svg>
