<svg xmlns="http://www.w3.org/2000/svg" viewBox="0 0 48.72 48.77" overflow="visible"><path d="M13.52 20.18c-.19-2.73 1.18-4.71 3.11-6.41.53-.46 1-.45 1.42.1.98 1.3 1.94 2.62 2.91 3.93.5.67.33 1.26-.2 1.8-.56.57-1.09 1.17-1.69 1.68-.75.65-.91 1.41-.47 2.24 1.54 2.94 3.74 5.21 6.76 6.65.76.37 1.37.18 1.93-.4.61-.63 1.23-1.24 1.86-1.85.57-.55 1.19-.58 1.83-.12 1.22.89 2.43 1.81 3.65 2.69.78.56.71 1.11.13 1.79-2.65 3.1-6.01 3.64-9.64 2.4-5.89-2.02-9.76-6.08-11.4-12.16-.05-.19-.11-.38-.12-.58-.03-.57-.05-1.17-.08-1.76z"/><path d="M48.71 24.46c.25 12.48-10.08 24.49-24.7 24.3C10.08 48.58-.2 36.96 0 23.95.19 11.56 10.42-.19 24.75 0c13.66.19 24.24 11.58 23.96 24.46zM24.39 4.13C14.3 3.9 4.12 12.15 4.09 24.33c-.03 11.87 9.65 20.35 20.18 20.34 11.33-.01 20.53-9.08 20.43-20.35C44.58 12.18 34.55 3.9 24.39 4.13z"/></svg>
