<svg xmlns="http://www.w3.org/2000/svg" viewBox="0 0 113.5 62.04" overflow="visible"><path d="M62.72 34.73C59.3 23.27 55.96 12.06 52.54.63h1.47c7.62 0 15.24.02 22.86-.02.95 0 1.42.22 1.66 1.2.44 1.77 1.6 3.58 1.39 5.24-.22 1.66-1.73 3.15-2.71 4.7-4.61 7.35-9.24 14.69-13.86 22.04-.13.23-.3.45-.63.94zM96.75 62.02h-1.36c-7.74 0-15.48-.02-23.21.02-1.01.01-1.47-.28-1.73-1.28-.56-2.19-1.31-4.34-1.88-6.53-.13-.49-.03-1.19.24-1.61 3.04-4.62 6.12-9.22 9.24-13.79.27-.4.93-.74 1.42-.75 3.03-.07 6.06-.02 9.09-.04.68-.01 1.06.14 1.28.89 2.22 7.38 4.48 14.75 6.72 22.13.08.24.11.51.19.96zM31.3 53.06c-2.11 3.23-1.32 3.18-4.73 1.66a21.491 21.491 0 0 1-12.6-22.23c1.14-9.34 8.11-16.78 17.49-18.67 8.51-1.71 17.76 2.31 22.3 9.7.12.2.22.41.42.81-2.26 0-4.39.02-6.51-.03-.29-.01-.59-.37-.85-.6-10-8.86-25.25-4.07-28.36 8.92-1.98 8.29 2.99 17.13 11.18 19.87.52.18 1.04.36 1.66.57zM13.45 23.2c-1.09-5.3-2.12-10.28-3.21-15.54 5.81 1.25 11.34 2.43 17.24 3.7-6.2 2.3-10.73 6.08-14.03 11.84zM33.04 10.21C37.71 6.72 42.11 3.42 46.68 0c1.3 5.14 2.54 10.03 3.85 15.25-5.28-3.81-10.92-5.51-17.49-5.04zM10.84 30.82c-.96 6.18.24 11.65 3.3 17.05C9.32 46.42 4.76 45.04 0 43.6l10.84-12.78zM82.83 29.49c1-1.62 1.86-3.03 2.77-4.42.12-.18.45-.32.69-.33 1.55-.03 3.1-.01 4.9-.01-.99 1.59-1.88 3.02-2.8 4.44-.11.16-.39.3-.59.31-1.59.02-3.16.01-4.97.01zM91.47 12.75c-.99 1.58-1.81 2.93-2.68 4.24-.16.24-.55.44-.85.45-1.51.05-3.02.02-4.82.02 1.03-1.62 1.96-3.1 2.92-4.57.08-.12.36-.14.54-.14h4.89zM80.45 18.75c-.97 1.57-1.82 2.98-2.73 4.36-.14.21-.53.34-.8.35-1.51.03-3.02.02-4.79.02 1.02-1.62 1.93-3.08 2.87-4.52.08-.13.34-.19.51-.19 1.57-.02 3.14-.02 4.94-.02zM97.93 5.46c.99-1.58 1.81-2.94 2.68-4.26.15-.22.5-.43.77-.43 1.54-.04 3.09-.02 4.89-.02-1.01 1.6-1.88 3.01-2.8 4.39-.12.18-.47.31-.71.31-1.52.02-3.03.01-4.83.01zM109.71 6.73c-1 1.61-1.85 3.03-2.76 4.41-.14.2-.53.33-.8.34-1.51.03-3.02.02-4.78.02.99-1.58 1.88-3.01 2.8-4.43.11-.17.38-.31.58-.32 1.56-.03 3.14-.02 4.96-.02zM80.16 30.76c-1.01 1.61-1.88 3.01-2.78 4.39-.11.16-.38.3-.59.3-1.57.02-3.14.01-4.97.01 1-1.61 1.87-3.01 2.77-4.4.11-.16.39-.29.6-.3 1.57-.01 3.14 0 4.97 0zM88.02 6.73c-1.03 1.64-1.88 3.01-2.76 4.36-.13.19-.44.38-.66.38-1.57.03-3.15.02-4.94.02.99-1.59 1.86-2.99 2.76-4.38.13-.19.45-.37.68-.37 1.54-.03 3.08-.01 4.92-.01zM94.13 11.49c.99-1.6 1.84-2.99 2.72-4.35.13-.2.43-.39.66-.4 1.58-.03 3.16-.02 4.96-.02-1 1.61-1.86 3.03-2.77 4.41-.13.2-.53.33-.8.33-1.51.05-3.02.03-4.77.03zM102.18 18.75c-.99 1.57-1.85 2.98-2.77 4.35-.14.21-.52.35-.79.35-1.51.03-3.02.02-4.8.02 1.02-1.61 1.94-3.07 2.88-4.51.08-.13.34-.19.52-.2 1.57-.01 3.15-.01 4.96-.01zM90.37 17.47c.98-1.56 1.83-2.94 2.71-4.3.13-.2.42-.39.65-.4 1.58-.03 3.16-.02 4.97-.02-.98 1.57-1.84 2.99-2.75 4.36-.14.21-.53.33-.8.34-1.52.04-3.03.02-4.78.02zM72.92 30.76c-.99 1.58-1.79 2.9-2.66 4.18-.18.27-.62.5-.95.51-1.47.05-2.94.02-4.74.02 1.04-1.63 1.95-3.08 2.9-4.51.08-.13.35-.19.53-.19 1.54-.01 3.08-.01 4.92-.01zM79.06 35.47c1-1.61 1.85-2.99 2.74-4.35.13-.19.45-.35.69-.35 1.54-.03 3.08-.02 4.9-.02-1.01 1.61-1.88 3.02-2.79 4.4-.12.18-.47.3-.72.3-1.5.04-3.02.02-4.82.02zM86.88 11.49c.98-1.57 1.81-2.93 2.69-4.25.17-.25.55-.49.84-.5 1.51-.05 3.02-.02 4.84-.02-1.05 1.66-1.98 3.14-2.93 4.61-.08.12-.35.15-.54.15-1.55.02-3.09.01-4.9.01zM105.17 5.46c.99-1.6 1.82-2.98 2.71-4.33.14-.21.52-.37.79-.37 1.5-.04 3.01-.02 4.84-.02-1.04 1.63-1.95 3.07-2.9 4.5-.1.15-.42.21-.63.21-1.51.02-3.01.01-4.81.01zM75.9 17.47c.98-1.57 1.82-2.95 2.71-4.31.13-.2.43-.39.66-.39 1.58-.03 3.15-.02 4.97-.02-.99 1.58-1.86 2.99-2.77 4.37-.12.18-.45.32-.68.33-1.56.03-3.11.02-4.89.02zM87.7 18.75c-.99 1.58-1.83 2.97-2.73 4.32-.14.21-.51.38-.78.39-1.51.04-3.02.02-4.82.02 1-1.6 1.89-3.03 2.81-4.44.12-.18.48-.27.72-.27 1.51-.03 3.02-.02 4.8-.02zM75.57 29.5c1.02-1.63 1.87-3.01 2.75-4.37.13-.19.43-.38.66-.38 1.58-.03 3.16-.02 4.95-.02-.99 1.57-1.85 2.99-2.76 4.37-.14.21-.52.37-.79.38-1.5.04-3.02.02-4.81.02zM90.04 29.49c1.04-1.65 1.93-3.09 2.86-4.5.11-.17.47-.25.72-.25 1.51-.02 3.02-.01 4.8-.01-1.02 1.61-1.94 3.07-2.88 4.52-.09.13-.33.23-.51.23-1.57.02-3.15.01-4.99.01zM86.6 23.47c.99-1.58 1.83-2.96 2.71-4.31.13-.2.43-.39.65-.39 1.57-.03 3.15-.02 4.97-.02-1 1.58-1.85 2.98-2.76 4.35-.14.21-.52.34-.79.35-1.5.04-3.01.02-4.78.02zM91.79.75c-1 1.6-1.85 2.98-2.74 4.33-.13.19-.45.36-.68.37-1.54.03-3.09.02-4.91.02 1.01-1.61 1.86-3.01 2.77-4.39.12-.18.46-.31.71-.31 1.51-.04 3.02-.02 4.85-.02zM90.69 5.46c.98-1.57 1.8-2.92 2.67-4.24.15-.23.49-.45.75-.45C95.65.73 97.2.75 99.02.75c-1.01 1.61-1.88 3.02-2.79 4.39-.12.18-.47.3-.72.31-1.51.02-3.02.01-4.82.01zM76.69 24.73c-.99 1.59-1.86 3-2.76 4.38-.13.19-.45.36-.68.37-1.54.03-3.08.02-4.92.02 1.02-1.62 1.9-3.05 2.82-4.46.1-.16.39-.28.6-.29 1.58-.03 3.15-.02 4.94-.02zM86.3 35.46c1.02-1.61 1.88-3.02 2.79-4.4.12-.18.47-.29.72-.29 1.51-.03 3.01-.01 4.82-.01-1.03 1.62-1.92 3.04-2.83 4.45-.09.14-.33.24-.51.24-1.57.02-3.15.01-4.99.01zM97.61 17.47c.99-1.58 1.86-2.99 2.76-4.38.11-.17.39-.31.59-.31 1.58-.03 3.16-.01 4.97-.01-1 1.6-1.87 3.01-2.77 4.4-.11.16-.39.3-.59.3-1.59.01-3.16 0-4.96 0zM39.48 51.85c2.07-3.77 2.83-4.14 7.11-3.52-.76 1.13-1.47 2.2-2.21 3.24-.11.16-.41.26-.62.26-1.37.03-2.75.02-4.28.02zM54.34 48.2c-.82 1.24-1.46 2.24-2.16 3.2-.16.22-.5.43-.77.44-1.38.04-2.76.02-4.36.02.8-1.21 1.45-2.24 2.16-3.23.15-.22.51-.4.78-.4 1.35-.06 2.7-.03 4.35-.03zM69.63 48.2c-.84 1.25-1.52 2.3-2.25 3.32-.13.18-.47.3-.72.31-1.35.03-2.7.01-4.34.01.84-1.24 1.55-2.32 2.29-3.38.1-.14.33-.25.5-.26h4.52zM36.02 56.88c.8-1.2 1.41-2.18 2.1-3.1.2-.27.62-.52.95-.53 1.31-.06 2.62-.02 4.24-.02-.86 1.27-1.59 2.37-2.36 3.45-.09.13-.35.19-.53.19-1.38.02-2.77.01-4.4.01zM50.99 53.23c-.86 1.28-1.57 2.35-2.32 3.4-.11.16-.41.24-.63.25-1.38.02-2.75.01-4.38.01.85-1.26 1.56-2.33 2.3-3.38.11-.16.4-.26.61-.26 1.38-.03 2.75-.02 4.42-.02zM66.27 53.23c-.83 1.24-1.46 2.25-2.17 3.2-.18.24-.58.42-.89.43-1.31.05-2.63.02-4.25.02.86-1.27 1.6-2.37 2.36-3.45.09-.13.35-.2.53-.2 1.38-.01 2.77 0 4.42 0zM51.34 56.88c.8-1.21 1.44-2.21 2.11-3.19.14-.2.42-.43.64-.44 1.42-.04 2.84-.02 4.52-.02-.83 1.25-1.51 2.31-2.24 3.33-.13.18-.48.3-.72.3-1.35.04-2.7.02-4.31.02zM61.99 48.19c-.86 1.28-1.54 2.34-2.27 3.36-.13.18-.48.28-.73.28-1.35.03-2.69.01-4.3.01.84-1.25 1.55-2.33 2.3-3.38.13-.18.48-.26.73-.27 1.31-.01 2.62 0 4.27 0zM53.34 38.28c-.7 1.05-1.29 1.99-1.95 2.88-.18.25-.57.46-.88.47-1.31.05-2.62.02-3.95.02.6-2.96 2.65-4 6.78-3.37zM61.07 38.14c-.82 1.22-1.48 2.24-2.19 3.23-.11.16-.41.26-.62.26-1.35.02-2.7.01-4.37.01.83-1.23 1.52-2.27 2.24-3.29.09-.13.34-.21.52-.21 1.38-.01 2.76 0 4.42 0zM68.73 38.13c-.82 1.22-1.46 2.21-2.15 3.17-.14.19-.46.33-.7.34-1.34.03-2.68.02-4.34.02.82-1.23 1.5-2.27 2.22-3.27.11-.15.41-.23.63-.23 1.35-.04 2.69-.03 4.34-.03zM76.39 38.13c-.82 1.22-1.46 2.21-2.14 3.17-.12.17-.39.32-.59.32-1.38.03-2.77.01-4.46.01.81-1.22 1.46-2.25 2.17-3.23.13-.18.48-.26.73-.27 1.32-.01 2.63 0 4.29 0zM50.07 43.18c-.81 1.2-1.45 2.19-2.14 3.14-.14.19-.47.33-.71.34-1.35.03-2.7.02-4.36.02.84-1.24 1.53-2.27 2.25-3.29.09-.13.35-.19.53-.19 1.38-.03 2.76-.02 4.43-.02zM57.72 43.17c-.82 1.22-1.46 2.21-2.14 3.17-.12.17-.4.3-.6.31-1.38.03-2.77.01-4.48.01.83-1.23 1.49-2.24 2.21-3.22.13-.18.48-.26.74-.26 1.31-.02 2.62-.01 4.27-.01zM58.16 46.67c.84-1.25 1.51-2.26 2.22-3.24.11-.15.41-.23.63-.23 1.35-.02 2.7-.01 4.34-.01-.82 1.21-1.5 2.25-2.22 3.27-.09.13-.34.21-.52.21h-4.45zM32.62 61.93c.82-1.2 1.46-2.19 2.15-3.14.14-.19.46-.35.7-.36 1.38-.03 2.75-.02 4.38-.02-.79 1.2-1.44 2.22-2.15 3.19-.15.2-.55.3-.83.31-1.32.03-2.62.02-4.25.02zM47.93 61.92c.81-1.19 1.45-2.17 2.13-3.13.12-.17.37-.35.57-.36 1.41-.03 2.81-.02 4.51-.02-.84 1.25-1.5 2.26-2.22 3.24-.13.17-.49.25-.74.25-1.3.04-2.61.02-4.25.02zM55.59 61.92c.8-1.19 1.41-2.15 2.08-3.07.16-.22.51-.42.78-.43 1.34-.04 2.68-.02 4.35-.02-.84 1.25-1.52 2.29-2.24 3.3-.11.15-.42.21-.64.21-1.35.02-2.69.01-4.33.01zM65.81 46.67c.82-1.23 1.44-2.19 2.11-3.12.14-.19.45-.35.69-.36 1.38-.03 2.76-.02 4.43-.02-.84 1.22-1.51 2.23-2.22 3.21-.12.16-.41.26-.62.27-1.36.03-2.7.02-4.39.02zM47.39 58.57c-.72 1.08-1.32 2.06-2.01 2.97-.17.23-.61.36-.93.37-1.27.04-2.55.02-3.83.02.56-2.92 2.8-4.07 6.77-3.36zM20.25 54.78c1.94 1.11 3.76 2.14 5.72 3.26-1.47.97-2.91 1.92-4.58 3.03-.4-2.18-.76-4.21-1.14-6.29z"/></svg>
