<svg xmlns="http://www.w3.org/2000/svg" viewBox="0 0 24.77 28.1" overflow="visible"><path d="M6.18 0h12.6l.09 8.24c.16 0 .32 0 .48.01.06-.9.12-1.8.17-2.72h2.06V9.67c2.85.42 3.17.79 3.17 3.6 0 2.06.03 4.12-.02 6.18-.02.73-.05 1.58-.42 2.14-.39.58-1.2.86-1.86 1.29.41 1.06.85 2.22 1.34 3.51h-2.52c.17.63.32 1.17.47 1.7H3.48c.17-.62.32-1.12.49-1.75H1.49c.46-1.3.88-2.47 1.33-3.73-1.43.16-2.2-.63-2.82-1.67v-9.52c.74-1.28 1.86-1.84 3.46-1.62V5.55h1.97c.07.95.14 1.83.21 2.7.18 0 .36-.01.54-.03V0zm.83.91V8.2h10.92V.91H7.01zm15.55 24.55c-.76-1.91-1.44-3.68-2.19-5.41-.11-.26-.58-.51-.89-.51-4.59-.03-9.17-.03-13.76-.01-.31 0-.8.14-.89.35-.73 1.81-1.39 3.65-2.1 5.58h19.83zM3.17 17v3.94c.41-.28.6-.61.68-.97.23-1 .76-1.34 1.83-1.32 4.63.07 9.26.05 13.9.01.89-.01 1.4.21 1.63 1.1.12.47.44.88.67 1.32.11-.04.21-.08.32-.12V17H3.17zm1.47 10.01c.05.1.11.2.16.31h15.72c.05-.1.1-.21.15-.31-.36-.21-.73-.6-1.09-.6-4.62-.04-9.25-.04-13.87 0-.37 0-.72.39-1.07.6zM14.7 12.95c-.89-1.12-3.33-1.14-4.24-.04 1.22.87 2.88.88 4.24.04z"/><path d="M12.38 24.29h8.32v.24h-8.35l.03-.24zM12.37 23.24h7.97v.23h-7.97v-.23z"/><ellipse cx="16.18" cy="22.51" rx="5.34" ry=".13"/><path d="M19.38 21.2h-6.95v-.15h6.95v.15zM19.19 20.58h-6.72v-.2h6.73c0 .06 0 .13-.01.2zM19.68 21.87h-7.26v-.16h7.25c.01.06.01.11.01.16z"/></svg>
