<svg xmlns="http://www.w3.org/2000/svg" viewBox="0 0 29.61 29.61" overflow="visible"><path d="M13.9 6c.03.04.04.08.08.11.1.1.22.18.35.24.14.06.29.1.45.1a1.14 1.14 0 1 0-1.04-.68c.03.08.1.15.16.23z"/><path d="M14.8 0C6.63 0 0 6.63 0 14.8s6.63 14.8 14.8 14.8c8.18 0 14.8-6.63 14.8-14.8S22.98 0 14.8 0zm-4.39 4.44a11.203 11.203 0 0 1 15.53 10.32c0 6.18-5.01 11.19-11.19 11.19S3.56 20.94 3.56 14.76c0-1.54.31-3 .87-4.33 1.14-2.7 3.29-4.85 5.98-5.99z"/><circle cx="5.31" cy="14.73" r="1.14"/><path d="M24.16 15.87a1.14 1.14 0 1 0 .001-2.279 1.14 1.14 0 0 0-.001 2.279zM14.79 23.03c-.48 0-.88.29-1.05.71-.06.13-.09.28-.09.43a1.14 1.14 0 1 0 1.14-1.14zM8.35 22.32l5.41-5.41a2.38 2.38 0 0 0 3.36-2.17c0-1.08-.73-1.99-1.72-2.28V7.54h-.02v-.03h-1.31v4.95c-.99.29-1.72 1.19-1.72 2.28 0 .45.13.87.35 1.23l-5.35 5.35 1 1zm4.62-7.57c0-.74.46-1.38 1.11-1.65v1.5l-.92.92c-.01-.03-.03-.05-.05-.08-.09-.21-.14-.45-.14-.69zm3.54-.01c0 .98-.79 1.78-1.78 1.78-.17 0-.34-.03-.5-.08l1.15-1.15v-.02h.02V13.1c.12.05.23.1.33.17.48.32.78.86.78 1.47z"/></svg>
